<svg width="226" height="180" viewBox="0 0 226 180" fill="none" xmlns="http://www.w3.org/2000/svg">
<path fill-rule="evenodd" clip-rule="evenodd" d="M53.1841 43.1688C53.4016 42.0844 53.8367 41 54.7068 41C56.0797 41 56.2952 41.8311 56.4719 42.5127C56.5892 42.9651 56.6894 43.3516 57.0997 43.3857C57.9856 43.4593 58.1136 44.537 58.2107 45.3541C58.2567 45.7408 58.2957 46.0692 58.4048 46.2052C58.8399 46.7474 58.8399 48.4825 58.7311 50.4344C58.6224 52.3864 56.9909 55.4227 56.3383 56.3987C55.8671 57.1034 55.7945 57.4831 55.6857 58.2422C55.6339 58.6038 55.3566 59.0275 54.9857 59.594C54.5182 60.3082 53.902 61.2494 53.4016 62.5799C52.9548 63.7677 52.7103 64.1759 52.5639 64.4203C52.4163 64.6667 52.3686 64.7464 52.314 65.2909C52.2659 65.7702 52.071 66.6309 51.8301 67.6949C51.5259 69.0383 51.1483 70.7059 50.9 72.3396C50.6034 74.2915 52.1704 76.9316 52.9665 77.6532C54.163 78.7376 56.8821 81.0149 58.5136 81.4487C58.7074 81.521 58.9875 81.6563 59.2 81.7589C59.3998 81.8553 59.5399 81.923 59.4925 81.8824C58.7315 81.2321 59.0377 80.7736 59.166 80.5814L59.1662 80.5811C59.1716 80.573 59.127 80.5379 59.0673 80.4909C58.9048 80.3631 58.6305 80.1474 58.9487 80.1474C59.0168 80.0116 59.145 80.0715 59.2471 80.1192C59.3081 80.1477 59.3597 80.1719 59.3837 80.1474C59.4187 80.1117 59.439 80.1281 59.4562 80.142C59.4686 80.152 59.4792 80.1606 59.4925 80.1474C59.3475 79.8943 58.9487 79.6052 58.6224 79.6052C58.4994 79.6052 58.2804 79.2834 58.0478 78.9415C57.9496 78.7973 57.8491 78.6495 57.7522 78.5208C57.4259 78.087 56.8821 77.4729 56.8821 77.6532C56.8821 77.7946 56.7259 77.9274 56.447 77.5448C56.3812 77.4544 56.3258 77.3835 56.2766 77.3205C56.2185 77.2461 56.1689 77.1827 56.1208 77.111C56.0958 77.0739 56.0419 77.0148 55.9798 76.9467C55.8208 76.7723 55.6075 76.5384 55.6857 76.4604C55.7945 76.3519 55.7945 76.2435 55.7945 76.135C55.7945 76.0907 55.7035 75.992 55.6035 75.8833C55.4588 75.7263 55.2951 75.5485 55.3594 75.4844C55.4479 75.3961 55.7901 75.6254 56.0598 75.8062L56.06 75.8063C56.1216 75.8476 56.1794 75.8863 56.2295 75.9182C57.3564 76.4799 58.7909 77.3985 59.6663 77.9591C59.8047 78.0478 59.9293 78.1275 60.0363 78.1954C60.6707 78.5979 63.7344 79.4967 64.2782 79.3883C64.9308 79.6052 65.6697 79.7487 66.236 79.8221C66.7254 79.7407 67.1101 79.7814 67.3504 79.8068C67.4305 79.8153 67.4946 79.8221 67.5412 79.8221C68.1502 79.8221 68.2663 80.1474 68.1938 80.2558C68.3025 80.1474 68.7593 79.8221 69.7165 79.8221C70.2407 79.8221 71.1696 79.757 72.0098 79.6981C72.7036 79.6495 73.3369 79.6052 73.632 79.6052C74.2846 79.6052 74.1759 79.8221 74.1759 79.8221C74.3934 79.6775 74.9155 79.6052 75.2635 79.6052C75.2848 79.6052 75.3141 79.5813 75.3521 79.5503C75.4758 79.4494 75.6919 79.2732 76.0249 79.6052C76.049 79.6292 76.1206 79.5761 76.2176 79.5042C76.4345 79.3435 76.7784 79.0887 77.0038 79.3883C77.9006 79.2381 78.984 79.0179 79.8823 78.8353C80.93 78.6224 81.726 78.4606 81.6807 78.5208C81.4684 78.803 78.6353 79.7136 77.0038 79.7136C76.8913 79.7403 76.8553 79.7555 76.8132 79.7732C76.7822 79.7862 76.7479 79.8006 76.6775 79.8221C76.6497 79.8305 76.6347 79.8482 76.6146 79.8719C76.5782 79.9147 76.5254 79.977 76.3512 80.0389C75.9161 79.8221 75.481 79.9305 75.2635 80.2558C75.481 80.3643 75.8073 80.4727 77.4143 80.1181C77.5972 80.0984 77.7805 80.0784 77.9592 80.0589C78.4283 80.0076 78.8655 79.9598 79.1791 79.9305C79.2782 79.9799 79.2984 80.0838 79.3167 80.1779C79.3385 80.2903 79.3577 80.3888 79.5054 80.3643C80.158 80.2558 80.7807 80.0817 81.3544 79.8221C81.2456 79.3883 81.7249 79.2938 81.8982 79.2798C81.9802 79.2732 81.7895 79.6052 81.6807 79.6052C81.5719 79.8221 81.4126 80.4881 81.4632 80.6896C81.7079 80.7709 81.7691 80.6693 81.8302 80.5676C81.8506 80.5337 81.871 80.4998 81.8982 80.4727C81.8982 80.4727 81.6807 80.2558 81.7895 80.0389C81.8982 79.8221 82.1158 79.8221 82.1158 79.8221L82.8771 79.4967L83.2034 79.1714C83.4403 79.0336 83.8061 78.9237 84.2307 78.7962C84.586 78.6895 84.9824 78.5704 85.3787 78.4123C85.7729 78.2551 86.1001 78.092 86.4109 77.937C86.7862 77.7499 87.1376 77.5747 87.554 77.4363C87.6768 77.3955 87.8207 77.3257 87.9634 77.2565C88.2684 77.1084 88.5676 76.9632 88.6417 77.111C88.7225 77.2722 88.755 77.2059 88.8198 77.0733C88.9112 76.8867 89.0667 76.5688 89.5118 76.5688C89.5733 76.5688 89.8479 76.4297 90.1626 76.2704C90.6127 76.0424 91.1448 75.773 91.2521 75.8097C91.3256 75.8349 91.3524 76.1102 91.0345 76.3519C90.8643 76.4814 90.6013 76.6021 90.3907 76.6988C90.1944 76.7889 90.0436 76.8581 90.0557 76.8941C90.2042 76.8486 90.436 76.7851 90.6961 76.7139C91.2613 76.5593 91.9605 76.368 92.231 76.2435C92.8837 75.9431 93.4206 75.5734 93.9806 75.1877C94.6338 74.7379 95.3184 74.2664 96.2553 73.8578C97.6475 73.2505 98.2131 73.9662 98.4306 74.4C98.5646 74.2855 100.062 73.5324 100.497 73.5324C100.692 73.5324 101.068 73.3568 101.393 73.2046C101.612 73.1024 101.808 73.0108 101.911 72.9902C103.061 72.761 103.488 72.9486 103.881 73.121C103.949 73.1509 104.017 73.1804 104.086 73.2071C104.086 73.2071 102.944 73.4782 101.476 74.0747C100.008 74.6711 98.8657 75.2675 98.8657 75.2675C98.541 75.4525 98.1422 75.8888 97.6693 76.4063C97.4028 76.6979 97.1127 77.0152 96.7991 77.3279C96.5881 77.5383 96.2047 77.8551 95.7621 78.2209C94.8089 79.0086 93.5812 80.0231 93.2099 80.6896C93.7537 80.6896 94.6238 80.5811 96.4728 79.2798C97.5869 78.4958 98.5113 77.5476 99.0404 77.0049C99.3219 76.7162 99.4916 76.5422 99.5183 76.5688C99.627 76.6772 97.168 79.3241 96.0378 80.3643C95.2295 81.1081 94.5717 81.5436 94.0704 81.8755C93.6947 82.1242 93.407 82.3147 93.2099 82.5331C93.1562 82.5925 93.1025 82.6517 93.0487 82.7105C93.2413 82.6659 93.4086 82.6415 93.5362 82.6415C94.0437 82.6415 95.2112 82.9452 95.8202 84.1597C96.5542 85.6233 97.3893 85.9783 98.1305 86.2934L98.1311 86.2936L98.2131 86.3285C98.9744 86.6539 100.419 87.5549 101.367 88.6058C101.851 89.1421 102.016 89.5989 102.138 89.9367C102.263 90.2819 102.343 90.5029 102.672 90.5578C103.037 90.6184 103.158 90.9919 103.28 91.3681C103.351 91.5875 103.422 91.8077 103.543 91.9675C103.869 92.4013 104.086 94.0279 104.195 95.5461C104.304 97.0642 103.325 99.7753 102.999 99.9922C102.801 100.124 102.602 100.696 102.428 101.198C102.316 101.522 102.214 101.816 102.129 101.944C101.911 102.269 101.15 103.896 101.15 104.113C101.15 104.276 100.966 104.621 100.783 104.967C100.721 105.082 100.66 105.197 100.606 105.306C100.432 105.653 100.171 106.679 100.062 107.149C99.9171 107.511 99.5835 108.299 99.4095 108.559C99.2355 108.819 99.4095 109.101 99.5183 109.21V111.162C99.5183 111.693 99.3613 112.382 99.227 112.971C99.0875 113.583 98.9724 114.087 99.0832 114.198C99.2092 114.324 99.5177 114.085 99.8606 113.821C100.11 113.628 100.377 113.422 100.606 113.33C100.927 113.202 101.742 113.074 102.557 112.946C103.122 112.857 103.686 112.769 104.086 112.68C105.065 112.463 107.676 112.029 108.22 112.029C108.32 112.029 108.48 112.007 108.676 111.98L108.677 111.98C109.544 111.859 111.128 111.639 111.482 112.788C111.872 114.05 110.344 114.443 109.473 114.667L109.407 114.684L109.365 114.695L109.337 114.703C109.288 114.716 109.241 114.728 109.198 114.74C108.718 114.877 106.509 115.315 104.697 115.675L104.697 115.675C103.634 115.886 102.708 116.07 102.346 116.15C101.68 116.298 101.568 116.797 101.461 117.272C101.411 117.495 101.363 117.712 101.259 117.885C100.932 118.427 100.823 120.054 100.932 121.138C101.041 122.223 101.476 124.934 105.935 124.392C109.503 123.958 110.177 121.753 110.069 120.704C110.069 120.596 109.822 120.596 108.763 120.596C107.349 120.596 106.262 120.379 105.609 119.945C104.718 119.353 104.521 118.536 104.521 118.319C104.521 118.244 104.483 118.195 104.437 118.137C104.348 118.025 104.233 117.878 104.304 117.451C104.391 116.931 104.812 116.945 104.957 117.017C105.065 116.801 105.413 116.302 106.371 116.042C107.328 115.781 109.307 115.861 110.177 115.933C112.099 115.969 116.355 116.063 118.008 116.15C120.075 116.258 123.229 116.475 125.187 117.451C127.145 118.427 126.275 119.403 125.513 120.054C126.275 120.596 126.492 121.68 124.317 122.114C123.157 122.345 122.028 121.868 121.243 121.536C120.556 121.245 120.133 121.066 120.184 121.572C120.259 122.325 120.504 122.724 120.662 122.982L120.663 122.982L120.67 122.994C120.68 123.011 120.691 123.028 120.7 123.044L120.707 123.055L120.716 123.07L120.723 123.082L120.728 123.09C121.199 123.741 122.794 124.999 125.405 124.825C128.313 124.632 128.197 121.767 128.137 120.302L128.137 120.302L128.137 120.301L128.137 120.3C128.13 120.123 128.124 119.966 128.124 119.837C128.124 118.644 127.906 117.885 127.58 116.801C127.293 115.848 126.923 115.732 126.174 115.498L126.174 115.498C126.07 115.465 125.959 115.43 125.84 115.391C125.056 115.131 123.265 114.849 122.468 114.74C121.779 114.776 120.184 114.719 119.314 114.198C118.226 113.547 118.552 112.788 118.987 112.138C119.386 111.541 120.882 111.856 121.548 111.996L121.548 111.996L121.613 112.01C121.647 112.017 121.678 112.024 121.706 112.029C122.25 112.138 124.861 112.246 125.84 112.246C126.818 112.246 128.776 112.68 129.646 112.897C130.145 113.021 130.893 113.572 131.585 114.082C132.1 114.462 132.584 114.818 132.909 114.957C133.518 115.217 134.468 116.728 134.867 117.451C134.722 116.909 134.432 115.803 134.432 115.716C134.432 115.608 133.888 114.849 133.671 114.632C133.562 114.523 133.453 114.252 133.344 113.981C133.236 113.71 133.127 113.439 133.018 113.33C132.801 113.114 132.474 112.029 132.474 111.704C132.474 111.566 132.435 111.428 132.398 111.298C132.348 111.122 132.303 110.961 132.366 110.836C132.447 110.673 132.961 111.37 133.256 111.771L133.256 111.772L133.257 111.772C133.353 111.903 133.426 112.002 133.453 112.029C133.54 112.116 133.562 111.704 133.562 111.487C133.489 111.162 133.323 110.424 133.236 110.077C133.127 109.643 133.127 109.494 133.236 109.643C133.344 109.793 133.671 109.427 133.562 109.427C133.453 109.427 133.127 109.21 133.127 108.993C133.127 108.776 132.909 108.125 132.692 107.583C132.518 107.149 132.402 106.707 132.366 106.539L132.909 107.149C132.837 106.824 132.67 106.108 132.583 105.848C132.496 105.588 132.184 104.221 132.039 103.571C132.112 104.077 132.257 105.132 132.257 105.306C132.257 105.366 132.274 105.495 132.294 105.644L132.294 105.645L132.294 105.646C132.345 106.029 132.413 106.546 132.257 106.39C132.039 106.173 132.039 105.631 132.039 105.414C132.039 105.241 131.387 104.185 131.06 103.679C131.278 104.149 131.735 105.132 131.822 105.306C131.862 105.386 131.858 105.568 131.853 105.788C131.844 106.167 131.833 106.658 132.039 106.932C132.244 107.204 132.32 107.689 132.375 108.039C132.408 108.249 132.434 108.41 132.474 108.451C132.561 108.537 132.801 108.921 132.909 109.101C132.982 109.463 133.127 110.251 133.127 110.511C133.127 110.679 133.214 110.993 133.284 111.242L133.284 111.242C133.348 111.473 133.397 111.648 133.344 111.595C133.236 111.487 132.801 110.619 132.801 110.294C132.801 110.095 132.678 109.814 132.558 109.539C132.482 109.366 132.408 109.194 132.366 109.047C132.279 108.743 131.749 107.8 131.495 107.366C131.604 107.583 131.822 108.06 131.822 108.234C131.822 108.407 132.184 109.463 132.366 109.969C132.257 109.824 131.996 109.383 131.822 108.776C131.735 108.475 131.546 107.986 131.363 107.512C131.085 106.792 130.82 106.108 130.952 106.173C131.126 106.26 131.387 106.788 131.495 107.041V106.499L131.169 105.848C131.082 105.675 130.77 105.197 130.625 104.98L131.06 105.414C131.097 105.378 131.147 105.219 131.06 104.872C130.973 104.525 130.734 103.498 130.625 103.029C130.589 103.173 130.473 103.3 130.299 102.649C130.125 101.998 129.719 101.474 129.538 101.293C129.501 101.583 129.451 102.204 129.538 102.378L129.973 103.245V103.788L129.211 103.029V103.354C129.284 103.426 129.516 103.636 129.864 103.896C130.212 104.156 130.444 104.944 130.516 105.306C130.371 105.161 130.081 104.829 130.081 104.655C130.081 104.482 129.646 104.221 129.429 104.113C129.429 104.294 129.451 104.699 129.538 104.872C129.625 105.046 130.081 106.029 130.299 106.499C129.755 105.884 128.559 104.503 128.124 103.896L128.103 103.868L128.094 103.854L128.06 103.808L128.008 103.736C127.423 102.929 126.312 101.397 125.296 98.2571C124.208 94.8954 126.015 91.7924 126.601 91.2084C126.927 90.8831 127.326 90.6662 127.58 90.7746C127.615 90.7284 127.687 90.6585 127.776 90.5734L127.776 90.5729C127.964 90.3921 128.223 90.1429 128.341 89.9071C128.504 89.5818 129.157 89.3785 129.565 89.2514C129.701 89.209 129.81 89.1751 129.864 89.148C130.037 89.0618 130.004 89.1814 129.928 89.4521C129.908 89.5218 129.886 89.6015 129.864 89.6902C129.777 90.0372 128.813 91.0638 128.341 91.5337C128.631 91.3168 129.255 90.8397 129.429 90.6662C129.603 90.4927 130.589 89.5818 131.06 89.148C130.952 89.3649 130.669 89.9071 130.408 90.3409C130.299 90.5216 130.118 90.7626 129.936 91.0036C129.574 91.4855 129.211 91.9675 129.429 91.9675C129.631 91.9675 130.294 91.0488 130.873 90.248L130.873 90.2477C131.226 89.7581 131.548 89.3126 131.713 89.148C131.894 88.9678 132.059 88.686 132.223 88.407C132.505 87.9259 132.783 87.4528 133.127 87.5214C133.451 87.5861 133.544 87.4963 133.889 87.1598C134.122 86.9325 134.471 86.5926 135.085 86.1117C136.585 84.9362 138.275 85.2803 139 85.6779C139.158 85.5991 139.385 85.4059 139.698 85.1397L139.698 85.1395C139.815 85.0394 139.945 84.9289 140.088 84.8104C140.61 84.3766 139.653 83.1837 139 82.6415C139.06 82.689 139.179 82.7707 139.364 82.8837C138.796 82.4681 137.928 81.8662 137.477 81.5571C137.129 81.5571 137.115 81.2679 137.151 81.1234C137.26 81.1234 137.477 81.0583 137.477 80.798C137.477 80.5378 136.172 78.593 135.52 77.6532L136.934 80.4727C136.752 80.3281 136.346 79.9739 136.172 79.7136C135.998 79.4534 135.302 78.1593 134.976 77.5448C135.048 77.6894 135.237 78.087 135.411 78.5208C135.585 78.9545 135.991 80.9426 136.172 81.8824C136.027 81.4848 135.715 80.5595 135.628 80.0389C135.541 79.5184 134.505 78.3039 133.997 77.7617L135.135 80.1191C134.674 79.2791 133.78 78.0418 132.474 77.2195C133.671 77.9785 133.997 79.4967 133.997 80.2558C133.997 81.0149 133.127 81.1234 132.257 81.1234C131.681 81.1234 131.296 80.6966 131.007 80.3762C130.859 80.212 130.736 80.0757 130.625 80.0389C130.548 80.0133 130.471 79.9817 130.39 79.9483C130.127 79.8402 129.819 79.7136 129.32 79.7136C128.798 79.7136 128.087 78.7738 127.797 78.3039C127.942 78.4123 128.276 78.6509 128.45 78.7376C128.667 78.8461 128.667 78.5208 128.45 78.4123C128.372 78.3734 128.294 78.3066 128.201 78.227C128.034 78.0845 127.82 77.9008 127.471 77.7617C127.104 77.6154 127.183 77.5678 127.373 77.4525C127.465 77.3968 127.582 77.3254 127.689 77.2195C128.037 77.2195 128.051 77.364 128.015 77.4363L129.103 77.7617C128.921 77.6532 128.537 77.393 128.45 77.2195C128.385 77.0893 128.319 77.0763 128.254 77.0633C128.211 77.0546 128.167 77.0459 128.124 77.0026C128.015 76.8941 127.145 76.6772 127.036 76.7857C126.927 76.8941 126.383 76.2435 126.601 75.8097C126.733 75.5458 126.543 75.5227 126.326 75.4963C126.185 75.4793 126.033 75.4609 125.948 75.376C125.774 75.2024 125.441 75.0868 125.296 75.0506V75.376C125.187 75.3037 124.839 75.1374 124.317 75.0506C123.904 74.9821 123.883 74.7401 123.868 74.5714C123.859 74.4733 123.853 74.4 123.773 74.4C123.599 74.4 123.12 74.3277 122.903 74.2915C122.794 74.3277 122.577 74.4434 122.577 74.6169V74.9422C122.504 74.9783 122.337 75.0723 122.25 75.1591L122.033 75.376C121.997 75.2675 121.946 75.0289 122.033 74.9422L121.924 75.0506L121.598 74.7253L122.033 74.2915C121.924 74.2192 121.663 74.0747 121.489 74.0747C121.399 74.0747 121.271 74.0374 121.122 73.9938C120.911 73.9322 120.656 73.8578 120.401 73.8578H119.749L119.857 74.1831C119.966 74.2554 120.227 74.4 120.401 74.4C120.541 74.4 120.546 74.4444 120.561 74.5619C120.569 74.6278 120.58 74.7168 120.619 74.8337C120.706 75.094 120.51 75.5567 120.401 75.4844C120.256 75.4482 119.966 75.0289 119.966 74.9422C119.966 74.8554 119.676 74.6892 119.531 74.6169C119.495 74.5446 119.422 74.3783 119.422 74.2915C119.422 74.2554 119.434 74.2192 119.447 74.1831C119.471 74.1108 119.495 74.0385 119.422 73.9662C119.365 73.9093 119.278 73.942 119.161 73.9859C119.055 74.0257 118.925 74.0747 118.77 74.0747H115.289C115.072 74.0747 115.724 74.2915 115.942 74.2915H116.703C116.979 74.2915 117.08 74.2915 117.173 74.3193C117.226 74.3352 117.276 74.3604 117.356 74.4C117.393 74.4186 117.427 74.4372 117.46 74.4552C117.62 74.5424 117.757 74.6169 118.117 74.6169H118.552L119.531 75.0506C119.422 75.0868 119.118 75.1374 118.77 75.0506C118.552 74.9964 118.471 74.9964 118.376 74.9964C118.28 74.9964 118.172 74.9964 117.9 74.9422C117.356 74.8337 117.247 74.9422 117.138 75.0506C117.051 75.1374 116.304 75.0145 115.942 74.9422C115.326 75.0145 113.68 75.1157 112.026 74.9422C110.495 74.7815 108.427 75.097 106.706 75.3594C106.104 75.4513 105.545 75.5366 105.065 75.5928C103.586 75.7663 101.186 76.4604 100.171 76.7857C100.352 76.605 100.606 76.2001 100.171 76.0266C99.7358 75.8531 99.1195 75.8097 98.8657 75.8097C99.4458 75.7013 100.823 75.4627 101.694 75.376C102.781 75.2675 103.978 74.7253 103.543 74.6169C103.195 74.5301 100.932 74.9422 99.8446 75.1591C100.098 74.9783 100.889 74.5518 102.02 74.2915C102.418 74.1999 102.764 74.1083 103.083 74.024C103.897 73.8088 104.532 73.6409 105.392 73.6409C106.202 73.6409 106.015 73.4918 105.809 73.3281C105.711 73.2501 105.609 73.1687 105.609 73.0987C105.41 72.9995 105.257 72.991 105.055 72.9799C104.816 72.9668 104.509 72.9499 103.978 72.7734C103.907 72.4897 103.51 72.4379 103.031 72.3754C102.777 72.3423 102.501 72.3062 102.237 72.2311C101.505 72.1648 101.466 72.2202 101.445 72.2484C101.432 72.2663 101.427 72.2732 101.259 72.2311C100.823 72.1227 102.02 71.2552 102.89 71.0383C103.5 70.8861 103.897 71.0542 104.342 71.243C104.531 71.3233 104.729 71.4073 104.957 71.4721C105.718 71.6889 105.609 71.2552 104.957 71.0383C104.797 70.9852 104.644 70.9451 104.51 70.9101C104.096 70.8019 103.867 70.7418 104.195 70.4961C104.63 70.1708 105.935 69.737 106.371 69.6286C106.806 69.5201 107.132 69.737 107.132 70.0623C107.132 70.2619 107.418 70.0533 107.715 69.8372C107.902 69.7011 108.093 69.562 108.22 69.5201C108.546 69.4116 109.525 69.0863 109.96 68.9779C110.278 68.8986 110.944 68.9353 111.408 68.9607C111.578 68.9701 111.721 68.9779 111.809 68.9779C111.992 68.9779 112.278 68.7727 112.609 68.5352C112.868 68.3497 113.154 68.1446 113.44 68.0019C113.881 67.7822 114.173 67.8593 114.45 67.9325C114.583 67.9677 114.713 68.0019 114.854 68.0019C115.109 68.0019 115.476 67.9275 115.78 67.8659C115.995 67.8223 116.178 67.785 116.268 67.785H117.247C117.421 67.785 117.734 67.7156 118.11 67.6324L118.11 67.6323L118.111 67.6323C118.674 67.5074 119.379 67.3513 119.966 67.3513C120.945 67.3513 122.577 67.6766 123.991 68.3273C124.96 68.7733 125.214 68.7607 125.558 68.7436C125.715 68.7357 125.892 68.7269 126.166 68.761C126.503 68.8031 126.759 68.7962 126.952 68.791C127.256 68.7828 127.404 68.7788 127.471 68.9779C127.535 69.1693 127.938 69.3607 128.48 69.6184C128.86 69.7987 129.307 70.0114 129.755 70.2792C130.058 70.4603 130.226 70.5825 130.339 70.6647L130.339 70.6649C130.43 70.7316 130.486 70.7719 130.547 70.7957C130.641 70.8321 130.75 70.8303 131.025 70.8258C131.145 70.8239 131.298 70.8214 131.495 70.8214C132.351 70.8214 133.815 71.7542 134.967 72.4881C135.572 72.8732 136.09 73.2036 136.39 73.3156C136.906 73.5085 137.116 73.4726 137.474 73.4114C137.719 73.3694 138.034 73.3156 138.565 73.3156C139.609 73.3156 140.958 74.1831 141.502 74.6169C141.756 74.4361 142.415 74.1831 143.025 74.6169C143.634 75.0506 143.133 75.3037 142.807 75.376L143.895 75.8097C143.713 75.629 143.351 75.1808 143.351 74.8337C143.351 74.4 144.982 74.7253 145.526 75.0506C145.836 75.2362 146.182 75.2453 146.704 75.2592C147.097 75.2697 147.591 75.2828 148.245 75.376C149.41 75.5418 148.92 75.7077 148.431 75.8735C148.281 75.9246 148.13 75.9756 148.028 76.0266C147.863 76.109 147.666 76.1757 147.515 76.2268C147.27 76.3102 147.147 76.3519 147.484 76.3519H150.747C151.227 76.3519 151.347 76.3519 151.35 76.3705C151.351 76.3767 151.339 76.385 151.323 76.3961C151.278 76.427 151.201 76.4795 151.291 76.5688C151.432 76.7095 151.481 76.6676 151.677 76.5024L151.677 76.5023C151.783 76.4128 151.932 76.2873 152.161 76.135C152.688 75.7845 152.789 75.8589 152.924 75.9576C152.956 75.981 152.989 76.0058 153.031 76.0266C153.188 76.1047 153.401 76.0141 153.63 75.9167C153.718 75.8789 153.81 75.8401 153.901 75.8097C154.064 75.7555 154.309 75.8368 154.594 75.9317C154.88 76.0266 155.206 76.135 155.533 76.135C156.01 76.135 156.08 76.0188 156.168 75.8714C156.201 75.8175 156.236 75.7594 156.294 75.7013C156.406 75.5892 156.548 75.6219 156.733 75.6647C156.907 75.7047 157.119 75.7537 157.382 75.7013C157.925 75.5928 158.143 75.7013 158.252 76.135C158.354 76.5437 158.264 76.6636 157.98 77.039L157.977 77.0421L157.977 77.0427L157.961 77.0643L157.925 77.111C157.599 77.5448 156.511 77.6532 155.75 77.6532H153.575C153.285 77.6532 153.333 77.7496 153.333 77.7496C153.333 77.7496 153.321 77.7255 153.249 77.6532C153.031 77.4363 152.705 78.087 152.922 78.3039C153.101 78.4823 153.428 78.3671 153.901 78.1998C154.003 78.1638 154.112 78.1254 154.227 78.087C154.88 77.8701 155.315 77.9785 155.75 78.087C156.04 78.1593 156.427 78.1352 156.814 78.1111C157.007 78.099 157.2 78.087 157.382 78.087C157.925 78.087 157.708 78.4123 157.382 78.5208C157.189 78.5849 156.919 78.5352 156.642 78.4839C156.45 78.4485 156.254 78.4123 156.076 78.4123C155.856 78.4123 155.831 78.551 155.804 78.7022C155.777 78.8498 155.748 79.0094 155.533 79.063C155.393 79.0979 155.298 79.1328 155.222 79.1604C155.064 79.2187 154.992 79.2449 154.771 79.1714C154.628 79.1239 154.506 79.0972 154.396 79.073C154.254 79.0421 154.132 79.0154 154.01 78.9545C153.916 78.9075 153.883 78.942 153.822 79.005C153.744 79.0874 153.618 79.2184 153.249 79.2798L153.198 79.2883L153.072 79.3095C152.807 79.3545 152.714 79.3701 152.627 79.3563C152.58 79.349 152.535 79.3334 152.465 79.3094L152.465 79.3092C152.439 79.3005 152.411 79.2907 152.378 79.2798C152.052 79.1714 151.291 79.1714 150.747 79.1714C150.387 79.1714 150.265 79.0287 150.129 78.8693C150.06 78.7881 149.987 78.7024 149.877 78.6292C149.735 78.5347 149.716 78.5843 149.678 78.6883C149.628 78.823 149.545 79.049 149.115 79.1714C148.668 79.2987 148.634 79.2766 148.571 79.2365C148.527 79.2084 148.47 79.1714 148.245 79.1714C147.701 79.1714 147.484 78.9545 147.266 78.6292C147.049 78.3039 146.396 78.4123 146.94 78.9545C147.324 79.3369 147.058 79.3417 146.639 79.3494C146.464 79.3526 146.262 79.3563 146.07 79.3883C145.64 79.4597 145.399 79.2958 145.222 79.1756C145.131 79.1134 145.057 79.063 144.982 79.063C144.765 79.063 144.547 79.2798 144.547 79.7136C144.547 79.964 144.62 79.9253 144.765 79.8478C144.871 79.7911 145.016 79.7136 145.2 79.7136C145.366 79.7136 145.453 79.6978 145.527 79.6843C145.647 79.6624 145.734 79.6466 146.07 79.7136C146.272 79.7539 146.444 79.7642 146.58 79.7725C146.811 79.7864 146.94 79.7941 146.94 79.9305C146.94 80.084 147.213 80.1289 147.526 80.1805C147.656 80.2017 147.792 80.2242 147.919 80.2558C148.179 80.3205 148.206 80.308 148.301 80.2644C148.365 80.2349 148.461 80.1911 148.68 80.1474C148.994 80.0848 149.018 80.1306 149.066 80.2223C149.101 80.2894 149.149 80.381 149.333 80.4727C149.768 80.6896 150.094 80.4727 150.421 80.2558C150.653 80.1013 150.996 80.1119 151.606 80.1308C151.853 80.1384 152.143 80.1474 152.487 80.1474C153.2 80.1474 153.257 80.1474 153.301 80.1244C153.303 80.1233 153.305 80.1221 153.307 80.1209L153.312 80.118C153.34 80.102 153.383 80.0772 153.575 80.0389C153.967 79.9607 154.189 80.1645 154.365 80.3248C154.432 80.3869 154.493 80.4425 154.554 80.4727C154.771 80.5811 154.88 80.4727 155.098 80.1474C155.259 79.9058 155.541 79.9632 155.764 80.0088C155.841 80.0246 155.912 80.0389 155.968 80.0389C156.142 80.0389 156.403 80.3281 156.511 80.4727H155.75C155.571 80.4727 155.391 80.5713 155.229 80.66C155.098 80.7323 154.978 80.798 154.88 80.798C154.789 80.798 154.755 80.7602 154.723 80.7241C154.677 80.6736 154.635 80.6264 154.445 80.6896C154.119 80.798 153.901 80.798 153.575 80.798C153.249 80.798 153.031 80.798 152.705 81.0149C152.472 81.1698 152.35 81.1588 152.14 81.1398C152.057 81.1322 151.959 81.1234 151.835 81.1234C151.769 81.1234 151.66 81.1209 151.526 81.1178H151.525C150.772 81.1004 149.198 81.0643 149.659 81.3402C150.159 81.6392 150.291 81.5718 150.647 81.3906L150.649 81.3895C150.67 81.3789 150.692 81.3679 150.714 81.3565L150.737 81.3454L150.747 81.3402C151.008 81.2101 151.386 81.3142 151.765 81.4183C152.017 81.4877 152.27 81.5571 152.487 81.5571C152.66 81.5571 152.821 81.5353 152.965 81.5158C153.274 81.4741 153.501 81.4435 153.575 81.6656C153.684 81.9909 153.466 82.0993 153.249 82.0993C153.031 82.0993 151.617 82.4246 151.291 82.5331C150.964 82.6415 149.659 82.5331 148.68 82.4246C147.897 82.3379 146.034 82.1716 145.2 82.0993C145.454 82.1716 146.266 82.3596 147.484 82.5331C147.969 82.6021 148.332 82.6492 148.634 82.6883L148.634 82.6883L148.636 82.6886C149.281 82.7721 149.645 82.8192 150.312 82.9669C151.084 83.1379 151.315 82.9716 151.645 82.7342L151.645 82.734L151.645 82.7338L151.645 82.7337C151.734 82.6702 151.829 82.6016 151.943 82.5331C152.487 82.2078 152.813 82.3162 153.031 82.5331C153.249 82.75 153.792 82.8584 154.227 82.75C154.575 82.6632 154.59 83.1476 154.554 83.4006C154.735 83.3283 155.185 83.1187 155.533 82.8584C155.775 82.6774 156.084 82.7314 156.349 82.7776C156.559 82.8144 156.741 82.8462 156.838 82.75C156.983 82.6054 157.128 82.6536 157.273 82.7018C157.345 82.7259 157.418 82.75 157.49 82.75C157.546 82.75 157.652 82.7642 157.782 82.7818C158.16 82.8327 158.743 82.9112 158.904 82.75C159.06 82.5951 159.215 82.7168 159.37 82.8385C159.433 82.8872 159.495 82.9359 159.557 82.9669C159.691 83.0339 159.743 82.9352 159.814 82.7989C159.858 82.7146 159.909 82.6159 159.992 82.5331C160.126 82.3991 160.302 82.4307 160.546 82.4744C160.696 82.5014 160.872 82.5331 161.08 82.5331C161.455 82.5331 161.727 82.326 161.895 82.198C161.971 82.1407 162.025 82.0993 162.059 82.0993H162.82C163.146 81.9547 163.973 81.6656 164.669 81.6656C165.312 81.6656 165.598 81.3104 165.748 81.1249C165.801 81.0593 165.837 81.0149 165.865 81.0149H166.627C166.844 81.0149 167.171 80.9065 167.388 80.798C167.562 80.7113 167.751 80.3281 167.823 80.1474L167.932 80.4727H168.258L168.476 80.0389C168.657 80.0751 169.063 80.104 169.237 79.9305C169.411 79.757 169.962 79.2798 170.216 79.063H170.76C171.017 79.063 171.014 78.7824 170.979 78.6358C171.029 78.8073 171.634 78.6933 173.696 76.8941C176.125 74.7751 175.541 71.5294 175.273 70.0401C175.253 69.9289 175.234 69.8274 175.219 69.737C175.002 68.4357 171.739 61.9292 170.216 60.3026C168.998 59.0013 166.083 52.2418 164.778 49.0247C164.886 49.1331 165.169 49.4367 165.43 49.7838C165.691 50.1308 166.772 52.0249 167.279 52.9286C166.699 51.6273 165.409 48.8295 164.886 48.0487C164.234 47.0727 164.234 45.8799 164.56 45.4461C164.886 45.0123 164.995 45.0123 166.3 48.2656C167.299 50.7551 168.842 52.9138 169.577 53.7927C168.769 52.8024 167.366 50.1332 166.945 48.9282C167.264 49.5319 168.197 50.8075 168.955 51.8439C169.353 52.3873 169.702 52.8649 169.89 53.1454C170.412 53.9262 173.66 57.953 175.219 59.8688C175.074 59.5796 174.828 58.9796 175.002 58.8928C175.133 58.8274 175.145 58.6831 175.159 58.5312C175.167 58.4314 175.176 58.3282 175.219 58.2422C175.328 58.0253 171.956 53.7961 171.086 52.7117C170.39 51.8442 168.838 48.8801 168.149 47.5065C169.31 49.097 171.652 52.3647 171.739 52.7117C171.807 52.9842 174.065 55.997 176.139 58.7636L176.14 58.7641L176.14 58.7646L176.141 58.7656C177.367 60.4013 178.529 61.9507 179.135 62.7967C180.766 65.074 182.724 68.8695 182.942 70.713C183.159 72.5565 182.833 74.6169 180.875 77.6532C179.309 80.0823 175.654 81.9186 174.023 82.5331C173.841 82.7861 173.414 83.3139 173.153 83.4006C172.826 83.5091 172.5 83.9428 172.391 84.1597C172.283 84.3766 169.563 85.461 169.02 85.461C168.714 85.461 168.512 85.5634 168.259 85.6917C168.06 85.7919 167.831 85.908 167.497 86.0032C167.388 86.3285 165.974 86.8707 164.995 87.1961C164.932 87.2172 164.858 87.2421 164.775 87.2702L164.775 87.2703C163.582 87.6741 160.406 88.7496 155.424 89.2565C150.87 89.7198 149.095 89.1538 148.336 88.9116C148.207 88.8703 148.107 88.8385 148.028 88.8227C147.484 88.7143 145.309 88.3889 144.112 88.2805C144.016 88.2717 143.91 88.2341 143.797 88.172C143.849 88.5857 143.845 88.931 143.786 89.148C143.46 90.3409 142.698 91.5337 141.067 93.7026C140.263 94.7708 140.311 95.4052 140.363 96.0944C140.392 96.4804 140.423 96.8835 140.305 97.3896C139.979 98.7993 141.712 105.745 141.937 106.539C142.263 107.692 143.133 112.463 143.242 115.282C143.049 114.769 143.031 114.749 143.013 114.729C143 114.715 142.987 114.7 142.916 114.523C142.742 114.09 142.553 112.969 142.481 112.463C142.517 112.897 142.568 113.829 142.481 114.09C142.425 114.256 142.512 114.451 142.625 114.704C142.732 114.945 142.863 115.238 142.916 115.608C142.962 115.93 143.01 116.355 143.069 116.872L143.069 116.873L143.07 116.875C143.142 117.512 143.231 118.289 143.351 119.186C143.568 120.813 142.912 123.862 142.481 125.151C142.356 125.524 142.303 126.039 142.239 126.657L142.239 126.657C142.192 127.116 142.138 127.632 142.046 128.187C141.795 129.688 141.284 131.549 139.435 131.657C137.956 131.744 137.26 129.597 137.26 128.621C137.234 128.66 137.206 128.748 137.174 128.852C137.117 129.035 137.045 129.269 136.934 129.38C136.83 129.483 136.899 129.76 136.965 130.021C137.037 130.306 137.104 130.573 136.934 130.573C136.691 130.573 136.624 130.948 136.582 131.181C136.556 131.324 136.54 131.414 136.499 131.332C136.449 131.233 136.4 131.023 136.35 130.812C136.291 130.559 136.232 130.306 136.172 130.247C136.085 130.161 135.991 129.488 135.955 129.163C135.846 129.199 135.65 129.315 135.737 129.488C135.824 129.662 135.919 130.862 135.955 131.44C135.919 131.332 135.824 131.006 135.737 130.573C135.65 130.139 135.411 129.669 135.302 129.488C135.235 129.533 135.158 129.592 135.068 129.661C134.723 129.925 134.184 130.337 133.236 130.681C131.955 131.145 129.973 131.332 128.341 131.332C127.826 131.332 127.235 131.343 126.613 131.354C125.264 131.379 123.768 131.406 122.577 131.332C121.676 131.276 120.311 130.984 119.141 130.734C118.192 130.531 117.371 130.356 117.03 130.356C116.522 130.356 115.338 130.452 114.155 130.548L114.154 130.549L114.154 130.549L114.153 130.549C113.561 130.597 112.969 130.645 112.461 130.681C111.355 130.76 107.458 130.79 106.479 130.681C105.594 130.583 104.263 130.662 102.649 130.759C102.479 130.769 102.305 130.779 102.129 130.79C100.649 130.876 99.192 130.537 98.6481 130.356C98.7207 130.862 98.7569 131.787 98.7569 132.308C98.7569 132.408 98.7751 132.568 98.7978 132.768C98.9221 133.863 99.1822 136.153 97.343 136.429C95.5219 136.701 94.9204 135.681 94.6452 135.215L94.6451 135.214C94.5916 135.124 94.5504 135.054 94.515 135.019C94.1979 134.703 94.1888 136.429 94.2975 136.862C94.4063 137.296 93.8259 136.591 93.6449 136.32C93.4274 135.995 93.2099 135.561 93.0603 135.263C92.9108 134.965 92.8292 134.802 92.8836 135.019C92.9706 135.366 93.1373 136.175 93.2099 136.537C92.9198 136.103 92.3397 135.192 92.3397 135.019C92.3397 134.919 92.1805 134.662 91.9867 134.35C91.7576 133.98 91.4802 133.532 91.3608 133.175L91.341 133.116C91.3304 133.084 91.3198 133.053 91.3094 133.022L91.263 132.885C90.9907 132.08 90.8058 131.534 90.7082 130.464C90.682 130.176 90.605 129.863 90.5078 129.468C90.2028 128.226 89.6994 126.178 89.9469 121.572C90.2624 115.701 90.2036 115.545 89.7994 114.474C89.7176 114.257 89.6217 114.003 89.5118 113.656C88.9398 111.85 89.1855 109.427 89.7294 105.74C90.1644 102.79 91.0708 99.4861 91.4696 98.1487C91.2883 97.751 90.8823 96.8474 90.7082 96.4136C90.4907 95.8714 89.63 93.6984 89.7294 92.5097C89.8083 91.5649 89.7726 89.9914 89.7471 88.8681L89.7471 88.8671C89.7375 88.4436 89.7294 88.0842 89.7294 87.8467C89.7294 87.3651 89.83 86.8499 89.9008 86.487C89.9576 86.1963 89.9953 86.0032 89.9469 86.0032C89.9164 86.0032 89.8944 86.0118 89.869 86.0217C89.8038 86.047 89.716 86.0812 89.4031 86.0032C89.2457 85.964 89.2164 85.8538 89.2689 85.688L88.2066 86.1117C87.6628 86.3285 87.2277 86.6539 87.2277 86.6539C87.2293 86.6587 87.2309 86.6636 87.2326 86.6687C87.2679 86.779 87.3238 86.9537 87.9891 86.8707C88.283 86.8341 88.445 86.7125 88.616 86.5841C88.8501 86.4084 89.1009 86.2201 89.7294 86.2201C89.7018 86.2705 89.6707 86.329 89.6362 86.3942C89.398 86.8428 88.994 87.6039 88.4241 88.1721C87.9756 88.6192 87.0102 89.5818 86.0313 90.124C85.0524 90.6662 82.8771 91.1 82.4421 91.1C82.2867 91.1 82.0878 91.1775 81.8523 91.2693C81.4284 91.4346 80.886 91.646 80.2667 91.5337C79.0703 91.3168 77.9827 91.5337 77.8739 91.6422C77.8014 91.5337 77.6564 91.4253 77.2213 91.4253C76.8801 91.4253 76.539 91.4846 76.2134 91.5411C75.9161 91.5928 75.6318 91.6422 75.3723 91.6422C75.147 91.6422 74.5112 91.605 73.7663 91.5614C72.7129 91.4997 71.4413 91.4253 70.8041 91.4253C70.4053 91.3891 69.4772 91.3385 68.9551 91.4253C68.4344 91.5118 68.3984 91.3912 68.3499 91.2288C68.3376 91.1877 68.3245 91.1438 68.3025 91.1C68.2225 90.9403 67.9067 90.9569 67.5287 90.9768C67.3932 90.984 67.2496 90.9915 67.1061 90.9915C66.8466 90.9915 66.7109 90.9421 66.569 90.8905C66.4136 90.8339 66.2508 90.7746 65.9097 90.7746C65.4959 90.7746 65.4319 90.7311 65.3851 90.6992C65.358 90.6807 65.3367 90.6662 65.2571 90.6662C65.0395 90.6662 64.6045 90.5578 64.4957 90.4493C64.422 90.3758 64.2982 90.402 64.0227 90.4603C63.892 90.4879 63.7268 90.5229 63.5168 90.5578C63.0705 90.6319 62.6751 90.5032 62.2958 90.3798C62.1204 90.3227 61.9485 90.2667 61.7766 90.2324C61.3192 90.1412 60.1696 89.4365 59.4921 89.0212C59.3639 88.9426 59.2527 88.8744 59.1662 88.8227C58.6224 88.4974 56.8821 86.9792 56.6646 86.7623C56.447 86.5454 55.7945 86.5454 55.9032 86.7623C56.012 86.9792 56.1208 87.1961 55.9032 87.3045C55.77 87.3709 55.5553 87.3153 55.4338 87.2623C55.4547 87.3351 55.4299 87.4511 55.3594 87.5214C55.2506 87.6298 55.1419 87.3045 55.1419 87.1961C55.1419 87.1512 55.1792 87.069 55.2229 86.9728C55.2847 86.8367 55.3594 86.6725 55.3594 86.5454C55.3594 86.3285 54.9243 86.5454 54.9243 86.6539C54.9243 86.7623 54.8156 86.7623 54.598 86.5454C54.4068 86.3547 53.6268 86.3317 53.5153 86.3289C53.6009 86.3421 53.6923 86.6934 53.7279 86.8707C53.8729 86.7985 54.2717 86.7189 54.7068 86.9792C55.1196 87.2262 54.9057 87.2856 54.6835 87.3474C54.613 87.367 54.5417 87.3868 54.4893 87.413C54.2717 87.5214 54.7068 87.7383 55.3594 87.7383C56.012 87.7383 56.2295 88.0636 56.2295 88.172C56.2295 88.2263 56.0664 88.3347 55.9032 88.4432C55.7401 88.5516 55.5769 88.66 55.5769 88.7143C55.5769 88.8227 55.9032 89.0396 56.447 89.0396C56.8228 89.0396 56.9909 89.2467 57.0947 89.3747C57.1412 89.4319 57.1748 89.4733 57.2084 89.4733C57.3172 89.4733 58.0785 89.5818 58.0785 89.6902C58.0785 89.7658 58.3958 89.736 58.6616 89.711C58.777 89.7002 58.8828 89.6902 58.9487 89.6902C59.0574 89.6902 59.275 89.7987 59.5197 89.9207C59.7644 90.0427 60.0363 90.1782 60.2538 90.2324C60.6889 90.3409 62.2116 90.6662 63.8431 90.6662C65.1483 90.6662 65.9097 91.0277 66.1272 91.2084C66.1635 91.2084 66.3012 91.1867 66.5623 91.1C66.8233 91.0132 67.0336 91.2084 67.1061 91.3168C67.1423 91.3168 67.3019 91.3385 67.6499 91.4253C67.8674 91.4795 68.085 91.4795 68.2481 91.4795C68.4113 91.4795 68.52 91.4795 68.52 91.5337C68.52 91.6422 67.5412 91.6422 67.1061 91.6422H65.6921C65.4746 91.8591 64.4872 91.8207 63.0818 91.7506C62.8986 91.7415 62.7051 91.7331 62.502 91.7244C61.0148 91.6603 59.013 91.574 56.7733 90.9915C54.7744 90.4716 52.081 88.7054 50.5244 87.6846L50.5242 87.6845C50.1328 87.4279 49.8133 87.2183 49.5948 87.0876C49.2582 86.8863 48.0483 86.0068 47.5283 85.5695C47.2791 85.321 47.0874 85.1203 46.9236 84.9489C46.6587 84.6715 46.4668 84.4706 46.2231 84.2682C46.2231 84.2682 48.2896 85.3526 48.3984 85.3526C48.5072 85.3526 47.202 84.5935 47.202 84.5935C47.202 84.5935 46.5494 84.1597 46.2231 84.0513C45.8968 83.9428 45.788 83.4006 45.788 83.4006C45.788 83.4006 48.5072 84.3766 48.5072 84.2682C48.5072 84.1909 48.1761 84.0037 47.7892 83.7848C47.6328 83.6963 47.4672 83.6027 47.3107 83.5091C46.7669 83.1837 46.1143 82.3162 46.1143 82.3162L47.202 82.8584C47.637 83.0753 48.1809 83.0753 48.1809 83.0753C48.1809 83.0753 46.4406 82.3162 45.6793 81.774C44.9179 81.2318 43.1828 79.5895 41.7637 77.4363C39.2621 73.6409 40.0234 70.3876 40.4585 68.6526C40.8936 66.9175 45.0267 58.2422 47.9633 54.1214C50.8817 50.0263 52.9666 44.2532 53.1841 43.1688ZM68.3025 80.4727C68.3476 80.4727 68.4113 80.4541 68.4859 80.4323C68.5915 80.4015 68.7189 80.3643 68.8463 80.3643C68.9551 80.6896 68.4113 80.6896 68.1937 80.6896C67.9762 80.6896 67.4324 80.4727 67.5412 80.4727H68.3025ZM75.9161 80.9065C75.8073 80.9788 75.5681 81.1234 75.481 81.1234H76.0249C76.1336 81.1234 76.1336 80.9065 75.9161 80.9065ZM71.348 81.9909C71.435 81.9909 71.7468 81.9186 71.8918 81.8824C71.928 81.9186 71.9788 82.0126 71.8918 82.0993C71.8329 82.158 71.7103 82.185 71.5756 82.2145C71.4616 82.2395 71.3389 82.2665 71.2392 82.3162C71.0217 82.4246 70.6954 82.3162 70.6954 82.2078C70.6954 82.1535 70.4778 82.1535 70.2467 82.1535C70.0156 82.1535 69.7708 82.1535 69.7165 82.0993C69.6077 81.9909 70.4778 81.9909 70.6954 81.9909C70.8041 81.9909 70.8313 82.0451 70.8585 82.0993C70.8857 82.1535 70.9129 82.2078 71.0217 82.2078C71.1491 82.2078 71.2019 82.1333 71.2456 82.0717C71.2765 82.0281 71.3029 81.9909 71.348 81.9909ZM77.6564 81.9909C77.6564 82.0632 77.6346 82.2078 77.5476 82.2078C77.5025 82.2078 77.5135 82.2636 77.5263 82.329C77.5444 82.4215 77.5663 82.5331 77.4388 82.5331C77.3301 82.5331 77.1941 82.5602 77.0582 82.5873C76.9222 82.6144 76.7862 82.6415 76.6775 82.6415C76.5797 82.6415 76.394 82.7073 76.1896 82.7796C75.9392 82.8683 75.6607 82.9669 75.481 82.9669C75.3014 82.9669 75.0229 82.9997 74.7725 83.0293C74.5681 83.0534 74.3824 83.0753 74.2846 83.0753C74.0671 83.0753 73.7408 83.2922 74.1759 83.2922C74.2846 83.2922 74.3934 83.299 74.5022 83.3057C74.8285 83.3261 75.1548 83.3464 75.481 83.1837C75.7399 83.0547 75.9602 83.0408 76.1649 83.0279C76.3043 83.0191 76.4365 83.0108 76.5687 82.9669C76.6873 82.9274 76.8635 82.888 77.0396 82.8486C77.3479 82.7796 77.6564 82.7105 77.6564 82.6415V81.9909ZM57.7522 82.3162C57.5782 82.2295 57.2447 82.2078 57.0996 82.2078C57.4369 82.2918 57.7088 82.4411 57.9154 82.5544C57.9753 82.5873 58.0297 82.6172 58.0785 82.6415C58.2961 82.75 57.9698 82.4246 57.7522 82.3162ZM51.6614 84.485C51.0088 84.3766 50.5737 83.7259 50.5737 83.7259C50.5737 83.7259 51.5419 84.2277 51.8789 84.3766C52.749 84.5935 53.1841 85.0272 53.1841 85.0272C53.1841 85.0272 51.7686 84.5029 51.6614 84.485ZM64.0606 88.0636C63.7344 88.0275 63.06 87.9335 62.973 87.8467C62.8642 87.7383 61.9941 87.3045 61.8853 87.3045C61.831 87.3045 61.6134 87.2232 61.3959 87.1419C61.1784 87.0605 60.9608 86.9792 60.9064 86.9792C60.8443 86.9792 61.0663 87.1208 61.2882 87.2625C61.4547 87.3687 61.6212 87.4749 61.6678 87.5214C61.7222 87.5756 61.8853 87.6027 62.0485 87.6298C62.2116 87.6569 62.3748 87.6841 62.4292 87.7383C62.5379 87.8467 63.1905 88.172 64.0606 88.0636ZM63.7344 86.0032C63.8975 86.0574 64.1422 86.0845 64.3869 86.1117C64.6317 86.1388 64.8764 86.1659 65.0395 86.2201C65.9097 86.3536 65.4746 86.5454 65.3658 86.5454C65.3261 86.5454 65.228 86.5309 65.1038 86.5125L65.1035 86.5125C64.8881 86.4806 64.5938 86.437 64.3869 86.437C64.0606 86.437 63.4081 85.8948 63.7344 86.0032ZM66.9973 85.1357C67.0336 85.1357 67.0408 85.114 66.7798 85.0272C66.6166 84.973 66.3447 84.973 66.0728 84.973C65.8009 84.973 65.529 84.973 65.3658 84.9188C65.2188 84.8699 65.0277 84.8431 64.8521 84.8184C64.6379 84.7884 64.4467 84.7615 64.3869 84.7019C64.2782 84.5935 64.6045 85.1357 64.822 85.1357C64.8811 85.1357 64.9723 85.1277 65.0803 85.1182C65.37 85.0928 65.7808 85.0567 66.0184 85.1357C66.3447 85.2441 66.8886 85.3526 66.9973 85.1357ZM66.7798 86.437C67.1061 86.437 67.4324 86.5454 67.5412 86.7623H66.8886C66.7145 86.7623 66.3085 86.5454 66.1272 86.437H66.7798ZM69.3902 85.3526C69.4989 85.5695 69.6077 85.6779 69.8252 85.6779H71.0217C71.2392 85.6779 70.5866 85.461 70.1515 85.461C69.8615 85.461 69.6681 85.4128 69.5392 85.3807C69.4748 85.3646 69.4264 85.3526 69.3902 85.3526ZM72.5444 87.7383C72.6531 87.8467 73.3057 87.8467 73.4145 87.8467C73.3601 87.8467 73.0882 87.8738 72.8163 87.9009C72.5444 87.9281 72.2725 87.9552 72.2181 87.9552C72.1783 87.9552 71.9928 87.9406 71.7576 87.9222L71.7572 87.9222C71.3498 87.8903 70.7934 87.8467 70.5866 87.8467C70.2603 87.8467 69.1726 87.6298 69.2814 87.6298C69.3053 87.6298 69.3556 87.6246 69.423 87.6175C69.6617 87.5926 70.1146 87.5453 70.3691 87.6298C70.6954 87.7383 71.8918 87.7383 72.1093 87.7383C72.1924 87.7383 72.2596 87.7225 72.317 87.7089C72.4099 87.6871 72.4772 87.6713 72.5444 87.7383ZM168.412 53.2021C168.221 52.9759 168.085 52.8007 168.041 52.7117C167.981 52.5924 168.094 52.7519 168.327 53.0819L168.327 53.0821L168.412 53.2021ZM168.412 53.2021C169.153 54.078 170.73 55.718 171.086 56.0734C171.656 56.6413 172.474 57.8705 173.396 59.2556L173.404 59.2671C173.536 59.465 173.67 59.6661 173.805 59.8688C173.479 59.4351 171.963 57.4764 171.739 57.2662C170.456 56.063 169.069 54.1295 168.412 53.2021ZM175.545 59.8688C175.618 59.8688 175.785 59.9122 175.872 60.0857C175.981 60.3026 176.089 60.5195 175.981 60.5195C175.908 60.5195 175.836 60.4231 175.763 60.3267L175.763 60.3264C175.727 60.2783 175.69 60.2302 175.654 60.1941C175.567 60.1074 175.545 59.9411 175.545 59.8688ZM173.696 82.6415C173.619 82.6415 172.758 82.8801 172.5 82.9669L172.718 83.1837L173.696 82.6415ZM171.739 83.2922C171.726 83.2922 171.689 83.3047 171.635 83.3267C171.671 83.3146 171.706 83.3031 171.739 83.2922ZM171.635 83.3267C171.065 83.5151 170.08 83.8344 169.998 83.8344C169.944 83.8344 169.563 83.997 169.183 84.1597C168.802 84.3224 168.421 84.485 168.367 84.485C168.28 84.485 168.476 84.5573 168.584 84.5935C168.947 84.4489 169.694 84.1597 169.781 84.1597C169.835 84.1597 170.298 83.9428 170.76 83.7259L170.76 83.7257C171.111 83.561 171.462 83.3963 171.635 83.3267ZM149.768 85.5695L149.333 85.3526H148.898C148.825 85.2803 148.659 85.1357 148.572 85.1357H148.245L148.68 85.461L149.115 85.5695H149.768ZM146.614 86.437L145.852 86.2201H145.635L145.309 86.0032H144.874L144.656 85.7863L143.895 85.6779L144.656 86.0032L145.2 86.2201L145.852 86.3285L146.614 86.437ZM107.132 72.7734L106.914 72.5565H107.132L106.371 72.1227V71.9058H105.935L105.718 72.1227L105.827 72.2311L105.718 72.3396H105.5C105.283 72.4119 104.935 72.5565 105.283 72.5565C105.631 72.5565 106.008 72.4119 106.153 72.3396L107.132 72.7734ZM106.371 73.5324L106.479 73.6409L106.697 73.7493V73.912H106.262V73.7493L106.153 73.5324H106.371ZM109.633 71.3636C109.851 71.2552 110.417 71.0166 110.939 70.9299L112.244 70.713C112.063 70.6045 111.657 70.3876 111.482 70.3876C111.374 70.3876 111.292 70.4419 111.211 70.4961C111.129 70.5503 111.047 70.6045 110.939 70.6045C110.848 70.6045 110.776 70.5667 110.707 70.5306C110.611 70.4801 110.522 70.4329 110.395 70.4961C110.286 70.5503 110.15 70.6859 110.014 70.8214C109.878 70.9569 109.742 71.0925 109.633 71.1467C109.506 71.21 109.342 71.1255 109.185 71.0442C109.072 70.9862 108.963 70.9299 108.872 70.9299C108.772 70.9299 108.671 71.0685 108.571 71.207C108.454 71.3687 108.337 71.5304 108.22 71.4721C108.13 71.4272 108.04 71.3082 107.957 71.1994C107.841 71.045 107.739 70.9111 107.676 71.0383C107.606 71.1774 107.76 71.3611 107.879 71.5036C107.946 71.5832 108.002 71.65 108.002 71.6889C108.002 71.7974 108.763 72.0143 108.981 71.7974C109.198 71.5805 109.525 71.3636 109.633 71.3636ZM112.135 72.5565C112.244 72.6649 112.461 72.6649 113.005 72.448C113.549 72.2311 114.528 71.9058 114.854 71.9058C115.181 71.9058 115.724 71.6889 115.724 71.5805C115.724 71.4721 114.854 71.5805 114.637 71.6889C114.528 71.7432 114.283 71.7974 114.038 71.8516C113.794 71.9058 113.549 71.96 113.44 72.0143C113.374 72.0474 113.247 72.0804 113.096 72.1197C112.753 72.2091 112.286 72.3304 112.135 72.5565ZM118.389 68.7585C118.245 68.7323 118.114 68.7085 118.008 68.761C117.791 68.8695 117.03 69.1948 116.812 69.1948C116.594 69.1948 117.247 68.761 117.573 68.761C117.672 68.761 117.811 68.7511 117.962 68.7402C118.311 68.7152 118.727 68.6854 118.879 68.761C118.71 68.8169 118.542 68.7864 118.389 68.7585ZM119.966 70.6045C119.857 70.6045 119.096 70.6045 118.661 70.713C118.226 70.8214 117.356 71.0383 117.138 71.0383C116.921 71.0383 116.486 71.1467 116.812 71.1467C116.963 71.1467 117.279 71.0767 117.617 71.0016C118.007 70.9148 118.428 70.8214 118.661 70.8214C119.096 70.8214 120.075 70.6045 119.966 70.6045ZM145.309 77.0026C145.222 77.0026 145.127 77.0749 145.091 77.111L145.526 77.2195C145.49 77.1472 145.396 77.0026 145.309 77.0026ZM144.438 77.4363C144.656 77.5448 144.874 77.7617 144.656 77.7617C144.438 77.7617 144.33 77.7617 144.33 77.6532C144.33 77.5448 144.355 77.3896 144.438 77.4363ZM145.791 75.9237C145.45 75.9942 145.109 76.135 145.45 76.135C145.791 76.135 145.961 76.135 145.961 76.0646C145.961 75.9942 145.921 75.8934 145.791 75.9237ZM172.065 58.5675C172.391 58.929 173.087 59.6953 173.261 59.8688C173.435 60.0423 173.624 60.3749 173.696 60.5195C173.298 60.0496 172.413 59.0013 172.065 58.5675ZM133.562 88.4974L133.779 88.7143C133.442 89.051 132.802 89.7042 132.562 90.0016L132.586 89.9633L132.604 89.9343L132.707 89.7713L132.708 89.7702L132.708 89.7699C132.987 89.3276 133.425 88.6338 133.562 88.4974ZM132.474 90.124C132.448 90.1768 132.486 90.1204 132.562 90.0016C132.518 90.0553 132.488 90.0974 132.474 90.124ZM132.039 89.4733C132.112 89.4733 132.184 89.377 132.257 89.2806L132.257 89.2804C132.293 89.2323 132.329 89.1841 132.366 89.148L132.474 89.5818C132.257 89.8348 131.8 90.3626 131.713 90.4493C131.604 90.5578 131.387 91.2084 131.387 91.5337C131.387 91.8591 130.843 92.4013 130.734 92.4013C130.647 92.4013 130.335 92.835 130.19 93.0519C130.299 92.7989 130.516 92.2494 130.516 92.0759C130.516 91.9489 130.703 91.7101 130.858 91.5124C130.967 91.3727 131.06 91.2533 131.06 91.2084C131.06 91.1 131.278 90.6662 131.387 90.4493C131.495 90.2324 131.93 89.4733 132.039 89.4733ZM130.952 96.7389L130.734 97.1727C130.77 97.4257 130.704 97.6266 130.734 97.7149C130.821 97.9752 130.843 97.8956 130.952 98.1487V96.7389ZM132.583 93.2688C132.837 93.0519 133.344 92.5531 133.344 92.2928C133.344 92.1975 133.335 92.1209 133.327 92.0573C133.309 91.904 133.299 91.8273 133.453 91.7506C133.671 91.6422 133.562 90.9915 133.453 91.1C133.42 91.1333 133.294 91.228 133.133 91.3496C132.768 91.6236 132.223 92.0341 132.148 92.1844C132.1 92.2795 132.115 92.3746 132.129 92.4605C132.146 92.5706 132.161 92.6657 132.039 92.7266C131.822 92.835 131.822 93.1604 132.039 93.0519C132.202 92.9706 132.488 92.6453 132.666 92.4419C132.726 92.3742 132.773 92.3199 132.801 92.2928C132.837 92.2567 132.885 92.1965 132.933 92.1363C133.03 92.0158 133.127 91.8952 133.127 91.9675C133.127 91.973 133.127 91.9788 133.128 91.985C133.13 91.9921 133.131 91.9996 133.133 92.0077C133.134 92.0119 133.135 92.0165 133.136 92.0211L133.136 92.0214C133.169 92.1519 133.237 92.43 132.583 93.2688ZM133.635 89.5166C133.648 89.501 133.66 89.4865 133.671 89.4733C133.64 89.5036 133.612 89.5386 133.585 89.5774C133.372 89.8395 132.994 90.3234 132.692 90.7746C132.344 91.2952 131.677 92.0759 131.387 92.4013C131.858 92.0398 132.844 91.2518 133.018 90.9915C133.109 90.8555 133.181 90.6247 133.258 90.3784C133.348 90.0905 133.444 89.7812 133.585 89.5774C133.603 89.5556 133.619 89.5353 133.635 89.5166ZM100.497 98.1487C100.316 97.9318 99.9316 97.498 99.8446 97.498C99.8127 97.498 99.7902 97.4887 99.7715 97.481C99.7265 97.4624 99.7039 97.4531 99.627 97.6065C99.5809 97.6985 99.5935 97.8296 99.6067 97.9667C99.6246 98.1525 99.6435 98.3492 99.5183 98.474C99.3443 98.6475 99.3007 98.7632 99.3007 98.7993C99.4458 98.6547 99.7793 98.3655 99.9533 98.3655C100.127 98.3655 100.388 98.221 100.497 98.1487ZM142.046 112.571V113.547C142.046 113.808 142.191 114.306 142.263 114.523C142.227 113.945 142.133 112.745 142.046 112.571ZM102.02 100.968C102.194 100.795 102.31 100.245 102.346 99.9922C102.31 100.317 102.216 101.012 102.129 101.185L101.259 102.92C101.44 102.342 101.846 101.142 102.02 100.968ZM97.9956 103.896C97.9593 104.005 97.865 104.243 97.778 104.33C97.7155 104.392 97.6889 104.419 97.6776 104.451C97.6693 104.474 97.6693 104.501 97.6693 104.547V104.872L97.8868 104.764C97.9593 104.655 98.1043 104.417 98.1043 104.33V104.005C98.1043 103.896 98.1043 103.788 97.9956 103.896ZM98.2131 105.74C98.1043 105.848 97.9956 106.065 97.8868 106.282C97.778 106.499 97.6693 106.716 97.6693 106.824C97.6693 106.857 97.6892 106.89 97.711 106.925C97.7611 107.008 97.8209 107.107 97.6693 107.258C97.4517 107.475 97.343 108.017 97.343 108.234C97.343 108.407 97.488 108.884 97.5605 109.101C97.7055 108.957 97.9956 108.602 97.9956 108.342C97.9956 108.241 97.985 108.108 97.9737 107.966C97.9489 107.653 97.9207 107.299 97.9956 107.149C98.0189 107.103 98.0523 107.041 98.0903 106.971L98.0905 106.971C98.2296 106.714 98.4306 106.344 98.4306 106.173C98.4306 105.956 98.4306 105.631 98.2131 105.74ZM98.8657 108.667C98.7787 109.101 98.1043 110.077 97.778 110.511C97.8868 110.186 98.1478 109.383 98.3219 108.776C98.5394 108.017 99.192 106.173 99.3007 106.499C99.3766 106.725 99.188 107.427 99.0301 108.014C98.9615 108.27 98.8986 108.503 98.8657 108.667ZM97.343 109.643C97.4517 110.077 96.7991 110.945 96.6904 111.053V109.969C96.6904 109.752 96.6904 109.535 96.5816 109.21C96.4728 108.884 97.1254 108.451 97.1254 108.559C97.1254 108.667 97.2342 109.21 97.343 109.643ZM97.0167 107.258C97.1254 107.149 96.9079 107.908 96.7991 108.125C96.7266 108.198 96.5598 108.386 96.4728 108.559C96.4076 108.689 96.3031 109.132 96.2301 109.441C96.1813 109.648 96.1465 109.795 96.1465 109.752C96.1465 109.729 96.1514 109.672 96.1581 109.594L96.1582 109.593C96.183 109.304 96.2322 108.73 96.1465 108.559C96.0378 108.342 96.2553 108.017 96.4728 107.8L97.0167 107.258Z" fill="white"/>
<path d="M166.844 48.5909C166.808 48.6266 166.849 48.7472 166.945 48.9282C166.899 48.7971 166.865 48.6833 166.844 48.5909Z" fill="white"/>
<path d="M135.411 80.6896C135.35 80.5377 135.258 80.3424 135.135 80.1191L135.411 80.6896Z" fill="white"/>
<path d="M51.4438 72.5565C51.3351 72.448 51.4438 72.3396 51.5526 72.3396C51.7118 72.3396 51.6962 72.3977 51.6764 72.4714C51.6692 72.4984 51.6614 72.5274 51.6614 72.5565C51.6614 72.6649 51.5526 72.6649 51.4438 72.5565Z" fill="white"/>
<path d="M52.0379 73.2323C52.0026 73.2428 51.9877 73.2473 51.9877 73.2071C51.9877 73.0987 51.8789 73.6409 52.0964 73.6409C52.1884 73.6409 52.2609 73.6603 52.314 73.6744C52.3865 73.6938 52.4227 73.7035 52.4227 73.6409V73.3156C52.2172 73.179 52.098 73.2144 52.0379 73.2323Z" fill="white"/>
<path d="M52.6403 74.0747C52.7172 74.1513 52.6853 74.1738 52.6216 74.2187C52.5952 74.2373 52.5633 74.2598 52.5315 74.2915C52.5315 74.4 52.4227 74.5084 52.314 74.5084C52.2052 74.5084 52.0964 74.1831 52.0964 74.0747C52.0964 74.0204 52.178 74.0475 52.2596 74.0747C52.3411 74.1018 52.4227 74.1289 52.4227 74.0747C52.4227 73.9662 52.5315 73.9662 52.6403 74.0747Z" fill="white"/>
<path d="M52.8399 74.7769C52.8568 74.6821 52.8683 74.6169 52.749 74.6169H52.5315C52.4227 74.6169 52.4227 74.9422 52.5315 75.0506C52.6402 75.1591 52.749 75.1591 52.8578 75.0506C52.8087 74.9527 52.8261 74.8548 52.8399 74.7769Z" fill="white"/>
<path d="M54.3805 76.8941C54.3805 76.7857 54.163 76.3519 53.9454 76.3519C53.7279 76.3519 53.7279 76.7857 53.8367 76.7857C53.9454 76.7857 54.163 76.8941 54.163 77.111C54.163 77.2357 54.163 77.2887 54.1837 77.3319C54.1989 77.3638 54.2255 77.3902 54.2717 77.4363C54.3805 77.5448 54.4893 77.6532 54.598 77.5448C54.7068 77.4363 54.8156 77.111 54.7068 77.0026C54.6524 76.9484 54.5708 76.9484 54.5029 76.9484C54.4349 76.9484 54.3805 76.9484 54.3805 76.8941Z" fill="white"/>
<path d="M58.1873 79.9305C58.2961 79.9305 58.7311 80.3643 58.8399 80.5811L58.8399 80.9065C58.8399 81.0149 58.6224 81.1234 58.4048 81.0149C58.1873 80.9065 58.0785 80.798 57.9698 80.6896C57.911 80.631 57.884 80.6674 57.8373 80.7303C57.7975 80.7839 57.7435 80.8566 57.6435 80.9065C57.5171 80.9695 57.4641 80.886 57.3992 80.7837C57.3525 80.71 57.2995 80.6266 57.2084 80.5811C57.0307 80.4925 57.0708 80.1144 57.0914 79.9199C57.096 79.8763 57.0996 79.8419 57.0996 79.8221C57.0996 79.7136 56.9909 79.7136 56.447 79.7136C55.9754 79.7136 55.9946 79.3874 56.008 79.1593C56.0101 79.1244 56.012 79.0918 56.012 79.063C56.012 78.9306 55.8904 78.9194 55.7463 78.9061C55.6542 78.8977 55.5529 78.8883 55.4682 78.8461C55.308 78.7662 55.3837 78.51 55.4347 78.3372C55.453 78.2752 55.4682 78.224 55.4682 78.1954C55.4682 78.1609 55.4461 78.1043 55.4195 78.0362C55.3626 77.8906 55.2853 77.6925 55.3594 77.5448C55.4286 77.4068 55.4978 77.5761 55.567 77.7455C55.6066 77.8423 55.6461 77.9391 55.6857 77.9785C55.7307 78.0234 55.8503 78.124 55.9903 78.2419L55.9907 78.2422C56.189 78.4091 56.4284 78.6106 56.5558 78.7376C56.7733 78.9545 57.4259 79.4967 57.6435 79.6052C57.7432 79.6549 57.8659 79.6134 57.9799 79.5748C58.1145 79.5293 58.2372 79.4878 58.2961 79.6052C58.3664 79.7454 58.2549 79.8403 58.1966 79.8898C58.1648 79.9169 58.1488 79.9305 58.1873 79.9305Z" fill="white"/>
<path d="M79.8935 79.7008C79.8845 79.7662 79.8767 79.8221 79.8317 79.8221C79.7229 79.8221 79.5054 79.8221 79.6141 79.9305C79.6413 79.9576 79.6685 79.9915 79.6957 80.0254C79.7773 80.127 79.8589 80.2287 79.9404 80.1474C80.0492 80.0389 80.158 79.8221 80.0492 79.4967C79.9218 79.4967 79.9063 79.6084 79.8935 79.7008Z" fill="white"/>
<path d="M45.3672 82.9669C45.2187 83.164 45.2187 83.4598 45.293 83.6569C45.3213 83.7322 45.3389 83.8076 45.3538 83.8719C45.3781 83.976 45.3956 84.0513 45.4415 84.0513C45.5158 84.0513 45.7386 83.9527 45.6643 83.7555C45.6272 83.6569 45.6272 83.5337 45.6272 83.4228C45.6272 83.3119 45.6272 83.2133 45.59 83.164C45.5667 83.1331 45.558 83.1021 45.5502 83.0742C45.5331 83.0133 45.5201 82.9669 45.3672 82.9669Z" fill="white"/>
<path d="M54.0819 74.5227C53.9469 74.4204 53.8367 74.337 53.8367 74.4C53.8367 74.5084 53.9454 74.7253 54.163 74.8337C54.337 74.9205 54.598 75.0868 54.7068 75.1591C54.598 75.0868 54.3805 74.8988 54.3805 74.7253C54.2894 74.6799 54.1792 74.5964 54.0819 74.5227Z" fill="white"/>
<path d="M92.4784 75.7462C92.3914 75.8329 92.5147 75.9269 92.5872 75.9631C92.6234 75.9269 92.7177 75.8546 92.8047 75.8546C92.8591 75.8546 92.8319 75.8275 92.7911 75.7869C92.7503 75.7462 92.696 75.692 92.696 75.6378C92.696 75.5293 92.5872 75.6378 92.4784 75.7462Z" fill="white"/>
<path d="M93.1011 75.376C93.0648 75.3398 93.0358 75.2675 93.2099 75.2675C93.4274 75.2675 93.5362 75.4844 93.3186 75.4844C93.1852 75.4844 93.1336 75.4844 93.1136 75.4594C93.1011 75.4436 93.1011 75.4179 93.1011 75.376Z" fill="white"/>
<path d="M57.0996 88.6058C56.8821 88.6058 56.9909 88.3889 57.0996 88.3889C57.2695 88.3043 57.3067 88.3518 57.3667 88.4283C57.3835 88.4498 57.4021 88.4736 57.4259 88.4974C57.5347 88.6058 57.3172 88.6058 57.0996 88.6058Z" fill="white"/>
<path d="M57.9178 89.0768C57.8686 89.0768 57.8194 89.2565 57.9178 89.2565C58.0162 89.2565 58.1147 89.2565 58.0654 89.1666C58.0547 89.1469 58.0462 89.1272 58.0386 89.1094C58.0115 89.046 57.9947 89.0067 57.9178 89.0768Z" fill="white"/>
<path d="M174.349 71.6889C174.24 71.7974 174.24 72.0143 174.458 71.9058C174.582 71.8442 174.635 71.8176 174.638 71.7862C174.64 71.7623 174.614 71.7357 174.567 71.6889C174.48 71.6022 174.385 71.6528 174.349 71.6889Z" fill="white"/>
<path d="M172.391 73.6409C172.391 73.7493 171.956 73.9662 171.847 73.9662C171.793 73.9662 171.711 73.9391 171.63 73.912C171.548 73.8849 171.467 73.8578 171.412 73.8578C171.369 73.8578 171.291 73.8925 171.212 73.9272C171.095 73.9792 170.977 74.0313 170.977 73.9662C170.977 73.8578 171.195 73.6409 171.412 73.6409C171.63 73.6409 171.739 73.6409 171.956 73.5324C172.043 73.4891 172.13 73.411 172.217 73.3329C172.348 73.2158 172.478 73.0987 172.609 73.0987C172.676 73.0987 172.723 73.1091 172.758 73.117C172.837 73.1347 172.86 73.1399 172.935 72.9902C173.044 72.7734 173.37 72.7734 173.37 72.8818C173.37 72.936 173.343 72.9631 173.316 72.9902C173.289 73.0173 173.261 73.0445 173.261 73.0987C173.044 73.2071 172.391 73.5324 172.391 73.6409Z" fill="white"/>
<path d="M170.542 73.9662C170.651 73.9662 170.76 74.1831 170.651 74.2915C170.724 74.2915 170.912 74.3349 171.086 74.5084C171.26 74.6819 170.941 74.7253 170.76 74.7253C170.724 74.6169 170.608 74.3783 170.434 74.2915C170.216 74.1831 170.434 73.9662 170.542 73.9662Z" fill="white"/>
<path d="M168.802 74.5084C168.889 74.5084 169.201 74.5807 169.346 74.6169L169.455 74.7253C169.527 74.7253 169.65 74.747 169.563 74.8337C169.476 74.9205 169.455 75.0145 169.455 75.0506L169.346 75.1591H169.128C169.128 75.1229 169.107 75.0289 169.02 74.9422C168.965 74.888 168.965 74.9422 168.965 75.01C168.965 75.0777 168.965 75.1591 168.911 75.1591C168.802 75.1591 168.802 75.376 168.802 75.4844C168.802 75.5928 168.911 75.8097 169.128 75.5928C169.346 75.376 169.672 75.1591 169.781 75.1591C169.89 75.1591 169.998 74.9422 169.89 74.8337C169.803 74.747 169.708 74.5084 169.672 74.4C169.563 74.2915 169.324 74.0963 169.237 74.1831C169.2 74.2205 169.149 74.2321 169.095 74.2446C168.991 74.2684 168.873 74.2954 168.802 74.5084Z" fill="white"/>
<path d="M167.823 74.6169C167.932 74.5084 168.258 74.4 168.367 74.4C168.584 74.3514 168.693 74.4 168.693 74.5084C168.693 74.5807 168.5 74.653 168.307 74.7253C168.21 74.7615 168.113 74.7976 168.041 74.8337C167.823 74.9422 167.714 74.7253 167.823 74.6169Z" fill="white"/>
<path d="M166.735 74.8337C166.627 74.9422 166.409 75.2675 166.518 75.2675C166.572 75.2675 166.627 75.2404 166.681 75.2133C166.735 75.1862 166.79 75.1591 166.844 75.1591C166.953 75.1591 167.062 75.1591 167.171 75.0506C167.233 74.9883 167.26 74.9618 167.292 74.9505C167.315 74.9422 167.342 74.9422 167.388 74.9422C167.475 74.9422 167.497 74.8699 167.497 74.8337H166.735Z" fill="white"/>
<path d="M167.714 75.0506C167.787 75.0145 167.975 74.9639 168.149 75.0506C168.186 75.0506 168.28 75.0723 168.367 75.1591C168.444 75.2357 168.412 75.2582 168.348 75.3031C168.322 75.3217 168.29 75.3442 168.258 75.376C168.189 75.4454 168.208 75.4704 168.26 75.5363C168.289 75.5733 168.328 75.6234 168.367 75.7013C168.448 75.863 168.227 75.9041 167.929 75.9596C167.827 75.9785 167.716 75.999 167.606 76.0266C167.266 76.1113 167.191 76.0637 167.072 75.9872L167.071 75.987C167.038 75.9656 167.001 75.9419 166.953 75.9182C166.839 75.8612 166.785 75.9836 166.727 76.1127C166.676 76.2296 166.621 76.3519 166.518 76.3519C166.419 76.3519 166.342 76.4193 166.248 76.5029C166.134 76.6031 165.994 76.7266 165.757 76.7857C165.322 76.8941 165.104 76.4604 165.104 76.2435V75.376C165.104 75.1185 165.444 75.1327 165.856 75.1498C165.965 75.1543 166.078 75.1591 166.192 75.1591C166.56 75.1591 166.529 75.4085 166.505 75.6028C166.493 75.695 166.483 75.7748 166.518 75.8097C166.594 75.8853 166.723 75.6972 166.83 75.5397L166.831 75.5393L166.831 75.539L166.831 75.5388C166.878 75.4708 166.92 75.4086 166.953 75.376C167.062 75.2675 167.279 75.2675 167.497 75.2675C167.671 75.2675 167.714 75.1229 167.714 75.0506Z" fill="white"/>
<path d="M121.489 75.0506C121.38 75.0506 121.163 75.2675 121.163 75.376C121.163 75.4121 121.138 75.4482 121.114 75.4844C121.066 75.5567 121.018 75.629 121.163 75.7013C121.246 75.7427 121.297 75.7841 121.341 75.8195C121.412 75.8767 121.463 75.9182 121.598 75.9182C121.658 75.9182 121.719 75.9266 121.773 75.9341C121.911 75.9534 122.002 75.966 121.924 75.8097C121.884 75.73 121.873 75.6649 121.865 75.6145C121.851 75.5278 121.844 75.4844 121.706 75.4844C121.489 75.4844 121.38 75.4844 121.489 75.376C121.521 75.3442 121.553 75.3217 121.579 75.3031C121.643 75.2582 121.675 75.2357 121.598 75.1591L121.489 75.0506Z" fill="white"/>
<path d="M122.92 75.4509C122.903 75.4672 122.903 75.5006 122.903 75.5928C122.903 75.8097 122.903 76.0266 123.012 76.0266C123.048 76.0266 123.096 76.0146 123.145 76.0025C123.241 75.9784 123.338 75.9543 123.338 76.0266C123.338 76.1033 123.392 76.1257 123.501 76.1707C123.546 76.1893 123.601 76.2117 123.664 76.2435C123.882 76.3519 124.099 76.4603 123.99 76.3518C123.931 76.2927 123.904 76.2658 123.91 76.2536C123.914 76.2435 123.941 76.2435 123.991 76.2435C124.078 76.2435 124.172 76.4604 124.208 76.5688H124.426C124.462 76.5688 124.486 76.5809 124.502 76.5889L124.506 76.5906L124.509 76.5921C124.515 76.5952 124.52 76.5968 124.524 76.5954C124.534 76.5912 124.534 76.5603 124.534 76.4604C124.534 76.2435 124.534 75.9182 124.426 75.9182C124.394 75.9182 124.381 75.9182 124.37 75.913C124.362 75.9092 124.356 75.9026 124.344 75.8912L124.344 75.891C124.317 75.8639 124.262 75.8097 124.099 75.7013C124.004 75.6378 123.927 75.5836 123.863 75.5387L123.863 75.5386C123.709 75.4302 123.632 75.376 123.555 75.376H123.12C123.048 75.4121 123 75.4241 122.967 75.4322C122.944 75.438 122.929 75.4417 122.92 75.4509Z" fill="white"/>
<path d="M124.099 76.8941C124.012 76.8074 124.063 76.7857 124.099 76.7857H124.426V77.0026C124.353 77.0026 124.186 76.9809 124.099 76.8941Z" fill="white"/>
<path d="M126.275 76.6772C126.057 76.4604 125.731 76.135 125.405 76.2435C125.078 76.3519 124.969 76.5688 125.296 76.6772C125.469 76.7349 125.52 76.8538 125.562 76.9526C125.599 77.0396 125.629 77.111 125.731 77.111C125.814 77.111 125.881 77.0952 125.939 77.0817C126.031 77.0598 126.099 77.044 126.166 77.111C126.178 77.1229 126.191 77.1373 126.205 77.1535C126.212 77.1617 126.22 77.1704 126.228 77.1795L126.244 77.1992L126.253 77.2096C126.367 77.3438 126.517 77.5204 126.601 77.4363C126.644 77.3939 126.719 77.3847 126.79 77.3762C126.898 77.3629 126.993 77.3514 126.927 77.2195C126.898 77.1613 126.877 77.1032 126.857 77.0493C126.803 76.9019 126.76 76.7857 126.601 76.7857C126.427 76.7857 126.311 76.7134 126.275 76.6772Z" fill="white"/>
<path d="M126.71 77.5448L126.818 77.8701C126.746 77.8701 126.579 77.8484 126.492 77.7617C126.431 77.7008 126.336 77.6741 126.225 77.6431C126.139 77.619 126.044 77.5923 125.948 77.5448C125.84 77.4906 125.812 77.4906 125.799 77.4906H125.797L125.795 77.4905L125.794 77.4904L125.792 77.4903C125.783 77.4889 125.776 77.4809 125.731 77.4363C125.676 77.3821 125.649 77.3821 125.636 77.3821L125.633 77.3821L125.632 77.3821L125.631 77.382L125.63 77.3819L125.629 77.3817C125.628 77.3815 125.628 77.3812 125.627 77.3809C125.622 77.3777 125.622 77.3667 125.622 77.3279C125.622 77.2411 125.695 77.2195 125.731 77.2195C125.767 77.2195 125.861 77.2411 125.948 77.3279C125.991 77.3702 126.017 77.396 126.045 77.4182C126.09 77.4528 126.142 77.4786 126.275 77.5448H126.71Z" fill="white"/>
<path d="M151.029 75.8097C150.979 75.6651 150.953 75.5928 150.421 75.5928C150.171 75.5928 149.922 75.577 149.709 75.5635C149.365 75.5416 149.115 75.5258 149.115 75.5928C149.115 75.7013 149.115 75.9182 149.333 76.0266C149.55 76.135 149.768 76.2435 150.203 76.2435C150.638 76.2435 151.073 76.2435 151.073 75.9182C151.053 75.8784 151.041 75.8422 151.029 75.8097Z" fill="white"/>
<path d="M156.294 81.2318C156.511 81.1234 157.164 81.1234 157.382 81.2318C157.599 81.2318 157.599 81.3402 157.599 81.6656C157.599 81.8849 157.302 81.9071 156.976 81.9315C156.818 81.9432 156.653 81.9556 156.511 81.9909C156.141 82.0831 156.086 82.0184 156.011 81.9303C155.998 81.9148 155.984 81.8986 155.968 81.8824C155.859 81.774 155.75 81.8824 155.533 82.0993C155.391 82.241 155.295 82.1976 155.124 82.1202C155.034 82.0791 154.922 82.0285 154.771 81.9909C154.336 81.8824 154.554 81.5571 154.88 81.4487C155.111 81.3718 155.397 81.4039 155.622 81.4291C155.714 81.4395 155.796 81.4487 155.859 81.4487C155.993 81.4487 156.045 81.4073 156.116 81.35C156.16 81.3146 156.211 81.2732 156.294 81.2318Z" fill="white"/>
<path d="M159.237 81.4253C159.351 81.224 159.44 81.0652 159.122 80.9065C158.687 80.9065 158.361 81.0149 158.361 81.2318C158.361 81.295 158.342 81.3676 158.324 81.4385C158.28 81.6108 158.238 81.774 158.469 81.774C158.574 81.774 158.667 81.7962 158.749 81.8157C158.924 81.8573 159.048 81.8868 159.122 81.6656C159.151 81.5784 159.196 81.499 159.237 81.4253Z" fill="white"/>
<path d="M161.623 81.0149C161.536 81.1884 161.37 81.2318 161.297 81.2318C161.188 80.9065 161.08 81.2318 161.08 81.3402C161.08 81.3945 160.998 81.3945 160.876 81.3945C160.753 81.3945 160.59 81.3945 160.427 81.4487C160.101 81.5571 159.883 81.5571 159.666 81.3402C159.448 81.1234 159.883 80.9065 160.21 80.9065C160.361 80.9065 160.419 80.8598 160.481 80.8097C160.552 80.7519 160.629 80.6896 160.862 80.6896C161.152 80.6896 161.152 80.7378 161.152 80.802C161.152 80.8342 161.152 80.8703 161.188 80.9065C161.251 80.9684 161.313 80.8888 161.375 80.8091C161.421 80.7493 161.468 80.6896 161.515 80.6896C161.623 80.6896 161.732 80.798 161.623 81.0149Z" fill="white"/>
<path d="M157.541 80.1474C157.461 80.292 157.422 80.3643 157.599 80.3643C157.817 80.3643 158.034 80.2558 157.925 80.1474C157.902 80.1236 157.883 80.0998 157.866 80.0783C157.806 80.0018 157.769 79.9543 157.599 80.0389C157.579 80.0787 157.559 80.1149 157.541 80.1474Z" fill="white"/>
<path d="M158.687 78.8461C158.904 78.9545 158.796 79.063 158.578 79.1714C158.506 79.2076 158.317 79.2582 158.143 79.1714C157.98 79.0901 157.817 79.1917 157.654 79.2934C157.599 79.3273 157.545 79.3612 157.49 79.3883C157.273 79.4967 156.947 79.3883 156.729 79.2798C156.511 79.1714 156.947 78.9545 157.164 78.9545C157.382 78.9545 157.599 78.9545 157.817 78.8461C158.034 78.7376 158.469 78.7376 158.687 78.8461Z" fill="white"/>
<path d="M157.817 77.8701H158.469C158.687 77.8701 159.122 78.087 158.796 78.1954C158.583 78.2662 158.509 78.2908 158.453 78.2692C158.423 78.2576 158.398 78.2331 158.361 78.1955C158.252 78.087 158.143 77.9785 157.817 77.8701Z" fill="white"/>
<path d="M160.21 78.4123C160.311 78.4123 160.341 78.4123 160.367 78.4013C160.369 78.4007 160.37 78.4001 160.371 78.3995L160.373 78.3987L160.375 78.3977L160.378 78.396L160.38 78.3946L160.384 78.3925L160.388 78.39L160.392 78.3872L160.395 78.3856L160.403 78.3802C160.427 78.3641 160.463 78.34 160.536 78.3039C160.753 78.1954 160.971 78.3039 160.971 78.5208C160.971 78.7376 160.645 78.7376 160.427 78.7376C160.324 78.7376 160.27 78.7376 160.218 78.7492C160.161 78.762 160.107 78.789 159.992 78.8461C159.774 78.9545 159.774 78.7376 159.774 78.5208C159.774 78.362 159.891 78.3776 160.039 78.3973C160.093 78.4045 160.151 78.4123 160.21 78.4123Z" fill="white"/>
<path d="M162.059 78.9545C161.95 79.063 161.841 79.3883 162.059 79.2798C162.139 79.2396 162.22 79.2292 162.284 79.221C162.393 79.2071 162.453 79.1993 162.385 79.063C162.276 78.8461 162.133 78.8461 162.059 78.9545Z" fill="white"/>
<path d="M162.059 76.8941C161.95 77.0026 161.406 77.0026 161.188 76.8941C161.08 76.9303 160.819 77.046 160.645 77.2195C160.471 77.393 160.21 77.4363 160.101 77.4363C160.137 77.5086 160.297 77.6098 160.645 77.4363C161.08 77.2195 160.971 77.8701 160.862 77.8701C160.753 77.8701 160.101 78.087 159.774 78.1954C159.539 78.2735 159.417 78.1829 159.286 78.0855C159.235 78.0477 159.183 78.0089 159.122 77.9785C158.948 77.8918 159.194 77.8701 159.339 77.8701C159.303 77.834 159.231 77.7183 159.231 77.5448C159.231 77.4363 159.312 77.3821 159.394 77.3279C159.475 77.2737 159.557 77.2195 159.557 77.111C159.557 76.9375 159.267 77.0387 159.122 77.111C159.013 77.0026 159.231 76.7857 159.448 76.6772C159.577 76.6131 159.668 76.6628 159.72 76.6917C159.756 76.7116 159.774 76.7215 159.774 76.6772C159.774 76.6324 159.793 76.5502 159.815 76.454C159.846 76.318 159.883 76.1536 159.883 76.0266C159.883 75.8585 160.21 75.8858 160.458 75.9067C160.53 75.9127 160.596 75.9182 160.645 75.9182C160.804 75.9182 160.963 75.86 161.165 75.7863C161.239 75.7593 161.319 75.7303 161.406 75.7013C161.732 75.5928 162.059 75.5928 162.385 76.0266C162.664 76.3979 162.306 76.6898 162.129 76.8342C162.099 76.8584 162.074 76.8785 162.059 76.8941Z" fill="white"/>
<path d="M162.494 76.0266C162.494 75.8097 162.494 75.7013 162.711 75.7013C162.82 75.7013 162.929 75.7555 163.01 75.7962C163.092 75.8368 163.146 75.8639 163.146 75.8097C163.146 75.7013 163.581 75.4844 163.799 75.4844C163.973 75.4844 164.306 75.7013 164.451 75.8097C164.488 75.9543 164.495 76.2435 164.234 76.2435C164.101 76.2435 163.986 76.2255 163.897 76.2115C163.767 76.1911 163.69 76.1792 163.69 76.2435C163.69 76.3519 163.799 76.7857 163.908 76.6772C163.995 76.5905 164.306 76.6411 164.451 76.6772C164.379 76.8218 164.147 77.0893 163.799 77.0026C163.364 76.8941 163.364 76.7857 163.364 76.4604C163.364 76.3883 163.369 76.3215 163.374 76.2624L163.374 76.2619L163.374 76.2616L163.374 76.2611C163.391 76.0544 163.4 75.9424 163.146 76.0266C162.973 76.0843 162.861 76.234 162.777 76.3452C162.704 76.4431 162.653 76.5111 162.602 76.4604C162.515 76.3736 162.494 76.135 162.494 76.0266Z" fill="white"/>
<path d="M174.675 73.3156C174.588 73.4023 174.494 73.5686 174.458 73.6409C174.675 73.5686 175.11 73.3589 175.11 73.0987V72.6649C175.002 72.8095 174.762 73.0987 174.675 73.0987C174.567 73.0987 173.914 73.3156 173.914 73.424C173.914 73.4782 173.778 73.5596 173.642 73.6409C173.506 73.7222 173.37 73.8036 173.37 73.8578C173.37 73.9334 173.212 74.0617 173.079 74.1692C173.021 74.2159 172.968 74.2587 172.935 74.2915C172.826 74.4 172.609 74.6169 172.826 74.6169C172.949 74.6169 173.071 74.4801 173.212 74.3217C173.322 74.1981 173.445 74.0613 173.588 73.9662C173.751 73.8578 173.805 73.8036 173.846 73.7629C173.887 73.7222 173.914 73.6951 174.023 73.6409C174.095 73.6048 174.18 73.537 174.264 73.4692C174.434 73.3335 174.603 73.1978 174.675 73.3156Z" fill="white"/>
<path d="M173.479 75.8097C173.566 75.723 174.023 75.3398 174.24 75.1591C174.168 75.3037 173.993 75.6362 173.873 75.8097C173.724 76.0266 173.37 76.2435 173.153 76.3519C172.935 76.4604 173.37 75.9182 173.479 75.8097Z" fill="white"/>
<path d="M170.877 75.4255C170.813 75.4338 170.732 75.4441 170.651 75.4844C170.579 75.5205 170.47 75.5928 170.349 75.6732C170.107 75.8338 169.817 76.0266 169.672 76.0266H169.346C169.499 75.9138 169.888 75.6692 170.216 75.5928C170.544 75.5165 170.86 75.3442 170.977 75.2675C171.046 75.4039 170.985 75.4116 170.877 75.4255Z" fill="white"/>
<path d="M171.63 77.2195C171.521 77.2195 171.26 77.2411 171.086 77.3279C171.014 77.364 170.965 77.4002 170.917 77.4363C170.82 77.5086 170.724 77.5809 170.434 77.6532C170.039 77.7514 170.181 77.8496 170.322 77.9479L170.323 77.9484L170.323 77.9487C170.337 77.9586 170.352 77.9686 170.366 77.9785C170.485 78.0653 170.461 78.087 170.434 78.087C170.47 78.087 170.564 78.0653 170.651 77.9785C170.71 77.9198 170.833 77.8929 170.967 77.8634C171.081 77.8383 171.204 77.8114 171.304 77.7617C171.521 77.6532 171.739 77.3279 171.63 77.2195Z" fill="white"/>
<path d="M169.57 78.2093C169.488 78.3168 169.389 78.4451 169.237 78.5208C169.02 78.6292 168.802 78.6292 168.584 78.6292C168.433 78.6292 168.175 78.7873 167.96 78.9199C167.866 78.9774 167.78 79.0301 167.714 79.063L166.844 79.4967H167.388C167.428 79.4967 167.482 79.4531 167.551 79.3979C167.671 79.3022 167.834 79.1714 168.041 79.1714C168.248 79.1714 168.367 79.1278 168.454 79.0959C168.505 79.0775 168.545 79.063 168.584 79.063C168.624 79.063 168.708 78.9903 168.814 78.8982C168.997 78.7387 169.248 78.5208 169.455 78.5208C169.781 78.5208 169.781 78.4123 169.672 78.087C169.639 78.1198 169.606 78.1626 169.57 78.2093Z" fill="white"/>
<path d="M165.648 79.8221C165.322 79.7136 165.322 80.1557 165.43 80.1474C165.757 80.1474 165.974 79.9305 165.648 79.8221Z" fill="white"/>
<path d="M165.168 79.3882C165.487 79.3882 165.701 79.2509 165.381 79.1823C165.061 79.1136 165.061 79.3935 165.168 79.3882Z" fill="white"/>
<path d="M166.127 78.0161C166.587 77.8829 166.856 77.6623 166.376 77.7295C165.896 77.7968 165.974 78.0656 166.127 78.0161Z" fill="white"/>
<path d="M167.43 77.2365C167.027 77.495 166.683 77.5519 167.05 77.2356C167.416 76.9193 167.568 77.1547 167.43 77.2365Z" fill="white"/>
<path d="M168.632 76.7534C168.093 77.0983 167.687 77.2548 168.202 76.8733C168.716 76.4917 168.813 76.6413 168.632 76.7534Z" fill="white"/>
<path d="M164.08 79.3884C164.4 79.3884 164.613 79.6631 164.293 79.8004C163.973 79.9377 163.973 79.3779 164.08 79.3884Z" fill="white"/>
<path d="M162.807 80.0389C163.286 80.0389 163.606 79.9016 163.126 79.8329C162.647 79.7642 162.647 80.0441 162.807 80.0389Z" fill="white"/>
<path d="M162.992 80.6895C163.312 80.6895 163.525 80.5522 163.206 80.4835C162.886 80.4149 162.886 80.6948 162.992 80.6895Z" fill="white"/>
<path d="M102.672 102.161C102.672 102.269 102.455 103.137 102.346 103.571C102.259 103.918 101.802 104.583 101.585 104.872C101.621 104.691 101.694 104.308 101.694 104.221C101.694 104.113 102.237 103.029 102.346 102.812L102.672 102.161Z" fill="white"/>
<path d="M100.062 107.366C99.9896 107.619 99.8228 108.169 99.7358 108.342C99.6996 108.414 99.6512 108.463 99.6069 108.507C99.5183 108.595 99.4458 108.667 99.5183 108.884C99.627 109.21 99.8446 108.993 99.9533 108.776C100.04 108.602 100.062 107.764 100.062 107.366Z" fill="white"/>
<path fill-rule="evenodd" clip-rule="evenodd" d="M129.429 133.175C129.755 133.067 130.038 132.503 128.994 132.416C128.65 132.388 128.109 132.38 127.471 132.416C126.954 132.445 126.481 132.476 126.038 132.504L126.034 132.505L126.032 132.505C124.95 132.575 124.045 132.633 123.12 132.633C122.003 132.633 120.729 132.461 120.033 132.367C119.771 132.332 119.591 132.308 119.531 132.308C119.436 132.308 119.34 132.266 119.254 132.228C119.169 132.191 119.093 132.158 119.034 132.172C119.107 132.089 119.181 131.916 118.879 131.766C118.661 131.657 118.335 131.91 118.444 131.982C118.235 131.879 117.934 131.812 117.619 131.743L117.619 131.743L117.619 131.743C117.495 131.715 117.37 131.688 117.247 131.657C116.891 131.568 116.72 131.645 116.582 131.706C116.512 131.738 116.45 131.766 116.377 131.766C116.268 131.766 116.187 131.684 116.119 131.616C116.051 131.549 115.996 131.494 115.942 131.549C115.855 131.635 115.616 131.657 115.507 131.657C115.217 131.621 113.984 131.549 113.549 131.549C113.324 131.549 112.763 131.493 112.105 131.427C111.175 131.335 110.053 131.223 109.416 131.223C108.95 131.223 108.53 131.263 108.199 131.294C107.983 131.315 107.804 131.332 107.676 131.332C107.349 131.332 107.132 131.332 106.806 131.44C106.479 131.549 105.283 131.657 104.848 131.657C104.311 131.657 104.315 131.711 104.326 131.857C104.33 131.918 104.336 131.995 104.304 132.091C104.181 132.091 104.024 132.096 103.852 132.103C103.268 132.123 102.514 132.15 102.346 131.982C102.129 131.766 101.911 132.199 102.02 132.416C102.057 132.49 102.043 132.578 102.031 132.656C102.007 132.805 101.989 132.921 102.346 132.85C102.781 132.763 102.89 132.814 102.89 132.85C102.6 132.958 102.107 133.284 102.455 133.717C102.89 134.26 104.089 135.27 105.283 135.344C106.05 135.392 106.585 135.503 107.111 135.612C107.778 135.751 108.43 135.886 109.525 135.886H114.419C114.854 135.886 116.159 135.886 116.377 135.995C116.594 136.103 117.791 136.212 119.64 136.103C120.728 136.039 122.004 135.901 123.158 135.775C123.966 135.687 124.714 135.606 125.296 135.561L125.636 135.535C126.962 135.435 128.384 135.327 128.885 135.127C129.429 134.91 131.278 133.717 129.429 133.175ZM111.591 133.826C111.482 133.898 110.96 134.021 109.742 133.934C109.068 133.886 108.607 133.838 108.236 133.8L108.236 133.8L108.235 133.8C107.77 133.751 107.447 133.717 107.023 133.717C106.806 133.717 106.616 133.726 106.452 133.734C106.04 133.753 105.796 133.764 105.718 133.609C105.609 133.392 106.044 133.392 106.697 133.392C106.989 133.392 107.259 133.457 107.518 133.52C107.836 133.596 108.137 133.669 108.437 133.609C108.981 133.501 110.721 133.501 110.939 133.501C111.156 133.501 109.198 133.717 108.981 133.717C108.763 133.717 111.265 133.934 111.591 133.826Z" fill="white"/>
<path d="M143.351 97.8233C142.742 98.7776 143.75 100.137 144.438 100.534C142.778 101.822 144.012 103.421 144.824 104.473C144.969 104.661 145.101 104.832 145.2 104.98C145.852 105.956 149.986 108.234 151.617 108.667C152.492 108.9 154.023 109.538 155.724 110.246C157.197 110.86 158.797 111.526 160.21 112.029C162.646 112.897 163.908 111.957 164.234 111.379C164.435 111.379 164.469 111.397 165.226 111.81L165.43 111.921C166.627 112.571 167.497 112.029 167.823 111.595C168.033 111.317 167.794 111.038 167.48 110.673C167.306 110.47 167.109 110.24 166.953 109.969C167.497 110.619 168.121 110.566 168.693 110.186C169.02 109.969 169.402 109.3 169.237 108.559C169.02 107.583 166.735 105.523 166.409 105.306C166.36 105.273 166.211 105.158 165.982 104.982L165.98 104.981C164.695 103.99 160.895 101.063 158.034 99.7753C154.823 98.3295 150.232 97.5722 148.11 97.2223L147.966 97.1985C147.912 97.1896 147.86 97.181 147.81 97.1727C145.852 96.8474 144.112 96.6305 143.351 97.8233Z" fill="white"/>
<path d="M85.0524 91.3168C85.9226 91.3168 86.9014 92.7266 87.6628 94.2448C88.0979 94.4255 89.2943 95.0039 89.4031 95.6545C89.5118 96.3052 89.2943 97.2811 88.4242 97.9318C89.5118 99.3415 87.8803 102.378 86.9014 103.245C86.3809 103.707 82.007 106.499 80.2667 106.932C79.0188 107.243 78.0704 107.455 77.2083 107.648C75.3488 108.064 73.8909 108.389 70.6954 109.427C68.0246 110.294 66.0909 110.294 65.4746 110.186C64.4957 110.764 61.6025 111.682 57.861 110.728C54.1195 109.774 54.5618 108.017 55.2506 107.258C55.2091 107.234 55.1549 107.209 55.0928 107.18C54.7751 107.032 54.2509 106.787 54.163 106.173C53.9685 104.816 56.0343 103.545 57.3293 102.749C57.4828 102.655 57.6254 102.567 57.7522 102.486C58.046 102.3 58.5077 101.941 59.1022 101.478C60.9289 100.057 64.0092 97.6609 67.3236 96.3052C71.1393 94.7444 75.307 94.4121 77.9268 94.2032L77.928 94.2031L77.9309 94.2029C78.222 94.1797 78.4939 94.158 78.744 94.1363C79.2516 94.2086 80.7018 94.0279 80.7018 94.0279C80.7018 94.0279 80.593 93.1604 81.3544 92.2928C81.9635 91.5988 83.2397 91.4253 83.6385 91.5337C83.6385 91.4253 83.682 91.2084 83.856 91.2084C84.03 91.2084 84.146 91.4253 84.1823 91.5337C84.1823 91.4614 84.3563 91.3168 85.0524 91.3168Z" fill="white"/>
</svg>
