<svg width="184" height="124" viewBox="0 0 184 124" fill="none" xmlns="http://www.w3.org/2000/svg">
<g clip-path="url(#clip0_0_67)">
<path fill-rule="evenodd" clip-rule="evenodd" d="M16.9641 2.80141C17.244 1.4007 17.8038 0 18.9234 0C20.69 0 20.9672 1.07345 21.1946 1.95388C21.3456 2.53821 21.4745 3.03752 22.0023 3.08155C23.1423 3.17662 23.3071 4.56859 23.432 5.62407C23.4911 6.12356 23.5413 6.5477 23.6817 6.72337C24.2415 7.42372 24.2416 9.66485 24.1016 12.1861C23.9617 14.7074 21.8624 18.6293 21.0227 19.89C20.4164 20.8002 20.3229 21.2907 20.183 22.2712C20.1163 22.7383 19.7595 23.2855 19.2823 24.0172C18.6807 24.9397 17.8879 26.1555 17.244 27.874C16.6692 29.4083 16.3545 29.9356 16.1662 30.2512C15.9762 30.5695 15.9148 30.6724 15.8445 31.3757C15.7827 31.9948 15.5319 33.1065 15.2219 34.481C14.8305 36.2162 14.3446 38.3702 14.0252 40.4803C13.6435 43.0016 15.6599 46.4117 16.6842 47.3437C18.2237 48.7444 21.7224 51.6859 23.8217 52.2462C24.0711 52.3397 24.4315 52.5143 24.705 52.6469C24.962 52.7715 25.1423 52.8589 25.0812 52.8065C24.1021 51.9665 24.496 51.3743 24.6611 51.126L24.6614 51.1256C24.6684 51.1151 24.611 51.0698 24.5341 51.0091C24.3251 50.844 23.9721 50.5654 24.3815 50.5654C24.4691 50.39 24.6341 50.4674 24.7655 50.529C24.8439 50.5658 24.9104 50.597 24.9413 50.5654C24.9862 50.5193 25.0125 50.5405 25.0346 50.5584C25.0505 50.5713 25.0642 50.5824 25.0812 50.5654C24.8946 50.2385 24.3815 49.865 23.9616 49.865C23.8034 49.865 23.5217 49.4493 23.2223 49.0078C23.096 48.8215 22.9666 48.6306 22.842 48.4643C22.4222 47.904 21.7224 47.1109 21.7224 47.3437C21.7224 47.5263 21.5214 47.6979 21.1626 47.2037C21.0779 47.0869 21.0066 46.9954 20.9433 46.914C20.8685 46.8179 20.8048 46.7359 20.7428 46.6434C20.7106 46.5954 20.6414 46.5191 20.5615 46.4312C20.3568 46.2059 20.0823 45.9037 20.183 45.803C20.3229 45.6629 20.3229 45.5228 20.3229 45.3828C20.3229 45.3255 20.2059 45.198 20.0772 45.0576C19.8911 44.8548 19.6804 44.6251 19.7631 44.5423C19.877 44.4283 20.3173 44.7245 20.6643 44.958L20.6646 44.9581C20.7438 45.0115 20.8182 45.0615 20.8827 45.1026C22.3328 45.8283 24.1785 47.0148 25.3049 47.7388C25.483 47.8534 25.6432 47.9564 25.781 48.0441C26.5972 48.564 30.5393 49.7249 31.2391 49.5849C32.0788 49.865 33.0295 50.0504 33.7582 50.1452C34.388 50.0401 34.8829 50.0926 35.1921 50.1255C35.2952 50.1364 35.3776 50.1452 35.4376 50.1452C36.2213 50.1452 36.3706 50.5654 36.2773 50.7054C36.4172 50.5654 37.005 50.1452 38.2366 50.1452C38.9111 50.1452 40.1063 50.0611 41.1874 49.9851C42.0801 49.9223 42.895 49.865 43.2748 49.865C44.1145 49.865 43.9745 50.1452 43.9745 50.1452C44.2544 49.9584 44.9262 49.865 45.374 49.865C45.4015 49.865 45.4391 49.8342 45.488 49.7942C45.6472 49.6638 45.9252 49.4362 46.3537 49.865C46.3847 49.896 46.4768 49.8275 46.6017 49.7346C46.8807 49.5271 47.3232 49.1978 47.6132 49.5849C48.7672 49.3909 50.1613 49.1065 51.3171 48.8706C52.6652 48.5956 53.6893 48.3866 53.6311 48.4643C53.358 48.8288 49.7125 50.0051 47.6132 50.0051C47.4685 50.0395 47.4222 50.0591 47.368 50.082C47.3281 50.0989 47.284 50.1175 47.1934 50.1452C47.1577 50.1561 47.1383 50.179 47.1124 50.2096C47.0657 50.2649 46.9977 50.3453 46.7735 50.4253C46.2137 50.1452 45.6539 50.2852 45.374 50.7054C45.6539 50.8455 46.0738 50.9856 48.1415 50.5276C48.3768 50.5021 48.6127 50.4762 48.8426 50.451C49.4462 50.3848 50.0088 50.3231 50.4123 50.2852C50.5398 50.3491 50.5658 50.4832 50.5893 50.6048C50.6174 50.7499 50.642 50.8772 50.8321 50.8455C51.6718 50.7054 52.473 50.4805 53.2113 50.1452C53.0713 49.5849 53.688 49.4628 53.911 49.4448C54.0165 49.4363 53.771 49.865 53.6311 49.865C53.4911 50.1452 53.2862 51.0055 53.3512 51.2657C53.6661 51.3708 53.7448 51.2395 53.8235 51.1081C53.8498 51.0644 53.876 51.0206 53.911 50.9856C53.911 50.9856 53.6311 50.7054 53.771 50.4253C53.911 50.1452 54.1909 50.1452 54.1909 50.1452L55.1706 49.7249L55.5904 49.3047C55.8952 49.1268 56.3659 48.9848 56.9123 48.8201C57.3694 48.6822 57.8794 48.5284 58.3894 48.3242C58.8966 48.1212 59.3176 47.9105 59.7175 47.7103C60.2004 47.4687 60.6525 47.2424 61.1884 47.0636C61.3464 47.0109 61.5316 46.9207 61.7151 46.8313C62.1076 46.6401 62.4926 46.4525 62.5879 46.6434C62.6919 46.8516 62.7337 46.7659 62.8171 46.5947C62.9346 46.3537 63.1348 45.943 63.7075 45.943C63.7866 45.943 64.14 45.7634 64.5449 45.5576C65.1241 45.2632 65.8087 44.9151 65.9467 44.9626C66.0414 44.9951 66.0758 45.3507 65.6668 45.6629C65.4477 45.8301 65.1094 45.9861 64.8384 46.1109C64.5858 46.2273 64.3918 46.3168 64.4073 46.3633C64.5984 46.3044 64.8967 46.2225 65.2314 46.1305C65.9586 45.9307 66.8582 45.6836 67.2063 45.5228C68.0462 45.1348 68.737 44.6573 69.4576 44.1591C70.298 43.5782 71.179 42.9691 72.3844 42.4413C74.1758 41.6569 74.9035 42.5814 75.1834 43.1416C75.3558 42.9938 77.2827 42.0211 77.8425 42.0211C78.0936 42.0211 78.5771 41.7942 78.9958 41.5976C79.277 41.4656 79.5291 41.3473 79.6618 41.3207C81.1408 41.0247 81.6912 41.267 82.1968 41.4896C82.2846 41.5283 82.3711 41.5663 82.4609 41.6009C82.4609 41.6009 80.9914 41.951 79.1021 42.7214C77.2127 43.4918 75.7432 44.2622 75.7432 44.2622C75.3255 44.5011 74.8124 45.0647 74.2038 45.7332C73.8609 46.1098 73.4877 46.5197 73.0842 46.9235C72.8127 47.1953 72.3193 47.6046 71.7498 48.077C70.5234 49.0944 68.9437 50.4049 68.4659 51.2657C69.1656 51.2657 70.2852 51.1256 72.6643 49.4448C74.0979 48.432 75.2873 47.2073 75.9681 46.5064C76.3303 46.1334 76.5486 45.9086 76.5829 45.943C76.7229 46.0831 73.5589 49.5019 72.1045 50.8455C71.0646 51.8063 70.2181 52.3689 69.5731 52.7975C69.0897 53.1188 68.7195 53.3648 68.4659 53.6469C68.3968 53.7237 68.3277 53.8001 68.2585 53.8761C68.5063 53.8184 68.7215 53.787 68.8857 53.787C69.5388 53.787 71.0409 54.1792 71.8246 55.748C72.7691 57.6384 73.8435 58.0969 74.7973 58.5039L74.7981 58.5043L74.9035 58.5494C75.8832 58.9696 77.7414 60.1334 78.9621 61.4908C79.5851 62.1836 79.7972 62.7736 79.9541 63.2099C80.1145 63.6558 80.2171 63.9413 80.6415 64.0121C81.1111 64.0904 81.2667 64.5729 81.4233 65.0588C81.5147 65.3421 81.6065 65.6267 81.7611 65.833C82.181 66.3933 82.4609 68.4944 82.6008 70.4553C82.7408 72.4163 81.4812 75.9181 81.0614 76.1982C80.8063 76.3684 80.5512 77.1073 80.3275 77.7553C80.183 78.1739 80.0516 78.5546 79.9418 78.7195C79.6619 79.1397 78.6822 81.2408 78.6822 81.5209C78.6822 81.731 78.446 82.1775 78.2099 82.6239C78.1312 82.7728 78.0524 82.9216 77.9825 83.0617C77.7585 83.5099 77.4227 84.8359 77.2827 85.4429C77.0961 85.9098 76.6669 86.9276 76.443 87.2638C76.2191 87.5999 76.443 87.9641 76.583 88.1042V90.6255C76.583 91.3124 76.381 92.2014 76.2082 92.9622C76.0286 93.7527 75.8805 94.4047 76.0232 94.5474C76.1853 94.7097 76.5822 94.402 77.0235 94.0599C77.344 93.8114 77.688 93.5447 77.9825 93.4269C78.3959 93.2613 79.4447 93.0958 80.4935 92.9302C81.2195 92.8156 81.9456 92.701 82.4609 92.5864C83.7204 92.3063 87.0792 91.746 87.779 91.746C87.9082 91.746 88.1138 91.7174 88.3666 91.6821L88.3672 91.682C89.4837 91.5263 91.5211 91.2421 91.9775 92.7265C92.4785 94.3562 90.513 94.864 89.3925 95.1535L89.3071 95.1756L89.2533 95.1896L89.217 95.1991C89.1532 95.2159 89.0935 95.2321 89.0385 95.2478C88.421 95.4244 85.5786 95.9907 83.2464 96.4553L83.2461 96.4554C81.8789 96.7277 80.6871 96.9652 80.2217 97.0687C79.3643 97.2594 79.2202 97.9044 79.0832 98.5177C79.0189 98.8054 78.9562 99.0862 78.8222 99.3098C78.4023 100.01 78.2624 102.111 78.4023 103.512C78.5423 104.913 79.1021 108.414 84.84 107.714C89.4304 107.154 90.2981 104.306 90.1581 102.952C90.1581 102.812 89.8408 102.812 88.4787 102.812C86.6594 102.812 85.2599 102.531 84.4202 101.971C83.2733 101.206 83.0207 100.15 83.0207 99.8701C83.0207 99.7737 82.971 99.7105 82.9115 99.6348C82.798 99.4905 82.649 99.3008 82.7408 98.7495C82.8527 98.0772 83.3939 98.0959 83.5805 98.1893C83.7204 97.9091 84.1683 97.2648 85.3998 96.9286C86.6314 96.5924 89.1785 96.6952 90.2981 96.7886C92.7705 96.8352 98.2473 96.9566 100.374 97.0687C103.034 97.2088 107.092 97.4889 109.611 98.7495C112.13 100.01 111.011 101.271 110.031 102.111C111.011 102.812 111.291 104.212 108.492 104.773C106.999 105.071 105.547 104.454 104.537 104.025C103.653 103.65 103.108 103.418 103.174 104.072C103.271 105.045 103.586 105.56 103.789 105.893L103.79 105.893L103.799 105.909C103.813 105.931 103.826 105.953 103.838 105.973L103.846 105.987L103.858 106.007L103.867 106.023L103.873 106.033C104.48 106.874 106.532 108.498 109.891 108.274C113.634 108.025 113.484 104.324 113.407 102.432L113.407 102.432L113.407 102.43L113.407 102.43C113.398 102.2 113.39 101.998 113.39 101.831C113.39 100.29 113.11 99.3098 112.69 97.9091C112.321 96.679 111.845 96.5292 110.881 96.2263L110.881 96.2262C110.747 96.1842 110.604 96.1393 110.451 96.0882C109.443 95.752 107.139 95.3878 106.112 95.2478C105.226 95.2945 103.174 95.2198 102.054 94.5474C100.654 93.707 101.074 92.7265 101.634 91.8861C102.147 91.1155 104.073 91.5225 104.928 91.7035L104.929 91.7036L105.013 91.7213C105.057 91.7305 105.097 91.7388 105.133 91.746C105.833 91.8861 109.191 92.0262 110.451 92.0262C111.71 92.0262 114.23 92.5864 115.349 92.8666C115.991 93.0271 116.954 93.7394 117.844 94.3976C118.507 94.8881 119.129 95.3485 119.548 95.5279C120.331 95.8641 121.554 97.8157 122.067 98.7495C121.88 98.0492 121.507 96.6205 121.507 96.5084C121.507 96.3683 120.807 95.3878 120.527 95.1077C120.387 94.9676 120.247 94.6175 120.107 94.2673C119.968 93.9171 119.828 93.5669 119.688 93.4269C119.408 93.1467 118.988 91.746 118.988 91.3258C118.988 91.1477 118.938 90.9695 118.89 90.8021C118.826 90.5745 118.767 90.3666 118.848 90.2052C118.953 89.9943 119.614 90.8952 119.994 91.4129L119.994 91.4133L119.994 91.4136C120.119 91.5831 120.213 91.7115 120.247 91.746C120.359 91.8581 120.387 91.3258 120.387 91.0457C120.294 90.6255 120.079 89.673 119.968 89.2248C119.828 88.6645 119.828 88.4719 119.968 88.6645C120.107 88.8571 120.527 88.3843 120.387 88.3843C120.247 88.3843 119.828 88.1042 119.828 87.8241C119.828 87.5439 119.548 86.7035 119.268 86.0031C119.044 85.4429 118.895 84.8709 118.848 84.655L119.548 85.4429C119.454 85.0226 119.24 84.0982 119.128 83.762C119.016 83.4258 118.615 81.661 118.428 80.8205C118.521 81.4742 118.708 82.8376 118.708 83.0617C118.708 83.1401 118.73 83.3064 118.755 83.4989L118.755 83.4992L118.756 83.5006C118.821 83.9959 118.909 84.6639 118.708 84.4624C118.428 84.1822 118.428 83.4819 118.428 83.2017C118.428 82.9776 117.588 81.6143 117.169 80.9606C117.448 81.5676 118.036 82.8376 118.148 83.0617C118.2 83.1647 118.194 83.4003 118.188 83.6848C118.177 84.1742 118.163 84.8085 118.428 85.1627C118.691 85.5137 118.789 86.1396 118.86 86.5927C118.903 86.8627 118.936 87.0714 118.988 87.1237C119.1 87.2358 119.408 87.7307 119.548 87.9641C119.641 88.431 119.828 89.4489 119.828 89.785C119.828 90.0026 119.94 90.4082 120.029 90.7291L120.029 90.7294C120.112 91.028 120.175 91.2532 120.107 91.1857C119.968 91.0457 119.408 89.9251 119.408 89.5049C119.408 89.2475 119.25 88.885 119.096 88.5301C118.998 88.3056 118.902 88.0841 118.848 87.8941C118.736 87.5019 118.055 86.2833 117.728 85.723C117.868 86.0031 118.148 86.6195 118.148 86.8436C118.148 87.0677 118.615 88.431 118.848 89.0847C118.708 88.8979 118.372 88.3283 118.148 87.5439C118.037 87.1549 117.794 86.5231 117.558 85.9115C117.2 84.9816 116.86 84.0977 117.029 84.1822C117.253 84.2943 117.588 84.976 117.728 85.3028V84.6024L117.308 83.762C117.197 83.5379 116.795 82.9216 116.609 82.6415L117.169 83.2017C117.215 83.155 117.28 82.9496 117.169 82.5014C117.057 82.0532 116.749 80.7272 116.609 80.1202C116.562 80.3069 116.413 80.4704 116.189 79.6299C115.965 78.7895 115.442 78.1125 115.209 77.8791C115.163 78.2526 115.097 79.0557 115.209 79.2798L115.769 80.4003V81.1007L114.789 80.1202V80.5404C114.883 80.6338 115.181 80.9046 115.629 81.2408C116.077 81.5769 116.375 82.5948 116.469 83.0617C116.282 82.8749 115.909 82.4454 115.909 82.2212C115.909 81.9971 115.349 81.661 115.069 81.5209C115.069 81.7543 115.097 82.2773 115.209 82.5014C115.321 82.7255 115.909 83.9955 116.189 84.6024C115.489 83.8087 113.95 82.0251 113.39 81.2408L113.364 81.2044L113.351 81.1869L113.308 81.1265L113.241 81.0337C112.488 79.9914 111.058 78.013 109.751 73.9571C108.352 69.6149 110.677 65.6068 111.431 64.8525C111.85 64.4323 112.364 64.1522 112.69 64.2923C112.735 64.2325 112.828 64.1422 112.942 64.0323L112.943 64.0317C113.185 63.7981 113.518 63.4763 113.67 63.1717C113.88 62.7515 114.719 62.4888 115.244 62.3247C115.419 62.27 115.559 62.2262 115.629 62.1912C115.852 62.0798 115.809 62.2343 115.711 62.584C115.686 62.674 115.658 62.7769 115.629 62.8915C115.517 63.3398 114.276 64.6658 113.67 65.2727C114.043 64.9926 114.845 64.3763 115.069 64.1522C115.293 63.9281 116.562 62.7515 117.169 62.1912C117.029 62.4713 116.665 63.1717 116.329 63.732C116.189 63.9654 115.956 64.2767 115.722 64.588C115.256 65.2105 114.789 65.833 115.069 65.833C115.33 65.833 116.183 64.6464 116.927 63.612L116.927 63.6116C117.382 62.9792 117.796 62.4038 118.008 62.1912C118.241 61.9584 118.454 61.5945 118.664 61.2341C119.027 60.6126 119.385 60.0015 119.828 60.0901C120.245 60.1737 120.364 60.0578 120.808 59.6231C121.108 59.3295 121.557 58.8904 122.347 58.2692C124.277 56.7509 126.452 57.1954 127.385 57.7089C127.588 57.6072 127.88 57.3576 128.282 57.0138L128.283 57.0136C128.434 56.8842 128.601 56.7415 128.784 56.5884C129.456 56.0281 128.225 54.4873 127.385 53.787C127.461 53.8483 127.614 53.9539 127.853 54.0998C127.122 53.5629 126.006 52.7855 125.426 52.3863C124.978 52.3863 124.959 52.0128 125.006 51.826C125.146 51.826 125.426 51.742 125.426 51.4058C125.426 51.0696 123.746 48.5577 122.906 47.3437L124.726 50.9856C124.493 50.7988 123.97 50.3413 123.746 50.0051C123.522 49.6689 122.627 47.9974 122.207 47.2037C122.3 47.3904 122.543 47.904 122.767 48.4643C122.99 49.0246 123.513 51.5925 123.746 52.8065C123.56 52.2929 123.158 51.0976 123.046 50.4253C122.934 49.753 121.6 48.1842 120.947 47.4838L122.412 50.5288C121.819 49.4439 120.668 47.8456 118.988 46.7835C120.527 47.764 120.947 49.7249 120.947 50.7054C120.947 51.6859 119.828 51.826 118.708 51.826C117.968 51.826 117.472 51.2748 117.1 50.8609C116.909 50.6488 116.751 50.4727 116.609 50.4253C116.51 50.3922 116.41 50.3514 116.306 50.3082C115.967 50.1686 115.571 50.0051 114.929 50.0051C114.258 50.0051 113.343 48.7911 112.97 48.1842C113.157 48.3242 113.586 48.6324 113.81 48.7444C114.09 48.8845 114.09 48.4643 113.81 48.3242C113.709 48.274 113.609 48.1877 113.489 48.0848C113.275 47.9008 112.999 47.6635 112.55 47.4838C112.078 47.2949 112.179 47.2334 112.424 47.0844C112.542 47.0125 112.693 46.9203 112.83 46.7835C113.278 46.7835 113.297 46.9702 113.25 47.0636L114.649 47.4838C114.416 47.3437 113.922 47.0076 113.81 46.7835C113.726 46.6154 113.642 46.5986 113.558 46.5818C113.502 46.5706 113.446 46.5594 113.39 46.5033C113.25 46.3633 112.13 46.0831 111.99 46.2232C111.85 46.3633 111.151 45.5228 111.431 44.9626C111.601 44.6216 111.357 44.5919 111.076 44.5577C110.896 44.5357 110.7 44.512 110.591 44.4023C110.367 44.1782 109.938 44.0288 109.751 43.9821V44.4023C109.611 44.3089 109.163 44.0941 108.492 43.9821C107.961 43.8935 107.933 43.581 107.914 43.3631C107.903 43.2363 107.895 43.1416 107.792 43.1416C107.568 43.1416 106.952 43.0483 106.672 43.0016C106.532 43.0483 106.252 43.1977 106.252 43.4218V43.842C106.159 43.8887 105.945 44.0101 105.833 44.1221L105.553 44.4023C105.506 44.2622 105.441 43.954 105.553 43.842L105.413 43.9821L104.993 43.5619L105.553 43.0016C105.413 42.9082 105.077 42.7214 104.853 42.7214C104.737 42.7214 104.573 42.6734 104.381 42.6171C104.109 42.5374 103.781 42.4413 103.453 42.4413H102.614L102.754 42.8615C102.894 42.9549 103.229 43.1416 103.453 43.1416C103.633 43.1416 103.64 43.1991 103.658 43.3508C103.669 43.4359 103.683 43.5508 103.733 43.7019C103.845 44.0381 103.593 44.6357 103.453 44.5423C103.267 44.4957 102.894 43.954 102.894 43.842C102.894 43.7299 102.52 43.5152 102.334 43.4218C102.287 43.3284 102.194 43.1136 102.194 43.0016C102.194 42.9549 102.209 42.9082 102.225 42.8615C102.256 42.7681 102.287 42.6747 102.194 42.5814C102.12 42.5079 102.008 42.5501 101.858 42.6068C101.722 42.6581 101.554 42.7214 101.354 42.7214H96.8757C96.5958 42.7214 97.4355 43.0016 97.7154 43.0016H98.6951C99.0505 43.0016 99.1802 43.0016 99.2992 43.0374C99.3677 43.058 99.4326 43.0905 99.5348 43.1416C99.5828 43.1657 99.6267 43.1897 99.6693 43.213C99.8751 43.3257 100.051 43.4218 100.514 43.4218H101.074L102.334 43.9821C102.194 44.0288 101.802 44.0941 101.354 43.9821C101.074 43.912 100.969 43.912 100.847 43.912C100.724 43.912 100.584 43.912 100.235 43.842C99.5348 43.7019 99.3948 43.842 99.2549 43.9821C99.1429 44.0941 98.1819 43.9354 97.7154 43.842C96.9224 43.9354 94.8045 44.0661 92.6772 43.842C90.7074 43.6345 88.0462 44.0419 85.8319 44.3809C85.0571 44.4996 84.3371 44.6098 83.7204 44.6824C81.8171 44.9065 78.7288 45.803 77.4226 46.2232C77.6559 45.9897 77.9824 45.4668 77.4226 45.2427C76.8628 45.0186 76.0698 44.9626 75.7432 44.9626C76.4896 44.8225 78.2623 44.5143 79.3819 44.4023C80.7814 44.2622 82.3209 43.5619 81.7611 43.4218C81.3133 43.3097 78.4023 43.842 77.0028 44.1221C77.3293 43.8887 78.3463 43.3377 79.8018 43.0016C80.314 42.8833 80.7597 42.765 81.1701 42.656C82.2172 42.3781 83.0342 42.1611 84.1403 42.1611C85.1826 42.1611 84.9418 41.9685 84.6775 41.7572C84.5515 41.6563 84.4202 41.5513 84.4202 41.4608C84.1641 41.3327 83.9666 41.3217 83.7071 41.3074C83.3993 41.2904 83.0043 41.2686 82.3209 41.0406C82.2294 40.6742 81.7189 40.6073 81.1026 40.5265C80.7765 40.4838 80.4207 40.4372 80.0817 40.3402C79.1398 40.2545 79.0885 40.3261 79.0624 40.3626C79.0459 40.3857 79.0395 40.3946 78.8221 40.3402C78.2623 40.2002 79.8018 39.0796 80.9214 38.7995C81.7069 38.6029 82.2168 38.82 82.7895 39.0639C83.0331 39.1676 83.2881 39.2761 83.5805 39.3597C84.5601 39.6399 84.4202 39.0796 83.5805 38.7995C83.375 38.7309 83.1778 38.6791 83.0055 38.6339C82.4737 38.4942 82.178 38.4165 82.6008 38.0991C83.1606 37.6789 84.84 37.1186 85.3998 36.9785C85.9596 36.8385 86.3795 37.1186 86.3795 37.5388C86.3795 37.7966 86.7482 37.5272 87.1302 37.2481C87.3708 37.0722 87.6167 36.8926 87.779 36.8385C88.1989 36.6984 89.4584 36.2782 90.0182 36.1381C90.4274 36.0357 91.2852 36.083 91.8812 36.1159C92.1005 36.128 92.2844 36.1381 92.3973 36.1381C92.6331 36.1381 93.0013 35.8731 93.4275 35.5663C93.7602 35.3267 94.1284 35.0617 94.4966 34.8775C95.0637 34.5937 95.4394 34.6933 95.796 34.7878C95.9673 34.8332 96.1342 34.8775 96.3159 34.8775C96.6438 34.8775 97.1158 34.7814 97.5069 34.7017C97.7833 34.6454 98.0193 34.5974 98.1353 34.5974H99.3948C99.6187 34.5974 100.022 34.5077 100.505 34.4002L100.506 34.4001L100.506 34.4C101.231 34.2387 102.138 34.0371 102.894 34.0371C104.153 34.0371 106.252 34.4573 108.072 35.2977C109.319 35.8738 109.645 35.8575 110.088 35.8354C110.291 35.8253 110.519 35.8139 110.871 35.858C111.305 35.9123 111.634 35.9034 111.882 35.8967C112.274 35.8861 112.465 35.8809 112.55 36.1381C112.632 36.3854 113.151 36.6326 113.849 36.9655C114.337 37.1983 114.913 37.4731 115.489 37.819C115.879 38.0528 116.095 38.2108 116.24 38.3169L116.24 38.3172C116.358 38.4033 116.429 38.4553 116.508 38.4861C116.629 38.5331 116.769 38.5308 117.123 38.5251C117.278 38.5225 117.474 38.5193 117.728 38.5193C118.83 38.5193 120.714 39.7242 122.196 40.6721C122.974 41.1696 123.641 41.5963 124.026 41.7409C124.69 41.9902 124.96 41.9438 125.421 41.8647C125.736 41.8105 126.142 41.7409 126.825 41.7409C128.169 41.7409 129.904 42.8615 130.604 43.4218C130.93 43.1883 131.779 42.8615 132.563 43.4218C133.347 43.9821 132.703 44.3089 132.283 44.4023L133.683 44.9626C133.449 44.7291 132.983 44.1501 132.983 43.7019C132.983 43.1416 135.082 43.5619 135.782 43.9821C136.181 44.2217 136.626 44.2336 137.297 44.2515C137.804 44.265 138.439 44.2819 139.281 44.4023C140.779 44.6165 140.149 44.8308 139.52 45.045C139.326 45.1109 139.132 45.1768 139.001 45.2427C138.788 45.3491 138.535 45.4353 138.341 45.5013C138.025 45.609 137.867 45.6629 138.301 45.6629H142.5C143.117 45.6629 143.271 45.6629 143.275 45.6869C143.276 45.695 143.261 45.7057 143.24 45.7199C143.182 45.7598 143.084 45.8277 143.199 45.943C143.381 46.1248 143.445 46.0707 143.696 45.8573L143.697 45.8571C143.833 45.7416 144.024 45.5794 144.319 45.3828C144.997 44.93 145.128 45.0261 145.3 45.1535C145.341 45.1838 145.385 45.2158 145.438 45.2427C145.64 45.3436 145.914 45.2265 146.209 45.1008C146.323 45.0519 146.441 45.0018 146.558 44.9626C146.768 44.8925 147.083 44.9976 147.45 45.1201C147.818 45.2427 148.237 45.3828 148.657 45.3828C149.272 45.3828 149.362 45.2326 149.476 45.0423C149.517 44.9726 149.562 44.8975 149.637 44.8225C149.782 44.6778 149.963 44.7199 150.202 44.7752C150.425 44.827 150.698 44.8902 151.036 44.8225C151.736 44.6824 152.016 44.8225 152.156 45.3828C152.288 45.9107 152.171 46.0655 151.806 46.5503L151.803 46.5544L151.803 46.5551L151.782 46.5831L151.736 46.6434C151.316 47.2037 149.917 47.3437 148.937 47.3437H146.138C145.765 47.3437 145.827 47.4683 145.827 47.4683C145.827 47.4683 145.812 47.4371 145.718 47.3437C145.438 47.0636 145.019 47.904 145.299 48.1842C145.529 48.4147 145.949 48.2658 146.558 48.0498C146.689 48.0033 146.829 47.9536 146.978 47.904C147.818 47.6239 148.377 47.764 148.937 47.904C149.31 47.9974 149.808 47.9663 150.306 47.9352C150.554 47.9196 150.803 47.904 151.036 47.904C151.736 47.904 151.456 48.3242 151.036 48.4643C150.788 48.5472 150.442 48.483 150.084 48.4167C149.838 48.371 149.586 48.3242 149.357 48.3242C149.074 48.3242 149.041 48.5034 149.006 48.6986C148.971 48.8894 148.934 49.0954 148.657 49.1647C148.477 49.2097 148.355 49.2548 148.258 49.2906C148.054 49.3658 147.962 49.3997 147.678 49.3047C147.494 49.2433 147.336 49.2088 147.194 49.1777C147.012 49.1377 146.855 49.1032 146.698 49.0246C146.577 48.9639 146.534 49.0084 146.457 49.0898C146.355 49.1962 146.194 49.3654 145.718 49.4448L145.653 49.4557L145.492 49.483C145.15 49.5412 145.031 49.5614 144.918 49.5436C144.858 49.5341 144.8 49.5139 144.711 49.483L144.71 49.4827C144.677 49.4715 144.641 49.4588 144.599 49.4448C144.179 49.3047 143.199 49.3047 142.5 49.3047C142.036 49.3047 141.88 49.1204 141.705 48.9146C141.616 48.8096 141.522 48.699 141.38 48.6044C141.197 48.4823 141.173 48.5464 141.124 48.6808C141.06 48.8548 140.953 49.1466 140.4 49.3047C139.825 49.4692 139.781 49.4405 139.7 49.3888C139.644 49.3525 139.57 49.3047 139.281 49.3047C138.581 49.3047 138.301 49.0246 138.021 48.6044C137.741 48.1842 136.901 48.3242 137.601 49.0246C138.095 49.5185 137.753 49.5248 137.214 49.5347C136.989 49.5388 136.729 49.5436 136.482 49.5849C135.928 49.6772 135.618 49.4654 135.391 49.3102C135.273 49.2298 135.178 49.1647 135.082 49.1647C134.802 49.1647 134.522 49.4448 134.522 50.0051C134.522 50.3286 134.616 50.2785 134.802 50.1784C134.939 50.1052 135.125 50.0051 135.362 50.0051C135.576 50.0051 135.688 49.9846 135.783 49.9672C135.937 49.9389 136.049 49.9185 136.482 50.0051C136.741 50.0571 136.963 50.0705 137.138 50.0811C137.435 50.0991 137.601 50.1091 137.601 50.2852C137.601 50.4836 137.952 50.5415 138.356 50.6081C138.522 50.6356 138.697 50.6645 138.861 50.7054C139.195 50.789 139.23 50.7729 139.352 50.7165C139.435 50.6784 139.558 50.6219 139.84 50.5654C140.244 50.4845 140.275 50.5437 140.337 50.6621C140.382 50.7488 140.444 50.8672 140.68 50.9856C141.24 51.2657 141.66 50.9856 142.08 50.7054C142.379 50.5059 142.82 50.5196 143.606 50.5439C143.923 50.5538 144.296 50.5654 144.739 50.5654C145.656 50.5654 145.729 50.5654 145.786 50.5357C145.788 50.5343 145.791 50.5327 145.794 50.5312L145.8 50.5274C145.836 50.5067 145.891 50.4747 146.138 50.4253C146.643 50.3243 146.929 50.5874 147.154 50.7946C147.242 50.8747 147.32 50.9465 147.398 50.9856C147.678 51.1256 147.818 50.9856 148.098 50.5654C148.305 50.2533 148.668 50.3275 148.955 50.3863C149.055 50.4067 149.145 50.4253 149.217 50.4253C149.441 50.4253 149.777 50.7988 149.917 50.9856H148.937C148.706 50.9856 148.475 51.113 148.267 51.2274C148.097 51.3209 147.943 51.4058 147.818 51.4058C147.701 51.4058 147.657 51.357 147.615 51.3103C147.557 51.2451 147.502 51.1841 147.258 51.2657C146.838 51.4058 146.558 51.4058 146.138 51.4058C145.718 51.4058 145.438 51.4058 145.019 51.6859C144.719 51.886 144.562 51.8717 144.292 51.8472C144.185 51.8374 144.059 51.826 143.899 51.826C143.814 51.826 143.675 51.8228 143.502 51.8188H143.501C142.531 51.7964 140.506 51.7497 141.1 52.1061C141.743 52.4923 141.913 52.4053 142.371 52.1712L142.374 52.1697C142.401 52.156 142.429 52.1418 142.458 52.1272L142.486 52.1128L142.5 52.1061C142.835 51.938 143.322 52.0725 143.809 52.207C144.134 52.2966 144.459 52.3863 144.739 52.3863C144.961 52.3863 145.169 52.3581 145.354 52.333C145.752 52.279 146.043 52.2395 146.138 52.5263C146.278 52.9466 145.998 53.0866 145.718 53.0866C145.438 53.0866 143.619 53.5068 143.199 53.6469C142.779 53.787 141.1 53.6469 139.84 53.5068C138.833 53.3948 136.435 53.18 135.362 53.0866C135.689 53.18 136.734 53.4228 138.301 53.6469C138.925 53.7361 139.392 53.7969 139.781 53.8474L139.781 53.8474L139.784 53.8477C140.614 53.9556 141.082 54.0165 141.94 54.2072C142.933 54.4281 143.23 54.2134 143.655 53.9066L143.655 53.9064L143.655 53.9062L143.656 53.906C143.769 53.824 143.891 53.7355 144.039 53.6469C144.739 53.2267 145.159 53.3668 145.438 53.6469C145.718 53.9271 146.418 54.0671 146.978 53.9271C147.426 53.815 147.444 54.4406 147.398 54.7675C147.631 54.6741 148.209 54.4033 148.657 54.0671C148.969 53.8333 149.367 53.9031 149.707 53.9627C149.978 54.0102 150.213 54.0513 150.337 53.9271C150.523 53.7403 150.71 53.8025 150.897 53.8648C150.99 53.8959 151.083 53.9271 151.176 53.9271C151.248 53.9271 151.385 53.9455 151.552 53.9682C152.038 54.0339 152.788 54.1353 152.996 53.9271C153.196 53.727 153.396 53.8842 153.596 54.0414C153.676 54.1043 153.756 54.1672 153.835 54.2072C154.008 54.2938 154.075 54.1663 154.166 53.9902C154.222 53.8814 154.288 53.7539 154.395 53.6469C154.568 53.4738 154.795 53.5146 155.108 53.5711C155.301 53.606 155.528 53.6469 155.795 53.6469C156.278 53.6469 156.628 53.3794 156.844 53.2141C156.941 53.1401 157.011 53.0866 157.054 53.0866H158.034C158.454 52.8999 159.517 52.5263 160.413 52.5263C161.24 52.5263 161.609 52.0676 161.802 51.828C161.87 51.7433 161.916 51.6859 161.953 51.6859H162.932C163.212 51.6859 163.632 51.5459 163.912 51.4058C164.136 51.2937 164.378 50.7988 164.472 50.5654L164.612 50.9856H165.032L165.311 50.4253C165.545 50.472 166.067 50.5093 166.291 50.2852C166.515 50.0611 167.224 49.4448 167.551 49.1647H168.25C168.581 49.1647 168.577 48.8023 168.532 48.6129C168.596 48.8345 169.375 48.6872 172.029 46.3633C175.154 43.6262 174.402 39.4338 174.057 37.5101C174.031 37.3664 174.008 37.2354 173.988 37.1186C173.708 35.4378 169.51 27.0336 167.551 24.9325C165.983 23.2517 162.232 14.5206 160.553 10.3652C160.693 10.5053 161.057 10.8975 161.393 11.3457C161.729 11.7939 163.119 14.2405 163.772 15.4077C163.026 13.7269 161.365 10.1131 160.693 9.10457C159.853 7.84393 159.853 6.30316 160.273 5.74288C160.693 5.1826 160.833 5.1826 162.512 9.38471C163.798 12.6003 165.783 15.3887 166.729 16.5239C165.689 15.2448 163.884 11.7971 163.342 10.2406C163.753 11.0204 164.953 12.6681 165.929 14.0067C166.44 14.7086 166.889 15.3255 167.131 15.6879C167.803 16.6964 171.982 21.8977 173.988 24.3722C173.802 23.9987 173.485 23.2237 173.708 23.1116C173.877 23.0271 173.893 22.8406 173.91 22.6445C173.921 22.5155 173.933 22.3823 173.988 22.2712C174.128 21.991 169.79 16.5283 168.67 15.1276C167.775 14.007 165.778 10.1784 164.892 8.40422C166.384 10.4586 169.398 14.6794 169.51 15.1276C169.598 15.4796 172.504 19.3711 175.172 22.9447L175.173 22.9453L175.173 22.946L175.174 22.9472C176.752 25.06 178.247 27.0613 179.027 28.1541C181.126 31.0956 183.645 35.9981 183.925 38.3792C184.205 40.7604 183.785 43.4218 181.266 47.3437C179.25 50.4813 174.548 52.8532 172.449 53.6469C172.216 53.9737 171.665 54.6554 171.329 54.7675C170.909 54.9075 170.49 55.4678 170.35 55.748C170.21 56.0281 166.711 57.4288 166.011 57.4288C165.619 57.4288 165.358 57.5611 165.032 57.7267C164.777 57.8563 164.482 58.0062 164.052 58.1292C163.912 58.5494 162.093 59.2497 160.833 59.6699C160.751 59.6973 160.657 59.7293 160.55 59.7656L160.549 59.7658C159.015 60.2874 154.928 61.6765 148.517 62.3313C142.658 62.9297 140.374 62.1986 139.397 61.8858C139.231 61.8325 139.103 61.7914 139.001 61.771C138.301 61.6309 135.502 61.2107 133.963 61.0706C133.838 61.0593 133.702 61.0107 133.557 60.9305C133.624 61.4649 133.619 61.9109 133.543 62.1912C133.123 63.732 132.143 65.2727 130.044 68.0741C129.01 69.4539 129.072 70.2734 129.138 71.1636C129.176 71.6621 129.215 72.1828 129.064 72.8365C128.644 74.6574 130.874 83.6284 131.164 84.655C131.583 86.1432 132.703 92.3063 132.843 95.9481C132.595 95.2851 132.571 95.2596 132.548 95.2332C132.531 95.215 132.515 95.1964 132.423 94.9676C132.199 94.4074 131.957 92.96 131.863 92.3063C131.91 92.8666 131.975 94.0712 131.863 94.4074C131.792 94.6227 131.904 94.8748 132.049 95.2014C132.187 95.5121 132.355 95.8903 132.423 96.3683C132.483 96.7847 132.545 97.3336 132.621 98.0013L132.621 98.0027L132.621 98.0053C132.715 98.8285 132.829 99.832 132.983 100.991C133.263 103.092 132.418 107.03 131.863 108.695C131.703 109.176 131.634 109.843 131.552 110.64L131.552 110.64C131.491 111.233 131.423 111.899 131.303 112.616C130.981 114.556 130.324 116.959 127.945 117.099C126.041 117.211 125.146 114.437 125.146 113.177C125.112 113.228 125.077 113.341 125.035 113.475C124.962 113.712 124.869 114.014 124.726 114.157C124.592 114.291 124.682 114.648 124.766 114.985C124.859 115.354 124.945 115.698 124.726 115.698C124.413 115.698 124.327 116.182 124.273 116.484C124.24 116.669 124.219 116.785 124.166 116.679C124.102 116.551 124.039 116.279 123.975 116.007C123.899 115.681 123.823 115.354 123.746 115.278C123.634 115.166 123.513 114.297 123.466 113.877C123.326 113.924 123.074 114.073 123.186 114.297C123.298 114.521 123.42 116.072 123.466 116.819C123.42 116.679 123.298 116.258 123.186 115.698C123.074 115.138 122.767 114.531 122.627 114.297C122.54 114.355 122.441 114.431 122.325 114.52C121.881 114.862 121.188 115.394 119.968 115.838C118.32 116.438 115.769 116.679 113.67 116.679C113.007 116.679 112.247 116.692 111.446 116.707C109.71 116.739 107.785 116.774 106.252 116.679C105.093 116.606 103.337 116.229 101.832 115.907C100.61 115.645 99.5538 115.418 99.1149 115.418C98.4621 115.418 96.939 115.542 95.4158 115.667L95.4151 115.667L95.4148 115.667L95.414 115.667C94.6521 115.729 93.8901 115.791 93.237 115.838C91.8134 115.94 86.7993 115.978 85.5398 115.838C84.4005 115.711 82.6886 115.814 80.6114 115.938C80.3922 115.951 80.1689 115.965 79.9418 115.978C78.0384 116.09 76.1631 115.651 75.4633 115.418C75.5567 116.072 75.6033 117.267 75.6033 117.939C75.6033 118.069 75.6267 118.276 75.6559 118.534C75.8158 119.948 76.1505 122.907 73.784 123.262C71.4408 123.614 70.6669 122.297 70.3127 121.694L70.3126 121.694C70.2438 121.577 70.1908 121.486 70.1452 121.441C69.7372 121.033 69.7254 123.262 69.8653 123.822C70.0053 124.382 69.2585 123.471 69.0256 123.122C68.7457 122.702 68.4658 122.141 68.2734 121.756C68.081 121.371 67.976 121.161 68.046 121.441C68.1579 121.889 68.3725 122.935 68.4658 123.402C68.0926 122.842 67.3462 121.665 67.3462 121.441C67.3462 121.313 67.1413 120.981 66.892 120.577C66.5972 120.099 66.2402 119.521 66.0867 119.06L66.0612 118.983C66.0475 118.942 66.0339 118.902 66.0205 118.862L65.9607 118.684C65.6104 117.645 65.3724 116.939 65.247 115.558C65.2132 115.186 65.1141 114.781 64.9891 114.271C64.5966 112.667 63.9489 110.022 64.2673 104.072C64.6732 96.4888 64.5976 96.2875 64.0776 94.9037C63.9723 94.6236 63.8489 94.2951 63.7075 93.8471C62.9715 91.5144 63.2877 88.3843 63.9874 83.6219C64.5472 79.812 65.7135 75.5446 66.2266 73.817C65.9934 73.3034 65.4709 72.1362 65.247 71.5759C64.9671 70.8755 63.8596 68.0688 63.9874 66.5334C64.089 65.313 64.0431 63.2805 64.0103 61.8296L64.0103 61.8283C63.9979 61.2813 63.9874 60.8171 63.9874 60.5104C63.9874 59.8883 64.1169 59.2228 64.2081 58.754C64.2811 58.3785 64.3296 58.1292 64.2673 58.1292C64.228 58.1292 64.1998 58.1402 64.1671 58.153C64.0832 58.1857 63.9702 58.2299 63.5676 58.1292C63.3651 58.0785 63.3274 57.9361 63.3949 57.722L62.0281 58.2692C61.3284 58.5494 60.7686 58.9696 60.7686 58.9696C60.7706 58.9758 60.7727 58.9822 60.7748 58.9888C60.8202 59.1312 60.8921 59.3568 61.7482 59.2497C62.1263 59.2024 62.3349 59.0453 62.5549 58.8795C62.856 58.6525 63.1787 58.4093 63.9874 58.4093C63.952 58.4744 63.912 58.55 63.8675 58.6341C63.5611 59.2136 63.0412 60.1967 62.308 60.9306C61.7309 61.5082 60.4886 62.7515 59.2291 63.4518C57.9696 64.1522 55.1706 64.7125 54.6108 64.7125C54.4109 64.7125 54.1549 64.8126 53.852 64.9312C53.3064 65.1447 52.6085 65.4177 51.8117 65.2727C50.2723 64.9926 48.8728 65.2727 48.7329 65.4128C48.6396 65.2727 48.4529 65.1327 47.8931 65.1327C47.4542 65.1327 47.0152 65.2092 46.5962 65.2823C46.2137 65.349 45.8479 65.4128 45.514 65.4128C45.2241 65.4128 44.406 65.3647 43.4476 65.3084C42.0921 65.2288 40.4559 65.1327 39.6361 65.1327C39.1229 65.086 37.9287 65.0206 37.2569 65.1327C36.587 65.2444 36.5406 65.0887 36.4782 64.8789C36.4624 64.8257 36.4455 64.7691 36.4172 64.7125C36.3142 64.5063 35.9079 64.5277 35.4215 64.5534C35.2471 64.5626 35.0625 64.5724 34.8778 64.5724C34.5438 64.5724 34.3693 64.5086 34.1867 64.4419C33.9868 64.3688 33.7773 64.2923 33.3383 64.2923C32.806 64.2923 32.7236 64.236 32.6633 64.1947C32.6285 64.1709 32.6011 64.1522 32.4986 64.1522C32.2187 64.1522 31.6589 64.0121 31.519 63.872C31.4241 63.7771 31.2648 63.8109 30.9104 63.8862C30.7421 63.9219 30.5296 63.967 30.2594 64.0121C29.6852 64.1079 29.1764 63.9417 28.6883 63.7822C28.4626 63.7085 28.2414 63.6362 28.0202 63.5919C27.4317 63.4741 25.9525 62.5638 25.0807 62.0274C24.9158 61.9259 24.7727 61.8378 24.6614 61.771C23.9616 61.3508 21.7224 59.3898 21.4425 59.1096C21.1626 58.8295 20.3229 58.8295 20.4629 59.1096C20.6028 59.3898 20.7428 59.6699 20.4629 59.81C20.2915 59.8958 20.0152 59.824 19.8588 59.7554C19.8858 59.8495 19.8539 59.9993 19.7631 60.0901C19.6232 60.2302 19.4832 59.81 19.4832 59.6699C19.4832 59.6119 19.5313 59.5058 19.5875 59.3815C19.6671 59.2058 19.7631 58.9936 19.7631 58.8295C19.7631 58.5494 19.2033 58.8295 19.2033 58.9696C19.2033 59.1096 19.0634 59.1096 18.7835 58.8295C18.5374 58.5832 17.5338 58.5534 17.3903 58.5499C17.5005 58.5669 17.6181 59.0207 17.6639 59.2497C17.8505 59.1563 18.3636 59.0536 18.9234 59.3898C19.4546 59.7088 19.1793 59.7856 18.8934 59.8654C18.8027 59.8907 18.7109 59.9163 18.6435 59.9501C18.3636 60.0901 18.9234 60.3703 19.7631 60.3703C20.6028 60.3703 20.8827 60.7905 20.8827 60.9306C20.8827 61.0006 20.6728 61.1407 20.4629 61.2807C20.253 61.4208 20.043 61.5609 20.043 61.6309C20.043 61.771 20.4629 62.0511 21.1626 62.0511C21.6462 62.0511 21.8624 62.3186 21.996 62.484C22.0558 62.5579 22.099 62.6114 22.1423 62.6114C22.2822 62.6114 23.2619 62.7515 23.2619 62.8915C23.2619 62.9892 23.6701 62.9507 24.0121 62.9184C24.1606 62.9044 24.2968 62.8915 24.3815 62.8915C24.5214 62.8915 24.8013 63.0316 25.1162 63.1892C25.4311 63.3468 25.781 63.5219 26.0609 63.5919C26.6207 63.732 28.58 64.1522 30.6793 64.1522C32.3587 64.1522 33.3383 64.6191 33.6182 64.8525C33.6649 64.8525 33.8421 64.8245 34.178 64.7125C34.5139 64.6004 34.7845 64.8525 34.8778 64.9926C34.9244 64.9926 35.1297 65.0206 35.5775 65.1327C35.8574 65.2027 36.1373 65.2027 36.3472 65.2027C36.5572 65.2027 36.6971 65.2027 36.6971 65.2727C36.6971 65.4128 35.4376 65.4128 34.8778 65.4128H33.0584C32.7785 65.693 31.5081 65.6434 29.6996 65.5529C29.4639 65.5411 29.2149 65.5303 28.9536 65.519C27.04 65.4362 24.4643 65.3248 21.5825 64.5724C19.0104 63.9008 15.5448 61.6195 13.5418 60.301L13.5416 60.3008C13.038 59.9693 12.6269 59.6987 12.3458 59.5299C11.9126 59.2697 10.3558 58.1338 9.68671 57.5689C9.36606 57.2479 9.1194 56.9887 8.90872 56.7673C8.5678 56.4091 8.32091 56.1496 8.00731 55.888C8.00731 55.888 10.6664 57.2887 10.8063 57.2887C10.9463 57.2887 9.26686 56.3082 9.26686 56.3082C9.26686 56.3082 8.42716 55.748 8.00732 55.6079C7.58749 55.4678 7.44751 54.7675 7.44751 54.7675C7.44751 54.7675 10.9463 56.0281 10.9463 55.888C10.9463 55.7883 10.5204 55.5464 10.0224 55.2637C9.82122 55.1494 9.60816 55.0285 9.40681 54.9075C8.70706 54.4873 7.86736 53.3668 7.86736 53.3668L9.26686 54.0671C9.82666 54.3473 10.5264 54.3473 10.5264 54.3473C10.5264 54.3473 8.28721 53.3668 7.30757 52.6664C6.32793 51.9661 4.0954 49.8447 2.26935 47.0636C-0.949517 42.1611 0.0301461 37.959 0.589962 35.7179C1.14978 33.4768 6.46787 22.2712 10.2465 16.9485C14.0016 11.659 16.6842 4.20211 16.9641 2.80141ZM36.4172 50.9856C36.4752 50.9856 36.5572 50.9615 36.6532 50.9334C36.789 50.8936 36.953 50.8455 37.117 50.8455C37.2569 51.2657 36.5572 51.2657 36.2773 51.2657C35.9974 51.2657 35.2976 50.9856 35.4376 50.9856H36.4172ZM46.2137 51.5459C46.0738 51.6392 45.7659 51.826 45.6539 51.826H46.3537C46.4936 51.826 46.4936 51.5459 46.2137 51.5459ZM40.3358 52.9466C40.4478 52.9466 40.849 52.8532 41.0356 52.8065C41.0822 52.8532 41.1475 52.9746 41.0356 53.0866C40.9598 53.1625 40.802 53.1972 40.6288 53.2354C40.482 53.2678 40.3242 53.3025 40.1959 53.3668C39.916 53.5068 39.4961 53.3668 39.4961 53.2267C39.4961 53.1567 39.2162 53.1567 38.9188 53.1567C38.6214 53.1567 38.3065 53.1567 38.2366 53.0866C38.0966 52.9466 39.2162 52.9466 39.4961 52.9466C39.6361 52.9466 39.6711 53.0166 39.706 53.0866C39.741 53.1567 39.776 53.2267 39.916 53.2267C40.0799 53.2267 40.1479 53.1306 40.2041 53.0509C40.2439 52.9946 40.2779 52.9466 40.3358 52.9466ZM48.4529 52.9466C48.4529 53.0399 48.4249 53.2267 48.313 53.2267C48.255 53.2267 48.2691 53.2988 48.2856 53.3833C48.3089 53.5027 48.337 53.6469 48.173 53.6469C48.0331 53.6469 47.8582 53.6819 47.6832 53.7169C47.5083 53.752 47.3333 53.787 47.1934 53.787C47.0676 53.787 46.8287 53.8719 46.5656 53.9654C46.2434 54.0798 45.8851 54.2072 45.6539 54.2072C45.4228 54.2072 45.0644 54.2496 44.7423 54.2878C44.4793 54.319 44.2403 54.3473 44.1145 54.3473C43.8346 54.3473 43.4147 54.6274 43.9745 54.6274C44.1145 54.6274 44.2544 54.6362 44.3944 54.6449C44.8142 54.6712 45.2341 54.6974 45.6539 54.4873C45.9869 54.3207 46.2704 54.3027 46.5339 54.2861C46.7133 54.2747 46.8833 54.2639 47.0534 54.2072C47.2061 54.1563 47.4327 54.1053 47.6594 54.0544C48.0561 53.9653 48.4529 53.8761 48.4529 53.787V52.9466ZM22.842 53.3668C22.6181 53.2547 22.1889 53.2267 22.0023 53.2267C22.4363 53.3353 22.7862 53.5281 23.052 53.6745C23.129 53.7169 23.199 53.7555 23.2619 53.787C23.5418 53.9271 23.1219 53.5068 22.842 53.3668ZM15.0048 56.1682C14.1651 56.0281 13.6053 55.1877 13.6053 55.1877C13.6053 55.1877 14.8512 55.8357 15.2847 56.0281C16.4043 56.3082 16.9641 56.8685 16.9641 56.8685C16.9641 56.8685 15.1429 56.1912 15.0048 56.1682ZM30.9592 60.7905C30.5393 60.7438 29.6716 60.6224 29.5597 60.5104C29.4197 60.3703 28.3001 59.81 28.1602 59.81C28.0902 59.81 27.8103 59.7049 27.5304 59.5999C27.2505 59.4948 26.9706 59.3898 26.9006 59.3898C26.8206 59.3898 27.1062 59.5727 27.3919 59.7557C27.6061 59.8929 27.8203 60.0301 27.8802 60.0901C27.9502 60.1602 28.1602 60.1952 28.3701 60.2302C28.58 60.2652 28.7899 60.3002 28.8599 60.3703C28.9999 60.5104 29.8396 60.9306 30.9592 60.7905ZM30.5393 58.1292C30.7492 58.1992 31.0641 58.2342 31.379 58.2692C31.6939 58.3042 32.0088 58.3393 32.2187 58.4093C33.3383 58.5817 32.7785 58.8295 32.6386 58.8295C32.5874 58.8295 32.4613 58.8108 32.3013 58.787L32.3011 58.7869C32.0239 58.7457 31.6451 58.6894 31.379 58.6894C30.9592 58.6894 30.1195 57.9891 30.5393 58.1292ZM34.7378 57.0086C34.7845 57.0086 34.7938 56.9806 34.4579 56.8685C34.248 56.7985 33.8981 56.7985 33.5482 56.7985C33.1984 56.7985 32.8485 56.7985 32.6386 56.7285C32.4494 56.6654 32.2035 56.6307 31.9775 56.5988C31.7019 56.56 31.4559 56.5253 31.379 56.4483C31.2391 56.3082 31.6589 57.0086 31.9388 57.0086C32.0148 57.0086 32.1322 56.9983 32.2712 56.986C32.6439 56.9532 33.1725 56.9066 33.4783 57.0086C33.8981 57.1487 34.5979 57.2887 34.7378 57.0086ZM34.4579 58.6894C34.8778 58.6894 35.2976 58.8295 35.4376 59.1096H34.5979C34.3739 59.1096 33.8515 58.8295 33.6182 58.6894H34.4579ZM37.8167 57.2887C37.9567 57.5689 38.0966 57.7089 38.3765 57.7089H39.916C40.1959 57.7089 39.3562 57.4288 38.7964 57.4288C38.4232 57.4288 38.1744 57.3666 38.0085 57.3251C37.9256 57.3043 37.8634 57.2887 37.8167 57.2887ZM41.8753 60.3703C42.0152 60.5104 42.8549 60.5104 42.9949 60.5104C42.9249 60.5104 42.575 60.5454 42.2252 60.5804C41.8753 60.6154 41.5254 60.6504 41.4554 60.6504C41.4042 60.6504 41.1656 60.6317 40.863 60.6079L40.8624 60.6078C40.3382 60.5666 39.6223 60.5104 39.3562 60.5104C38.9363 60.5104 37.5368 60.2302 37.6768 60.2302C37.7076 60.2302 37.7723 60.2234 37.859 60.2143C38.1661 60.1821 38.7489 60.121 39.0763 60.2302C39.4961 60.3703 41.0356 60.3703 41.3155 60.3703C41.4224 60.3703 41.5089 60.3498 41.5828 60.3324C41.7023 60.3041 41.7888 60.2837 41.8753 60.3703ZM165.23 15.761C164.984 15.4689 164.809 15.2426 164.752 15.1276C164.675 14.9735 164.82 15.1795 165.12 15.6057L165.121 15.606L165.23 15.761ZM165.23 15.761C166.183 16.8924 168.212 19.0108 168.67 19.4698C169.403 20.2034 170.456 21.791 171.643 23.5801L171.653 23.5951C171.822 23.8507 171.995 24.1104 172.169 24.3722C171.749 23.8119 169.798 21.2821 169.51 21.0105C167.86 19.4563 166.075 16.959 165.23 15.761ZM174.408 24.3722C174.501 24.3722 174.716 24.4283 174.828 24.6524C174.968 24.9325 175.108 25.2126 174.968 25.2126C174.875 25.2126 174.781 25.0881 174.688 24.9636L174.688 24.9633C174.641 24.9012 174.595 24.839 174.548 24.7924C174.436 24.6804 174.408 24.4656 174.408 24.3722ZM172.029 53.787C171.93 53.787 170.821 54.0951 170.49 54.2072L170.769 54.4873L172.029 53.787ZM169.51 54.6274C169.493 54.6274 169.446 54.6435 169.376 54.672C169.423 54.6564 169.468 54.6415 169.51 54.6274ZM169.376 54.672C168.643 54.9154 167.376 55.3278 167.271 55.3278C167.201 55.3278 166.711 55.5379 166.221 55.748C165.731 55.9581 165.241 56.1682 165.171 56.1682C165.06 56.1682 165.311 56.2616 165.451 56.3082C165.918 56.1215 166.879 55.748 166.991 55.748C167.061 55.748 167.656 55.4678 168.25 55.1876L168.251 55.1874C168.703 54.9746 169.155 54.7618 169.376 54.672ZM141.24 57.5689L140.68 57.2887H140.12C140.027 57.1954 139.812 57.0086 139.701 57.0086H139.281L139.84 57.4288L140.4 57.5689H141.24ZM137.181 58.6894L136.202 58.4093H135.922L135.502 58.1292H134.942L134.662 57.849L133.683 57.7089L134.662 58.1292L135.362 58.4093L136.202 58.5494L137.181 58.6894ZM86.3795 41.0406L86.0996 40.7604H86.3795L85.3998 40.2002V39.92H84.84L84.5601 40.2002L84.7001 40.3402L84.5601 40.4803H84.2802C84.0003 40.5737 83.5525 40.7604 84.0003 40.7604C84.4481 40.7604 84.9333 40.5737 85.1199 40.4803L86.3795 41.0406ZM85.3998 42.0211L85.5398 42.1611L85.8197 42.3012V42.5113H85.2599V42.3012L85.1199 42.0211H85.3998ZM89.5983 39.2197C89.8782 39.0796 90.6059 38.7714 91.2777 38.6594L92.9571 38.3792C92.7239 38.2392 92.2014 37.959 91.9775 37.959C91.8375 37.959 91.7325 38.0291 91.6276 38.0991C91.5226 38.1691 91.4177 38.2392 91.2777 38.2392C91.1609 38.2392 91.0684 38.1904 90.98 38.1437C90.8566 38.0785 90.741 38.0175 90.578 38.0991C90.438 38.1691 90.2631 38.3442 90.0881 38.5193C89.9132 38.6944 89.7382 38.8695 89.5983 38.9395C89.4349 39.0213 89.2238 38.9121 89.0207 38.8071C88.8759 38.7322 88.7352 38.6594 88.6187 38.6594C88.4895 38.6594 88.3603 38.8384 88.2311 39.0174C88.0804 39.2263 87.9297 39.4352 87.779 39.3597C87.6632 39.3018 87.5475 39.1481 87.4416 39.0075C87.2915 38.8081 87.1613 38.6352 87.0792 38.7995C86.9895 38.9791 87.1875 39.2164 87.3411 39.4004C87.427 39.5034 87.4991 39.5896 87.4991 39.6399C87.4991 39.78 88.4787 40.0601 88.7586 39.78C89.0385 39.4998 89.4584 39.2197 89.5983 39.2197ZM92.8172 40.7604C92.9571 40.9005 93.237 40.9005 93.9368 40.6204C94.6365 40.3402 95.8961 39.92 96.3159 39.92C96.7358 39.92 97.4355 39.6399 97.4355 39.4998C97.4355 39.3597 96.3159 39.4998 96.036 39.6399C95.8961 39.7099 95.5812 39.78 95.2663 39.85C94.9514 39.92 94.6365 39.9901 94.4966 40.0601C94.4112 40.1028 94.2476 40.1456 94.0535 40.1963C93.6116 40.3117 93.0117 40.4685 92.8172 40.7604ZM100.864 35.8547C100.678 35.8209 100.51 35.7901 100.374 35.858C100.095 35.9981 99.1149 36.4183 98.835 36.4183C98.5551 36.4183 99.3948 35.858 99.8147 35.858C99.9418 35.858 100.12 35.8451 100.315 35.8311C100.764 35.7988 101.299 35.7603 101.494 35.858C101.278 35.9302 101.061 35.8907 100.864 35.8547ZM102.894 38.2392C102.754 38.2392 101.774 38.2392 101.214 38.3792C100.654 38.5193 99.5348 38.7995 99.2549 38.7995C98.975 38.7995 98.4152 38.9395 98.835 38.9395C99.0299 38.9395 99.4357 38.849 99.8707 38.752C100.373 38.64 100.914 38.5193 101.214 38.5193C101.774 38.5193 103.034 38.2392 102.894 38.2392ZM135.502 46.5033C135.39 46.5033 135.269 46.5967 135.222 46.6434L135.782 46.7835C135.735 46.6901 135.614 46.5033 135.502 46.5033ZM134.382 47.0636C134.662 47.2037 134.942 47.4838 134.662 47.4838C134.382 47.4838 134.242 47.4838 134.242 47.3437C134.242 47.2037 134.275 47.0033 134.382 47.0636ZM136.122 45.1098C135.684 45.2008 135.245 45.3828 135.684 45.3828C136.122 45.3828 136.342 45.3828 136.342 45.2918C136.342 45.2008 136.29 45.0706 136.122 45.1098ZM169.93 22.6914C170.35 23.1583 171.245 24.1481 171.469 24.3722C171.693 24.5963 171.936 25.0259 172.029 25.2126C171.516 24.6057 170.378 23.2517 169.93 22.6914ZM120.387 61.3508L120.667 61.6309C120.233 62.0659 119.41 62.9096 119.1 63.2938L119.132 63.2443L119.155 63.2068L119.288 62.9962L119.289 62.9949L119.289 62.9945C119.648 62.4231 120.211 61.5269 120.387 61.3508ZM118.988 63.4518C118.954 63.52 119.003 63.4471 119.1 63.2938C119.044 63.3631 119.005 63.4175 118.988 63.4518ZM118.428 62.6114C118.521 62.6114 118.615 62.4869 118.708 62.3624L118.708 62.3621C118.755 62.3 118.801 62.2378 118.848 62.1912L118.988 62.7515C118.708 63.0783 118.12 63.76 118.008 63.872C117.868 64.0121 117.588 64.8525 117.588 65.2727C117.588 65.693 116.889 66.3933 116.749 66.3933C116.637 66.3933 116.236 66.9536 116.049 67.2337C116.189 66.9069 116.469 66.1972 116.469 65.9731C116.469 65.809 116.709 65.5006 116.908 65.2452C117.048 65.0647 117.169 64.9105 117.169 64.8525C117.169 64.7125 117.448 64.1522 117.588 63.872C117.728 63.5919 118.288 62.6114 118.428 62.6114ZM117.029 71.9961L116.749 72.5564C116.795 72.8832 116.711 73.1426 116.749 73.2567C116.861 73.5929 116.889 73.4902 117.029 73.817V71.9961ZM119.128 67.5139C119.454 67.2337 120.107 66.5894 120.107 66.2532C120.107 66.1302 120.095 66.0311 120.086 65.9491C120.062 65.751 120.05 65.6519 120.247 65.5529C120.527 65.4128 120.387 64.5724 120.247 64.7125C120.204 64.7555 120.043 64.8778 119.835 65.0348C119.366 65.3889 118.665 65.9191 118.568 66.1132C118.507 66.236 118.526 66.3588 118.544 66.4698C118.566 66.612 118.585 66.7349 118.428 66.8135C118.148 66.9536 118.148 67.3738 118.428 67.2337C118.638 67.1287 119.005 66.7085 119.235 66.4458C119.312 66.3583 119.373 66.2883 119.408 66.2532C119.454 66.2066 119.516 66.1289 119.579 66.0511C119.703 65.8955 119.828 65.7396 119.828 65.833C119.828 65.8402 119.828 65.8477 119.83 65.8557C119.831 65.8647 119.833 65.8745 119.836 65.8849C119.837 65.8904 119.838 65.8963 119.84 65.9022L119.84 65.9027C119.881 66.0712 119.97 66.4304 119.128 67.5139ZM120.481 62.6673C120.498 62.6471 120.513 62.6284 120.527 62.6114C120.488 62.6505 120.452 62.6957 120.417 62.7459C120.142 63.0844 119.656 63.7094 119.268 64.2923C118.82 64.9646 117.962 65.9731 117.588 66.3933C118.195 65.9264 119.464 64.9086 119.688 64.5724C119.805 64.3967 119.897 64.0986 119.996 63.7804C120.111 63.4085 120.236 63.009 120.417 62.7459C120.44 62.7176 120.461 62.6914 120.481 62.6673ZM77.8425 73.817C77.6093 73.5369 77.1148 72.9766 77.0028 72.9766C76.9618 72.9766 76.9328 72.9646 76.9088 72.9546C76.8509 72.9306 76.8219 72.9186 76.7229 73.1167C76.6635 73.2356 76.6797 73.4049 76.6967 73.5819C76.7197 73.822 76.7441 74.076 76.583 74.2372C76.359 74.4613 76.3031 74.6108 76.3031 74.6574C76.4896 74.4707 76.9188 74.0972 77.1428 74.0972C77.3667 74.0972 77.7026 73.9104 77.8425 73.817ZM131.303 92.4464V93.707C131.303 94.0432 131.49 94.6875 131.583 94.9676C131.537 94.2206 131.415 92.6705 131.303 92.4464ZM79.8018 77.4589C80.0257 77.2347 80.175 76.5251 80.2217 76.1982C80.175 76.6184 80.0537 77.5149 79.9418 77.739L78.8222 79.9801C79.0554 79.2331 79.5779 77.683 79.8018 77.4589ZM74.6236 81.2408C74.577 81.3808 74.4557 81.689 74.3438 81.801C74.2633 81.8815 74.2291 81.9158 74.2145 81.957C74.2038 81.9874 74.2038 82.0217 74.2038 82.0812V82.5014L74.4837 82.3613C74.577 82.2212 74.7636 81.9131 74.7636 81.801V81.3808C74.7636 81.2408 74.7636 81.1007 74.6236 81.2408ZM74.9035 83.6219C74.7636 83.762 74.6236 84.0422 74.4837 84.3223C74.3438 84.6024 74.2038 84.8826 74.2038 85.0226C74.2038 85.0651 74.2295 85.1075 74.2575 85.1538C74.322 85.2604 74.399 85.3876 74.2038 85.5829C73.9239 85.8631 73.784 86.5634 73.784 86.8436C73.784 87.0677 73.9705 87.684 74.0639 87.9641C74.2504 87.7774 74.6236 87.3198 74.6236 86.9836C74.6236 86.8526 74.6101 86.6808 74.5956 86.4979C74.5636 86.0939 74.5273 85.6357 74.6236 85.4429C74.6537 85.3827 74.6967 85.3031 74.7456 85.2125L74.7459 85.2121C74.9248 84.8808 75.1834 84.4021 75.1834 84.1822C75.1834 83.9021 75.1834 83.4819 74.9035 83.6219ZM75.7433 87.4038C75.6313 87.9641 74.7636 89.2248 74.3438 89.785C74.4837 89.3648 74.8196 88.3283 75.0435 87.5439C75.3234 86.5634 76.1631 84.1822 76.3031 84.6024C76.4006 84.8954 76.158 85.8012 75.9548 86.5603C75.8665 86.8899 75.7856 87.1918 75.7433 87.4038ZM73.784 88.6645C73.9239 89.2248 73.0842 90.3453 72.9442 90.4854V89.0847C72.9442 88.8045 72.9442 88.5244 72.8043 88.1042C72.6643 87.684 73.5041 87.1237 73.5041 87.2638C73.5041 87.4038 73.644 88.1042 73.784 88.6645ZM73.3641 85.5829C73.5041 85.4429 73.2241 86.4233 73.0842 86.7035C72.9909 86.7969 72.7763 87.0397 72.6643 87.2638C72.5804 87.4318 72.446 88.0034 72.352 88.4035C72.2893 88.6701 72.2445 88.8606 72.2445 88.8045C72.2445 88.7748 72.2508 88.7008 72.2594 88.5999L72.2595 88.5996C72.2914 88.2258 72.3547 87.4843 72.2445 87.2638C72.1045 86.9836 72.3844 86.5634 72.6643 86.2833L73.3641 85.5829Z" fill="white"/>
<path d="M163.212 9.80492C163.166 9.85097 163.218 10.0068 163.342 10.2406C163.283 10.0712 163.239 9.92426 163.212 9.80492Z" fill="white"/>
<path d="M122.767 51.2657C122.688 51.0695 122.57 50.8173 122.412 50.5288L122.767 51.2657Z" fill="white"/>
<path d="M14.7249 40.7604C14.585 40.6204 14.7249 40.4803 14.8649 40.4803C15.0698 40.4803 15.0497 40.5554 15.0242 40.6505C15.0149 40.6854 15.0048 40.7229 15.0048 40.7604C15.0048 40.9005 14.8649 40.9005 14.7249 40.7604Z" fill="white"/>
<path d="M15.4893 41.6334C15.4439 41.647 15.4247 41.6527 15.4247 41.6009C15.4247 41.4608 15.2847 42.1611 15.5646 42.1611C15.6829 42.1611 15.7762 42.1862 15.8445 42.2045C15.9378 42.2295 15.9845 42.242 15.9845 42.1611V41.7409C15.72 41.5645 15.5666 41.6103 15.4893 41.6334Z" fill="white"/>
<path d="M16.2644 42.7214C16.3633 42.8205 16.3223 42.8495 16.2404 42.9075C16.2064 42.9315 16.1654 42.9605 16.1244 43.0016C16.1244 43.1416 15.9845 43.2817 15.8445 43.2817C15.7046 43.2817 15.5646 42.8615 15.5646 42.7214C15.5646 42.6514 15.6696 42.6864 15.7746 42.7214C15.8795 42.7564 15.9845 42.7915 15.9845 42.7214C15.9845 42.5814 16.1244 42.5814 16.2644 42.7214Z" fill="white"/>
<path d="M16.5213 43.6284C16.543 43.5061 16.5579 43.4218 16.4043 43.4218H16.1244C15.9845 43.4218 15.9845 43.842 16.1244 43.9821C16.2644 44.1221 16.4043 44.1221 16.5443 43.9821C16.4811 43.8556 16.5035 43.7291 16.5213 43.6284Z" fill="white"/>
<path d="M18.5036 46.3633C18.5036 46.2232 18.2237 45.6629 17.9438 45.6629C17.6639 45.6629 17.6639 46.2232 17.8038 46.2232C17.9438 46.2232 18.2237 46.3633 18.2237 46.6434C18.2237 46.8045 18.2237 46.8729 18.2503 46.9287C18.27 46.9698 18.3041 47.0041 18.3636 47.0636C18.5036 47.2037 18.6435 47.3437 18.7835 47.2037C18.9234 47.0636 19.0634 46.6434 18.9234 46.5033C18.8535 46.4333 18.7485 46.4333 18.661 46.4333C18.5736 46.4333 18.5036 46.4333 18.5036 46.3633Z" fill="white"/>
<path d="M23.4018 50.2852C23.5418 50.2852 24.1016 50.8455 24.2415 51.1256L24.2415 51.5459C24.2415 51.6859 23.9616 51.826 23.6817 51.6859C23.4018 51.5459 23.2619 51.4058 23.1219 51.2657C23.0463 51.19 23.0116 51.237 22.9514 51.3183C22.9003 51.3875 22.8308 51.4815 22.7021 51.5459C22.5394 51.6273 22.4713 51.5194 22.3878 51.3873C22.3277 51.2921 22.2595 51.1843 22.1423 51.1256C21.9136 51.0112 21.9652 50.5228 21.9917 50.2715C21.9977 50.2152 22.0023 50.1708 22.0023 50.1452C22.0023 50.0051 21.8624 50.0051 21.1626 50.0051C20.5558 50.0051 20.5805 49.5837 20.5977 49.2891C20.6004 49.244 20.6028 49.2018 20.6028 49.1647C20.6028 48.9937 20.4464 48.9792 20.2609 48.9621C20.1425 48.9511 20.0122 48.9391 19.9031 48.8845C19.697 48.7814 19.7944 48.4505 19.8601 48.2272C19.8836 48.1472 19.9031 48.081 19.9031 48.0441C19.9031 47.9995 19.8746 47.9263 19.8404 47.8384C19.7673 47.6504 19.6678 47.3945 19.7631 47.2037C19.8522 47.0254 19.9412 47.2442 20.0303 47.463C20.0812 47.588 20.1321 47.713 20.183 47.764C20.2409 47.8219 20.3947 47.9519 20.575 48.1042L20.5754 48.1045C20.8306 48.3201 21.1386 48.5803 21.3026 48.7444C21.5825 49.0246 22.4222 49.7249 22.7021 49.865C22.8305 49.9293 22.9883 49.8756 23.135 49.8258C23.3082 49.767 23.466 49.7133 23.5418 49.865C23.6323 50.0461 23.4888 50.1687 23.4138 50.2327C23.3729 50.2677 23.3524 50.2852 23.4018 50.2852Z" fill="white"/>
<path d="M51.3315 49.9886C51.3199 50.0731 51.3099 50.1452 51.2519 50.1452C51.112 50.1452 50.8321 50.1452 50.972 50.2852C51.007 50.3202 51.042 50.364 51.077 50.4078C51.182 50.5391 51.2869 50.6704 51.3919 50.5654C51.5318 50.4253 51.6718 50.1452 51.5318 49.7249C51.3679 49.7249 51.348 49.8691 51.3315 49.9886Z" fill="white"/>
<path d="M6.90609 54.2072C6.71497 54.4619 6.71497 54.8439 6.81053 55.0985C6.84703 55.1958 6.86959 55.2931 6.88885 55.3762C6.92003 55.5106 6.94259 55.6079 7.00165 55.6079C7.09721 55.6079 7.38389 55.4806 7.28833 55.2259C7.24055 55.0985 7.24055 54.9394 7.24055 54.7961C7.24055 54.6529 7.24055 54.5255 7.19277 54.4619C7.16277 54.4219 7.15161 54.3819 7.14154 54.3459C7.11954 54.2671 7.10279 54.2072 6.90609 54.2072Z" fill="white"/>
<path d="M18.1193 43.3002C17.9456 43.1681 17.8038 43.0602 17.8038 43.1416C17.8038 43.2817 17.9438 43.5619 18.2237 43.7019C18.4476 43.814 18.7835 44.0288 18.9234 44.1221C18.7835 44.0288 18.5036 43.786 18.5036 43.5619C18.3863 43.5032 18.2445 43.3954 18.1193 43.3002Z" fill="white"/>
<path d="M67.5247 44.8805C67.4127 44.9926 67.5713 45.114 67.6646 45.1606C67.7113 45.114 67.8326 45.0206 67.9445 45.0206C68.0145 45.0206 67.9795 44.9856 67.927 44.933C67.8746 44.8805 67.8046 44.8105 67.8046 44.7404C67.8046 44.6004 67.6646 44.7404 67.5247 44.8805Z" fill="white"/>
<path d="M68.3259 44.4023C68.2792 44.3556 68.2419 44.2622 68.4658 44.2622C68.7457 44.2622 68.8857 44.5423 68.6058 44.5423C68.4341 44.5423 68.3677 44.5423 68.342 44.51C68.3259 44.4896 68.3259 44.4564 68.3259 44.4023Z" fill="white"/>
<path d="M22.0023 61.4908C21.7224 61.4908 21.8624 61.2107 22.0023 61.2107C22.2209 61.1013 22.2688 61.1628 22.3459 61.2616C22.3676 61.2894 22.3915 61.3201 22.4222 61.3508C22.5621 61.4908 22.2822 61.4908 22.0023 61.4908Z" fill="white"/>
<path d="M23.0551 62.0992C22.9918 62.0992 22.9285 62.3313 23.0551 62.3313C23.1817 62.3313 23.3084 62.3313 23.245 62.2152C23.2312 62.1898 23.2203 62.1644 23.2105 62.1414C23.1756 62.0595 23.154 62.0086 23.0551 62.0992Z" fill="white"/>
<path d="M172.869 39.6399C172.729 39.78 172.729 40.0601 173.009 39.92C173.168 39.8404 173.236 39.806 173.24 39.7654C173.243 39.7347 173.209 39.7003 173.149 39.6399C173.037 39.5278 172.915 39.5932 172.869 39.6399Z" fill="white"/>
<path d="M170.35 42.1611C170.35 42.3012 169.79 42.5814 169.65 42.5814C169.58 42.5814 169.475 42.5463 169.37 42.5113C169.265 42.4763 169.16 42.4413 169.09 42.4413C169.034 42.4413 168.933 42.4861 168.833 42.5309C168.681 42.5982 168.53 42.6654 168.53 42.5814C168.53 42.4413 168.81 42.1611 169.09 42.1611C169.37 42.1611 169.51 42.1611 169.79 42.0211C169.902 41.965 170.014 41.8642 170.126 41.7633C170.294 41.6121 170.462 41.4608 170.63 41.4608C170.716 41.4608 170.776 41.4743 170.822 41.4845C170.923 41.5073 170.953 41.514 171.049 41.3207C171.189 41.0406 171.609 41.0406 171.609 41.1807C171.609 41.2507 171.574 41.2857 171.539 41.3207C171.504 41.3557 171.469 41.3908 171.469 41.4608C171.189 41.6009 170.35 42.0211 170.35 42.1611Z" fill="white"/>
<path d="M167.97 42.5814C168.11 42.5814 168.25 42.8615 168.11 43.0016C168.204 43.0016 168.446 43.0576 168.67 43.2817C168.894 43.5058 168.484 43.5619 168.25 43.5619C168.204 43.4218 168.054 43.1136 167.831 43.0016C167.551 42.8615 167.831 42.5814 167.97 42.5814Z" fill="white"/>
<path d="M165.731 43.2817C165.843 43.2817 166.244 43.3751 166.431 43.4218L166.571 43.5619C166.664 43.5619 166.823 43.5899 166.711 43.7019C166.599 43.814 166.571 43.9354 166.571 43.9821L166.431 44.1221H166.151C166.151 44.0754 166.123 43.954 166.011 43.842C165.941 43.772 165.941 43.842 165.941 43.9295C165.941 44.0171 165.941 44.1221 165.871 44.1221C165.731 44.1221 165.731 44.4023 165.731 44.5423C165.731 44.6824 165.871 44.9626 166.151 44.6824C166.431 44.4023 166.851 44.1221 166.991 44.1221C167.131 44.1221 167.271 43.842 167.131 43.7019C167.019 43.5899 166.898 43.2817 166.851 43.1416C166.711 43.0016 166.403 42.7494 166.291 42.8615C166.243 42.9099 166.178 42.9248 166.108 42.941C165.975 42.9716 165.823 43.0066 165.731 43.2817Z" fill="white"/>
<path d="M164.472 43.4218C164.612 43.2817 165.032 43.1416 165.171 43.1416C165.451 43.0789 165.591 43.1416 165.591 43.2817C165.591 43.3751 165.343 43.4685 165.094 43.5619C164.969 43.6085 164.845 43.6552 164.752 43.7019C164.472 43.842 164.332 43.5619 164.472 43.4218Z" fill="white"/>
<path d="M163.072 43.7019C162.932 43.842 162.652 44.2622 162.792 44.2622C162.862 44.2622 162.932 44.2272 163.002 44.1922C163.072 44.1572 163.142 44.1221 163.212 44.1221C163.352 44.1221 163.492 44.1221 163.632 43.9821C163.712 43.9015 163.747 43.8673 163.788 43.8527C163.818 43.842 163.852 43.842 163.912 43.842C164.024 43.842 164.052 43.7486 164.052 43.7019H163.072Z" fill="white"/>
<path d="M164.332 43.9821C164.425 43.9354 164.668 43.87 164.892 43.9821C164.938 43.9821 165.06 44.0101 165.171 44.1221C165.27 44.2212 165.229 44.2502 165.147 44.3082C165.113 44.3322 165.073 44.3612 165.032 44.4023C164.942 44.492 164.967 44.5242 165.033 44.6094C165.071 44.6572 165.121 44.7218 165.171 44.8225C165.276 45.0314 164.991 45.0845 164.607 45.1561C164.477 45.1805 164.334 45.2071 164.192 45.2427C163.755 45.3521 163.659 45.2906 163.505 45.1918L163.504 45.1916C163.461 45.1639 163.413 45.1333 163.352 45.1026C163.205 45.0291 163.135 45.1872 163.062 45.3539C162.995 45.5048 162.925 45.6629 162.792 45.6629C162.665 45.6629 162.567 45.7499 162.444 45.858C162.298 45.9873 162.118 46.1469 161.813 46.2232C161.253 46.3633 160.973 45.803 160.973 45.5228V44.4023C160.973 44.0698 161.411 44.0881 161.941 44.1102C162.08 44.116 162.226 44.1221 162.372 44.1221C162.847 44.1221 162.807 44.4443 162.775 44.6953C162.76 44.8144 162.747 44.9175 162.792 44.9626C162.89 45.0602 163.056 44.8172 163.194 44.6137L163.195 44.6133L163.195 44.6129L163.195 44.6126C163.255 44.5248 163.31 44.4445 163.352 44.4023C163.492 44.2622 163.772 44.2622 164.052 44.2622C164.276 44.2622 164.332 44.0754 164.332 43.9821Z" fill="white"/>
<path d="M104.853 43.9821C104.713 43.9821 104.433 44.2622 104.433 44.4023C104.433 44.449 104.402 44.4957 104.371 44.5423C104.309 44.6357 104.246 44.7291 104.433 44.8225C104.54 44.876 104.606 44.9294 104.662 44.9751C104.754 45.0491 104.82 45.1026 104.993 45.1026C105.071 45.1026 105.149 45.1136 105.218 45.1232C105.396 45.1481 105.514 45.1645 105.413 44.9626C105.361 44.8596 105.348 44.7755 105.337 44.7104C105.319 44.5984 105.31 44.5423 105.133 44.5423C104.853 44.5423 104.713 44.5423 104.853 44.4023C104.894 44.3612 104.935 44.3322 104.969 44.3082C105.051 44.2502 105.092 44.2212 104.993 44.1221L104.853 43.9821Z" fill="white"/>
<path d="M106.694 44.4991C106.672 44.5201 106.672 44.5633 106.672 44.6824C106.672 44.9626 106.672 45.2427 106.812 45.2427C106.859 45.2427 106.921 45.2271 106.983 45.2116C107.108 45.1804 107.232 45.1493 107.232 45.2427C107.232 45.3417 107.302 45.3708 107.442 45.4288C107.5 45.4528 107.57 45.4818 107.652 45.5228C107.932 45.6629 108.212 45.8029 108.072 45.6628C107.995 45.5864 107.961 45.5516 107.968 45.5359C107.974 45.5228 108.008 45.5228 108.072 45.5228C108.184 45.5228 108.305 45.803 108.352 45.943H108.632C108.678 45.943 108.709 45.9586 108.73 45.969L108.734 45.9711L108.739 45.9731C108.747 45.9771 108.753 45.9792 108.758 45.9774C108.771 45.9719 108.771 45.9321 108.771 45.803C108.771 45.5228 108.771 45.1026 108.632 45.1026C108.591 45.1026 108.574 45.1026 108.56 45.096C108.55 45.0911 108.542 45.0826 108.527 45.0679L108.527 45.0676C108.492 45.0326 108.422 44.9626 108.212 44.8225C108.089 44.7405 107.99 44.6705 107.908 44.6125L107.908 44.6123C107.71 44.4723 107.611 44.4023 107.512 44.4023H106.952C106.859 44.449 106.797 44.4645 106.755 44.4749C106.725 44.4824 106.706 44.4872 106.694 44.4991Z" fill="white"/>
<path d="M108.212 46.3633C108.1 46.2512 108.165 46.2232 108.212 46.2232H108.632V46.5033C108.538 46.5033 108.324 46.4753 108.212 46.3633Z" fill="white"/>
<path d="M111.011 46.0831C110.731 45.803 110.311 45.3828 109.891 45.5228C109.471 45.6629 109.331 45.943 109.751 46.0831C109.974 46.1576 110.039 46.3112 110.093 46.4388C110.141 46.5512 110.18 46.6434 110.311 46.6434C110.418 46.6434 110.504 46.623 110.578 46.6055C110.698 46.5773 110.784 46.5568 110.871 46.6434C110.886 46.6587 110.903 46.6773 110.921 46.6982C110.931 46.7089 110.94 46.7201 110.95 46.7318L110.972 46.7573L110.983 46.7707C111.129 46.944 111.322 47.1722 111.431 47.0636C111.485 47.0088 111.583 46.9969 111.673 46.9859C111.813 46.9688 111.936 46.9539 111.85 46.7835C111.813 46.7084 111.785 46.6333 111.76 46.5637C111.69 46.3733 111.635 46.2232 111.431 46.2232C111.207 46.2232 111.057 46.1298 111.011 46.0831Z" fill="white"/>
<path d="M111.57 47.2037L111.71 47.6239C111.617 47.6239 111.403 47.5959 111.291 47.4838C111.212 47.4052 111.089 47.3707 110.947 47.3307C110.836 47.2996 110.714 47.2651 110.591 47.2037C110.451 47.1336 110.416 47.1336 110.398 47.1336H110.397L110.394 47.1336L110.392 47.1335L110.39 47.1333C110.379 47.1314 110.368 47.1212 110.311 47.0636C110.241 46.9936 110.206 46.9936 110.188 46.9936L110.186 46.9936L110.184 46.9935L110.182 46.9934L110.181 46.9933L110.18 46.993C110.179 46.9927 110.178 46.9924 110.177 46.992C110.171 46.9879 110.171 46.9737 110.171 46.9235C110.171 46.8115 110.264 46.7835 110.311 46.7835C110.358 46.7835 110.479 46.8115 110.591 46.9235C110.645 46.9782 110.679 47.0115 110.716 47.0401C110.773 47.0849 110.84 47.1183 111.011 47.2037H111.57Z" fill="white"/>
<path d="M142.863 44.9626C142.798 44.7758 142.765 44.6824 142.08 44.6824C141.759 44.6824 141.438 44.662 141.164 44.6445C140.721 44.6163 140.4 44.5959 140.4 44.6824C140.4 44.8225 140.4 45.1026 140.68 45.2427C140.96 45.3828 141.24 45.5228 141.8 45.5228C142.36 45.5228 142.919 45.5228 142.919 45.1026C142.894 45.0512 142.877 45.0045 142.863 44.9626Z" fill="white"/>
<path d="M149.637 51.9661C149.917 51.826 150.757 51.826 151.036 51.9661C151.316 51.9661 151.316 52.1061 151.316 52.5263C151.316 52.8097 150.935 52.8383 150.514 52.8698C150.311 52.885 150.099 52.9009 149.917 52.9466C149.441 53.0657 149.37 52.9821 149.273 52.8683C149.256 52.8483 149.238 52.8274 149.217 52.8065C149.077 52.6664 148.937 52.8065 148.657 53.0866C148.475 53.2696 148.351 53.2135 148.132 53.1136C148.015 53.0605 147.872 52.9951 147.678 52.9466C147.118 52.8065 147.398 52.3863 147.818 52.2462C148.115 52.1469 148.483 52.1884 148.772 52.221C148.891 52.2343 148.996 52.2462 149.077 52.2462C149.25 52.2462 149.316 52.1927 149.408 52.1188C149.464 52.0731 149.53 52.0195 149.637 51.9661Z" fill="white"/>
<path d="M153.424 52.216C153.57 51.956 153.685 51.7509 153.276 51.5459C152.716 51.5459 152.296 51.6859 152.296 51.9661C152.296 52.0478 152.272 52.1415 152.249 52.2331C152.192 52.4556 152.139 52.6664 152.436 52.6664C152.57 52.6664 152.69 52.6951 152.796 52.7203C153.021 52.774 153.18 52.8122 153.276 52.5263C153.313 52.4138 153.371 52.3112 153.424 52.216Z" fill="white"/>
<path d="M156.495 51.6859C156.383 51.91 156.168 51.9661 156.075 51.9661C155.935 51.5459 155.795 51.9661 155.795 52.1061C155.795 52.1762 155.69 52.1762 155.532 52.1762C155.375 52.1762 155.165 52.1762 154.955 52.2462C154.535 52.3863 154.255 52.3863 153.975 52.1061C153.696 51.826 154.255 51.5459 154.675 51.5459C154.87 51.5459 154.944 51.4855 155.024 51.4208C155.116 51.3462 155.215 51.2657 155.515 51.2657C155.888 51.2657 155.888 51.328 155.888 51.411C155.888 51.4525 155.888 51.4992 155.935 51.5459C156.015 51.6259 156.095 51.523 156.175 51.4201C156.235 51.3429 156.295 51.2657 156.355 51.2657C156.495 51.2657 156.634 51.4058 156.495 51.6859Z" fill="white"/>
<path d="M151.242 50.5654C151.139 50.7521 151.088 50.8455 151.316 50.8455C151.596 50.8455 151.876 50.7054 151.736 50.5654C151.706 50.5347 151.682 50.504 151.66 50.4762C151.583 50.3773 151.535 50.3159 151.316 50.4253C151.291 50.4767 151.265 50.5234 151.242 50.5654Z" fill="white"/>
<path d="M152.716 48.8845C152.996 49.0246 152.856 49.1647 152.576 49.3047C152.483 49.3514 152.24 49.4168 152.016 49.3047C151.806 49.1997 151.596 49.331 151.386 49.4623C151.316 49.5061 151.246 49.5499 151.176 49.5849C150.897 49.7249 150.477 49.5849 150.197 49.4448C149.917 49.3047 150.477 49.0246 150.757 49.0246C151.036 49.0246 151.316 49.0246 151.596 48.8845C151.876 48.7444 152.436 48.7444 152.716 48.8845Z" fill="white"/>
<path d="M151.596 47.6239H152.436C152.716 47.6239 153.276 47.904 152.856 48.0441C152.582 48.1356 152.487 48.1673 152.415 48.1393C152.376 48.1245 152.345 48.0927 152.296 48.0442C152.156 47.9041 152.016 47.764 151.596 47.6239Z" fill="white"/>
<path d="M154.675 48.3242C154.806 48.3242 154.845 48.3242 154.878 48.31C154.88 48.3093 154.882 48.3085 154.883 48.3076L154.885 48.3067L154.888 48.3053L154.892 48.3032L154.895 48.3013L154.9 48.2986L154.905 48.2954L154.91 48.2918L154.913 48.2897L154.924 48.2828C154.955 48.262 155.002 48.2309 155.095 48.1842C155.375 48.0441 155.655 48.1842 155.655 48.4643C155.655 48.7444 155.235 48.7444 154.955 48.7444C154.823 48.7444 154.753 48.7444 154.686 48.7593C154.612 48.7759 154.543 48.8108 154.395 48.8845C154.115 49.0246 154.115 48.7444 154.115 48.4643C154.115 48.2592 154.265 48.2793 154.456 48.3049C154.525 48.3142 154.6 48.3242 154.675 48.3242Z" fill="white"/>
<path d="M157.054 49.0246C156.914 49.1647 156.774 49.5849 157.054 49.4448C157.158 49.3928 157.262 49.3794 157.345 49.3688C157.484 49.3508 157.562 49.3408 157.474 49.1647C157.334 48.8845 157.151 48.8845 157.054 49.0246Z" fill="white"/>
<path d="M157.054 46.3633C156.914 46.5033 156.215 46.5033 155.935 46.3633C155.795 46.4099 155.459 46.5594 155.235 46.7835C155.011 47.0076 154.675 47.0636 154.535 47.0636C154.582 47.157 154.787 47.2877 155.235 47.0636C155.795 46.7835 155.655 47.6239 155.515 47.6239C155.375 47.6239 154.535 47.904 154.115 48.0441C153.813 48.145 153.656 48.0279 153.487 47.9021C153.421 47.8533 153.354 47.8031 153.276 47.764C153.052 47.6519 153.369 47.6239 153.556 47.6239C153.509 47.5772 153.416 47.4278 153.416 47.2037C153.416 47.0636 153.521 46.9936 153.626 46.9235C153.731 46.8535 153.835 46.7835 153.835 46.6434C153.835 46.4193 153.462 46.55 153.276 46.6434C153.136 46.5033 153.416 46.2232 153.696 46.0831C153.861 46.0002 153.978 46.0645 154.045 46.1017C154.092 46.1275 154.115 46.1403 154.115 46.0831C154.115 46.0251 154.139 45.919 154.168 45.7948C154.207 45.6191 154.255 45.4068 154.255 45.2427C154.255 45.0255 154.676 45.0609 154.995 45.0878C155.088 45.0956 155.172 45.1026 155.235 45.1026C155.44 45.1026 155.645 45.0275 155.905 44.9323C156 44.8975 156.102 44.86 156.215 44.8225C156.634 44.6824 157.054 44.6824 157.474 45.2427C157.834 45.7223 157.373 46.0993 157.145 46.2858C157.106 46.3172 157.074 46.3431 157.054 46.3633Z" fill="white"/>
<path d="M157.614 45.2427C157.614 44.9626 157.614 44.8225 157.894 44.8225C158.034 44.8225 158.174 44.8925 158.279 44.945C158.384 44.9976 158.454 45.0326 158.454 44.9626C158.454 44.8225 159.014 44.5423 159.294 44.5423C159.517 44.5423 159.947 44.8225 160.133 44.9626C160.18 45.1493 160.189 45.5228 159.853 45.5228C159.683 45.5228 159.535 45.4996 159.42 45.4816C159.252 45.4552 159.154 45.4398 159.154 45.5228C159.154 45.6629 159.294 46.2232 159.434 46.0831C159.545 45.9711 159.947 46.0364 160.133 46.0831C160.04 46.2699 159.741 46.6154 159.294 46.5033C158.734 46.3633 158.734 46.2232 158.734 45.803C158.734 45.7098 158.741 45.6236 158.747 45.5472L158.747 45.5467L158.747 45.5462L158.747 45.5456C158.768 45.2786 158.78 45.1339 158.454 45.2427C158.231 45.3172 158.086 45.5106 157.979 45.6542C157.885 45.7806 157.82 45.8685 157.754 45.803C157.642 45.6909 157.614 45.3828 157.614 45.2427Z" fill="white"/>
<path d="M173.289 41.7409C173.177 41.853 173.055 42.0678 173.009 42.1612C173.289 42.0678 173.848 41.797 173.848 41.4608V40.9005C173.708 41.0873 173.401 41.4608 173.289 41.4608C173.149 41.4608 172.309 41.7409 172.309 41.881C172.309 41.951 172.134 42.0561 171.959 42.1612C171.784 42.2662 171.609 42.3713 171.609 42.4413C171.609 42.539 171.405 42.7047 171.234 42.8436C171.16 42.9039 171.092 42.9592 171.049 43.0016C170.909 43.1416 170.63 43.4218 170.909 43.4218C171.067 43.4218 171.224 43.2451 171.406 43.0406C171.548 42.8809 171.705 42.7042 171.889 42.5814C172.099 42.4413 172.169 42.3713 172.221 42.3187C172.274 42.2662 172.309 42.2312 172.449 42.1612C172.542 42.1145 172.651 42.0269 172.76 41.9394C172.977 41.7642 173.195 41.5888 173.289 41.7409Z" fill="white"/>
<path d="M171.749 44.9626C171.861 44.8505 172.449 44.3556 172.729 44.1221C172.635 44.3089 172.41 44.7384 172.256 44.9626C172.064 45.2427 171.609 45.5228 171.329 45.6629C171.049 45.803 171.609 45.1026 171.749 44.9626Z" fill="white"/>
<path d="M168.401 44.4663C168.318 44.4769 168.214 44.4903 168.11 44.5423C168.017 44.589 167.877 44.6824 167.722 44.7862C167.411 44.9937 167.037 45.2427 166.851 45.2427H166.431C166.628 45.097 167.128 44.781 167.551 44.6824C167.973 44.5838 168.38 44.3612 168.53 44.2622C168.618 44.4383 168.54 44.4484 168.401 44.4663Z" fill="white"/>
<path d="M169.37 46.7835C169.23 46.7835 168.894 46.8115 168.67 46.9235C168.577 46.9702 168.515 47.0169 168.453 47.0636C168.328 47.157 168.204 47.2504 167.831 47.3437C167.324 47.4706 167.505 47.5975 167.687 47.7243L167.688 47.725L167.689 47.7254C167.707 47.7382 167.725 47.7511 167.743 47.764C167.897 47.876 167.866 47.904 167.831 47.904C167.877 47.904 167.998 47.876 168.11 47.764C168.186 47.6881 168.344 47.6534 168.517 47.6152C168.664 47.5828 168.822 47.5481 168.95 47.4838C169.23 47.3437 169.51 46.9235 169.37 46.7835Z" fill="white"/>
<path d="M166.72 48.062C166.613 48.2009 166.486 48.3667 166.291 48.4643C166.011 48.6044 165.731 48.6044 165.451 48.6044C165.256 48.6044 164.925 48.8087 164.647 48.9798C164.527 49.0542 164.416 49.1223 164.332 49.1647L163.212 49.7249H163.912C163.963 49.7249 164.033 49.6686 164.122 49.5973C164.276 49.4736 164.485 49.3047 164.752 49.3047C165.018 49.3047 165.171 49.2484 165.284 49.2072C165.349 49.1834 165.4 49.1647 165.451 49.1647C165.503 49.1647 165.61 49.0708 165.746 48.9518C165.982 48.7458 166.305 48.4643 166.571 48.4643C166.991 48.4643 166.991 48.3242 166.851 47.904C166.809 47.9464 166.766 48.0017 166.72 48.062Z" fill="white"/>
<path d="M161.673 50.1452C161.253 50.0051 161.253 50.5761 161.393 50.5654C161.813 50.5654 162.093 50.2852 161.673 50.1452Z" fill="white"/>
<path d="M161.055 49.5848C161.466 49.5848 161.741 49.4074 161.329 49.3187C160.918 49.2301 160.918 49.5916 161.055 49.5848Z" fill="white"/>
<path d="M162.289 47.8125C162.881 47.6405 163.227 47.3554 162.61 47.4423C161.992 47.5292 162.093 47.8764 162.289 47.8125Z" fill="white"/>
<path d="M163.966 46.8055C163.447 47.1394 163.005 47.2129 163.477 46.8043C163.948 46.3958 164.143 46.6999 163.966 46.8055Z" fill="white"/>
<path d="M165.512 46.1815C164.82 46.627 164.297 46.8292 164.959 46.3363C165.621 45.8435 165.745 46.0367 165.512 46.1815Z" fill="white"/>
<path d="M159.655 49.5851C160.067 49.5851 160.341 49.9398 159.93 50.1171C159.518 50.2945 159.518 49.5715 159.655 49.5851Z" fill="white"/>
<path d="M158.017 50.4252C158.634 50.4252 159.046 50.2478 158.428 50.1592C157.811 50.0705 157.811 50.432 158.017 50.4252Z" fill="white"/>
<path d="M158.256 51.2656C158.667 51.2656 158.942 51.0883 158.53 50.9996C158.119 50.9109 158.119 51.2724 158.256 51.2656Z" fill="white"/>
<path d="M80.6415 78.9996C80.6415 79.1397 80.3616 80.2603 80.2217 80.8205C80.1097 81.2688 79.5219 82.1279 79.242 82.5014C79.2887 82.2679 79.382 81.773 79.382 81.661C79.382 81.5209 80.0817 80.1202 80.2217 79.84L80.6415 78.9996Z" fill="white"/>
<path d="M77.2827 85.723C77.1894 86.0498 76.9748 86.7595 76.8629 86.9836C76.8162 87.077 76.754 87.1393 76.697 87.1963C76.583 87.3105 76.4896 87.4038 76.583 87.684C76.7229 88.1042 77.0028 87.8241 77.1428 87.5439C77.2547 87.3198 77.2827 86.2366 77.2827 85.723Z" fill="white"/>
<path fill-rule="evenodd" clip-rule="evenodd" d="M115.069 119.06C115.489 118.92 115.853 118.191 114.509 118.079C114.067 118.042 113.371 118.033 112.55 118.079C111.885 118.117 111.276 118.156 110.706 118.193L110.701 118.194L110.698 118.194C109.306 118.284 108.142 118.359 106.952 118.359C105.514 118.359 103.875 118.137 102.979 118.016C102.642 117.971 102.41 117.939 102.334 117.939C102.211 117.939 102.088 117.885 101.977 117.837C101.868 117.789 101.77 117.746 101.695 117.764C101.788 117.657 101.883 117.434 101.494 117.239C101.214 117.099 100.794 117.426 100.934 117.519C100.666 117.385 100.279 117.299 99.874 117.209L99.8736 117.209L99.8728 117.209C99.7139 117.174 99.5525 117.138 99.3948 117.099C98.9363 116.984 98.7168 117.083 98.5395 117.162C98.4491 117.203 98.3697 117.239 98.2752 117.239C98.1353 117.239 98.0303 117.134 97.9429 117.046C97.8554 116.959 97.7854 116.889 97.7154 116.959C97.6035 117.071 97.2956 117.099 97.1556 117.099C96.7824 117.052 95.1963 116.959 94.6365 116.959C94.3467 116.959 93.6246 116.887 92.7787 116.802C91.5823 116.683 90.1382 116.538 89.3184 116.538C88.7192 116.538 88.1785 116.59 87.7519 116.63C87.4742 116.657 87.2448 116.679 87.0792 116.679C86.6594 116.679 86.3795 116.679 85.9596 116.819C85.5398 116.959 84.0003 117.099 83.4405 117.099C82.7496 117.099 82.7548 117.168 82.7688 117.357C82.7746 117.436 82.782 117.535 82.7408 117.659C82.5821 117.659 82.38 117.666 82.1594 117.674C81.4074 117.701 80.4381 117.736 80.2217 117.519C79.9418 117.239 79.6619 117.799 79.8018 118.079C79.8498 118.175 79.832 118.288 79.816 118.388C79.7855 118.582 79.7618 118.732 80.2217 118.64C80.7815 118.527 80.9214 118.593 80.9214 118.64C80.5482 118.78 79.9138 119.2 80.3616 119.76C80.9214 120.46 82.4639 121.765 84.0003 121.861C84.9877 121.923 85.6758 122.066 86.3524 122.207C87.2104 122.386 88.0501 122.561 89.4584 122.561H95.7561C96.3159 122.561 97.9953 122.561 98.2752 122.702C98.5551 122.842 100.095 122.982 102.474 122.842C103.873 122.759 105.515 122.58 107.001 122.418C108.04 122.304 109.002 122.199 109.751 122.141L110.19 122.108C111.895 121.978 113.725 121.839 114.37 121.581C115.069 121.301 117.448 119.76 115.069 119.06ZM92.1174 119.9C91.9775 119.994 91.3057 120.152 89.7383 120.04C88.8704 119.978 88.2771 119.916 87.8002 119.866L87.7997 119.866L87.7991 119.866C87.2001 119.803 86.7849 119.76 86.2395 119.76C85.9606 119.76 85.7157 119.771 85.5048 119.781C84.9751 119.806 84.6602 119.82 84.5601 119.62C84.4202 119.34 84.98 119.34 85.8197 119.34C86.1956 119.34 86.5434 119.424 86.8758 119.505C87.2859 119.604 87.6724 119.697 88.0589 119.62C88.7586 119.48 90.9978 119.48 91.2777 119.48C91.5576 119.48 89.0385 119.76 88.7586 119.76C88.4787 119.76 91.6976 120.04 92.1174 119.9Z" fill="white"/>
<path d="M132.983 73.3968C132.199 74.6294 133.496 76.385 134.382 76.8986C132.246 78.5617 133.834 80.6277 134.878 81.986C135.065 82.2293 135.234 82.4499 135.362 82.6415C136.202 83.9021 141.52 86.8436 143.619 87.4038C144.745 87.7042 146.715 88.5279 148.904 89.4433C150.799 90.2354 152.857 91.0962 154.675 91.746C157.81 92.8666 159.434 91.6526 159.853 90.9056C160.112 90.9056 160.155 90.9295 161.13 91.4624L161.393 91.606C162.932 92.4464 164.052 91.746 164.472 91.1857C164.741 90.8259 164.434 90.466 164.031 89.9947C163.806 89.7323 163.552 89.4354 163.352 89.0847C164.052 89.9251 164.855 89.8562 165.591 89.3648C166.011 89.0847 166.504 88.2209 166.291 87.2638C166.011 86.0032 163.072 83.3418 162.652 83.0617C162.589 83.0193 162.397 82.8711 162.103 82.6433L162.101 82.6418C160.446 81.3626 155.557 77.5818 151.876 75.9181C147.745 74.0507 141.836 73.0724 139.107 72.6204L138.922 72.5898C138.852 72.5783 138.785 72.5672 138.721 72.5564C136.202 72.1362 133.963 71.856 132.983 73.3968Z" fill="white"/>
<path d="M57.9696 64.9926C59.0892 64.9926 60.3487 66.8135 61.3284 68.7745C61.8882 69.0079 63.4276 69.755 63.5676 70.5954C63.7075 71.4358 63.4276 72.6965 62.308 73.5369C63.7075 75.3578 61.6083 79.2798 60.3487 80.4003C59.6789 80.9962 54.0509 84.6024 51.8117 85.1627C50.2061 85.5645 48.9857 85.8382 47.8764 86.087C45.4837 86.6237 43.6078 87.0445 39.4961 88.3843C36.0596 89.5042 33.5716 89.5049 32.7785 89.3648C31.519 90.1119 27.7963 91.2978 22.982 90.0652C18.1677 88.8326 18.7368 86.5634 19.6232 85.5829C19.5698 85.5524 19.5 85.5197 19.4201 85.4823C19.0113 85.2909 18.3368 84.975 18.2237 84.1822C17.9734 82.4291 20.6316 80.7878 22.2978 79.759C22.4953 79.6371 22.6789 79.5237 22.842 79.4198C23.22 79.1791 23.8141 78.7151 24.5791 78.1178C26.9295 76.2822 30.8929 73.187 35.1577 71.4358C40.0674 69.4199 45.43 68.9907 48.8009 68.7208L48.8024 68.7207L48.8062 68.7204C49.1807 68.6905 49.5306 68.6624 49.8524 68.6344C50.5055 68.7278 52.3715 68.4944 52.3715 68.4944C52.3715 68.4944 52.2316 67.3738 53.2112 66.2532C53.995 65.3568 55.6371 65.1327 56.1502 65.2727C56.1502 65.1327 56.2062 64.8525 56.4301 64.8525C56.654 64.8525 56.8033 65.1327 56.85 65.2727C56.85 65.1794 57.0739 64.9926 57.9696 64.9926Z" fill="white"/>
</g>
<defs>
<clipPath id="clip0_0_67">
<rect width="184" height="124" fill="white"/>
</clipPath>
</defs>
</svg>
