<svg width="693" height="209" viewBox="0 0 693 209" fill="none" xmlns="http://www.w3.org/2000/svg">
<g clip-path="url(#clip0_0_41)">
<path fill-rule="evenodd" clip-rule="evenodd" d="M28.5809 4.72172C29.0525 2.36086 29.9956 0 31.8819 0C34.8581 0 35.3252 1.80928 35.7083 3.29323C35.9626 4.27812 36.1799 5.1197 37.0692 5.1939C38.9897 5.35415 39.2673 7.70028 39.4778 9.47928C39.5774 10.3212 39.662 11.036 39.8986 11.3321C40.8417 12.5126 40.8417 16.2899 40.606 20.5395C40.3702 24.789 36.8334 31.3995 35.4187 33.5242C34.3971 35.0584 34.2397 35.8851 34.0039 37.5377C33.8916 38.325 33.2904 39.2473 32.4865 40.4807C31.473 42.0355 30.1372 44.0847 29.0524 46.9811C28.0839 49.5672 27.5538 50.4559 27.2365 50.9879C26.9165 51.5243 26.813 51.6979 26.6946 52.8833C26.5904 53.9268 26.1679 55.8005 25.6456 58.1171C24.9861 61.0418 24.1676 64.6723 23.6294 68.2289C22.9863 72.4785 26.3835 78.2262 28.1093 79.7971C30.7029 82.158 36.5976 87.1158 40.1344 88.0601C40.5545 88.2177 41.1617 88.5121 41.6225 88.7355C42.0556 88.9455 42.3593 89.0928 42.2564 89.0045C40.6068 87.5887 41.2705 86.5905 41.5487 86.1721L41.5491 86.1714C41.5609 86.1537 41.4641 86.0773 41.3347 85.975C40.9824 85.6968 40.3878 85.2271 41.0775 85.2271C41.2251 84.9315 41.5031 85.0619 41.7244 85.1658C41.8566 85.2279 41.9687 85.2804 42.0207 85.2271C42.0964 85.1494 42.1406 85.1852 42.1778 85.2154C42.2046 85.2371 42.2277 85.2558 42.2564 85.2271C41.9421 84.6762 41.0775 84.0467 40.3702 84.0467C40.1036 84.0467 39.6289 83.3461 39.1246 82.6018C38.9118 82.2878 38.6938 81.966 38.4839 81.6858C37.7765 80.7415 36.5976 79.4046 36.5976 79.7971C36.5976 80.1048 36.259 80.3941 35.6544 79.561C35.5116 79.3642 35.3916 79.2099 35.2849 79.0727C35.159 78.9108 35.0515 78.7727 34.9471 78.6167C34.8929 78.5358 34.7762 78.4073 34.6416 78.259C34.2968 77.8792 33.8344 77.37 34.0039 77.2002C34.2397 76.9641 34.2397 76.728 34.2397 76.4919C34.2397 76.3954 34.0426 76.1804 33.8257 75.9439C33.5121 75.602 33.1572 75.2149 33.2966 75.0754C33.4885 74.8833 34.2302 75.3825 34.8149 75.7759L34.8153 75.7762C34.9488 75.8661 35.0742 75.9504 35.1829 76.0197C37.6259 77.2428 40.7355 79.2426 42.6332 80.4631C42.9333 80.6561 43.2033 80.8297 43.4354 80.9776C44.8105 81.8538 51.4521 83.8106 52.631 83.5745C54.0457 84.0467 55.6476 84.3591 56.8752 84.5188C57.9363 84.3418 58.7701 84.4303 59.2911 84.4856C59.4647 84.5041 59.6036 84.5188 59.7046 84.5188C61.025 84.5188 61.2765 85.2271 61.1193 85.4632C61.3551 85.2271 62.3454 84.5188 64.4203 84.5188C65.5568 84.5188 67.5704 84.3772 69.3918 84.2491C70.8958 84.1432 72.2688 84.0467 72.9086 84.0467C74.3233 84.0467 74.0875 84.5188 74.0875 84.5188C74.5591 84.2041 75.6909 84.0467 76.4454 84.0467C76.4916 84.0467 76.5551 83.9947 76.6373 83.9273C76.9057 83.7075 77.374 83.3239 78.0959 84.0467C78.1481 84.099 78.3033 83.9835 78.5137 83.8269C78.9838 83.477 79.7293 82.9222 80.2179 83.5745C82.1622 83.2476 84.5108 82.7682 86.4582 82.3706C88.7294 81.907 90.4549 81.5548 90.3567 81.6858C89.8966 82.3002 83.7547 84.2828 80.2179 84.2828C79.9742 84.3408 79.896 84.3739 79.8047 84.4124C79.7376 84.4408 79.6633 84.4722 79.5106 84.5188C79.4504 84.5372 79.4178 84.5758 79.3742 84.6274C79.2954 84.7206 79.1809 84.8561 78.8032 84.991C77.8601 84.5188 76.9169 84.7549 76.4454 85.4632C76.917 85.6993 77.6243 85.9354 81.108 85.1634C81.5045 85.1205 81.9018 85.0769 82.2891 85.0344C83.3062 84.9228 84.2539 84.8187 84.9337 84.7549C85.1486 84.8625 85.1923 85.0886 85.232 85.2935C85.2793 85.5382 85.3208 85.7527 85.641 85.6993C87.0557 85.4632 88.4057 85.0841 89.6494 84.5188C89.4136 83.5745 90.4526 83.3688 90.8283 83.3384C91.006 83.324 90.5925 84.0467 90.3567 84.0467C90.121 84.5188 89.7756 85.9689 89.8852 86.4075C90.4157 86.5846 90.5483 86.3633 90.6809 86.1419C90.7252 86.0682 90.7694 85.9944 90.8283 85.9354C90.8283 85.9354 90.3567 85.4632 90.5925 84.991C90.8283 84.5188 91.2999 84.5188 91.2999 84.5188L92.9504 83.8106L93.6577 83.1023C94.1713 82.8024 94.9644 82.5631 95.8848 82.2854C96.6549 82.0531 97.5142 81.7939 98.3735 81.4497C99.2279 81.1075 99.9373 80.7523 100.611 80.415C101.425 80.0077 102.186 79.6263 103.089 79.325C103.355 79.2361 103.667 79.0841 103.977 78.9334C104.638 78.6111 105.286 78.295 105.447 78.6167C105.622 78.9676 105.693 78.8232 105.833 78.5346C106.031 78.1283 106.368 77.4363 107.333 77.4363C107.466 77.4363 108.062 77.1335 108.744 76.7866C109.72 76.2903 110.873 75.7038 111.106 75.7837C111.265 75.8385 111.323 76.4379 110.634 76.9641C110.265 77.2459 109.695 77.5088 109.239 77.7193C108.813 77.9154 108.486 78.0662 108.512 78.1445C108.834 78.0453 109.337 77.9072 109.901 77.7522C111.126 77.4155 112.642 76.999 113.228 76.728C114.643 76.0741 115.807 75.2692 117.021 74.4295C118.437 73.4503 119.921 72.4238 121.952 71.5341C124.97 70.212 126.196 71.7702 126.668 72.7145C126.958 72.4653 130.205 70.8259 131.148 70.8259C131.571 70.8259 132.385 70.4434 133.091 70.1121C133.565 69.8896 133.989 69.6902 134.213 69.6454C136.705 69.1464 137.632 69.5548 138.484 69.93C138.632 69.9952 138.777 70.0594 138.929 70.1176C138.929 70.1176 136.453 70.7078 133.27 72.0063C130.087 73.3048 127.611 74.6032 127.611 74.6032C126.907 75.0059 126.043 75.9559 125.017 77.0825C124.44 77.7173 123.811 78.4082 123.131 79.0889C122.673 79.5469 121.842 80.2367 120.883 81.033C118.817 82.7478 116.155 84.9566 115.35 86.4075C116.529 86.4075 118.415 86.1714 122.424 83.3384C124.839 81.6314 126.843 79.5672 127.99 78.3857C128.6 77.7571 128.968 77.3783 129.026 77.4363C129.261 77.6723 123.931 83.4347 121.48 85.6993C119.728 87.3187 118.302 88.2669 117.216 88.9894C116.401 89.5309 115.777 89.9456 115.35 90.421C115.234 90.5504 115.117 90.6792 115.001 90.8073C115.418 90.7101 115.781 90.6571 116.057 90.6571C117.158 90.6571 119.689 91.3181 121.009 93.9623C122.6 97.1486 124.41 97.9214 126.017 98.6075L126.019 98.608L126.196 98.684C127.847 99.3923 130.977 101.354 133.034 103.642C134.084 104.809 134.441 105.804 134.705 106.539C134.975 107.291 135.148 107.772 135.863 107.891C136.655 108.023 136.917 108.837 137.181 109.656C137.335 110.133 137.489 110.613 137.75 110.96C138.457 111.905 138.929 115.446 139.164 118.751C139.4 122.057 137.278 127.959 136.571 128.431C136.141 128.718 135.711 129.963 135.334 131.055C135.091 131.761 134.87 132.402 134.684 132.68C134.213 133.389 132.562 136.93 132.562 137.402C132.562 137.756 132.165 138.509 131.767 139.261C131.634 139.512 131.501 139.763 131.383 139.999C131.006 140.755 130.44 142.99 130.205 144.013C129.89 144.799 129.167 146.515 128.79 147.082C128.413 147.648 128.79 148.262 129.026 148.498V152.748C129.026 153.906 128.685 155.404 128.394 156.686C128.092 158.019 127.842 159.118 128.082 159.358C128.356 159.632 129.024 159.113 129.768 158.536C130.308 158.118 130.887 157.668 131.383 157.469C132.08 157.19 133.847 156.911 135.614 156.632C136.837 156.439 138.061 156.246 138.929 156.053C141.051 155.581 146.71 154.636 147.888 154.636C148.106 154.636 148.453 154.588 148.879 154.529L148.88 154.529C150.761 154.266 154.193 153.787 154.962 156.289C155.806 159.036 152.495 159.892 150.607 160.38L150.463 160.417L150.372 160.441L150.311 160.457C150.204 160.485 150.103 160.512 150.011 160.539C148.97 160.836 144.181 161.791 140.252 162.574L140.251 162.574C137.948 163.033 135.94 163.433 135.156 163.608C133.712 163.929 133.469 165.016 133.238 166.05C133.13 166.535 133.024 167.008 132.798 167.385C132.091 168.566 131.855 172.107 132.091 174.468C132.327 176.829 133.27 182.731 142.937 181.55C150.671 180.606 152.133 175.805 151.897 173.523C151.897 173.287 151.362 173.287 149.067 173.287C146.002 173.287 143.644 172.815 142.23 171.871C140.297 170.581 139.872 168.802 139.872 168.329C139.872 168.167 139.788 168.06 139.688 167.933C139.497 167.69 139.246 167.37 139.4 166.441C139.589 165.308 140.501 165.339 140.815 165.496C141.051 165.024 141.805 163.938 143.88 163.372C145.955 162.805 150.246 162.978 152.133 163.136C156.298 163.214 165.525 163.419 169.109 163.608C173.589 163.844 180.427 164.316 184.671 166.441C188.915 168.566 187.029 170.69 185.378 172.107C187.029 173.287 187.5 175.648 182.785 176.592C180.271 177.096 177.823 176.056 176.122 175.333C174.633 174.7 173.715 174.31 173.825 175.412C173.989 177.051 174.52 177.92 174.862 178.481L174.863 178.482L174.878 178.507C174.902 178.545 174.924 178.581 174.945 178.617L174.959 178.64L174.978 178.673L174.994 178.699L175.004 178.717C176.026 180.134 179.484 182.872 185.143 182.495C191.448 182.074 191.196 175.837 191.067 172.648L191.067 172.647L191.067 172.645L191.067 172.644C191.051 172.257 191.037 171.915 191.037 171.635C191.037 169.038 190.566 167.385 189.858 165.024C189.237 162.951 188.434 162.698 186.81 162.188L186.81 162.188C186.585 162.117 186.344 162.041 186.086 161.955C184.388 161.388 180.506 160.775 178.776 160.539C177.283 160.617 173.825 160.491 171.939 159.358C169.581 157.942 170.288 156.289 171.231 154.873C172.096 153.574 175.34 154.26 176.781 154.565L176.782 154.565L176.924 154.595C176.998 154.61 177.065 154.624 177.126 154.636C178.305 154.873 183.964 155.109 186.086 155.109C188.208 155.109 192.452 156.053 194.338 156.525C195.419 156.796 197.042 157.996 198.541 159.106C199.658 159.932 200.707 160.708 201.412 161.011C202.732 161.577 204.791 164.867 205.656 166.441C205.342 165.26 204.713 162.852 204.713 162.663C204.713 162.427 203.534 160.775 203.062 160.303C202.827 160.066 202.591 159.476 202.355 158.886C202.119 158.296 201.883 157.706 201.648 157.469C201.176 156.997 200.469 154.636 200.469 153.928C200.469 153.628 200.384 153.328 200.304 153.045C200.196 152.662 200.097 152.311 200.233 152.039C200.41 151.684 201.524 153.202 202.164 154.075L202.164 154.076L202.164 154.076C202.374 154.362 202.533 154.578 202.591 154.636C202.779 154.825 202.827 153.928 202.827 153.456C202.669 152.748 202.308 151.142 202.119 150.387C201.883 149.443 201.883 149.118 202.119 149.443C202.355 149.767 203.062 148.97 202.827 148.97C202.591 148.97 201.883 148.498 201.883 148.026C201.883 147.554 201.412 146.137 200.94 144.957C200.563 144.013 200.312 143.049 200.233 142.685L201.412 144.013C201.255 143.304 200.893 141.746 200.704 141.18C200.516 140.613 199.84 137.638 199.526 136.222C199.683 137.323 199.997 139.621 199.997 139.999C199.997 140.131 200.034 140.412 200.077 140.736L200.077 140.736L200.077 140.739C200.188 141.574 200.336 142.7 199.997 142.36C199.526 141.888 199.526 140.707 199.526 140.235C199.526 139.857 198.111 137.56 197.403 136.458C197.875 137.481 198.865 139.621 199.054 139.999C199.141 140.173 199.132 140.57 199.121 141.049C199.102 141.874 199.078 142.943 199.526 143.54C199.969 144.132 200.134 145.187 200.254 145.951C200.325 146.406 200.381 146.757 200.469 146.846C200.657 147.034 201.176 147.869 201.412 148.262C201.569 149.049 201.883 150.765 201.883 151.331C201.883 151.698 202.073 152.382 202.223 152.922L202.223 152.923C202.363 153.426 202.469 153.806 202.355 153.692C202.119 153.456 201.176 151.567 201.176 150.859C201.176 150.425 200.911 149.814 200.651 149.216C200.486 148.838 200.324 148.464 200.233 148.144C200.044 147.483 198.897 145.429 198.347 144.485C198.582 144.957 199.054 145.996 199.054 146.373C199.054 146.751 199.84 149.049 200.233 150.151C199.997 149.836 199.431 148.876 199.054 147.554C198.867 146.898 198.457 145.833 198.06 144.802C197.457 143.235 196.883 141.745 197.168 141.888C197.545 142.077 198.111 143.226 198.347 143.776V142.596L197.639 141.18C197.451 140.802 196.775 139.763 196.46 139.291L197.403 140.235C197.482 140.156 197.592 139.81 197.403 139.055C197.215 138.299 196.696 136.064 196.46 135.041C196.382 135.356 196.13 135.632 195.753 134.215C195.376 132.798 194.495 131.657 194.102 131.264C194.024 131.893 193.914 133.247 194.102 133.625L195.046 135.513V136.694L193.395 135.041V135.75C193.552 135.907 194.055 136.363 194.81 136.93C195.564 137.497 196.067 139.212 196.225 139.999C195.91 139.684 195.281 138.96 195.281 138.583C195.281 138.205 194.338 137.638 193.867 137.402C193.867 137.796 193.914 138.677 194.102 139.055C194.291 139.432 195.281 141.573 195.753 142.596C194.574 141.258 191.98 138.252 191.037 136.93L190.993 136.869L190.972 136.839L190.899 136.737L190.786 136.581C189.517 134.824 187.109 131.49 184.907 124.653C182.549 117.335 186.467 110.579 187.736 109.308C188.444 108.6 189.308 108.127 189.858 108.364C189.934 108.263 190.091 108.111 190.283 107.925L190.284 107.924C190.691 107.531 191.253 106.988 191.509 106.475C191.863 105.767 193.277 105.324 194.161 105.047C194.456 104.955 194.692 104.881 194.81 104.822C195.185 104.634 195.113 104.895 194.949 105.484C194.906 105.636 194.858 105.809 194.81 106.003C194.621 106.758 192.531 108.993 191.509 110.016C192.138 109.544 193.489 108.505 193.867 108.127C194.244 107.75 196.382 105.767 197.403 104.822C197.168 105.294 196.555 106.475 195.989 107.419C195.753 107.813 195.36 108.337 194.967 108.862C194.181 109.911 193.395 110.96 193.867 110.96C194.306 110.96 195.743 108.961 196.997 107.217L196.997 107.216C197.763 106.15 198.46 105.181 198.818 104.822C199.21 104.43 199.568 103.817 199.923 103.209C200.535 102.162 201.137 101.132 201.883 101.281C202.587 101.422 202.787 101.226 203.535 100.494C204.041 99.9989 204.797 99.2589 206.128 98.2118C209.381 95.6527 213.044 96.4018 214.616 97.2675C214.958 97.096 215.45 96.6753 216.128 96.0958L216.128 96.0955C216.383 95.8774 216.664 95.6369 216.974 95.3788C218.105 94.4345 216.031 91.8375 214.616 90.6571C214.745 90.7604 215.003 90.9384 215.404 91.1843C214.172 90.2794 212.292 88.9692 211.315 88.2962C210.56 88.2962 210.529 87.6667 210.607 87.3519C210.843 87.3519 211.315 87.2102 211.315 86.6436C211.315 86.077 208.485 81.8432 207.071 79.7971L210.136 85.9354C209.743 85.6206 208.863 84.8494 208.485 84.2828C208.108 83.7162 206.599 80.8989 205.892 79.561C206.049 79.8758 206.458 80.7415 206.835 81.6858C207.212 82.6302 208.092 86.9584 208.485 89.0045C208.171 88.1388 207.495 86.1242 207.306 84.991C207.118 83.8578 204.87 81.2136 203.77 80.0332L206.238 85.1654C205.238 83.3369 203.3 80.6431 200.469 78.8528C203.062 80.5054 203.77 83.8106 203.77 85.4632C203.77 87.1158 201.883 87.3519 199.997 87.3519C198.75 87.3519 197.915 86.4229 197.288 85.7252C196.967 85.3678 196.7 85.071 196.46 84.991C196.293 84.9353 196.126 84.8664 195.95 84.7937C195.38 84.5583 194.712 84.2828 193.631 84.2828C192.499 84.2828 190.959 82.2367 190.33 81.2136C190.644 81.4497 191.367 81.9691 191.745 82.158C192.216 82.3941 192.216 81.6858 191.745 81.4497C191.575 81.3651 191.406 81.2197 191.205 81.0462C190.844 80.736 190.379 80.336 189.623 80.0332C188.827 79.7148 188.998 79.6111 189.41 79.36C189.609 79.2389 189.864 79.0833 190.094 78.8528C190.849 78.8528 190.88 79.1676 190.801 79.325L193.159 80.0332C192.766 79.7971 191.933 79.2305 191.745 78.8528C191.603 78.5695 191.462 78.5411 191.32 78.5128C191.226 78.4939 191.132 78.475 191.037 78.3806C190.801 78.1445 188.915 77.6723 188.679 77.9084C188.444 78.1445 187.265 76.728 187.736 75.7837C188.023 75.209 187.612 75.1589 187.139 75.1013C186.835 75.0643 186.506 75.0242 186.322 74.8393C185.944 74.4616 185.221 74.2098 184.907 74.1311V74.8393C184.671 74.6819 183.917 74.3199 182.785 74.1311C181.89 73.9818 181.844 73.455 181.812 73.0878C181.793 72.8742 181.779 72.7145 181.606 72.7145C181.229 72.7145 180.191 72.5572 179.72 72.4785C179.484 72.5572 179.012 72.809 179.012 73.1867V73.895C178.855 73.9737 178.493 74.1783 178.305 74.3671L177.833 74.8393C177.755 74.6032 177.645 74.0838 177.833 73.895L177.597 74.1311L176.89 73.4228L177.833 72.4785C177.597 72.3211 177.032 72.0063 176.654 72.0063C176.459 72.0063 176.183 71.9253 175.859 71.8304C175.401 71.6961 174.849 71.5341 174.296 71.5341H172.882L173.118 72.2424C173.353 72.3997 173.919 72.7145 174.296 72.7145C174.598 72.7145 174.61 72.8114 174.642 73.067C174.659 73.2105 174.683 73.4042 174.768 73.6589C174.957 74.2255 174.532 75.2328 174.296 75.0754C173.982 74.9967 173.353 74.0838 173.353 73.895C173.353 73.7061 172.725 73.3441 172.41 73.1867C172.332 73.0293 172.174 72.6673 172.174 72.4785C172.174 72.3997 172.201 72.3211 172.227 72.2424C172.279 72.085 172.332 71.9276 172.174 71.7702C172.051 71.6463 171.862 71.7174 171.609 71.813C171.379 71.8996 171.096 72.0063 170.76 72.0063H163.215C162.743 72.0063 164.158 72.4785 164.629 72.4785H166.28C166.878 72.4785 167.097 72.4785 167.298 72.5389C167.413 72.5736 167.522 72.6283 167.694 72.7145C167.775 72.755 167.849 72.7955 167.921 72.8349C168.268 73.0247 168.564 73.1867 169.345 73.1867H170.288L172.41 74.1311C172.174 74.2098 171.514 74.3199 170.76 74.1311C170.288 74.013 170.111 74.013 169.905 74.013C169.699 74.013 169.463 74.013 168.873 73.895C167.694 73.6589 167.459 73.895 167.223 74.1311C167.034 74.3199 165.415 74.0524 164.629 73.895C163.293 74.0524 159.725 74.2727 156.141 73.895C152.822 73.5452 148.339 74.2319 144.608 74.8034C143.303 75.0033 142.09 75.1891 141.051 75.3115C137.844 75.6892 132.641 77.2002 130.44 77.9084C130.833 77.515 131.383 76.6336 130.44 76.2558C129.497 75.8781 128.161 75.7837 127.611 75.7837C128.868 75.5476 131.855 75.0282 133.741 74.8393C136.099 74.6032 138.693 73.4228 137.75 73.1867C136.995 72.9978 132.091 73.895 129.733 74.3671C130.283 73.9737 131.997 73.0451 134.449 72.4785C135.312 72.279 136.063 72.0796 136.754 71.896C138.518 71.4275 139.895 71.0619 141.758 71.0619C143.514 71.0619 143.108 70.7373 142.663 70.381C142.451 70.2111 142.23 70.034 142.23 69.8815C141.798 69.6655 141.465 69.6471 141.028 69.623C140.51 69.5943 139.844 69.5575 138.693 69.1732C138.539 68.5557 137.679 68.443 136.64 68.3068C136.091 68.2348 135.491 68.1562 134.92 67.9928C133.333 67.8484 133.247 67.969 133.203 68.0304C133.175 68.0694 133.164 68.0845 132.798 67.9928C131.855 67.7567 134.449 65.868 136.335 65.3959C137.658 65.0646 138.517 65.4306 139.482 65.8415C139.893 66.0163 140.322 66.1993 140.815 66.3402C142.465 66.8124 142.23 65.868 140.815 65.3959C140.469 65.2803 140.137 65.193 139.846 65.1167C138.95 64.8813 138.452 64.7504 139.164 64.2154C140.108 63.5072 142.937 62.5628 143.88 62.3267C144.823 62.0907 145.531 62.5628 145.531 63.2711C145.531 63.7056 146.152 63.2515 146.796 62.781C147.201 62.4847 147.615 62.1819 147.888 62.0907C148.596 61.8545 150.718 61.1463 151.661 60.9102C152.35 60.7377 153.796 60.8174 154.8 60.8728C155.169 60.8931 155.479 60.9102 155.669 60.9102C156.067 60.9102 156.687 60.4635 157.405 59.9464C157.966 59.5427 158.586 59.096 159.206 58.7855C160.162 58.3071 160.795 58.4749 161.395 58.6343C161.684 58.7109 161.965 58.7855 162.271 58.7855C162.824 58.7855 163.619 58.6234 164.278 58.4892C164.744 58.3943 165.141 58.3133 165.337 58.3133H167.459C167.836 58.3133 168.515 58.1621 169.33 57.9809L169.33 57.9808L169.331 57.9807C170.553 57.7088 172.08 57.3689 173.353 57.3689C175.475 57.3689 179.012 58.0772 182.077 59.4937C184.179 60.4648 184.729 60.4373 185.474 60.4001C185.817 60.383 186.2 60.3638 186.793 60.4381C187.525 60.5297 188.079 60.5146 188.498 60.5033C189.157 60.4855 189.478 60.4768 189.623 60.9102C189.761 61.327 190.635 61.7437 191.811 62.3047C192.633 62.6972 193.604 63.1602 194.574 63.7433C195.23 64.1374 195.594 64.4036 195.839 64.5826L195.839 64.583C196.038 64.7281 196.158 64.8158 196.291 64.8678C196.495 64.9469 196.731 64.9431 197.327 64.9334C197.588 64.9291 197.919 64.9237 198.347 64.9237C200.202 64.9237 203.376 66.9545 205.873 68.5521C207.184 69.3907 208.308 70.1099 208.957 70.3537C210.076 70.7737 210.531 70.6955 211.306 70.5623C211.838 70.471 212.521 70.3537 213.673 70.3537C215.936 70.3537 218.86 72.2424 220.039 73.1867C220.589 72.7932 222.02 72.2424 223.34 73.1867C224.66 74.1311 223.576 74.6819 222.868 74.8393L225.226 75.7837C224.833 75.3902 224.047 74.4144 224.047 73.6589C224.047 72.7145 227.584 73.4228 228.763 74.1311C229.435 74.535 230.184 74.555 231.316 74.5852C232.169 74.6079 233.239 74.6364 234.658 74.8393C237.182 75.2004 236.121 75.5615 235.06 75.9226C234.734 76.0337 234.408 76.1448 234.186 76.2558C233.828 76.4352 233.402 76.5805 233.075 76.6917C232.542 76.8733 232.276 76.9641 233.007 76.9641H240.081C241.121 76.9641 241.381 76.9641 241.387 77.0046C241.389 77.0181 241.363 77.0361 241.328 77.0602C241.231 77.1275 241.065 77.2418 241.26 77.4363C241.566 77.7426 241.673 77.6514 242.097 77.2918L242.098 77.2914C242.327 77.0967 242.649 76.8234 243.146 76.4919C244.289 75.7288 244.509 75.8907 244.8 76.1055C244.869 76.1565 244.942 76.2105 245.032 76.2558C245.372 76.4258 245.834 76.2285 246.33 76.0166C246.523 75.9343 246.721 75.8497 246.918 75.7837C247.272 75.6656 247.803 75.8427 248.422 76.0493C249.041 76.2558 249.748 76.4919 250.455 76.4919C251.491 76.4919 251.642 76.2389 251.834 75.918C251.904 75.8006 251.979 75.6741 252.106 75.5476C252.349 75.3037 252.656 75.3747 253.058 75.4679C253.434 75.5551 253.894 75.6617 254.464 75.5476C255.643 75.3115 256.114 75.5476 256.35 76.4919C256.572 77.3817 256.376 77.6427 255.76 78.4598L255.755 78.4666L255.754 78.4679L255.719 78.515L255.643 78.6167C254.935 79.561 252.577 79.7971 250.927 79.7971H246.211C245.582 79.7971 245.687 80.007 245.687 80.007C245.687 80.007 245.661 79.9545 245.504 79.7971C245.032 79.325 244.325 80.7415 244.796 81.2136C245.184 81.6022 245.892 81.3513 246.918 80.9871C247.139 80.9087 247.375 80.8251 247.626 80.7415C249.041 80.2693 249.984 80.5054 250.927 80.7415C251.556 80.8989 252.394 80.8464 253.232 80.7939C253.651 80.7677 254.071 80.7415 254.464 80.7415C255.643 80.7415 255.171 81.4497 254.464 81.6858C254.045 81.8255 253.462 81.7172 252.859 81.6056C252.444 81.5285 252.019 81.4497 251.634 81.4497C251.157 81.4497 251.102 81.7517 251.043 82.0808C250.984 82.4023 250.921 82.7496 250.455 82.8662C250.152 82.9422 249.946 83.0182 249.783 83.0784C249.439 83.2053 249.284 83.2624 248.805 83.1023C248.495 82.9988 248.23 82.9407 247.99 82.8882C247.684 82.8209 247.419 82.7627 247.154 82.6302C246.95 82.5278 246.878 82.6029 246.748 82.7401C246.577 82.9193 246.305 83.2047 245.504 83.3384L245.394 83.3569L245.122 83.4029C244.546 83.5009 244.345 83.5349 244.155 83.5049C244.054 83.489 243.956 83.4549 243.806 83.4028L243.804 83.4023C243.75 83.3834 243.688 83.3621 243.617 83.3384C242.91 83.1023 241.26 83.1023 240.081 83.1023C239.3 83.1023 239.036 82.7917 238.742 82.4447C238.592 82.2677 238.433 82.0814 238.194 81.9219C237.886 81.7162 237.847 81.8242 237.763 82.0506C237.656 82.3439 237.475 82.8359 236.544 83.1023C235.575 83.3795 235.5 83.3312 235.365 83.2441C235.269 83.1828 235.144 83.1023 234.658 83.1023C233.479 83.1023 233.007 82.6302 232.536 81.9219C232.064 81.2136 230.649 81.4497 231.828 82.6302C232.66 83.4626 232.084 83.4732 231.176 83.4899C230.797 83.4969 230.359 83.5049 229.942 83.5745C229.01 83.7301 228.487 83.3731 228.104 83.1115C227.906 82.9761 227.745 82.8662 227.584 82.8662C227.112 82.8662 226.641 83.3384 226.641 84.2828C226.641 84.828 226.798 84.7436 227.112 84.5749C227.343 84.4515 227.657 84.2828 228.056 84.2828C228.416 84.2828 228.604 84.2483 228.765 84.2189C229.025 84.1713 229.213 84.1368 229.942 84.2828C230.38 84.3704 230.752 84.393 231.048 84.4109C231.549 84.4412 231.828 84.4581 231.828 84.7549C231.828 85.0892 232.419 85.1869 233.099 85.2991C233.379 85.3454 233.675 85.3943 233.95 85.4632C234.513 85.604 234.572 85.5768 234.779 85.4818C234.918 85.4176 235.125 85.3223 235.601 85.2271C236.281 85.0908 236.333 85.1906 236.437 85.3901C236.513 85.5362 236.617 85.7358 237.015 85.9354C237.959 86.4075 238.666 85.9354 239.373 85.4632C239.877 85.1268 240.62 85.1499 241.944 85.191C242.478 85.2076 243.107 85.2271 243.853 85.2271C245.399 85.2271 245.521 85.2271 245.617 85.1771C245.622 85.1747 245.626 85.1721 245.631 85.1694L245.642 85.1631C245.702 85.1283 245.795 85.0743 246.211 84.991C247.061 84.8208 247.544 85.2643 247.923 85.6135C248.07 85.7485 248.202 85.8695 248.333 85.9354C248.805 86.1714 249.041 85.9354 249.512 85.2271C249.862 84.7011 250.473 84.8262 250.957 84.9254C251.124 84.9597 251.277 84.991 251.398 84.991C251.776 84.991 252.342 85.6206 252.577 85.9354H250.927C250.537 85.9354 250.148 86.1501 249.798 86.343C249.512 86.5006 249.253 86.6436 249.041 86.6436C248.844 86.6436 248.77 86.5613 248.7 86.4827C248.602 86.3728 248.51 86.27 248.097 86.4075C247.39 86.6436 246.918 86.6436 246.211 86.6436C245.504 86.6436 245.032 86.6436 244.325 87.1158C243.82 87.4531 243.555 87.429 243.101 87.3877C242.92 87.3712 242.708 87.3519 242.439 87.3519C242.296 87.3519 242.061 87.3464 241.769 87.3397H241.768C240.134 87.302 236.723 87.2232 237.723 87.8241C238.806 88.475 239.093 88.3283 239.865 87.9337L239.87 87.9312C239.915 87.9081 239.961 87.8842 240.01 87.8595L240.058 87.8352L240.081 87.8241C240.647 87.5407 241.467 87.7674 242.288 87.994C242.835 88.1451 243.382 88.2962 243.853 88.2962C244.227 88.2962 244.578 88.2487 244.889 88.2064C245.56 88.1154 246.05 88.0488 246.211 88.5323C246.447 89.2406 245.975 89.4767 245.504 89.4767C245.032 89.4767 241.967 90.1849 241.26 90.421C240.552 90.6571 237.723 90.421 235.601 90.1849C233.903 89.996 229.863 89.634 228.056 89.4767C228.606 89.634 230.366 90.0433 233.007 90.421C234.058 90.5713 234.846 90.6738 235.5 90.7589L235.501 90.7589L235.505 90.7595C236.903 90.9412 237.693 91.0439 239.138 91.3653C240.811 91.7377 241.312 91.3758 242.027 90.8588L242.027 90.8583L242.028 90.858L242.028 90.8577C242.219 90.7195 242.426 90.5702 242.674 90.421C243.853 89.7127 244.561 89.9488 245.032 90.421C245.504 90.8932 246.683 91.1293 247.626 90.8932C248.38 90.7043 248.412 91.7588 248.333 92.3097C248.726 92.1523 249.701 91.6959 250.455 91.1293C250.98 90.7351 251.651 90.8528 252.224 90.9533C252.681 91.0334 253.076 91.1026 253.285 90.8932C253.599 90.5784 253.913 90.6833 254.228 90.7882C254.385 90.8407 254.542 90.8932 254.699 90.8932C254.82 90.8932 255.05 90.9242 255.333 90.9625C256.151 91.0733 257.414 91.2442 257.765 90.8932C258.101 90.5559 258.438 90.8209 258.775 91.0859C258.91 91.1919 259.045 91.2979 259.179 91.3653C259.471 91.5113 259.582 91.2965 259.736 90.9996C259.831 90.8162 259.942 90.6014 260.122 90.421C260.414 90.1292 260.795 90.1981 261.323 90.2933C261.649 90.3521 262.03 90.421 262.48 90.421C263.295 90.421 263.884 89.9701 264.249 89.6915C264.412 89.5668 264.53 89.4767 264.602 89.4767H266.253C266.96 89.1619 268.752 88.5323 270.261 88.5323C271.655 88.5323 272.276 87.7591 272.601 87.3552C272.716 87.2125 272.793 87.1158 272.855 87.1158H274.505C274.977 87.1158 275.684 86.8797 276.156 86.6436C276.533 86.4548 276.942 85.6206 277.099 85.2271L277.335 85.9354H278.042L278.514 84.991C278.907 85.0697 279.787 85.1327 280.164 84.7549C280.542 84.3772 281.736 83.3384 282.286 82.8662H283.465C284.023 82.8662 284.016 82.2554 283.94 81.9363C284.048 82.3097 285.361 82.0615 289.832 78.1445C295.097 73.5312 293.83 66.465 293.248 63.2227C293.205 62.9805 293.165 62.7597 293.133 62.5628C292.661 59.7298 285.587 45.5646 282.286 42.0233C279.646 39.1903 273.327 24.4743 270.497 17.4704C270.733 17.7065 271.346 18.3675 271.912 19.123C272.478 19.8785 274.82 24.0021 275.92 25.9695C274.663 23.1364 271.865 17.0454 270.733 15.3456C269.318 13.2208 269.318 10.6239 270.025 9.67954C270.733 8.73519 270.969 8.73519 273.798 15.8178C275.963 21.2376 279.308 25.9373 280.901 27.8508C279.15 25.6949 276.109 19.8838 275.195 17.2603C275.888 18.5747 277.91 21.3518 279.554 23.6081C280.415 24.7911 281.172 25.8309 281.579 26.4417C282.711 28.1415 289.753 36.9081 293.133 41.079C292.818 40.4494 292.284 39.1431 292.661 38.9542C292.945 38.8118 292.972 38.4975 293.001 38.1669C293.02 37.9495 293.039 37.725 293.133 37.5377C293.368 37.0655 286.059 27.8582 284.173 25.4973C282.664 23.6086 279.3 17.1556 277.806 14.1652C280.322 17.6278 285.399 24.7418 285.587 25.4973C285.736 26.0907 290.631 32.6496 295.128 38.6729L295.128 38.6739L295.129 38.6751L295.131 38.6771C297.789 42.2382 300.307 45.6115 301.621 47.4533C305.158 52.4111 309.402 60.6741 309.873 64.6876C310.345 68.7011 309.638 73.1867 305.393 79.7971C301.998 85.0854 294.076 89.0832 290.539 90.421C290.146 90.9719 289.218 92.1208 288.653 92.3097C287.945 92.5458 287.238 93.4901 287.002 93.9623C286.766 94.4345 280.872 96.7953 279.693 96.7953C279.031 96.7953 278.592 97.0183 278.043 97.2975C277.613 97.5158 277.116 97.7685 276.392 97.9758C276.156 98.684 273.091 99.8644 270.969 100.573C270.831 100.619 270.672 100.673 270.492 100.734L270.491 100.734C267.906 101.613 261.02 103.955 250.219 105.058C240.347 106.067 236.5 104.835 234.854 104.307C234.574 104.218 234.358 104.148 234.186 104.114C233.007 103.878 228.291 103.17 225.698 102.934C225.489 102.915 225.26 102.833 225.014 102.697C225.127 103.598 225.119 104.35 224.99 104.822C224.283 107.419 222.633 110.016 219.096 114.738C217.354 117.063 217.458 118.445 217.57 119.945C217.633 120.785 217.699 121.663 217.445 122.765C216.738 125.834 220.494 140.954 220.982 142.685C221.689 145.193 223.576 155.581 223.811 161.719C223.393 160.602 223.354 160.558 223.314 160.514C223.286 160.483 223.258 160.452 223.104 160.066C222.727 159.122 222.318 156.683 222.161 155.581C222.24 156.525 222.35 158.555 222.161 159.122C222.04 159.485 222.229 159.91 222.473 160.46C222.706 160.984 222.989 161.622 223.104 162.427C223.204 163.129 223.309 164.054 223.437 165.18L223.437 165.182L223.438 165.186C223.595 166.574 223.787 168.265 224.047 170.218C224.519 173.759 223.095 180.397 222.161 183.203C221.891 184.015 221.775 185.138 221.637 186.482L221.637 186.482C221.534 187.482 221.419 188.605 221.218 189.813C220.674 193.082 219.567 197.132 215.559 197.368C212.352 197.557 210.843 192.882 210.843 190.758C210.786 190.843 210.727 191.034 210.657 191.261C210.534 191.66 210.376 192.169 210.136 192.41C209.911 192.636 210.062 193.238 210.204 193.805C210.36 194.427 210.506 195.007 210.136 195.007C209.609 195.007 209.464 195.823 209.373 196.332C209.317 196.643 209.282 196.839 209.193 196.66C209.086 196.445 208.978 195.987 208.871 195.528C208.743 194.978 208.614 194.428 208.485 194.299C208.297 194.11 208.092 192.646 208.014 191.938C207.778 192.017 207.354 192.269 207.542 192.646C207.731 193.024 207.935 195.637 208.014 196.896C207.935 196.66 207.731 195.952 207.542 195.007C207.354 194.063 206.835 193.04 206.599 192.646C206.453 192.744 206.286 192.872 206.091 193.022C205.343 193.597 204.176 194.494 202.119 195.243C199.343 196.254 195.046 196.66 191.509 196.66C190.393 196.66 189.111 196.683 187.763 196.708C184.838 196.762 181.594 196.821 179.012 196.66C177.059 196.538 174.101 195.903 171.565 195.359C169.507 194.917 167.727 194.535 166.987 194.535C165.887 194.535 163.321 194.745 160.755 194.954L160.754 194.955L160.753 194.955L160.752 194.955C159.468 195.06 158.184 195.165 157.084 195.243C154.686 195.415 146.238 195.479 144.116 195.243C142.196 195.03 139.312 195.202 135.813 195.412C135.443 195.434 135.067 195.457 134.684 195.479C131.478 195.668 128.318 194.928 127.139 194.535C127.297 195.637 127.375 197.651 127.375 198.785C127.375 199.003 127.415 199.352 127.464 199.787C127.733 202.17 128.297 207.157 124.31 207.756C120.362 208.349 119.058 206.129 118.462 205.113L118.461 205.113C118.345 204.915 118.256 204.764 118.179 204.687C117.492 203.998 117.472 207.756 117.708 208.7C117.944 209.645 116.686 208.109 116.293 207.52C115.822 206.811 115.35 205.867 115.026 205.218C114.702 204.569 114.525 204.215 114.643 204.687C114.831 205.442 115.193 207.205 115.35 207.992C114.721 207.048 113.464 205.064 113.464 204.687C113.464 204.47 113.118 203.911 112.698 203.23C112.202 202.425 111.6 201.45 111.342 200.673L111.299 200.544C111.276 200.475 111.253 200.407 111.23 200.34L111.129 200.041C110.539 198.289 110.138 197.099 109.927 194.771C109.87 194.144 109.703 193.462 109.493 192.601C108.831 189.899 107.74 185.44 108.276 175.412C108.96 162.63 108.833 162.291 107.957 159.959C107.779 159.487 107.571 158.933 107.333 158.178C106.093 154.246 106.626 148.97 107.805 140.943C108.748 134.522 110.713 127.329 111.577 124.417C111.185 123.552 110.304 121.584 109.927 120.64C109.455 119.46 107.59 114.729 107.805 112.141C107.976 110.084 107.899 106.658 107.843 104.213L107.843 104.211C107.823 103.289 107.805 102.506 107.805 101.989C107.805 100.941 108.023 99.819 108.177 99.0289C108.3 98.3961 108.381 97.9758 108.276 97.9758C108.21 97.9758 108.163 97.9944 108.108 98.0159C107.966 98.0711 107.776 98.1456 107.098 97.9758C106.756 97.8903 106.693 97.6504 106.807 97.2896L104.504 98.2118C103.325 98.684 102.382 99.3923 102.382 99.3923C102.385 99.4027 102.389 99.4135 102.392 99.4246C102.469 99.6647 102.59 100.045 104.032 99.8644C104.669 99.7847 105.021 99.5199 105.391 99.2404C105.899 98.8578 106.442 98.4479 107.805 98.4479C107.745 98.5577 107.678 98.6851 107.603 98.8269C107.087 99.8035 106.211 101.461 104.975 102.698C104.003 103.671 101.91 105.767 99.7882 106.947C97.6661 108.127 92.9504 109.072 92.0072 109.072C91.6705 109.072 91.2393 109.241 90.7289 109.44C89.8097 109.8 88.6339 110.261 87.2915 110.016C84.6979 109.544 82.3401 110.016 82.1043 110.252C81.9471 110.016 81.6327 109.78 80.6895 109.78C79.9499 109.78 79.2104 109.909 78.5045 110.032C77.8601 110.145 77.2438 110.252 76.6812 110.252C76.1928 110.252 74.8145 110.171 73.1997 110.076C70.916 109.942 68.1594 109.78 66.7782 109.78C65.9136 109.701 63.9016 109.591 62.7698 109.78C61.6411 109.968 61.563 109.706 61.4578 109.352C61.4311 109.263 61.4028 109.167 61.3551 109.072C61.1815 108.724 60.497 108.76 59.6776 108.804C59.3838 108.819 59.0726 108.836 58.7614 108.836C58.1988 108.836 57.9047 108.728 57.5972 108.616C57.2603 108.493 56.9074 108.364 56.1678 108.364C55.2709 108.364 55.1322 108.269 55.0306 108.199C54.9719 108.159 54.9257 108.127 54.7531 108.127C54.2815 108.127 53.3384 107.891 53.1026 107.655C52.9427 107.495 52.6744 107.552 52.0772 107.679C51.7937 107.739 51.4358 107.815 50.9805 107.891C50.013 108.053 49.1558 107.773 48.3335 107.504C47.9533 107.38 47.5806 107.258 47.2079 107.183C46.2165 106.985 43.7243 105.45 42.2555 104.546C41.9778 104.375 41.7366 104.227 41.5491 104.114C40.3702 103.406 36.5976 100.101 36.126 99.6284C35.6544 99.1562 34.2397 99.1562 34.4755 99.6284C34.7113 100.101 34.9471 100.573 34.4755 100.809C34.1868 100.953 33.7212 100.832 33.4578 100.717C33.5033 100.875 33.4495 101.128 33.2966 101.281C33.0608 101.517 32.825 100.809 32.825 100.573C32.825 100.475 32.9059 100.296 33.0007 100.087C33.1348 99.7904 33.2966 99.4328 33.2966 99.1562C33.2966 98.684 32.3534 99.1562 32.3534 99.3923C32.3534 99.6284 32.1177 99.6284 31.6461 99.1562C31.2314 98.741 29.5407 98.6909 29.2989 98.6848C29.4845 98.7135 29.6827 99.4784 29.7598 99.8644C30.0742 99.7071 30.9387 99.5339 31.8819 100.101C32.7768 100.638 32.313 100.768 31.8313 100.902C31.6785 100.945 31.5239 100.988 31.4103 101.045C30.9387 101.281 31.8819 101.753 33.2966 101.753C34.7113 101.753 35.1829 102.461 35.1829 102.697C35.1829 102.816 34.8292 103.052 34.4755 103.288C34.1218 103.524 33.7682 103.76 33.7682 103.878C33.7682 104.114 34.4755 104.586 35.6544 104.586C36.4691 104.586 36.8334 105.037 37.0585 105.316C37.1592 105.44 37.2321 105.531 37.3049 105.531C37.5407 105.531 39.1912 105.767 39.1912 106.003C39.1912 106.167 39.879 106.102 40.4552 106.048C40.7054 106.024 40.9348 106.003 41.0775 106.003C41.3133 106.003 41.7849 106.239 42.3154 106.504C42.8459 106.77 43.4354 107.065 43.9069 107.183C44.8501 107.419 48.1511 108.127 51.6879 108.127C54.5173 108.127 56.1678 108.914 56.6394 109.308C56.718 109.308 57.0166 109.261 57.5825 109.072C58.1484 108.883 58.6043 109.308 58.7614 109.544C58.84 109.544 59.1859 109.591 59.9404 109.78C60.4119 109.898 60.8835 109.898 61.2372 109.898C61.5909 109.898 61.8267 109.898 61.8267 110.016C61.8267 110.252 59.7046 110.252 58.7614 110.252H55.6962C55.2247 110.724 53.0842 110.641 50.0374 110.488C49.6403 110.468 49.2208 110.45 48.7806 110.431C45.5566 110.292 41.217 110.104 36.3618 108.836C32.0284 107.704 26.1896 103.859 22.8151 101.636L22.8146 101.636C21.9662 101.077 21.2737 100.621 20.8 100.337C20.0702 99.8982 17.4473 97.9837 16.32 97.0314C15.7798 96.4905 15.3642 96.0536 15.0093 95.6804C14.4349 95.0766 14.0189 94.6392 13.4906 94.1984C13.4906 94.1984 17.9705 96.5592 18.2063 96.5592C18.4421 96.5592 15.6126 94.9066 15.6126 94.9066C15.6126 94.9066 14.1979 93.9623 13.4906 93.7262C12.7833 93.4901 12.5474 92.3097 12.5474 92.3097C12.5474 92.3097 18.4421 94.4345 18.4421 94.1984C18.4421 94.0302 17.7245 93.6226 16.8856 93.146C16.5466 92.9535 16.1877 92.7496 15.8484 92.5458C14.6695 91.8375 13.2548 89.9488 13.2548 89.9488L15.6126 91.1293C16.5558 91.6014 17.7347 91.6014 17.7347 91.6014C17.7347 91.6014 13.9621 89.9488 12.3117 88.7684C10.6612 87.588 6.89985 84.0125 3.82336 79.325C-1.59973 71.0619 0.0507895 63.9794 0.993957 60.202C1.93712 56.4246 10.897 37.5377 17.2632 28.5664C23.5897 19.6511 28.1093 7.08258 28.5809 4.72172ZM61.3551 85.9354C61.4528 85.9354 61.5909 85.8949 61.7527 85.8474C61.9815 85.7803 62.2578 85.6993 62.534 85.6993C62.7698 86.4075 61.5909 86.4075 61.1193 86.4075C60.6477 86.4075 59.4688 85.9354 59.7046 85.9354H61.3551ZM77.8601 86.8797C77.6243 87.0371 77.1056 87.3519 76.917 87.3519H78.0959C78.3317 87.3519 78.3317 86.8797 77.8601 86.8797ZM67.9571 89.2406C68.1457 89.2406 68.8216 89.0832 69.136 89.0045C69.2146 89.0832 69.3246 89.2878 69.136 89.4767C69.0084 89.6045 68.7425 89.6631 68.4507 89.7274C68.2034 89.7819 67.9376 89.8406 67.7213 89.9488C67.2497 90.1849 66.5424 89.9488 66.5424 89.7127C66.5424 89.5947 66.0708 89.5947 65.5698 89.5947C65.0687 89.5947 64.5382 89.5947 64.4203 89.4767C64.1845 89.2406 66.0708 89.2406 66.5424 89.2406C66.7782 89.2406 66.8371 89.3586 66.8961 89.4767C66.955 89.5947 67.0139 89.7127 67.2497 89.7127C67.526 89.7127 67.6404 89.5507 67.7352 89.4165C67.8022 89.3216 67.8594 89.2406 67.9571 89.2406ZM81.6327 89.2406C81.6327 89.398 81.5855 89.7127 81.3969 89.7127C81.2992 89.7127 81.3229 89.8343 81.3507 89.9766C81.3899 90.178 81.4373 90.421 81.1611 90.421C80.9253 90.421 80.6306 90.48 80.3358 90.539C80.0411 90.5981 79.7464 90.6571 79.5106 90.6571C79.2986 90.6571 78.8961 90.8002 78.4529 90.9577C77.9101 91.1507 77.3064 91.3653 76.917 91.3653C76.5275 91.3653 75.9238 91.4369 75.381 91.5012C74.9379 91.5537 74.5352 91.6014 74.3233 91.6014C73.8517 91.6014 73.1444 92.0736 74.0875 92.0736C74.3233 92.0736 74.5591 92.0884 74.7949 92.1031C75.5022 92.1474 76.2096 92.1916 76.917 91.8375C77.478 91.5566 77.9556 91.5264 78.3994 91.4983C78.7017 91.4791 78.9882 91.461 79.2748 91.3653C79.532 91.2795 79.9138 91.1937 80.2957 91.1078C80.964 90.9576 81.6327 90.8073 81.6327 90.6571V89.2406ZM38.4839 89.9488C38.1066 89.76 37.3835 89.7127 37.0692 89.7127C37.8003 89.8958 38.3898 90.2207 38.8375 90.4675C38.9673 90.539 39.0853 90.604 39.1912 90.6571C39.6628 90.8932 38.9554 90.1849 38.4839 89.9488ZM25.2799 94.6705C23.8651 94.4345 22.922 93.0179 22.922 93.0179C22.922 93.0179 25.021 94.1102 25.7514 94.4345C27.6377 94.9066 28.5809 95.851 28.5809 95.851C28.5809 95.851 25.5124 94.7094 25.2799 94.6705ZM52.1594 102.461C51.4521 102.383 49.9902 102.178 49.8016 101.989C49.5658 101.753 47.6795 100.809 47.4437 100.809C47.3258 100.809 46.8543 100.632 46.3827 100.455C45.9111 100.278 45.4395 100.101 45.3217 100.101C45.1869 100.101 45.6681 100.409 46.1493 100.717C46.5102 100.949 46.8711 101.18 46.9722 101.281C47.09 101.399 47.4437 101.458 47.7974 101.517C48.1511 101.576 48.5048 101.635 48.6227 101.753C48.8584 101.989 50.2732 102.697 52.1594 102.461ZM51.4521 97.9758C51.8058 98.0938 52.3363 98.1528 52.8668 98.2118C53.3973 98.2709 53.9278 98.3299 54.2815 98.4479C56.1678 98.7386 55.2247 99.1562 54.9889 99.1562C54.9026 99.1562 54.6902 99.1246 54.4207 99.0845L54.4203 99.0845C53.9532 99.015 53.3152 98.9201 52.8668 98.9201C52.1594 98.9201 50.7447 97.7397 51.4521 97.9758ZM58.5257 96.0871C58.6043 96.0871 58.62 96.0398 58.0541 95.851C57.7004 95.7329 57.1109 95.7329 56.5215 95.7329C55.932 95.7329 55.3425 95.7329 54.9889 95.6149C54.6702 95.5085 54.2559 95.4501 53.8751 95.3964C53.4107 95.3309 52.9964 95.2725 52.8668 95.1427C52.631 94.9066 53.3384 96.0871 53.8099 96.0871C53.938 96.0871 54.1357 96.0696 54.3699 96.049C54.9979 95.9937 55.8885 95.9151 56.4036 96.0871C57.1109 96.3232 58.2899 96.5592 58.5257 96.0871ZM58.0541 98.9201C58.7614 98.9201 59.4688 99.1562 59.7046 99.6284H58.2899C57.9126 99.6284 57.0324 99.1562 56.6394 98.9201H58.0541ZM63.7129 96.5592C63.9487 97.0314 64.1845 97.2675 64.6561 97.2675H67.2497C67.7213 97.2675 66.3066 96.7953 65.3634 96.7953C64.7347 96.7953 64.3155 96.6904 64.0361 96.6204C63.8963 96.5855 63.7915 96.5592 63.7129 96.5592ZM70.5507 101.753C70.7865 101.989 72.2012 101.989 72.437 101.989C72.3191 101.989 71.7297 102.048 71.1402 102.107C70.5507 102.166 69.9613 102.225 69.8434 102.225C69.7571 102.225 69.355 102.194 68.8452 102.154L68.8442 102.154C67.961 102.084 66.7549 101.989 66.3066 101.989C65.5992 101.989 63.2414 101.517 63.4772 101.517C63.5291 101.517 63.6381 101.506 63.7841 101.49C64.3016 101.436 65.2834 101.333 65.835 101.517C66.5424 101.753 69.136 101.753 69.6076 101.753C69.7877 101.753 69.9334 101.719 70.0579 101.689C70.2593 101.642 70.405 101.607 70.5507 101.753ZM278.376 26.5649C277.962 26.0725 277.667 25.6911 277.571 25.4973C277.441 25.2377 277.686 25.5848 278.192 26.3032L278.192 26.3036L278.376 26.5649ZM278.376 26.5649C279.983 28.4718 283.4 32.0423 284.173 32.816C285.408 34.0525 287.182 36.7284 289.181 39.744L289.198 39.7691C289.483 40.1999 289.773 40.6376 290.067 41.079C289.36 40.1347 286.073 35.8706 285.587 35.4129C282.808 32.7933 279.801 28.5841 278.376 26.5649ZM293.84 41.079C293.997 41.079 294.359 41.1734 294.547 41.5512C294.783 42.0233 295.019 42.4955 294.783 42.4955C294.626 42.4955 294.469 42.2857 294.311 42.0758L294.311 42.0753C294.233 41.9705 294.154 41.8658 294.076 41.7873C293.887 41.5984 293.84 41.2364 293.84 41.079ZM289.832 90.6571C289.664 90.6571 287.797 91.1765 287.238 91.3653L287.709 91.8375L289.832 90.6571ZM285.587 92.0736C285.559 92.0736 285.48 92.1008 285.362 92.1487C285.441 92.1224 285.516 92.0973 285.587 92.0736ZM285.362 92.1487C284.127 92.559 281.992 93.254 281.815 93.254C281.697 93.254 280.872 93.6082 280.046 93.9623C279.221 94.3164 278.396 94.6705 278.278 94.6705C278.089 94.6705 278.514 94.8279 278.75 94.9066C279.536 94.5919 281.155 93.9623 281.343 93.9623C281.461 93.9623 282.463 93.4901 283.465 93.0179L283.466 93.0174C284.228 92.6588 284.989 92.3002 285.362 92.1487ZM237.959 97.0314L237.015 96.5592H236.072C235.915 96.4019 235.554 96.0871 235.365 96.0871H234.658L235.601 96.7953L236.544 97.0314H237.959ZM231.121 98.9201L229.47 98.4479H228.999L228.291 97.9758H227.348L226.877 97.5036L225.226 97.2675L226.877 97.9758L228.056 98.4479L229.47 98.684L231.121 98.9201ZM145.531 69.1732L145.059 68.7011H145.531L143.88 67.7567V67.2846H142.937L142.465 67.7567L142.701 67.9928L142.465 68.2289H141.994C141.522 68.3863 140.768 68.7011 141.522 68.7011C142.277 68.7011 143.094 68.3863 143.409 68.2289L145.531 69.1732ZM143.88 70.8259L144.116 71.0619L144.587 71.298V71.6522H143.644V71.298L143.409 70.8259H143.88ZM150.954 66.1041C151.425 65.868 152.651 65.3486 153.783 65.1598L156.613 64.6876C156.22 64.4515 155.339 63.9794 154.962 63.9794C154.726 63.9794 154.549 64.0974 154.373 64.2154C154.196 64.3335 154.019 64.4515 153.783 64.4515C153.586 64.4515 153.43 64.3692 153.282 64.2906C153.074 64.1807 152.879 64.0779 152.604 64.2154C152.368 64.3335 152.074 64.6286 151.779 64.9237C151.484 65.2188 151.189 65.5139 150.954 65.632C150.678 65.7698 150.323 65.5858 149.981 65.4087C149.737 65.2825 149.499 65.1598 149.303 65.1598C149.086 65.1598 148.868 65.4615 148.65 65.7633C148.396 66.1153 148.142 66.4673 147.888 66.3402C147.693 66.2426 147.498 65.9835 147.32 65.7465C147.067 65.4104 146.848 65.1189 146.71 65.3959C146.558 65.6987 146.892 66.0986 147.151 66.4088C147.296 66.5823 147.417 66.7277 147.417 66.8124C147.417 67.0485 149.067 67.5206 149.539 67.0485C150.011 66.5763 150.718 66.1041 150.954 66.1041ZM156.377 68.7011C156.613 68.9372 157.084 68.9372 158.263 68.465C159.442 67.9928 161.564 67.2846 162.271 67.2846C162.979 67.2846 164.158 66.8124 164.158 66.5763C164.158 66.3402 162.271 66.5763 161.8 66.8124C161.564 66.9304 161.034 67.0485 160.503 67.1665C159.972 67.2846 159.442 67.4026 159.206 67.5206C159.062 67.5927 158.787 67.6647 158.46 67.7502C157.715 67.9447 156.704 68.2089 156.377 68.7011ZM169.933 60.4325C169.621 60.3755 169.338 60.3237 169.109 60.4381C168.638 60.6741 166.987 61.3824 166.516 61.3824C166.044 61.3824 167.459 60.4381 168.166 60.4381C168.38 60.4381 168.681 60.4164 169.009 60.3928C169.765 60.3384 170.667 60.2734 170.995 60.4381C170.631 60.5598 170.266 60.4932 169.933 60.4325ZM173.353 64.4515C173.118 64.4515 171.467 64.4515 170.524 64.6876C169.581 64.9237 167.694 65.3959 167.223 65.3959C166.751 65.3959 165.808 65.632 166.516 65.632C166.844 65.632 167.528 65.4794 168.26 65.3159C169.107 65.1271 170.019 64.9237 170.524 64.9237C171.467 64.9237 173.589 64.4515 173.353 64.4515ZM228.291 78.3806C228.103 78.3806 227.898 78.538 227.82 78.6167L228.763 78.8528C228.684 78.6954 228.48 78.3806 228.291 78.3806ZM226.405 79.325C226.877 79.561 227.348 80.0332 226.877 80.0332C226.405 80.0332 226.169 80.0332 226.169 79.7971C226.169 79.561 226.225 79.2232 226.405 79.325ZM229.337 76.0318C228.598 76.1852 227.858 76.4919 228.598 76.4919C229.337 76.4919 229.706 76.4919 229.706 76.3386C229.706 76.1852 229.62 75.9658 229.337 76.0318ZM286.295 38.246C287.002 39.0329 288.511 40.7013 288.888 41.079C289.266 41.4567 289.674 42.1807 289.832 42.4955C288.967 41.4725 287.049 39.1903 286.295 38.246ZM202.827 103.406L203.298 103.878C202.566 104.611 201.179 106.033 200.658 106.681L200.711 106.597L200.751 106.534L200.974 106.179L200.975 106.177L200.976 106.176C201.581 105.213 202.53 103.703 202.827 103.406ZM200.469 106.947C200.411 107.062 200.494 106.939 200.658 106.681C200.564 106.798 200.498 106.889 200.469 106.947ZM199.526 105.531C199.683 105.531 199.84 105.321 199.997 105.111L199.997 105.11C200.076 105.006 200.154 104.901 200.233 104.822L200.469 105.767C199.997 106.317 199.007 107.466 198.818 107.655C198.582 107.891 198.111 109.308 198.111 110.016C198.111 110.724 196.932 111.905 196.696 111.905C196.508 111.905 195.832 112.849 195.517 113.321C195.753 112.77 196.225 111.574 196.225 111.197C196.225 110.92 196.629 110.4 196.964 109.97C197.201 109.665 197.403 109.406 197.403 109.308C197.403 109.072 197.875 108.127 198.111 107.655C198.347 107.183 199.29 105.531 199.526 105.531ZM197.168 121.348L196.696 122.293C196.775 122.844 196.632 123.281 196.696 123.473C196.885 124.04 196.932 123.867 197.168 124.417V121.348ZM200.704 113.794C201.255 113.321 202.355 112.235 202.355 111.669C202.355 111.461 202.335 111.294 202.318 111.156C202.278 110.822 202.257 110.655 202.591 110.488C203.062 110.252 202.827 108.836 202.591 109.072C202.518 109.144 202.246 109.351 201.896 109.615C201.107 110.212 199.925 111.106 199.761 111.433C199.658 111.64 199.691 111.847 199.72 112.034C199.758 112.273 199.79 112.481 199.526 112.613C199.054 112.849 199.054 113.557 199.526 113.321C199.879 113.144 200.498 112.436 200.885 111.993C201.014 111.846 201.117 111.728 201.176 111.669C201.255 111.59 201.359 111.459 201.464 111.328C201.674 111.066 201.883 110.803 201.883 110.96C201.883 110.973 201.885 110.985 201.887 110.999C201.889 111.014 201.893 111.03 201.897 111.048C201.899 111.057 201.901 111.067 201.904 111.077L201.904 111.078C201.974 111.362 202.123 111.967 200.704 113.794ZM202.984 105.625C203.012 105.591 203.038 105.559 203.062 105.531C202.996 105.596 202.935 105.673 202.876 105.757C202.414 106.328 201.594 107.381 200.94 108.364C200.186 109.497 198.74 111.197 198.111 111.905C199.133 111.118 201.27 109.402 201.648 108.836C201.845 108.54 202.001 108.037 202.167 107.501C202.362 106.874 202.571 106.201 202.876 105.757C202.915 105.71 202.951 105.665 202.984 105.625ZM131.148 124.417C130.755 123.945 129.922 123.001 129.733 123.001C129.664 123.001 129.615 122.981 129.575 122.964C129.477 122.923 129.428 122.903 129.261 123.237C129.161 123.437 129.189 123.723 129.217 124.021C129.256 124.426 129.297 124.854 129.026 125.126C128.648 125.503 128.554 125.755 128.554 125.834C128.868 125.519 129.592 124.89 129.969 124.89C130.346 124.89 130.912 124.575 131.148 124.417ZM221.218 155.817V157.942C221.218 158.508 221.532 159.594 221.689 160.066C221.611 158.807 221.406 156.195 221.218 155.817ZM134.449 130.556C134.826 130.178 135.077 128.982 135.156 128.431C135.077 129.139 134.873 130.65 134.684 131.028L132.798 134.805C133.191 133.546 134.071 130.933 134.449 130.556ZM125.725 136.93C125.646 137.166 125.442 137.685 125.253 137.874C125.118 138.01 125.06 138.068 125.035 138.137C125.017 138.188 125.017 138.246 125.017 138.346V139.055L125.489 138.819C125.646 138.583 125.96 138.063 125.96 137.874V137.166C125.96 136.93 125.96 136.694 125.725 136.93ZM126.196 140.943C125.96 141.18 125.725 141.652 125.489 142.124C125.253 142.596 125.017 143.068 125.017 143.304C125.017 143.376 125.06 143.447 125.108 143.525C125.216 143.705 125.346 143.919 125.017 144.249C124.546 144.721 124.31 145.901 124.31 146.373C124.31 146.751 124.624 147.79 124.781 148.262C125.096 147.947 125.725 147.176 125.725 146.61C125.725 146.389 125.702 146.099 125.677 145.791C125.623 145.11 125.562 144.338 125.725 144.013C125.775 143.911 125.848 143.777 125.93 143.624L125.931 143.624C126.232 143.065 126.668 142.258 126.668 141.888C126.668 141.416 126.668 140.707 126.196 140.943ZM127.611 147.318C127.422 148.262 125.96 150.387 125.253 151.331C125.489 150.623 126.055 148.876 126.432 147.554C126.904 145.901 128.318 141.888 128.554 142.596C128.718 143.09 128.31 144.617 127.967 145.896C127.819 146.451 127.682 146.96 127.611 147.318ZM124.31 149.443C124.546 150.387 123.131 152.276 122.895 152.512V150.151C122.895 149.679 122.895 149.206 122.659 148.498C122.424 147.79 123.838 146.846 123.838 147.082C123.838 147.318 124.074 148.498 124.31 149.443ZM123.603 144.249C123.838 144.013 123.367 145.665 123.131 146.137C122.974 146.295 122.612 146.704 122.424 147.082C122.282 147.365 122.056 148.328 121.897 149.003C121.792 149.452 121.716 149.773 121.716 149.679C121.716 149.628 121.727 149.504 121.741 149.334L121.741 149.333C121.795 148.703 121.902 147.453 121.716 147.082C121.48 146.61 121.952 145.901 122.424 145.429L123.603 144.249Z" fill="black"/>
<path d="M274.977 16.526C274.899 16.6036 274.988 16.8662 275.195 17.2603C275.096 16.9749 275.022 16.7272 274.977 16.526Z" fill="black"/>
<path d="M206.835 86.4075C206.703 86.0769 206.503 85.6518 206.238 85.1654L206.835 86.4075Z" fill="black"/>
<path d="M24.8083 68.7011C24.5725 68.465 24.8083 68.2289 25.0441 68.2289C25.3893 68.2289 25.3554 68.3554 25.3125 68.5158C25.2968 68.5745 25.2799 68.6378 25.2799 68.7011C25.2799 68.9372 25.0441 68.9372 24.8083 68.7011Z" fill="black"/>
<path d="M26.0961 70.1724C26.0195 70.1953 25.9872 70.205 25.9872 70.1176C25.9872 69.8815 25.7514 71.0619 26.223 71.0619C26.4223 71.0619 26.5795 71.1041 26.6946 71.135C26.8518 71.1772 26.9304 71.1982 26.9304 71.0619V70.3537C26.4848 70.0563 26.2264 70.1335 26.0961 70.1724Z" fill="black"/>
<path d="M27.4019 72.0063C27.5687 72.1732 27.4996 72.2221 27.3615 72.3199C27.3043 72.3604 27.2352 72.4093 27.1662 72.4785C27.1662 72.7145 26.9304 72.9506 26.6946 72.9506C26.4588 72.9506 26.223 72.2424 26.223 72.0063C26.223 71.8882 26.3998 71.9473 26.5767 72.0063C26.7535 72.0653 26.9304 72.1243 26.9304 72.0063C26.9304 71.7702 27.1662 71.7702 27.4019 72.0063Z" fill="black"/>
<path d="M27.8348 73.535C27.8713 73.3288 27.8964 73.1867 27.6377 73.1867H27.1662C26.9304 73.1867 26.9304 73.895 27.1662 74.1311C27.4019 74.3671 27.6377 74.3671 27.8735 74.1311C27.7671 73.9179 27.8048 73.7048 27.8348 73.535Z" fill="black"/>
<path d="M31.1745 78.1445C31.1745 77.9084 30.7029 76.9641 30.2314 76.9641C29.7598 76.9641 29.7598 77.9084 29.9956 77.9084C30.2314 77.9084 30.7029 78.1445 30.7029 78.6167C30.7029 78.8882 30.7029 79.0036 30.7478 79.0975C30.7809 79.1669 30.8385 79.2246 30.9387 79.3249C31.1745 79.561 31.4103 79.7971 31.6461 79.561C31.8819 79.325 32.1176 78.6167 31.8819 78.3806C31.764 78.2626 31.5871 78.2626 31.4398 78.2626C31.2924 78.2626 31.1745 78.2626 31.1745 78.1445Z" fill="black"/>
<path d="M39.427 84.7549C39.6628 84.7549 40.6059 85.6993 40.8417 86.1714L40.8417 86.8797C40.8417 87.1158 40.3702 87.3519 39.8986 87.1158C39.427 86.8797 39.1912 86.6436 38.9554 86.4075C38.828 86.28 38.7695 86.3592 38.6682 86.4962C38.582 86.6128 38.4649 86.7712 38.2481 86.8797C37.974 87.0169 37.8592 86.8352 37.7186 86.6125C37.6173 86.4521 37.5025 86.2703 37.3049 86.1714C36.9197 85.9786 37.0065 85.1554 37.0512 84.7318C37.0613 84.6369 37.0692 84.562 37.0692 84.5188C37.0692 84.2828 36.8334 84.2828 35.6544 84.2828C34.632 84.2828 34.6736 83.5725 34.7027 83.076C34.7071 83 34.7113 82.9289 34.7113 82.8662C34.7113 82.5781 34.4478 82.5537 34.1353 82.5248C33.9357 82.5064 33.7161 82.4861 33.5324 82.3941C33.1852 82.2203 33.3492 81.6625 33.4599 81.2861C33.4996 81.1513 33.5324 81.0398 33.5324 80.9776C33.5324 80.9023 33.4845 80.7791 33.4268 80.6308C33.3036 80.314 33.1359 79.8827 33.2966 79.561C33.4466 79.2606 33.5967 79.6293 33.7467 79.9981C33.8325 80.2088 33.9182 80.4195 34.0039 80.5054C34.1015 80.6031 34.3607 80.8221 34.6643 81.0788L34.6651 81.0794C35.095 81.4428 35.614 81.8814 35.8902 82.158C36.3618 82.6302 37.7765 83.8106 38.2481 84.0467C38.4643 84.1549 38.7302 84.0646 38.9774 83.9806C39.2693 83.8814 39.5351 83.791 39.6628 84.0467C39.8152 84.3519 39.5735 84.5585 39.4472 84.6664C39.3782 84.7254 39.3436 84.7549 39.427 84.7549Z" fill="black"/>
<path d="M86.4824 84.255C86.4628 84.3973 86.4461 84.5188 86.3484 84.5188C86.1126 84.5188 85.641 84.5188 85.8768 84.7549C85.9358 84.8139 85.9947 84.8877 86.0536 84.9615C86.2305 85.1828 86.4073 85.4042 86.5842 85.2271C86.82 84.991 87.0557 84.5188 86.82 83.8106C86.5437 83.8106 86.5102 84.0536 86.4824 84.255Z" fill="black"/>
<path d="M11.6353 91.3653C11.3133 91.7946 11.3133 92.4385 11.4743 92.8677C11.5358 93.0317 11.5738 93.1956 11.6062 93.3357C11.6587 93.5622 11.6967 93.7262 11.7963 93.7262C11.9572 93.7262 12.4402 93.5116 12.2792 93.0823C12.1987 92.8677 12.1987 92.5994 12.1987 92.358C12.1987 92.1165 12.1987 91.9019 12.1182 91.7946C12.0677 91.7272 12.0489 91.6599 12.0319 91.5991C11.9949 91.4664 11.9667 91.3653 11.6353 91.3653Z" fill="black"/>
<path d="M30.5271 72.9817C30.2345 72.7591 29.9956 72.5773 29.9956 72.7145C29.9956 72.9506 30.2314 73.4228 30.7029 73.6589C31.0802 73.8477 31.6461 74.2098 31.8819 74.3671C31.6461 74.2098 31.1745 73.8005 31.1745 73.4228C30.977 73.3239 30.7381 73.1422 30.5271 72.9817Z" fill="black"/>
<path d="M113.764 75.6454C113.576 75.8342 113.843 76.0388 114 76.1175C114.079 76.0388 114.283 75.8814 114.472 75.8814C114.59 75.8814 114.531 75.8224 114.442 75.7339C114.354 75.6454 114.236 75.5273 114.236 75.4093C114.236 75.1732 114 75.4093 113.764 75.6454Z" fill="black"/>
<path d="M115.114 74.8393C115.036 74.7606 114.973 74.6032 115.35 74.6032C115.822 74.6032 116.057 75.0754 115.586 75.0754C115.297 75.0754 115.185 75.0754 115.141 75.0209C115.114 74.9865 115.114 74.9306 115.114 74.8393Z" fill="black"/>
<path d="M37.0692 103.642C36.5976 103.642 36.8334 103.17 37.0692 103.17C37.4373 102.985 37.5181 103.089 37.648 103.255C37.6845 103.302 37.7248 103.354 37.7765 103.406C38.0123 103.642 37.5407 103.642 37.0692 103.642Z" fill="black"/>
<path d="M38.8428 104.667C38.7362 104.667 38.6295 105.058 38.8428 105.058C39.0562 105.058 39.2695 105.058 39.1628 104.863C39.1395 104.82 39.1212 104.777 39.1047 104.738C39.0459 104.6 39.0094 104.514 38.8428 104.667Z" fill="black"/>
<path d="M291.246 66.8124C291.01 67.0485 291.01 67.5206 291.482 67.2846C291.75 67.1503 291.866 67.0924 291.872 67.024C291.877 66.9721 291.819 66.9142 291.718 66.8124C291.529 66.6235 291.325 66.7337 291.246 66.8124Z" fill="black"/>
<path d="M287.002 71.0619C287.002 71.298 286.059 71.7702 285.823 71.7702C285.705 71.7702 285.528 71.7112 285.352 71.6522C285.175 71.5931 284.998 71.5341 284.88 71.5341C284.786 71.5341 284.616 71.6097 284.446 71.6852C284.192 71.7985 283.937 71.9118 283.937 71.7702C283.937 71.5341 284.408 71.0619 284.88 71.0619C285.352 71.0619 285.587 71.0619 286.059 70.8259C286.248 70.7314 286.436 70.5614 286.625 70.3914C286.908 70.1365 287.191 69.8815 287.474 69.8815C287.62 69.8815 287.721 69.9042 287.797 69.9215C287.968 69.9598 288.018 69.9712 288.181 69.6454C288.417 69.1732 289.124 69.1732 289.124 69.4093C289.124 69.5274 289.065 69.5864 289.006 69.6454C288.947 69.7044 288.888 69.7635 288.888 69.8815C288.417 70.1176 287.002 70.8259 287.002 71.0619Z" fill="black"/>
<path d="M282.994 71.7702C283.229 71.7702 283.465 72.2424 283.229 72.4785C283.387 72.4785 283.795 72.5729 284.173 72.9506C284.55 73.3284 283.858 73.4228 283.465 73.4228C283.387 73.1867 283.135 72.6673 282.758 72.4785C282.286 72.2424 282.758 71.7702 282.994 71.7702Z" fill="black"/>
<path d="M279.221 72.9506C279.41 72.9506 280.086 73.108 280.4 73.1867L280.636 73.4228C280.793 73.4228 281.06 73.47 280.872 73.6589C280.683 73.8478 280.636 74.0524 280.636 74.1311L280.4 74.3671H279.928C279.928 74.2885 279.881 74.0838 279.693 73.895C279.575 73.7769 279.575 73.895 279.575 74.0425C279.575 74.1901 279.575 74.3671 279.457 74.3671C279.221 74.3671 279.221 74.8393 279.221 75.0754C279.221 75.3115 279.457 75.7837 279.928 75.3115C280.4 74.8393 281.107 74.3671 281.343 74.3671C281.579 74.3671 281.815 73.895 281.579 73.6589C281.39 73.47 281.186 72.9506 281.107 72.7145C280.872 72.4785 280.353 72.0535 280.164 72.2424C280.083 72.3239 279.973 72.3491 279.855 72.3763C279.631 72.428 279.376 72.4869 279.221 72.9506Z" fill="black"/>
<path d="M277.099 73.1867C277.335 72.9506 278.042 72.7145 278.278 72.7145C278.75 72.6088 278.985 72.7145 278.985 72.9506C278.985 73.108 278.566 73.2654 278.147 73.4228C277.937 73.5015 277.728 73.5802 277.571 73.6589C277.099 73.895 276.863 73.4228 277.099 73.1867Z" fill="black"/>
<path d="M274.741 73.6589C274.505 73.895 274.034 74.6032 274.27 74.6032C274.388 74.6032 274.505 74.5442 274.623 74.4852C274.741 74.4262 274.859 74.3671 274.977 74.3671C275.213 74.3671 275.449 74.3671 275.684 74.1311C275.82 73.9953 275.878 73.9376 275.947 73.9131C275.998 73.895 276.056 73.895 276.156 73.895C276.345 73.895 276.392 73.7376 276.392 73.6589H274.741Z" fill="black"/>
<path d="M276.863 74.1311C277.02 74.0524 277.429 73.9422 277.806 74.1311C277.885 74.1311 278.089 74.1783 278.278 74.3671C278.445 74.5341 278.376 74.583 278.238 74.6808C278.18 74.7213 278.111 74.7702 278.042 74.8393C277.891 74.9905 277.934 75.0449 278.046 75.1884C278.108 75.269 278.193 75.3779 278.278 75.5476C278.454 75.8997 277.974 75.9892 277.328 76.1099C277.107 76.151 276.867 76.1958 276.628 76.2558C275.891 76.4402 275.73 76.3367 275.47 76.17L275.469 76.1697C275.396 76.123 275.316 76.0714 275.213 76.0197C274.965 75.8958 274.848 76.1622 274.724 76.4433C274.611 76.6977 274.494 76.9641 274.27 76.9641C274.055 76.9641 273.889 77.1107 273.683 77.2928C273.437 77.5109 273.133 77.7798 272.619 77.9084C271.676 78.1445 271.204 77.2002 271.204 76.728V74.8393C271.204 74.2789 271.943 74.3097 272.835 74.347C273.07 74.3569 273.316 74.3671 273.562 74.3671C274.362 74.3671 274.294 74.9101 274.241 75.3332C274.216 75.5339 274.194 75.7077 274.27 75.7837C274.434 75.9483 274.713 75.5387 274.947 75.1957L274.948 75.1949L274.948 75.1944L274.948 75.1938C275.049 75.0458 275.142 74.9104 275.213 74.8393C275.449 74.6032 275.92 74.6032 276.392 74.6032C276.769 74.6032 276.863 74.2885 276.863 74.1311Z" fill="black"/>
<path d="M176.654 74.1311C176.419 74.1311 175.947 74.6032 175.947 74.8393C175.947 74.918 175.895 74.9967 175.842 75.0754C175.737 75.2328 175.633 75.3902 175.947 75.5476C176.127 75.6377 176.238 75.7279 176.333 75.8049C176.487 75.9295 176.599 76.0197 176.89 76.0197C177.022 76.0197 177.154 76.0382 177.27 76.0544C177.57 76.0964 177.767 76.124 177.597 75.7837C177.511 75.6101 177.488 75.4685 177.47 75.3587C177.439 75.1698 177.424 75.0754 177.126 75.0754C176.654 75.0754 176.419 75.0754 176.654 74.8393C176.723 74.7702 176.792 74.7213 176.85 74.6808C176.988 74.583 177.057 74.5341 176.89 74.3671L176.654 74.1311Z" fill="black"/>
<path d="M179.756 75.0025C179.72 75.0379 179.72 75.1106 179.72 75.3115C179.72 75.7837 179.72 76.2558 179.955 76.2558C180.034 76.2558 180.139 76.2296 180.244 76.2034C180.453 76.1509 180.663 76.0984 180.663 76.2558C180.663 76.4228 180.781 76.4717 181.016 76.5695C181.114 76.61 181.232 76.6589 181.37 76.728C181.842 76.9641 182.313 77.2 182.077 76.9639C181.949 76.8351 181.89 76.7765 181.902 76.75C181.912 76.728 181.97 76.728 182.077 76.728C182.266 76.728 182.47 77.2002 182.549 77.4363H183.021C183.099 77.4363 183.152 77.4625 183.186 77.48L183.194 77.4836L183.201 77.487C183.215 77.4937 183.225 77.4973 183.233 77.4941C183.256 77.4849 183.256 77.4178 183.256 77.2002C183.256 76.728 183.256 76.0197 183.021 76.0197C182.953 76.0197 182.924 76.0197 182.9 76.0085C182.883 76.0003 182.869 75.986 182.844 75.9612L182.844 75.9607C182.785 75.9017 182.667 75.7837 182.313 75.5476C182.106 75.4094 181.94 75.2915 181.802 75.1937L181.801 75.1933C181.468 74.9573 181.301 74.8393 181.134 74.8393H180.191C180.034 74.918 179.929 74.9442 179.859 74.9617C179.809 74.9744 179.776 74.9825 179.756 75.0025Z" fill="black"/>
<path d="M182.313 78.1445C182.125 77.9557 182.235 77.9084 182.313 77.9084H183.021V78.3806C182.863 78.3806 182.502 78.3334 182.313 78.1445Z" fill="black"/>
<path d="M187.029 77.6723C186.557 77.2002 185.85 76.4919 185.143 76.728C184.435 76.9641 184.199 77.4363 184.907 77.6723C185.283 77.7979 185.392 78.0568 185.483 78.2719C185.563 78.4613 185.629 78.6167 185.85 78.6167C186.03 78.6167 186.176 78.5823 186.3 78.5528C186.502 78.5052 186.647 78.4708 186.793 78.6167C186.819 78.6425 186.847 78.6739 186.878 78.7091C186.894 78.7271 186.91 78.746 186.927 78.7657L186.963 78.8087L186.982 78.8313C187.229 79.1234 187.553 79.508 187.736 79.325C187.829 79.2325 187.993 79.2125 188.145 79.194C188.381 79.1652 188.587 79.1401 188.444 78.8528C188.38 78.7263 188.334 78.5997 188.291 78.4823C188.174 78.1615 188.081 77.9084 187.736 77.9084C187.359 77.9084 187.107 77.751 187.029 77.6723Z" fill="black"/>
<path d="M187.972 79.561L188.208 80.2693C188.051 80.2693 187.689 80.2221 187.5 80.0332C187.368 79.9006 187.161 79.8425 186.922 79.7752C186.735 79.7226 186.528 79.6645 186.322 79.561C186.086 79.443 186.027 79.443 185.997 79.443H185.994L185.989 79.4429L185.987 79.4427L185.984 79.4423C185.964 79.4393 185.947 79.422 185.85 79.325C185.732 79.2069 185.673 79.2069 185.644 79.2069L185.639 79.2069L185.636 79.2068L185.633 79.2066L185.632 79.2064L185.629 79.2059C185.627 79.2055 185.626 79.205 185.625 79.2042C185.614 79.1974 185.614 79.1734 185.614 79.0889C185.614 78.9 185.771 78.8528 185.85 78.8528C185.929 78.8528 186.133 78.9 186.322 79.0889C186.414 79.181 186.47 79.2371 186.532 79.2854C186.629 79.3609 186.741 79.4171 187.029 79.561H187.972Z" fill="black"/>
<path d="M240.693 75.7837C240.583 75.4689 240.528 75.3115 239.373 75.3115C238.833 75.3115 238.293 75.277 237.831 75.2476C237.084 75.2 236.544 75.1656 236.544 75.3115C236.544 75.5476 236.544 76.0197 237.015 76.2558C237.487 76.4919 237.959 76.728 238.902 76.728C239.845 76.728 240.788 76.728 240.788 76.0197C240.745 75.9331 240.717 75.8544 240.693 75.7837Z" fill="black"/>
<path d="M252.106 87.588C252.577 87.3519 253.992 87.3519 254.464 87.588C254.935 87.588 254.935 87.8241 254.935 88.5323C254.935 89.0098 254.292 89.0581 253.584 89.1112C253.242 89.1369 252.885 89.1637 252.577 89.2406C251.775 89.4414 251.655 89.3005 251.492 89.1086C251.464 89.0749 251.434 89.0397 251.398 89.0045C251.163 88.7684 250.927 89.0045 250.455 89.4767C250.147 89.7851 249.94 89.6905 249.57 89.5221C249.374 89.4327 249.132 89.3224 248.805 89.2406C247.862 89.0045 248.333 88.2962 249.041 88.0601C249.542 87.8928 250.162 87.9627 250.649 88.0176C250.848 88.0402 251.025 88.0601 251.163 88.0601C251.454 88.0601 251.565 87.97 251.719 87.8453C251.814 87.7683 251.926 87.6781 252.106 87.588Z" fill="black"/>
<path d="M258.487 88.0093C258.733 87.571 258.927 87.2254 258.236 86.8797C257.293 86.8797 256.586 87.1158 256.586 87.588C256.586 87.7257 256.546 87.8836 256.506 88.038C256.411 88.413 256.321 88.7684 256.822 88.7684C257.048 88.7684 257.25 88.8167 257.428 88.8592C257.806 88.9497 258.076 89.0141 258.236 88.5323C258.299 88.3425 258.396 88.1697 258.487 88.0093Z" fill="black"/>
<path d="M263.659 87.1158C263.471 87.4935 263.109 87.588 262.952 87.588C262.716 86.8797 262.48 87.588 262.48 87.8241C262.48 87.9421 262.303 87.9421 262.038 87.9421C261.773 87.9421 261.419 87.9421 261.066 88.0601C260.358 88.2962 259.887 88.2962 259.415 87.8241C258.944 87.3519 259.887 86.8797 260.594 86.8797C260.922 86.8797 261.047 86.778 261.182 86.669C261.337 86.5431 261.503 86.4075 262.009 86.4075C262.638 86.4075 262.638 86.5125 262.638 86.6524C262.638 86.7223 262.638 86.801 262.716 86.8797C262.851 87.0146 262.986 86.8412 263.12 86.6677C263.221 86.5376 263.322 86.4075 263.423 86.4075C263.659 86.4075 263.895 86.6436 263.659 87.1158Z" fill="black"/>
<path d="M254.81 85.2271C254.637 85.5419 254.55 85.6993 254.935 85.6993C255.407 85.6993 255.878 85.4632 255.643 85.2271C255.591 85.1754 255.551 85.1236 255.514 85.0768C255.384 84.9102 255.303 84.8067 254.935 84.991C254.892 85.0777 254.849 85.1564 254.81 85.2271Z" fill="black"/>
<path d="M257.293 82.3941C257.765 82.6302 257.529 82.8662 257.057 83.1023C256.9 83.181 256.491 83.2912 256.114 83.1023C255.76 82.9253 255.407 83.1466 255.053 83.3679C254.935 83.4417 254.817 83.5155 254.699 83.5745C254.228 83.8106 253.52 83.5745 253.049 83.3384C252.577 83.1023 253.52 82.6302 253.992 82.6302C254.464 82.6302 254.935 82.6302 255.407 82.3941C255.878 82.158 256.822 82.158 257.293 82.3941Z" fill="black"/>
<path d="M255.407 80.2693H256.822C257.293 80.2693 258.236 80.7415 257.529 80.9776C257.067 81.1317 256.907 81.1852 256.785 81.1381C256.721 81.113 256.668 81.0595 256.586 80.9777C256.35 80.7416 256.114 80.5054 255.407 80.2693Z" fill="black"/>
<path d="M260.594 81.4497C260.814 81.4497 260.88 81.4497 260.936 81.4258C260.939 81.4245 260.942 81.4232 260.945 81.4218L260.948 81.4201L260.952 81.4178L260.959 81.4142L260.964 81.4111L260.972 81.4066L260.981 81.4011L260.99 81.395L260.995 81.3916L261.013 81.3798C261.066 81.3448 261.144 81.2923 261.301 81.2136C261.773 80.9776 262.245 81.2136 262.245 81.6858C262.245 82.158 261.537 82.158 261.066 82.158C260.842 82.158 260.725 82.158 260.613 82.1831C260.488 82.2109 260.371 82.2698 260.122 82.3941C259.651 82.6302 259.651 82.158 259.651 81.6858C259.651 81.3402 259.904 81.3741 260.224 81.417C260.341 81.4328 260.468 81.4497 260.594 81.4497Z" fill="black"/>
<path d="M264.602 82.6302C264.367 82.8662 264.131 83.5745 264.602 83.3384C264.778 83.2508 264.953 83.2282 265.092 83.2103C265.327 83.18 265.458 83.1631 265.31 82.8662C265.074 82.3941 264.764 82.3941 264.602 82.6302Z" fill="black"/>
<path d="M264.602 78.1445C264.367 78.3806 263.188 78.3806 262.716 78.1445C262.48 78.2232 261.914 78.475 261.537 78.8528C261.16 79.2305 260.594 79.325 260.358 79.325C260.437 79.4823 260.783 79.7027 261.537 79.325C262.48 78.8528 262.245 80.2693 262.009 80.2693C261.773 80.2693 260.358 80.7415 259.651 80.9776C259.142 81.1476 258.877 80.9502 258.592 80.7383C258.482 80.656 258.368 80.5714 258.236 80.5054C257.859 80.3165 258.393 80.2693 258.708 80.2693C258.629 80.1906 258.472 79.9388 258.472 79.561C258.472 79.325 258.649 79.2069 258.826 79.0889C259.003 78.9708 259.179 78.8528 259.179 78.6167C259.179 78.239 258.551 78.4593 258.236 78.6167C258 78.3806 258.472 77.9084 258.944 77.6723C259.223 77.5326 259.419 77.6409 259.533 77.7037C259.612 77.7471 259.651 77.7687 259.651 77.6723C259.651 77.5746 259.691 77.3957 259.739 77.1864C259.806 76.8902 259.887 76.5324 259.887 76.2558C259.887 75.8898 260.595 75.9494 261.133 75.9947C261.289 76.0078 261.431 76.0197 261.537 76.0197C261.882 76.0197 262.228 75.8931 262.666 75.7327C262.826 75.674 262.998 75.6108 263.188 75.5476C263.895 75.3115 264.602 75.3115 265.31 76.2558C265.915 77.0641 265.139 77.6997 264.754 78.014C264.69 78.0668 264.636 78.1105 264.602 78.1445Z" fill="black"/>
<path d="M265.546 76.2558C265.546 75.7837 265.546 75.5476 266.017 75.5476C266.253 75.5476 266.489 75.6656 266.666 75.7541C266.842 75.8427 266.96 75.9017 266.96 75.7837C266.96 75.5476 267.903 75.0754 268.375 75.0754C268.752 75.0754 269.475 75.5476 269.79 75.7837C269.868 76.0984 269.884 76.728 269.318 76.728C269.03 76.728 268.782 76.6889 268.588 76.6584C268.305 76.6141 268.139 76.588 268.139 76.728C268.139 76.9641 268.375 77.9084 268.611 77.6723C268.799 77.4835 269.475 77.5937 269.79 77.6723C269.633 77.9871 269.13 78.5695 268.375 78.3806C267.432 78.1445 267.432 77.9084 267.432 77.2002C267.432 77.0432 267.443 76.8978 267.454 76.7691L267.454 76.7682L267.454 76.7674L267.454 76.7664C267.49 76.3164 267.51 76.0725 266.96 76.2558C266.584 76.3814 266.341 76.7073 266.161 76.9495C266.002 77.1625 265.892 77.3107 265.781 77.2002C265.593 77.0113 265.546 76.4919 265.546 76.2558Z" fill="black"/>
<path d="M291.954 70.3537C291.765 70.5425 291.561 70.9045 291.482 71.0619C291.954 70.9045 292.897 70.4481 292.897 69.8815V68.9372C292.661 69.2519 292.142 69.8815 291.954 69.8815C291.718 69.8815 290.303 70.3537 290.303 70.5898C290.303 70.7078 290.008 70.8849 289.714 71.0619C289.419 71.239 289.124 71.4161 289.124 71.5341C289.124 71.6987 288.78 71.9781 288.492 72.2122C288.367 72.3139 288.252 72.407 288.181 72.4785C287.945 72.7145 287.474 73.1867 287.945 73.1867C288.21 73.1867 288.475 72.8889 288.781 72.5442C289.021 72.275 289.286 71.9772 289.596 71.7702C289.949 71.5341 290.067 71.4161 290.156 71.3275C290.244 71.239 290.303 71.18 290.539 71.0619C290.696 70.9833 290.879 70.8357 291.063 70.6881C291.429 70.3928 291.796 70.0973 291.954 70.3537Z" fill="black"/>
<path d="M289.36 75.7837C289.549 75.5948 290.539 74.7606 291.01 74.3671C290.853 74.6819 290.474 75.4059 290.215 75.7837C289.89 76.2558 289.124 76.728 288.653 76.9641C288.181 77.2002 289.124 76.0197 289.36 75.7837Z" fill="black"/>
<path d="M283.719 74.9473C283.58 74.9652 283.405 74.9877 283.229 75.0754C283.072 75.1541 282.837 75.3115 282.575 75.4864C282.051 75.8361 281.422 76.2558 281.107 76.2558H280.4C280.732 76.0103 281.575 75.4776 282.286 75.3115C282.998 75.1453 283.683 74.7701 283.937 74.6032C284.085 74.9001 283.954 74.917 283.719 74.9473Z" fill="black"/>
<path d="M285.352 78.8528C285.116 78.8528 284.55 78.9 284.173 79.0889C284.015 79.1676 283.911 79.2463 283.806 79.325C283.596 79.4823 283.387 79.6397 282.758 79.7971C281.904 80.0109 282.21 80.2248 282.516 80.4386L282.518 80.4398L282.519 80.4403C282.55 80.462 282.581 80.4837 282.611 80.5054C282.87 80.6943 282.817 80.7415 282.758 80.7415C282.837 80.7415 283.041 80.6943 283.229 80.5054C283.357 80.3776 283.623 80.319 283.915 80.2546C284.162 80.2001 284.428 80.1415 284.644 80.0332C285.116 79.7971 285.587 79.0889 285.352 78.8528Z" fill="black"/>
<path d="M280.887 81.0077C280.707 81.2418 280.493 81.5212 280.164 81.6858C279.693 81.9219 279.221 81.9219 278.75 81.9219C278.421 81.9219 277.863 82.2662 277.395 82.5547C277.192 82.68 277.006 82.7948 276.863 82.8662L274.977 83.8106H276.156C276.242 83.8106 276.36 83.7157 276.51 83.5954C276.769 83.387 277.122 83.1023 277.571 83.1023C278.019 83.1023 278.278 83.0074 278.468 82.938C278.577 82.8979 278.663 82.8662 278.75 82.8662C278.836 82.8662 279.017 82.708 279.247 82.5075C279.644 82.1602 280.187 81.6858 280.636 81.6858C281.343 81.6858 281.343 81.4497 281.107 80.7415C281.036 80.8129 280.965 80.9061 280.887 81.0077Z" fill="black"/>
<path d="M272.383 84.5188C271.676 84.2828 271.676 85.2452 271.912 85.2271C272.619 85.2271 273.091 84.7549 272.383 84.5188Z" fill="black"/>
<path d="M271.343 83.5743C272.036 83.5743 272.498 83.2754 271.805 83.1259C271.112 82.9765 271.112 83.5858 271.343 83.5743Z" fill="black"/>
<path d="M273.421 80.5872C274.42 80.2972 275.002 79.8168 273.962 79.9633C272.922 80.1097 273.091 80.6949 273.421 80.5872Z" fill="black"/>
<path d="M276.248 78.8899C275.373 79.4528 274.629 79.5765 275.422 78.8879C276.216 78.1993 276.545 78.7119 276.248 78.8899Z" fill="black"/>
<path d="M278.852 77.8382C277.685 78.589 276.805 78.9298 277.92 78.0991C279.035 77.2684 279.244 77.5941 278.852 77.8382Z" fill="black"/>
<path d="M268.985 83.5748C269.678 83.5748 270.14 84.1727 269.447 84.4716C268.754 84.7705 268.754 83.552 268.985 83.5748Z" fill="black"/>
<path d="M266.224 84.9909C267.264 84.9909 267.957 84.6919 266.918 84.5425C265.878 84.393 265.878 85.0023 266.224 84.9909Z" fill="black"/>
<path d="M266.627 86.4074C267.32 86.4074 267.782 86.1085 267.089 85.959C266.396 85.8095 266.396 86.4188 266.627 86.4074Z" fill="black"/>
<path d="M135.863 133.153C135.863 133.389 135.392 135.277 135.156 136.222C134.967 136.977 133.977 138.425 133.506 139.055C133.584 138.661 133.741 137.827 133.741 137.638C133.741 137.402 134.92 135.041 135.156 134.569L135.863 133.153Z" fill="black"/>
<path d="M130.205 144.485C130.047 145.036 129.686 146.232 129.497 146.61C129.419 146.767 129.314 146.872 129.218 146.968C129.026 147.16 128.868 147.318 129.026 147.79C129.261 148.498 129.733 148.026 129.969 147.554C130.157 147.176 130.205 145.35 130.205 144.485Z" fill="black"/>
<path fill-rule="evenodd" clip-rule="evenodd" d="M193.867 200.673C194.574 200.437 195.187 199.21 192.924 199.021C192.177 198.958 191.005 198.942 189.623 199.021C188.502 199.084 187.476 199.151 186.515 199.213L186.507 199.213L186.502 199.214C184.156 199.366 182.196 199.493 180.191 199.493C177.768 199.493 175.007 199.119 173.497 198.914C172.93 198.837 172.539 198.785 172.41 198.785C172.203 198.785 171.997 198.694 171.81 198.612C171.625 198.531 171.46 198.458 171.333 198.49C171.491 198.309 171.651 197.932 170.995 197.604C170.524 197.368 169.817 197.919 170.052 198.076C169.601 197.85 168.948 197.706 168.266 197.555L168.265 197.554L168.264 197.554C167.996 197.495 167.724 197.435 167.459 197.368C166.686 197.175 166.316 197.341 166.018 197.475C165.865 197.544 165.732 197.604 165.572 197.604C165.337 197.604 165.16 197.427 165.012 197.279C164.865 197.132 164.747 197.014 164.629 197.132C164.441 197.321 163.922 197.368 163.686 197.368C163.057 197.289 160.385 197.132 159.442 197.132C158.954 197.132 157.737 197.01 156.312 196.868C154.296 196.667 151.863 196.424 150.482 196.424C149.473 196.424 148.562 196.51 147.843 196.579C147.375 196.623 146.989 196.66 146.71 196.66C146.002 196.66 145.531 196.66 144.823 196.896C144.116 197.132 141.522 197.368 140.579 197.368C139.415 197.368 139.424 197.485 139.447 197.803C139.457 197.936 139.47 198.104 139.4 198.312C139.133 198.312 138.792 198.325 138.421 198.338C137.154 198.383 135.521 198.441 135.156 198.076C134.684 197.604 134.213 198.548 134.449 199.021C134.53 199.182 134.5 199.372 134.473 199.542C134.421 199.867 134.381 200.12 135.156 199.965C136.099 199.776 136.335 199.886 136.335 199.965C135.706 200.201 134.637 200.909 135.392 201.854C136.335 203.034 138.934 205.233 141.522 205.395C143.186 205.499 144.345 205.741 145.485 205.979C146.93 206.28 148.345 206.575 150.718 206.575H161.328C162.271 206.575 165.101 206.575 165.572 206.811C166.044 207.048 168.638 207.284 172.646 207.048C175.004 206.909 177.771 206.606 180.273 206.333C182.023 206.142 183.645 205.964 184.907 205.867L185.645 205.811C188.519 205.592 191.603 205.357 192.688 204.923C193.867 204.451 197.875 201.854 193.867 200.673ZM155.198 202.09C154.962 202.247 153.83 202.515 151.189 202.326C149.727 202.221 148.728 202.117 147.924 202.033L147.923 202.033L147.922 202.032C146.913 201.927 146.214 201.854 145.295 201.854C144.825 201.854 144.412 201.873 144.057 201.889C143.165 201.931 142.634 201.955 142.465 201.618C142.23 201.145 143.173 201.145 144.587 201.145C145.221 201.145 145.807 201.287 146.367 201.423C147.058 201.59 147.709 201.748 148.36 201.618C149.539 201.382 153.312 201.382 153.783 201.382C154.255 201.382 150.011 201.854 149.539 201.854C149.067 201.854 154.49 202.326 155.198 202.09Z" fill="black"/>
<path d="M224.047 123.709C222.727 125.787 224.912 128.746 226.405 129.611C222.806 132.414 225.481 135.897 227.24 138.186C227.555 138.596 227.841 138.968 228.056 139.291C229.47 141.416 238.43 146.373 241.967 147.318C243.863 147.824 247.182 149.212 250.871 150.755C254.063 152.09 257.531 153.541 260.594 154.636C265.876 156.525 268.611 154.479 269.318 153.22C269.754 153.22 269.827 153.26 271.469 154.158L271.912 154.4C274.505 155.817 276.392 154.636 277.099 153.692C277.553 153.086 277.035 152.479 276.356 151.685C275.978 151.242 275.55 150.742 275.213 150.151C276.392 151.567 277.745 151.451 278.985 150.623C279.693 150.151 280.522 148.695 280.164 147.082C279.693 144.957 274.741 140.471 274.034 139.999C273.927 139.928 273.604 139.678 273.108 139.294L273.104 139.292C270.317 137.135 262.079 130.763 255.878 127.959C248.918 124.811 238.963 123.162 234.364 122.401L234.053 122.349C233.936 122.33 233.823 122.311 233.714 122.293C229.47 121.584 225.698 121.112 224.047 123.709Z" fill="black"/>
<path d="M97.6661 109.544C99.5524 109.544 101.674 112.613 103.325 115.918C104.268 116.312 106.862 117.571 107.098 118.987C107.333 120.404 106.862 122.529 104.975 123.945C107.333 127.014 103.797 133.625 101.674 135.513C100.546 136.518 91.0641 142.596 87.2915 143.54C84.5863 144.218 82.5303 144.679 80.6614 145.098C76.6302 146.003 73.4697 146.712 66.5424 148.97C60.7526 150.858 56.5608 150.859 55.2247 150.623C53.1026 151.882 46.8307 153.881 38.7196 151.803C30.6086 149.726 31.5675 145.901 33.0608 144.249C32.9708 144.197 32.8532 144.142 32.7186 144.079C32.03 143.756 30.8936 143.224 30.7029 141.888C30.2813 138.933 34.7597 136.167 37.567 134.433C37.8997 134.227 38.209 134.036 38.4839 133.861C39.1207 133.455 40.1216 132.673 41.4104 131.666C45.3703 128.572 52.0479 123.355 59.233 120.404C67.5048 117.006 76.5397 116.283 82.2189 115.828L82.2215 115.828L82.2279 115.827C82.8588 115.777 83.4482 115.729 83.9905 115.682C85.0909 115.84 88.2347 115.446 88.2347 115.446C88.2347 115.446 87.9989 113.557 89.6494 111.669C90.9698 110.158 93.7363 109.78 94.6009 110.016C94.6009 109.78 94.6952 109.308 95.0724 109.308C95.4497 109.308 95.7012 109.78 95.7798 110.016C95.7798 109.859 96.1571 109.544 97.6661 109.544Z" fill="black"/>
<path d="M648.816 208.817C644.361 208.817 640.422 208.085 636.997 206.621C633.603 205.126 630.937 202.869 628.997 199.849C627.058 196.829 626.088 192.986 626.088 188.319C626.088 184.475 626.739 181.196 628.043 178.481C629.346 175.736 631.164 173.494 633.497 171.755C635.831 170.016 638.543 168.69 641.634 167.774C644.755 166.859 648.119 166.265 651.725 165.99C655.635 165.685 658.771 165.319 661.135 164.892C663.529 164.434 665.256 163.809 666.317 163.016C667.378 162.192 667.908 161.109 667.908 159.767V159.584C667.908 157.754 667.211 156.351 665.817 155.375C664.423 154.399 662.635 153.911 660.453 153.911C658.059 153.911 656.104 154.444 654.589 155.512C653.104 156.549 652.21 158.151 651.907 160.316H628.815C629.118 156.046 630.467 152.111 632.861 148.511C635.285 144.882 638.816 141.984 643.452 139.818C648.089 137.622 653.877 136.524 660.817 136.524C665.817 136.524 670.302 137.118 674.272 138.308C678.242 139.467 681.621 141.099 684.409 143.204C687.197 145.278 689.318 147.718 690.773 150.525C692.258 153.301 693 156.32 693 159.584V207.719H669.544V197.836H668.999C667.605 200.459 665.908 202.579 663.908 204.196C661.938 205.812 659.68 206.987 657.135 207.719C654.619 208.451 651.847 208.817 648.816 208.817ZM656.998 192.894C658.908 192.894 660.695 192.498 662.362 191.704C664.059 190.911 665.438 189.768 666.499 188.273C667.559 186.778 668.09 184.963 668.09 182.828V176.971C667.423 177.246 666.711 177.505 665.953 177.749C665.226 177.993 664.438 178.222 663.59 178.435C662.771 178.649 661.893 178.847 660.953 179.03C660.044 179.213 659.089 179.381 658.089 179.534C656.15 179.839 654.559 180.342 653.316 181.044C652.104 181.715 651.195 182.553 650.589 183.56C650.013 184.536 649.725 185.634 649.725 186.854C649.725 188.807 650.407 190.301 651.771 191.338C653.135 192.376 654.877 192.894 656.998 192.894Z" fill="black"/>
<path d="M621.769 160.316H598.677C598.555 158.883 598.055 157.647 597.177 156.61C596.298 155.573 595.161 154.78 593.767 154.231C592.404 153.651 590.888 153.362 589.222 153.362C587.07 153.362 585.221 153.758 583.676 154.551C582.13 155.344 581.373 156.473 581.403 157.937C581.373 158.974 581.812 159.935 582.721 160.82C583.661 161.704 585.464 162.391 588.131 162.879L602.313 165.441C609.465 166.753 614.783 168.964 618.268 172.075C621.784 175.156 623.556 179.29 623.587 184.475C623.556 189.478 622.072 193.824 619.132 197.515C616.223 201.176 612.238 204.013 607.177 206.026C602.146 208.009 596.404 209 589.949 209C579.282 209 570.933 206.804 564.902 202.411C558.902 198.019 555.553 192.223 554.856 185.024H579.767C580.1 187.251 581.191 188.974 583.04 190.195C584.918 191.384 587.282 191.979 590.131 191.979C592.434 191.979 594.328 191.582 595.813 190.789C597.328 189.996 598.101 188.868 598.131 187.403C598.101 186.061 597.434 184.994 596.131 184.201C594.858 183.408 592.858 182.767 590.131 182.279L577.767 180.083C570.645 178.832 565.311 176.453 561.766 172.945C558.22 169.437 556.463 164.922 556.493 159.401C556.463 154.521 557.735 150.387 560.311 147.002C562.917 143.585 566.63 140.992 571.448 139.223C576.297 137.423 582.04 136.524 588.676 136.524C598.768 136.524 606.722 138.628 612.541 142.838C618.39 147.047 621.465 152.873 621.769 160.316Z" fill="black"/>
<path d="M506.285 207.719V137.439H530.65V150.799H531.377C532.65 145.858 534.665 142.243 537.423 139.955C540.211 137.667 543.469 136.524 547.196 136.524C548.287 136.524 549.363 136.615 550.423 136.798C551.514 136.951 552.56 137.179 553.56 137.484V159.035C552.318 158.608 550.787 158.288 548.969 158.074C547.151 157.861 545.59 157.754 544.287 157.754C541.832 157.754 539.62 158.318 537.65 159.447C535.711 160.545 534.18 162.101 533.059 164.114C531.938 166.097 531.377 168.43 531.377 171.115V207.719H506.285Z" fill="black"/>
<path d="M463.76 209C456.184 209 449.698 207.49 444.304 204.47C438.91 201.42 434.773 197.18 431.895 191.75C429.016 186.29 427.576 179.961 427.576 172.762C427.576 165.563 429.016 159.249 431.895 153.819C434.773 148.359 438.91 144.119 444.304 141.099C449.698 138.049 456.184 136.524 463.76 136.524C471.336 136.524 477.821 138.049 483.215 141.099C488.609 144.119 492.746 148.359 495.625 153.819C498.504 159.249 499.943 165.563 499.943 172.762C499.943 179.961 498.504 186.29 495.625 191.75C492.746 197.18 488.609 201.42 483.215 204.47C477.821 207.49 471.336 209 463.76 209ZM463.941 190.332C466.063 190.332 467.896 189.615 469.442 188.181C470.987 186.748 472.184 184.704 473.033 182.05C473.881 179.396 474.306 176.239 474.306 172.579C474.306 168.888 473.881 165.731 473.033 163.107C472.184 160.454 470.987 158.41 469.442 156.976C467.896 155.543 466.063 154.826 463.941 154.826C461.699 154.826 459.775 155.543 458.168 156.976C456.562 158.41 455.335 160.454 454.486 163.107C453.638 165.731 453.214 168.888 453.214 172.579C453.214 176.239 453.638 179.396 454.486 182.05C455.335 184.704 456.562 186.748 458.168 188.181C459.775 189.615 461.699 190.332 463.941 190.332Z" fill="black"/>
<path d="M351.094 207.719V114.012H376.186V149.701H376.55C377.459 147.322 378.793 145.141 380.55 143.158C382.308 141.145 384.49 139.543 387.096 138.354C389.702 137.134 392.733 136.524 396.187 136.524C400.794 136.524 405.173 137.759 409.324 140.23C413.506 142.701 416.9 146.59 419.507 151.897C422.143 157.205 423.461 164.099 423.461 172.579C423.461 180.693 422.204 187.419 419.688 192.757C417.203 198.095 413.87 202.076 409.688 204.699C405.536 207.322 400.975 208.634 396.006 208.634C392.733 208.634 389.808 208.1 387.232 207.032C384.687 205.934 382.505 204.455 380.687 202.594C378.899 200.703 377.52 198.568 376.55 196.188H376.005V207.719H351.094ZM375.641 172.579C375.641 175.995 376.08 178.954 376.959 181.455C377.868 183.926 379.141 185.848 380.778 187.22C382.444 188.563 384.429 189.234 386.732 189.234C389.036 189.234 390.99 188.578 392.596 187.266C394.233 185.924 395.475 184.018 396.324 181.547C397.203 179.045 397.642 176.056 397.642 172.579C397.642 169.101 397.203 166.127 396.324 163.656C395.475 161.155 394.233 159.249 392.596 157.937C390.99 156.595 389.036 155.924 386.732 155.924C384.429 155.924 382.444 156.595 380.778 157.937C379.141 159.249 377.868 161.155 376.959 163.656C376.08 166.127 375.641 169.101 375.641 172.579Z" fill="black"/>
<path d="M655.005 16.838V35.1401H609.003V16.838H655.005ZM617.913 0H643.005V64.515C643.005 65.4911 643.171 66.3147 643.505 66.9858C643.838 67.6263 644.353 68.1144 645.05 68.4499C645.747 68.755 646.641 68.9075 647.732 68.9075C648.49 68.9075 649.369 68.816 650.369 68.633C651.399 68.4499 652.157 68.2974 652.641 68.1754L656.278 85.9285C655.157 86.264 653.551 86.6758 651.46 87.1638C649.399 87.6519 646.944 87.9722 644.096 88.1247C638.338 88.4297 633.504 87.8349 629.595 86.3403C625.686 84.8151 622.746 82.4205 620.776 79.1567C618.807 75.8928 617.852 71.8053 617.913 66.8943V0Z" fill="black"/>
<path d="M561.034 88.2162C556.579 88.2162 552.64 87.4842 549.215 86.02C545.821 84.5253 543.154 82.268 541.215 79.2482C539.275 76.2283 538.306 72.3849 538.306 67.7179C538.306 63.8744 538.957 60.5953 540.26 57.8805C541.563 55.1351 543.382 52.8931 545.715 51.1544C548.049 49.4157 550.761 48.0888 553.852 47.1737C556.973 46.2586 560.337 45.6638 563.943 45.3893C567.853 45.0842 570.989 44.7182 573.353 44.2911C575.747 43.8336 577.474 43.2083 578.535 42.4152C579.596 41.5916 580.126 40.5087 580.126 39.1665V38.9835C580.126 37.1533 579.429 35.7501 578.035 34.774C576.641 33.7979 574.853 33.3099 572.671 33.3099C570.277 33.3099 568.322 33.8437 566.807 34.9113C565.322 35.9484 564.428 37.5499 564.125 39.7156H541.033C541.336 35.4451 542.685 31.5102 545.079 27.9107C547.503 24.2808 551.034 21.383 555.67 19.2172C560.307 17.021 566.095 15.9229 573.035 15.9229C578.035 15.9229 582.52 16.5177 586.49 17.7073C590.46 18.8664 593.839 20.4984 596.627 22.6031C599.415 24.6774 601.536 27.1176 602.991 29.924C604.475 32.6998 605.218 35.7196 605.218 38.9835V87.1181H581.762V77.235H581.217C579.823 79.8583 578.126 81.9783 576.126 83.5949C574.156 85.2116 571.898 86.386 569.353 87.1181C566.837 87.8502 564.065 88.2162 561.034 88.2162ZM569.216 72.2934C571.125 72.2934 572.913 71.8968 574.58 71.1037C576.277 70.3107 577.656 69.1668 578.717 67.6721C579.777 66.1774 580.308 64.3625 580.308 62.2272V56.3705C579.641 56.6451 578.929 56.9044 578.171 57.1484C577.444 57.3924 576.656 57.6212 575.807 57.8347C574.989 58.0482 574.11 58.2465 573.171 58.4295C572.262 58.6125 571.307 58.7803 570.307 58.9328C568.368 59.2379 566.777 59.7412 565.534 60.4428C564.322 61.1138 563.413 61.9527 562.807 62.9593C562.231 63.9354 561.943 65.0335 561.943 66.2537C561.943 68.2059 562.625 69.7006 563.989 70.7377C565.352 71.7748 567.095 72.2934 569.216 72.2934Z" fill="black"/>
<path d="M500.996 88.3993C493.541 88.3993 487.117 86.9656 481.723 84.0983C476.359 81.2004 472.222 77.0519 469.313 71.6528C466.434 66.2232 464.995 59.7259 464.995 52.1611C464.995 44.9012 466.449 38.5565 469.359 33.1268C472.268 27.6972 476.374 23.4725 481.677 20.4526C486.981 17.4328 493.238 15.9229 500.451 15.9229C505.724 15.9229 510.497 16.7464 514.77 18.3936C519.043 20.0408 522.694 22.4354 525.725 25.5772C528.755 28.6886 531.089 32.471 532.725 36.9245C534.362 41.3781 535.18 46.3959 535.18 51.978V57.8347H472.813V43.9251H512.088C512.057 41.9119 511.542 40.1427 510.542 38.6175C509.573 37.0618 508.254 35.8569 506.588 35.0028C504.951 34.1182 503.087 33.6759 500.996 33.6759C498.966 33.6759 497.102 34.1182 495.405 35.0028C493.708 35.8569 492.344 37.0466 491.314 38.5717C490.314 40.0969 489.784 41.8814 489.723 43.9251V58.9328C489.723 61.1901 490.193 63.2033 491.132 64.9725C492.072 66.7417 493.42 68.1297 495.178 69.1363C496.936 70.1429 499.057 70.6462 501.542 70.6462C503.269 70.6462 504.845 70.4022 506.269 69.9141C507.724 69.4261 508.966 68.7245 509.997 67.8094C511.027 66.8638 511.785 65.7351 512.27 64.4235H535.18C534.392 69.304 532.528 73.544 529.589 77.1434C526.649 80.7124 522.755 83.4882 517.906 85.4709C513.088 87.4231 507.451 88.3993 500.996 88.3993Z" fill="black"/>
<path d="M351 87.1181V16.838H374.819V30.1985H375.547C377.001 25.806 379.486 22.3286 383.001 19.7663C386.517 17.204 390.699 15.9229 395.547 15.9229C400.457 15.9229 404.684 17.2345 408.23 19.8578C411.775 22.4506 413.912 25.8975 414.639 30.1985H415.367C416.548 25.8975 419.064 22.4506 422.912 19.8578C426.761 17.2345 431.276 15.9229 436.458 15.9229C443.156 15.9229 448.58 18.0886 452.732 22.4201C456.914 26.7516 459.005 32.5168 459.005 39.7156V87.1181H433.913V46.1214C433.913 43.0405 433.14 40.6307 431.595 38.892C430.049 37.1228 427.973 36.2382 425.367 36.2382C422.791 36.2382 420.746 37.1228 419.23 38.892C417.745 40.6307 417.003 43.0405 417.003 46.1214V87.1181H393.002V46.1214C393.002 43.0405 392.229 40.6307 390.684 38.892C389.138 37.1228 387.062 36.2382 384.456 36.2382C382.729 36.2382 381.244 36.6348 380.001 37.4278C378.759 38.2209 377.789 39.3648 377.092 40.8595C376.425 42.3237 376.092 44.0776 376.092 46.1214V87.1181H351Z" fill="black"/>
</g>
<defs>
<clipPath id="clip0_0_41">
<rect width="693" height="209" fill="white"/>
</clipPath>
</defs>
</svg>
