<svg width="830" height="136" viewBox="0 0 830 136" fill="none" xmlns="http://www.w3.org/2000/svg">
<g clip-path="url(#clip0_0_16)">
<path fill-rule="evenodd" clip-rule="evenodd" d="M18.5315 3.07251C18.8372 1.53625 19.4488 0 20.6718 0C22.6015 0 22.9044 1.17733 23.1528 2.14296C23.3177 2.78385 23.4586 3.33148 24.0352 3.37976C25.2804 3.48404 25.4604 5.01071 25.5969 6.16833C25.6615 6.71617 25.7163 7.18135 25.8697 7.37402C26.4812 8.14215 26.4813 10.6002 26.3284 13.3654C26.1755 16.1307 23.8823 20.4322 22.965 21.8148C22.3027 22.8132 22.2006 23.3511 22.0477 24.4264C21.9749 24.9388 21.5851 25.5389 21.0638 26.3415C20.4067 27.3533 19.5406 28.6867 18.8372 30.5715C18.2093 32.2542 17.8655 32.8326 17.6598 33.1787C17.4523 33.5278 17.3852 33.6407 17.3084 34.4121C17.2408 35.0911 16.9669 36.3104 16.6283 37.8178C16.2007 39.721 15.6699 42.0834 15.321 44.3978C14.904 47.163 17.1067 50.9032 18.2257 51.9254C19.9074 53.4617 23.7294 56.6878 26.0226 57.3023C26.295 57.4048 26.6887 57.5964 26.9875 57.7417C27.2683 57.8784 27.4652 57.9742 27.3985 57.9168C26.3289 56.9955 26.7592 56.346 26.9396 56.0737L26.9399 56.0733C26.9475 56.0617 26.8848 56.012 26.8009 55.9455C26.5725 55.7644 26.187 55.4588 26.6341 55.4588C26.7298 55.2664 26.9101 55.3513 27.0536 55.4189C27.1393 55.4593 27.2119 55.4935 27.2457 55.4588C27.2948 55.4082 27.3234 55.4315 27.3475 55.4511C27.3649 55.4653 27.3799 55.4775 27.3985 55.4588C27.1947 55.1003 26.6341 54.6907 26.1755 54.6907C26.0027 54.6907 25.6949 54.2348 25.3679 53.7505C25.2299 53.5461 25.0885 53.3367 24.9524 53.1544C24.4938 52.5399 23.7294 51.67 23.7294 51.9254C23.7294 52.1256 23.5098 52.3138 23.1179 51.7718C23.0253 51.6437 22.9475 51.5433 22.8783 51.454C22.7966 51.3487 22.727 51.2588 22.6592 51.1573C22.6241 51.1046 22.5484 51.021 22.4612 50.9245C22.2376 50.6774 21.9378 50.346 22.0477 50.2355C22.2006 50.0819 22.2006 49.9283 22.2006 49.7746C22.2006 49.7118 22.0728 49.5719 21.9321 49.418C21.7288 49.1955 21.4987 48.9437 21.5891 48.8529C21.7135 48.7279 22.1944 49.0527 22.5735 49.3087L22.5738 49.3089C22.6604 49.3674 22.7416 49.4223 22.8121 49.4674C24.3961 50.2633 26.4123 51.5646 27.6428 52.3587C27.8374 52.4843 28.0125 52.5973 28.1629 52.6935C29.0546 53.2637 33.3609 54.537 34.1253 54.3834C35.0426 54.6907 36.0812 54.8939 36.8771 54.9979C37.5651 54.8827 38.1058 54.9403 38.4436 54.9763C38.5562 54.9883 38.6462 54.9979 38.7117 54.9979C39.5678 54.9979 39.7309 55.4588 39.629 55.6124C39.7819 55.4588 40.424 54.9979 41.7693 54.9979C42.5062 54.9979 43.8118 54.9057 44.9928 54.8224C45.9679 54.7535 46.8581 54.6907 47.273 54.6907C48.1903 54.6907 48.0374 54.9979 48.0374 54.9979C48.3432 54.7931 49.077 54.6907 49.5662 54.6907C49.5962 54.6907 49.6373 54.6568 49.6907 54.613C49.8646 54.47 50.1683 54.2203 50.6364 54.6907C50.6702 54.7247 50.7709 54.6495 50.9073 54.5476C51.2121 54.32 51.6955 53.9589 52.0123 54.3834C53.2729 54.1707 54.7957 53.8587 56.0584 53.6C57.531 53.2984 58.6498 53.0692 58.5861 53.1544C58.2878 53.5542 54.3055 54.8443 52.0123 54.8443C51.8542 54.8821 51.8036 54.9036 51.7444 54.9287C51.7008 54.9471 51.6526 54.9676 51.5536 54.9979C51.5146 55.0099 51.4935 55.035 51.4652 55.0685C51.4141 55.1292 51.3399 55.2174 51.095 55.3052C50.4835 54.9979 49.8719 55.1515 49.5662 55.6124C49.872 55.766 50.3306 55.9197 52.5894 55.4174C52.8464 55.3894 53.1041 55.361 53.3552 55.3334C54.0146 55.2607 54.6291 55.1931 55.0699 55.1515C55.2093 55.2215 55.2376 55.3686 55.2633 55.502C55.294 55.6612 55.3209 55.8008 55.5285 55.766C56.4458 55.6124 57.3211 55.3657 58.1275 54.9979C57.9746 54.3834 58.6483 54.2496 58.8919 54.2298C59.0071 54.2204 58.739 54.6907 58.5861 54.6907C58.4333 54.9979 58.2094 55.9415 58.2804 56.2269C58.6244 56.3421 58.7104 56.1981 58.7964 56.0541C58.825 56.0061 58.8537 55.9581 58.8919 55.9197C58.8919 55.9197 58.5861 55.6124 58.739 55.3052C58.8919 54.9979 59.1977 54.9979 59.1977 54.9979L60.2678 54.537L60.7265 54.0762C61.0594 53.881 61.5737 53.7253 62.1705 53.5446C62.6698 53.3934 63.227 53.2247 63.7841 53.0008C64.3381 52.7781 64.798 52.547 65.2349 52.3275C65.7624 52.0624 66.2563 51.8142 66.8417 51.6181C67.0143 51.5603 67.2166 51.4614 67.417 51.3633C67.8458 51.1536 68.2663 50.9479 68.3705 51.1573C68.4841 51.3856 68.5297 51.2917 68.6209 51.1038C68.7493 50.8395 68.9679 50.3891 69.5935 50.3891C69.6799 50.3891 70.0659 50.1921 70.5083 49.9664C71.141 49.6435 71.8888 49.2618 72.0396 49.3138C72.143 49.3494 72.1807 49.7395 71.7339 50.0819C71.4945 50.2653 71.1249 50.4363 70.8289 50.5733C70.553 50.7009 70.341 50.799 70.3579 50.85C70.5668 50.7855 70.8925 50.6956 71.2582 50.5947C72.0526 50.3756 73.0353 50.1046 73.4156 49.9283C74.3331 49.5027 75.0877 48.979 75.8749 48.4326C76.7929 47.7954 77.7553 47.1274 79.0721 46.5485C81.029 45.6882 81.824 46.7021 82.1297 47.3166C82.318 47.1545 84.4229 46.0876 85.0345 46.0876C85.3088 46.0876 85.8369 45.8388 86.2943 45.6232C86.6015 45.4784 86.8769 45.3487 87.0219 45.3195C88.6375 44.9948 89.2388 45.2606 89.7911 45.5047C89.887 45.5471 89.9815 45.5889 90.0795 45.6268C90.0795 45.6268 88.4743 46.0108 86.4104 46.8558C84.3465 47.7007 82.7413 48.5456 82.7413 48.5456C82.2849 48.8077 81.7244 49.4258 81.0596 50.1589C80.685 50.572 80.2773 51.0216 79.8365 51.4645C79.5399 51.7626 79.001 52.2115 78.3789 52.7296C77.0391 53.8455 75.3135 55.2827 74.7915 56.2269C75.5559 56.2269 76.7789 56.0733 79.3779 54.2298C80.9438 53.119 82.2432 51.7758 82.9869 51.007C83.3826 50.5979 83.621 50.3514 83.6585 50.3891C83.8114 50.5428 80.355 54.2924 78.7664 55.766C77.6303 56.8198 76.7056 57.4368 76.0011 57.907C75.473 58.2593 75.0686 58.5292 74.7915 58.8385C74.7161 58.9228 74.6406 59.0065 74.565 59.0899C74.8357 59.0267 75.0708 58.9922 75.2501 58.9922C75.9636 58.9922 77.6045 59.4223 78.4606 61.1429C79.4923 63.2163 80.666 63.7192 81.7079 64.1656L81.7088 64.166L81.824 64.2154C82.8941 64.6763 84.9241 65.9527 86.2575 67.4416C86.938 68.2014 87.1698 68.8484 87.3412 69.327C87.5163 69.8161 87.6285 70.1292 88.0921 70.2068C88.605 70.2927 88.775 70.8219 88.9462 71.3548C89.046 71.6656 89.1462 71.9776 89.3151 72.204C89.7738 72.8185 90.0795 75.1228 90.2324 77.2736C90.3853 79.4244 89.0094 83.265 88.5507 83.5722C88.2721 83.7589 87.9934 84.5693 87.7491 85.28C87.5912 85.7391 87.4477 86.1566 87.3277 86.3375C87.0219 86.7984 85.9518 89.1028 85.9518 89.41C85.9518 89.6404 85.6938 90.1301 85.4358 90.6198C85.3498 90.783 85.2638 90.9463 85.1874 91.0999C84.9427 91.5915 84.5758 93.0458 84.423 93.7115C84.2191 94.2236 83.7503 95.3399 83.5057 95.7086C83.2611 96.0774 83.5057 96.4768 83.6586 96.6304V99.3957C83.6586 100.149 83.4379 101.124 83.2492 101.959C83.053 102.826 82.8912 103.541 83.047 103.697C83.2241 103.875 83.6577 103.538 84.1398 103.162C84.49 102.89 84.8657 102.597 85.1874 102.468C85.639 102.287 86.7847 102.105 87.9304 101.924C88.7235 101.798 89.5166 101.672 90.0795 101.546C91.4555 101.239 95.1246 100.625 95.889 100.625C96.0301 100.625 96.2547 100.593 96.5309 100.555L96.5316 100.554C97.7513 100.384 99.9769 100.072 100.475 101.7C101.023 103.487 98.8756 104.044 97.6515 104.362L97.5583 104.386L97.4995 104.401L97.4599 104.412C97.3902 104.43 97.3249 104.448 97.2649 104.465C96.5903 104.659 93.4853 105.28 90.9377 105.79L90.9373 105.79C89.4438 106.088 88.1419 106.349 87.6334 106.462C86.6969 106.672 86.5395 107.379 86.3898 108.052C86.3196 108.367 86.2511 108.675 86.1046 108.92C85.646 109.689 85.4931 111.993 85.646 113.529C85.7989 115.065 86.4104 118.906 92.6785 118.138C97.693 117.523 98.6408 114.4 98.4879 112.915C98.4879 112.761 98.1413 112.761 96.6534 112.761C94.6659 112.761 93.1371 112.454 92.2199 111.839C90.967 111 90.6911 109.842 90.6911 109.535C90.6911 109.429 90.6368 109.36 90.5718 109.277C90.4479 109.119 90.285 108.911 90.3853 108.306C90.5076 107.569 91.0987 107.589 91.3026 107.691C91.4555 107.384 91.9447 106.678 93.29 106.309C94.6354 105.94 97.4178 106.053 98.6408 106.155C101.342 106.206 107.324 106.34 109.648 106.462C112.553 106.616 116.986 106.923 119.738 108.306C122.49 109.689 121.267 111.071 120.197 111.993C121.267 112.761 121.573 114.297 118.515 114.912C116.885 115.239 115.298 114.563 114.195 114.092C113.229 113.68 112.634 113.427 112.706 114.144C112.812 115.211 113.156 115.776 113.379 116.141L113.379 116.141L113.389 116.158C113.404 116.182 113.418 116.206 113.432 116.229L113.441 116.244L113.454 116.266L113.464 116.283L113.47 116.294C114.133 117.216 116.375 118.998 120.044 118.752C124.133 118.479 123.969 114.42 123.885 112.345L123.885 112.344L123.885 112.343L123.885 112.342C123.875 112.091 123.866 111.868 123.866 111.686C123.866 109.996 123.56 108.92 123.102 107.384C122.699 106.035 122.178 105.871 121.125 105.539L121.125 105.538C120.979 105.492 120.823 105.443 120.656 105.387C119.555 105.018 117.037 104.619 115.916 104.465C114.948 104.517 112.706 104.435 111.483 103.697C109.954 102.775 110.413 101.7 111.024 100.778C111.585 99.9331 113.688 100.38 114.623 100.578L114.623 100.578L114.715 100.598C114.763 100.608 114.807 100.617 114.846 100.625C115.611 100.778 119.28 100.932 120.656 100.932C122.032 100.932 124.783 101.546 126.006 101.854C126.707 102.03 127.759 102.811 128.731 103.533C129.456 104.071 130.136 104.576 130.593 104.773C131.449 105.141 132.784 107.282 133.345 108.306C133.141 107.538 132.733 105.971 132.733 105.848C132.733 105.694 131.969 104.619 131.663 104.312C131.51 104.158 131.357 103.774 131.204 103.39C131.051 103.006 130.899 102.622 130.746 102.468C130.44 102.161 129.981 100.625 129.981 100.164C129.981 99.9685 129.926 99.773 129.875 99.5894C129.805 99.3398 129.74 99.1118 129.828 98.9348C129.944 98.7034 130.665 99.6915 131.08 100.259L131.081 100.26L131.081 100.26C131.217 100.446 131.32 100.587 131.357 100.625C131.48 100.748 131.51 100.164 131.51 99.8565C131.408 99.3957 131.174 98.351 131.051 97.8594C130.899 97.2449 130.899 97.0337 131.051 97.2449C131.204 97.4561 131.663 96.9377 131.51 96.9377C131.357 96.9377 130.899 96.6304 130.899 96.3232C130.899 96.0159 130.593 95.0941 130.287 94.326C130.042 93.7115 129.879 93.0842 129.828 92.8474L130.593 93.7115C130.491 93.2506 130.257 92.2367 130.134 91.868C130.012 91.4993 129.574 89.5636 129.37 88.6419C129.472 89.3588 129.676 90.8541 129.676 91.0999C129.676 91.1859 129.7 91.3683 129.727 91.5794L129.727 91.5797L129.728 91.5814C129.799 92.1245 129.895 92.8571 129.676 92.6361C129.37 92.3289 129.37 91.5608 129.37 91.2535C129.37 91.0077 128.453 89.5124 127.994 88.7955C128.3 89.4612 128.942 90.8541 129.064 91.0999C129.12 91.2129 129.114 91.4712 129.107 91.7834C129.095 92.3201 129.08 93.0157 129.37 93.4043C129.657 93.7893 129.764 94.4757 129.842 94.9726C129.888 95.2688 129.924 95.4976 129.981 95.555C130.104 95.6779 130.44 96.2207 130.593 96.4768C130.695 96.9889 130.899 98.1052 130.899 98.4739C130.899 98.7125 131.022 99.1574 131.119 99.5093L131.119 99.5096C131.21 99.8371 131.278 100.084 131.204 100.01C131.051 99.8565 130.44 98.6275 130.44 98.1667C130.44 97.8844 130.268 97.4868 130.099 97.0975C129.993 96.8513 129.888 96.6083 129.828 96.4C129.706 95.9698 128.962 94.6333 128.605 94.0188C128.758 94.326 129.064 95.002 129.064 95.2478C129.064 95.4936 129.574 96.9889 129.828 97.7058C129.676 97.501 129.309 96.8762 129.064 96.0159C128.943 95.5893 128.677 94.8963 128.42 94.2255C128.028 93.2056 127.657 92.2362 127.841 92.3289C128.086 92.4518 128.453 93.1994 128.605 93.5579V92.7898L128.147 91.868C128.024 91.6222 127.586 90.9463 127.382 90.639L127.994 91.2535C128.045 91.2023 128.116 90.977 127.994 90.4854C127.872 89.9938 127.535 88.5395 127.382 87.8738C127.331 88.0786 127.168 88.2578 126.924 87.3361C126.679 86.4143 126.108 85.6718 125.854 85.4157C125.803 85.8254 125.731 86.7062 125.854 86.952L126.465 88.181V88.9491L125.395 87.8738V88.3346C125.497 88.437 125.823 88.7341 126.312 89.1028C126.801 89.4715 127.128 90.5878 127.229 91.0999C127.026 90.8951 126.618 90.4239 126.618 90.1781C126.618 89.9323 126.006 89.5636 125.701 89.41C125.701 89.6661 125.731 90.2396 125.854 90.4854C125.976 90.7312 126.618 92.1241 126.924 92.7898C126.159 91.9192 124.478 89.9631 123.866 89.1028L123.838 89.0629L123.824 89.0437L123.777 88.9775L123.703 88.8756C122.881 87.7325 121.319 85.5627 119.891 81.1142C118.362 76.3518 120.902 71.9559 121.726 71.1286C122.184 70.6677 122.745 70.3605 123.102 70.5141C123.151 70.4485 123.253 70.3495 123.377 70.2289L123.378 70.2283C123.642 69.9721 124.006 69.6191 124.172 69.2851C124.401 68.8242 125.318 68.5361 125.892 68.3561C126.083 68.2961 126.236 68.2481 126.312 68.2097C126.555 68.0875 126.508 68.2569 126.402 68.6405C126.375 68.7392 126.343 68.8521 126.312 68.9778C126.19 69.4694 124.834 70.9237 124.172 71.5895C124.58 71.2822 125.456 70.6063 125.701 70.3605C125.945 70.1147 127.331 68.8242 127.994 68.2097C127.841 68.5169 127.444 69.2851 127.077 69.8996C126.924 70.1556 126.669 70.497 126.414 70.8384C125.905 71.5212 125.395 72.204 125.701 72.204C125.985 72.204 126.917 70.9025 127.73 69.768L127.73 69.7676C128.227 69.074 128.679 68.4428 128.911 68.2097C129.165 67.9544 129.398 67.5552 129.628 67.1599C130.025 66.4784 130.415 65.8081 130.899 65.9053C131.355 65.997 131.484 65.8698 131.97 65.3931C132.297 65.071 132.788 64.5895 133.65 63.9082C135.76 62.2429 138.135 62.7304 139.154 63.2937C139.376 63.1821 139.695 62.9083 140.135 62.5312L140.135 62.531C140.3 62.3891 140.482 62.2326 140.683 62.0647C141.417 61.4502 140.071 59.7603 139.154 58.9922C139.238 59.0594 139.405 59.1752 139.665 59.3353C138.867 58.7464 137.648 57.8938 137.014 57.4559C136.525 57.4559 136.504 57.0462 136.555 56.8414C136.708 56.8414 137.014 56.7492 137.014 56.3805C137.014 56.0118 135.179 53.2568 134.262 51.9254L136.249 55.9197C135.995 55.7148 135.424 55.213 135.179 54.8443C134.935 54.4756 133.956 52.6423 133.498 51.7718C133.599 51.9766 133.864 52.5399 134.109 53.1544C134.354 53.7689 134.924 56.5854 135.179 57.9168C134.975 57.3535 134.537 56.0426 134.415 55.3052C134.293 54.5678 132.835 52.8472 132.122 52.079L133.722 55.4187C133.074 54.2288 131.817 52.4759 129.981 51.3109C131.663 52.3863 132.122 54.537 132.122 55.6124C132.122 56.6878 130.899 56.8414 129.676 56.8414C128.867 56.8414 128.326 56.2369 127.919 55.7829C127.711 55.5503 127.538 55.3572 127.382 55.3052C127.274 55.2689 127.166 55.2241 127.051 55.1767C126.682 55.0236 126.249 54.8443 125.548 54.8443C124.814 54.8443 123.815 53.5129 123.407 52.8472C123.611 53.0008 124.08 53.3388 124.325 53.4617C124.63 53.6153 124.63 53.1544 124.325 53.0008C124.215 52.9457 124.105 52.8511 123.975 52.7382C123.741 52.5363 123.439 52.2761 122.949 52.079C122.433 51.8718 122.544 51.8043 122.811 51.641C122.94 51.5621 123.105 51.4609 123.255 51.3109C123.744 51.3109 123.764 51.5157 123.713 51.6181L125.242 52.079C124.987 51.9254 124.447 51.5567 124.325 51.3109C124.233 51.1265 124.141 51.1081 124.05 51.0897C123.988 51.0774 123.927 51.0651 123.866 51.0036C123.713 50.85 122.49 50.5428 122.337 50.6964C122.184 50.85 121.42 49.9283 121.726 49.3138C121.912 48.9398 121.645 48.9072 121.339 48.8698C121.142 48.8457 120.928 48.8196 120.808 48.6993C120.564 48.4535 120.095 48.2896 119.891 48.2384V48.6993C119.738 48.5969 119.249 48.3613 118.515 48.2384C117.935 48.1413 117.905 47.7985 117.885 47.5595C117.872 47.4205 117.863 47.3166 117.751 47.3166C117.506 47.3166 116.834 47.2142 116.528 47.163C116.375 47.2142 116.069 47.3781 116.069 47.6239V48.0848C115.967 48.136 115.733 48.2691 115.611 48.392L115.305 48.6993C115.254 48.5456 115.182 48.2077 115.305 48.0848L115.152 48.2384L114.693 47.7775L115.305 47.163C115.152 47.0606 114.785 46.8558 114.54 46.8558C114.414 46.8558 114.235 46.803 114.025 46.7413C113.728 46.6539 113.37 46.5485 113.012 46.5485H112.094L112.247 47.0094C112.4 47.1118 112.767 47.3166 113.012 47.3166C113.207 47.3166 113.215 47.3796 113.235 47.546C113.247 47.6394 113.262 47.7654 113.317 47.9311C113.44 48.2998 113.164 48.9553 113.012 48.8529C112.808 48.8017 112.4 48.2077 112.4 48.0848C112.4 47.9619 111.992 47.7263 111.789 47.6239C111.738 47.5215 111.636 47.2859 111.636 47.163C111.636 47.1118 111.653 47.0606 111.67 47.0094C111.704 46.907 111.738 46.8046 111.636 46.7021C111.555 46.6215 111.433 46.6678 111.269 46.73C111.12 46.7863 110.936 46.8558 110.718 46.8558H105.826C105.52 46.8558 106.438 47.163 106.743 47.163H107.814C108.202 47.163 108.344 47.163 108.474 47.2023C108.548 47.2249 108.619 47.2605 108.731 47.3166C108.783 47.343 108.831 47.3694 108.878 47.3949C109.103 47.5185 109.294 47.6239 109.801 47.6239H110.413L111.789 48.2384C111.636 48.2896 111.208 48.3613 110.718 48.2384C110.413 48.1616 110.298 48.1616 110.164 48.1616C110.03 48.1616 109.878 48.1616 109.495 48.0848C108.731 47.9311 108.578 48.0848 108.425 48.2384C108.303 48.3613 107.253 48.1872 106.743 48.0848C105.877 48.1872 103.564 48.3306 101.24 48.0848C99.0879 47.8571 96.181 48.304 93.762 48.6759C92.9156 48.806 92.1291 48.9269 91.4554 49.0065C89.3763 49.2523 86.0027 50.2355 84.5758 50.6964C84.8306 50.4404 85.1873 49.8668 84.5758 49.621C83.9643 49.3752 83.098 49.3138 82.7412 49.3138C83.5566 49.1601 85.4931 48.8222 86.7161 48.6993C88.2449 48.5456 89.9266 47.7775 89.3151 47.6239C88.8259 47.501 85.646 48.0848 84.1172 48.392C84.4739 48.136 85.5848 47.5317 87.1748 47.163C87.7344 47.0333 88.2212 46.9035 88.6695 46.784C89.8133 46.4792 90.7059 46.2413 91.9141 46.2413C93.0527 46.2413 92.7896 46.03 92.501 45.7982C92.3633 45.6876 92.2198 45.5724 92.2198 45.4731C91.9401 45.3326 91.7244 45.3206 91.4409 45.3049C91.1047 45.2862 90.6732 45.2623 89.9266 45.0123C89.8267 44.6104 89.269 44.537 88.5958 44.4485C88.2395 44.4016 87.8509 44.3505 87.4805 44.2441C86.4517 44.1501 86.3956 44.2287 86.3671 44.2686C86.349 44.2939 86.342 44.3038 86.1046 44.2441C85.4931 44.0905 87.1748 42.8615 88.3978 42.5542C89.2559 42.3387 89.813 42.5768 90.4386 42.8442C90.7047 42.958 90.9832 43.0771 91.3026 43.1688C92.3727 43.476 92.2198 42.8615 91.3026 42.5542C91.0781 42.4791 90.8628 42.4223 90.6745 42.3726C90.0936 42.2194 89.7705 42.1342 90.2324 41.7861C90.8439 41.3252 92.6785 40.7107 93.29 40.5571C93.9015 40.4035 94.3602 40.7107 94.3602 41.1716C94.3602 41.4544 94.763 41.1588 95.1803 40.8527C95.4432 40.6599 95.7117 40.4629 95.889 40.4035C96.3477 40.2498 97.7236 39.789 98.335 39.6354C98.7821 39.5231 99.7192 39.5749 100.37 39.611C100.61 39.6242 100.811 39.6354 100.934 39.6354C101.192 39.6354 101.594 39.3447 102.059 39.0082C102.423 38.7455 102.825 38.4548 103.227 38.2527C103.847 37.9414 104.257 38.0507 104.647 38.1544C104.834 38.2042 105.016 38.2527 105.215 38.2527C105.573 38.2527 106.088 38.1473 106.516 38.06C106.818 37.9982 107.075 37.9455 107.202 37.9455H108.578C108.823 37.9455 109.263 37.8471 109.791 37.7292L109.792 37.7291L109.792 37.729C110.584 37.5521 111.575 37.331 112.4 37.331C113.776 37.331 116.069 37.7919 118.057 38.7136C119.419 39.3455 119.776 39.3276 120.259 39.3034C120.481 39.2923 120.73 39.2798 121.114 39.3281C121.589 39.3877 121.948 39.3779 122.219 39.3706C122.647 39.359 122.855 39.3533 122.949 39.6354C123.039 39.9065 123.605 40.1777 124.367 40.5428C124.901 40.7982 125.53 41.0995 126.159 41.4789C126.585 41.7354 126.821 41.9086 126.979 42.025L126.98 42.0253C127.108 42.1198 127.186 42.1768 127.273 42.2106C127.405 42.2621 127.558 42.2596 127.944 42.2533C128.114 42.2505 128.328 42.247 128.605 42.247C129.809 42.247 131.866 43.5684 133.485 44.6081C134.335 45.1537 135.064 45.6218 135.485 45.7804C136.21 46.0537 136.506 46.0028 137.008 45.9162C137.353 45.8567 137.796 45.7804 138.543 45.7804C140.01 45.7804 141.906 47.0094 142.67 47.6239C143.027 47.3678 143.955 47.0094 144.811 47.6239C145.667 48.2384 144.964 48.5969 144.505 48.6993L146.034 49.3138C145.779 49.0577 145.269 48.4227 145.269 47.9311C145.269 47.3166 147.563 47.7775 148.327 48.2384C148.763 48.5012 149.249 48.5142 149.983 48.5339C150.535 48.5487 151.229 48.5672 152.149 48.6993C153.786 48.9342 153.098 49.1692 152.41 49.4042C152.199 49.4765 151.987 49.5487 151.843 49.621C151.611 49.7377 151.335 49.8323 151.123 49.9046C150.777 50.0228 150.605 50.0819 151.079 50.0819H155.665C156.339 50.0819 156.508 50.0819 156.512 50.1083C156.514 50.1171 156.497 50.1288 156.474 50.1444C156.411 50.1882 156.304 50.2626 156.43 50.3891C156.628 50.5885 156.698 50.5292 156.973 50.2951L156.973 50.2949C157.122 50.1682 157.331 49.9903 157.653 49.7746C158.394 49.278 158.536 49.3834 158.725 49.5232C158.77 49.5564 158.817 49.5915 158.876 49.621C159.096 49.7317 159.395 49.6033 159.717 49.4654C159.842 49.4118 159.97 49.3568 160.099 49.3138C160.328 49.237 160.672 49.3522 161.073 49.4866C161.475 49.621 161.933 49.7746 162.392 49.7746C163.063 49.7746 163.161 49.61 163.286 49.4012C163.331 49.3248 163.38 49.2425 163.462 49.1601C163.62 49.0014 163.819 49.0477 164.079 49.1083C164.323 49.1651 164.621 49.2344 164.991 49.1601C165.755 49.0065 166.061 49.1601 166.214 49.7746C166.358 50.3536 166.231 50.5235 165.832 51.0552L165.828 51.0596L165.828 51.0604L165.805 51.0911L165.755 51.1573C165.297 51.7718 163.768 51.9254 162.698 51.9254H159.64C159.232 51.9254 159.3 52.062 159.3 52.062C159.3 52.062 159.283 52.0278 159.181 51.9254C158.876 51.6181 158.417 52.5399 158.723 52.8472C158.974 53.1 159.433 52.9367 160.099 52.6998C160.242 52.6487 160.395 52.5943 160.557 52.5399C161.475 52.2327 162.086 52.3863 162.698 52.5399C163.105 52.6423 163.649 52.6082 164.193 52.574C164.464 52.557 164.736 52.5399 164.991 52.5399C165.755 52.5399 165.45 53.0008 164.991 53.1544C164.72 53.2453 164.341 53.1749 163.951 53.1022C163.681 53.052 163.406 53.0008 163.156 53.0008C162.847 53.0008 162.812 53.1973 162.773 53.4114C162.735 53.6206 162.694 53.8466 162.392 53.9225C162.195 53.972 162.062 54.0214 161.956 54.0606C161.733 54.1432 161.633 54.1803 161.322 54.0762C161.121 54.0088 160.949 53.971 160.794 53.9368C160.595 53.893 160.423 53.8552 160.252 53.7689C160.119 53.7023 160.073 53.7512 159.988 53.8404C159.877 53.9571 159.701 54.1427 159.181 54.2298L159.11 54.2418L158.934 54.2717C158.56 54.3355 158.43 54.3577 158.307 54.3381C158.242 54.3278 158.178 54.3056 158.081 54.2717L158.08 54.2713C158.044 54.259 158.004 54.2452 157.958 54.2298C157.5 54.0762 156.43 54.0762 155.665 54.0762C155.159 54.0762 154.988 53.874 154.797 53.6482C154.7 53.5331 154.597 53.4118 154.442 53.308C154.242 53.1742 154.217 53.2444 154.163 53.3918C154.093 53.5826 153.976 53.9028 153.372 54.0762C152.744 54.2565 152.695 54.2251 152.607 54.1684C152.546 54.1285 152.465 54.0762 152.149 54.0762C151.385 54.0762 151.079 53.7689 150.773 53.308C150.467 52.8472 149.55 53.0008 150.314 53.7689C150.853 54.3106 150.48 54.3175 149.892 54.3283C149.645 54.3329 149.362 54.3381 149.091 54.3834C148.487 54.4846 148.148 54.2523 147.9 54.0821C147.771 53.994 147.667 53.9225 147.563 53.9225C147.257 53.9225 146.951 54.2298 146.951 54.8443C146.951 55.1991 147.053 55.1442 147.257 55.0344C147.406 54.9541 147.61 54.8443 147.868 54.8443C148.102 54.8443 148.224 54.8219 148.328 54.8027C148.497 54.7718 148.619 54.7493 149.091 54.8443C149.375 54.9013 149.617 54.916 149.809 54.9277C150.133 54.9474 150.314 54.9584 150.314 55.1515C150.314 55.3691 150.698 55.4326 151.138 55.5057C151.32 55.5358 151.512 55.5676 151.69 55.6124C152.055 55.7041 152.094 55.6864 152.227 55.6245C152.318 55.5827 152.452 55.5208 152.76 55.4588C153.202 55.3701 153.235 55.435 153.303 55.5649C153.352 55.6599 153.419 55.7898 153.678 55.9197C154.289 56.2269 154.748 55.9197 155.207 55.6124C155.533 55.3935 156.015 55.4085 156.873 55.4353C157.22 55.4461 157.628 55.4588 158.111 55.4588C159.114 55.4588 159.193 55.4588 159.255 55.4263C159.258 55.4247 159.261 55.423 159.264 55.4213L159.271 55.4172C159.31 55.3945 159.37 55.3594 159.64 55.3052C160.191 55.1944 160.504 55.483 160.75 55.7102C160.845 55.7981 160.931 55.8768 161.016 55.9197C161.322 56.0733 161.475 55.9197 161.78 55.4588C162.008 55.1165 162.403 55.1979 162.717 55.2624C162.826 55.2848 162.925 55.3052 163.003 55.3052C163.248 55.3052 163.615 55.7148 163.768 55.9197H162.698C162.445 55.9197 162.193 56.0594 161.966 56.1849C161.78 56.2874 161.612 56.3805 161.475 56.3805C161.347 56.3805 161.299 56.327 161.254 56.2758C161.19 56.2043 161.13 56.1374 160.863 56.2269C160.405 56.3805 160.099 56.3805 159.64 56.3805C159.181 56.3805 158.876 56.3805 158.417 56.6878C158.089 56.9073 157.918 56.8916 157.624 56.8647C157.506 56.854 157.369 56.8414 157.194 56.8414C157.101 56.8414 156.949 56.8379 156.76 56.8335H156.759C155.7 56.8089 153.488 56.7577 154.136 57.1487C154.839 57.5722 155.025 57.4768 155.525 57.22L155.528 57.2184C155.558 57.2034 155.588 57.1878 155.62 57.1717L155.651 57.1559L155.665 57.1487C156.032 56.9643 156.564 57.1118 157.096 57.2593C157.451 57.3576 157.806 57.4559 158.111 57.4559C158.354 57.4559 158.581 57.425 158.783 57.3974C159.218 57.3383 159.536 57.2949 159.64 57.6095C159.793 58.0704 159.487 58.224 159.181 58.224C158.876 58.224 156.888 58.6849 156.43 58.8385C155.971 58.9922 154.136 58.8385 152.76 58.6849C151.66 58.562 149.04 58.3265 147.868 58.224C148.225 58.3265 149.367 58.5927 151.079 58.8385C151.76 58.9364 152.271 59.003 152.695 59.0584L152.696 59.0584L152.699 59.0588C153.605 59.1771 154.117 59.2439 155.054 59.453C156.139 59.6954 156.463 59.4598 156.927 59.1234L156.927 59.1231L156.928 59.1229L156.928 59.1227C157.052 59.0328 157.186 58.9357 157.347 58.8385C158.111 58.3777 158.57 58.5313 158.876 58.8385C159.181 59.1458 159.946 59.2994 160.557 59.1458C161.047 59.0229 161.067 59.7091 161.016 60.0675C161.271 59.9651 161.903 59.6681 162.392 59.2994C162.732 59.0429 163.167 59.1195 163.539 59.1849C163.835 59.237 164.091 59.2821 164.227 59.1458C164.43 58.941 164.634 59.0092 164.838 59.0775C164.94 59.1117 165.042 59.1458 165.144 59.1458C165.222 59.1458 165.371 59.166 165.554 59.1909C166.085 59.263 166.904 59.3742 167.131 59.1458C167.35 58.9263 167.568 59.0988 167.786 59.2712C167.874 59.3402 167.961 59.4092 168.049 59.453C168.238 59.548 168.31 59.4082 168.409 59.2151C168.471 59.0957 168.543 58.9559 168.66 58.8385C168.849 58.6487 169.096 58.6935 169.438 58.7554C169.65 58.7937 169.897 58.8385 170.189 58.8385C170.717 58.8385 171.099 58.5451 171.335 58.3638C171.441 58.2827 171.518 58.224 171.565 58.224H172.635C173.094 58.0192 174.255 57.6095 175.234 57.6095C176.138 57.6095 176.54 57.1064 176.751 56.8436C176.825 56.7507 176.876 56.6878 176.916 56.6878H177.986C178.292 56.6878 178.75 56.5342 179.056 56.3805C179.301 56.2576 179.566 55.7148 179.667 55.4588L179.82 55.9197H180.279L180.585 55.3052C180.84 55.3564 181.41 55.3973 181.655 55.1515C181.9 54.9057 182.674 54.2298 183.031 53.9225H183.795C184.157 53.9225 184.152 53.5251 184.103 53.3174C184.173 53.5604 185.024 53.3989 187.923 50.85C191.337 47.8481 190.515 43.25 190.138 41.1401C190.11 40.9825 190.085 40.8389 190.063 40.7107C189.758 38.8672 185.171 29.6497 183.031 27.3453C181.319 25.5018 177.221 15.9258 175.387 11.3683C175.54 11.5219 175.937 11.9521 176.304 12.4437C176.671 12.9353 178.19 15.6186 178.903 16.8988C178.088 15.0553 176.274 11.0918 175.54 9.98565C174.622 8.60302 174.622 6.91315 175.081 6.29865C175.54 5.68414 175.693 5.68414 177.527 10.2929C178.931 13.8197 181.1 16.8779 182.133 18.123C180.997 16.7201 179.025 12.9387 178.433 11.2316C178.882 12.0869 180.194 13.894 181.259 15.3622C181.818 16.132 182.309 16.8086 182.572 17.2061C183.306 18.3122 187.872 24.0168 190.063 26.7308C189.859 26.3212 189.513 25.4711 189.758 25.3482C189.942 25.2555 189.96 25.051 189.978 24.8359C189.99 24.6944 190.003 24.5483 190.063 24.4264C190.216 24.1192 185.477 18.1278 184.254 16.5916C183.275 15.3625 181.094 11.1635 180.126 9.21753C181.757 11.4707 185.049 16.0999 185.171 16.5916C185.267 16.9777 188.442 21.2457 191.357 25.1652L191.357 25.1658L191.358 25.1666L191.359 25.1679C193.082 27.4851 194.715 29.6802 195.567 30.8787C197.86 34.1049 200.612 39.4817 200.918 42.0934C201.224 44.705 200.765 47.6239 198.013 51.9254C195.812 55.3666 190.675 57.968 188.382 58.8385C188.127 59.197 187.526 59.9446 187.159 60.0675C186.7 60.2212 186.241 60.8357 186.088 61.1429C185.936 61.4502 182.114 62.9864 181.349 62.9864C180.92 62.9864 180.636 63.1315 180.28 63.3132C180.001 63.4553 179.679 63.6197 179.209 63.7546C179.056 64.2154 177.068 64.9836 175.693 65.4444C175.603 65.4744 175.5 65.5096 175.383 65.5494L175.383 65.5496C173.707 66.1216 169.242 67.6452 162.239 68.3633C155.838 69.0197 153.344 68.2178 152.277 67.8747C152.095 67.8163 151.954 67.7712 151.843 67.7488C151.079 67.5952 148.021 67.1343 146.34 66.9807C146.204 66.9683 146.055 66.9149 145.896 66.827C145.969 67.4131 145.964 67.9022 145.881 68.2097C145.422 69.8996 144.352 71.5895 142.059 74.662C140.929 76.1753 140.997 77.0741 141.07 78.0504C141.111 78.5972 141.153 79.1683 140.989 79.8852C140.53 81.8824 142.966 91.7214 143.282 92.8474C143.741 94.4796 144.964 101.239 145.116 105.233C144.845 104.506 144.82 104.478 144.794 104.449C144.776 104.429 144.758 104.409 144.658 104.158C144.413 103.544 144.148 101.956 144.046 101.239C144.097 101.854 144.169 103.175 144.046 103.544C143.968 103.78 144.09 104.056 144.249 104.414C144.4 104.755 144.583 105.17 144.658 105.694C144.723 106.151 144.791 106.753 144.874 107.485L144.874 107.487L144.874 107.49C144.976 108.393 145.101 109.493 145.269 110.764C145.575 113.068 144.652 117.387 144.046 119.213C143.871 119.742 143.796 120.472 143.707 121.347L143.707 121.347C143.64 121.998 143.565 122.728 143.435 123.515C143.082 125.642 142.365 128.277 139.766 128.431C137.686 128.554 136.708 125.512 136.708 124.129C136.671 124.185 136.633 124.309 136.587 124.457C136.507 124.717 136.405 125.048 136.249 125.205C136.103 125.351 136.201 125.743 136.294 126.112C136.395 126.517 136.489 126.895 136.249 126.895C135.908 126.895 135.813 127.426 135.755 127.756C135.719 127.959 135.696 128.087 135.638 127.97C135.568 127.83 135.499 127.532 135.429 127.234C135.346 126.876 135.263 126.518 135.179 126.434C135.057 126.311 134.924 125.358 134.873 124.897C134.721 124.949 134.445 125.113 134.568 125.358C134.69 125.604 134.823 127.304 134.873 128.124C134.823 127.97 134.69 127.509 134.568 126.895C134.445 126.28 134.109 125.614 133.956 125.358C133.861 125.422 133.753 125.505 133.626 125.603C133.142 125.977 132.385 126.561 131.051 127.048C129.251 127.706 126.465 127.97 124.172 127.97C123.448 127.97 122.617 127.985 121.743 128.001C119.847 128.036 117.743 128.075 116.069 127.97C114.803 127.89 112.885 127.477 111.241 127.123C109.906 126.836 108.752 126.587 108.272 126.587C107.559 126.587 105.895 126.724 104.231 126.86L104.231 126.86L104.23 126.86L104.229 126.86C103.397 126.929 102.565 126.997 101.851 127.048C100.296 127.16 94.8188 127.202 93.4429 127.048C92.1983 126.909 90.3283 127.022 88.0592 127.158C87.8197 127.173 87.5758 127.187 87.3277 127.202C85.2485 127.325 83.1999 126.843 82.4355 126.587C82.5374 127.304 82.5884 128.615 82.5884 129.353C82.5884 129.495 82.6139 129.722 82.6459 130.005C82.8205 131.556 83.1861 134.801 80.6009 135.19C78.0413 135.576 77.1959 134.132 76.809 133.471L76.8088 133.471C76.7337 133.342 76.6758 133.243 76.626 133.193C76.1803 132.745 76.1674 135.19 76.3203 135.805C76.4732 136.419 75.6574 135.42 75.403 135.037C75.0972 134.576 74.7915 133.961 74.5813 133.539C74.3711 133.116 74.2564 132.886 74.3328 133.193C74.4551 133.685 74.6896 134.832 74.7915 135.344C74.3838 134.73 73.5684 133.439 73.5684 133.193C73.5684 133.053 73.3445 132.688 73.0722 132.245C72.7501 131.721 72.3602 131.087 72.1925 130.582L72.1646 130.498C72.1497 130.453 72.1349 130.409 72.1203 130.365L72.0549 130.17C71.6722 129.03 71.4123 128.256 71.2752 126.741C71.2383 126.333 71.13 125.889 70.9935 125.329C70.5648 123.571 69.8572 120.669 70.2051 114.144C70.6485 105.826 70.5658 105.606 69.9978 104.088C69.8828 103.781 69.748 103.42 69.5935 102.929C68.7895 100.371 69.1349 96.9377 69.8993 91.7144C70.5108 87.5358 71.7848 82.8553 72.3454 80.9606C72.0906 80.3973 71.5198 79.1171 71.2752 78.5026C70.9695 77.7345 69.7596 74.6561 69.8993 72.9721C70.0103 71.6337 69.9601 69.4044 69.9243 67.8131L69.9243 67.8117C69.9108 67.2118 69.8993 66.7026 69.8993 66.3662C69.8993 65.6839 70.0407 64.954 70.1403 64.4399C70.2201 64.0281 70.2731 63.7546 70.2051 63.7546C70.1621 63.7546 70.1313 63.7667 70.0955 63.7807C70.004 63.8166 69.8805 63.8651 69.4407 63.7546C69.2194 63.699 69.1783 63.5429 69.2521 63.308L67.759 63.9082C66.9946 64.2154 66.383 64.6763 66.383 64.6763C66.3853 64.6831 66.3875 64.6901 66.3898 64.6973C66.4394 64.8536 66.518 65.101 67.4532 64.9836C67.8663 64.9317 68.094 64.7593 68.3344 64.5775C68.6634 64.3286 69.0159 64.0618 69.8993 64.0618C69.8606 64.1332 69.8169 64.2161 69.7683 64.3084C69.4336 64.9439 68.8657 66.0222 68.0647 66.8271C67.4343 67.4606 66.0773 68.8242 64.7014 69.5923C63.3255 70.3605 60.2678 70.975 59.6563 70.975C59.438 70.975 59.1584 71.0848 58.8274 71.2148C58.2315 71.449 57.4691 71.7485 56.5987 71.5895C54.917 71.2822 53.3882 71.5895 53.2354 71.7431C53.1334 71.5895 52.9296 71.4358 52.318 71.4358C51.8385 71.4358 51.359 71.5198 50.9013 71.6C50.4835 71.6731 50.0839 71.7431 49.7191 71.7431C49.4025 71.7431 48.5088 71.6904 47.4617 71.6286C45.981 71.5413 44.1936 71.4358 43.2981 71.4358C42.7375 71.3846 41.433 71.3129 40.6991 71.4358C39.9673 71.5584 39.9166 71.3876 39.8484 71.1575C39.8312 71.0992 39.8128 71.0371 39.7818 70.975C39.6693 70.7488 39.2255 70.7723 38.6942 70.8005C38.5037 70.8106 38.3019 70.8213 38.1002 70.8213C37.7354 70.8213 37.5447 70.7514 37.3453 70.6782C37.1269 70.5981 36.898 70.5141 36.4185 70.5141C35.8369 70.5141 35.747 70.4523 35.6811 70.4071C35.6431 70.381 35.6131 70.3605 35.5012 70.3605C35.1954 70.3605 34.5839 70.2068 34.431 70.0532C34.3274 69.949 34.1534 69.9861 33.7662 70.0687C33.5824 70.1079 33.3503 70.1574 33.0551 70.2068C32.4278 70.3119 31.872 70.1296 31.3388 69.9547C31.0923 69.8738 30.8507 69.7945 30.609 69.7459C29.9662 69.6168 28.3503 68.6184 27.398 68.03C27.2178 67.9187 27.0615 67.8221 26.9399 67.7488C26.1755 67.2879 23.7294 65.1372 23.4236 64.8299C23.1179 64.5227 22.2006 64.5227 22.3535 64.8299C22.5064 65.1372 22.6592 65.4444 22.3535 65.5981C22.1663 65.6921 21.8644 65.6134 21.6936 65.5382C21.7231 65.6414 21.6882 65.8057 21.5891 65.9053C21.4362 66.0589 21.2833 65.5981 21.2833 65.4444C21.2833 65.3808 21.3358 65.2645 21.3972 65.1281C21.4842 64.9354 21.5891 64.7027 21.5891 64.5227C21.5891 64.2154 20.9776 64.5227 20.9776 64.6763C20.9776 64.8299 20.8247 64.8299 20.5189 64.5227C20.2501 64.2525 19.1538 64.2199 18.997 64.216C19.1174 64.2346 19.2459 64.7323 19.2959 64.9836C19.4997 64.8811 20.0603 64.7685 20.6718 65.1372C21.2521 65.4871 20.9513 65.5713 20.639 65.6588C20.5399 65.6866 20.4397 65.7147 20.366 65.7517C20.0603 65.9053 20.6718 66.2126 21.5891 66.2126C22.5064 66.2126 22.8121 66.6734 22.8121 66.8271C22.8121 66.9039 22.5828 67.0575 22.3535 67.2111C22.1242 67.3648 21.8948 67.5184 21.8948 67.5952C21.8948 67.7488 22.3535 68.0561 23.1179 68.0561C23.6461 68.0561 23.8823 68.3495 24.0283 68.5308C24.0936 68.6119 24.1408 68.6706 24.188 68.6706C24.3409 68.6706 25.4111 68.8242 25.4111 68.9778C25.4111 69.0849 25.857 69.0427 26.2307 69.0073C26.3929 68.9919 26.5416 68.9778 26.6341 68.9778C26.787 68.9778 27.0928 69.1314 27.4368 69.3043C27.7807 69.4771 28.1629 69.6691 28.4687 69.7459C29.0802 69.8996 31.2205 70.3605 33.5138 70.3605C35.3483 70.3605 36.4185 70.8725 36.7242 71.1286C36.7752 71.1286 36.9688 71.0979 37.3358 70.975C37.7027 70.8521 37.9982 71.1286 38.1002 71.2822C38.1511 71.2822 38.3754 71.3129 38.8646 71.4358C39.1703 71.5126 39.4761 71.5126 39.7054 71.5126C39.9347 71.5126 40.0876 71.5126 40.0876 71.5895C40.0876 71.7431 38.7117 71.7431 38.1002 71.7431H36.1127C35.807 72.0503 34.4191 71.996 32.4436 71.8967C32.1861 71.8838 31.9141 71.872 31.6287 71.8596C29.5383 71.7688 26.7246 71.6466 23.5765 70.8213C20.7668 70.0848 16.981 67.5826 14.793 66.1365L14.7927 66.1364C14.2426 65.7728 13.7936 65.476 13.4864 65.2908C13.0132 65.0055 11.3126 63.7597 10.5817 63.1401C10.2314 62.7881 9.96195 62.5038 9.73181 62.2609C9.35939 61.868 9.08969 61.5834 8.74712 61.2966C8.74712 61.2966 11.6518 62.8328 11.8047 62.8328C11.9576 62.8328 10.123 61.7574 10.123 61.7574C10.123 61.7574 9.20576 61.1429 8.74713 60.9893C8.2885 60.8357 8.13559 60.0675 8.13559 60.0675C8.13559 60.0675 11.9576 61.4502 11.9576 61.2966C11.9576 61.1871 11.4923 60.9219 10.9484 60.6118C10.7286 60.4865 10.4959 60.3538 10.2759 60.2212C9.51152 59.7603 8.59424 58.5313 8.59424 58.5313L10.123 59.2994C10.7346 59.6067 11.499 59.6067 11.499 59.6067C11.499 59.6067 9.05288 58.5313 7.98273 57.7632C6.91258 56.995 4.47377 54.6684 2.47902 51.6181C-1.03724 46.2413 0.0329313 41.6325 0.644469 39.1745C1.25601 36.7165 7.06544 24.4264 11.1932 18.5887C15.2953 12.7873 18.2257 4.60876 18.5315 3.07251ZM39.7818 55.9197C39.8452 55.9197 39.9347 55.8933 40.0396 55.8624C40.188 55.8188 40.3671 55.766 40.5463 55.766C40.6991 56.2269 39.9347 56.2269 39.629 56.2269C39.3232 56.2269 38.5588 55.9197 38.7117 55.9197H39.7818ZM50.4835 56.5342C50.3306 56.6366 49.9943 56.8414 49.872 56.8414H50.6364C50.7892 56.8414 50.7892 56.5342 50.4835 56.5342ZM44.0625 58.0704C44.1848 58.0704 44.6231 57.968 44.8269 57.9168C44.8779 57.968 44.9492 58.1011 44.8269 58.224C44.7441 58.3072 44.5718 58.3454 44.3825 58.3872C44.2222 58.4227 44.0499 58.4608 43.9096 58.5313C43.6039 58.6849 43.1452 58.5313 43.1452 58.3777C43.1452 58.3009 42.8395 58.3009 42.5146 58.3009C42.1897 58.3009 41.8457 58.3009 41.7693 58.224C41.6164 58.0704 42.8395 58.0704 43.1452 58.0704C43.2981 58.0704 43.3363 58.1472 43.3745 58.224C43.4128 58.3009 43.451 58.3777 43.6039 58.3777C43.783 58.3777 43.8572 58.2722 43.9186 58.1849C43.9621 58.1231 43.9992 58.0704 44.0625 58.0704ZM52.9296 58.0704C52.9296 58.1728 52.899 58.3777 52.7767 58.3777C52.7134 58.3777 52.7287 58.4567 52.7467 58.5494C52.7722 58.6804 52.8029 58.8385 52.6238 58.8385C52.4709 58.8385 52.2798 58.877 52.0887 58.9154C51.8976 58.9538 51.7065 58.9922 51.5536 58.9922C51.4162 58.9922 51.1552 59.0853 50.8679 59.1878C50.5159 59.3134 50.1244 59.453 49.872 59.453C49.6195 59.453 49.228 59.4996 48.8761 59.5415C48.5888 59.5756 48.3277 59.6067 48.1903 59.6067C47.8845 59.6067 47.4259 59.9139 48.0374 59.9139C48.1903 59.9139 48.3432 59.9235 48.496 59.9331C48.9547 59.9619 49.4133 59.9907 49.872 59.7603C50.2357 59.5775 50.5454 59.5578 50.8332 59.5396C51.0291 59.5271 51.215 59.5153 51.4008 59.453C51.5675 59.3972 51.8151 59.3413 52.0627 59.2855C52.496 59.1877 52.9296 59.0899 52.9296 58.9922V58.0704ZM24.9524 58.5313C24.7078 58.4084 24.239 58.3777 24.0352 58.3777C24.5092 58.4968 24.8914 58.7082 25.1818 58.8688C25.2659 58.9153 25.3424 58.9576 25.4111 58.9922C25.7168 59.1458 25.2582 58.6849 24.9524 58.5313ZM16.3911 61.6038C15.4739 61.4502 14.8623 60.5284 14.8623 60.5284C14.8623 60.5284 16.2233 61.2392 16.6969 61.4502C17.9199 61.7574 18.5315 62.3719 18.5315 62.3719C18.5315 62.3719 16.5419 61.6291 16.3911 61.6038ZM33.8195 66.6734C33.3609 66.6222 32.413 66.4891 32.2907 66.3662C32.1378 66.2126 30.9148 65.5981 30.7619 65.5981C30.6855 65.5981 30.3797 65.4828 30.0739 65.3676C29.7682 65.2524 29.4624 65.1372 29.386 65.1372C29.2986 65.1372 29.6106 65.3378 29.9226 65.5385C30.1566 65.689 30.3906 65.8395 30.4561 65.9053C30.5326 65.9821 30.7619 66.0205 30.9912 66.0589C31.2205 66.0973 31.4499 66.1357 31.5263 66.2126C31.6792 66.3662 32.5965 66.8271 33.8195 66.6734ZM33.3609 63.7546C33.5902 63.8314 33.9342 63.8698 34.2782 63.9082C34.6221 63.9466 34.9661 63.985 35.1954 64.0618C36.4185 64.2509 35.807 64.5227 35.6541 64.5227C35.5982 64.5227 35.4604 64.5021 35.2857 64.4761L35.2854 64.476C34.9826 64.4308 34.5689 64.3691 34.2782 64.3691C33.8195 64.3691 32.9022 63.6009 33.3609 63.7546ZM37.9473 62.5256C37.9982 62.5256 38.0084 62.4948 37.6415 62.3719C37.4122 62.2951 37.03 62.2951 36.6478 62.2951C36.2656 62.2951 35.8834 62.2951 35.6541 62.2183C35.4475 62.1491 35.1788 62.1111 34.9319 62.0761C34.6308 62.0335 34.3622 61.9955 34.2782 61.9111C34.1253 61.7574 34.5839 62.5256 34.8897 62.5256C34.9727 62.5256 35.1009 62.5142 35.2527 62.5008C35.6599 62.4648 36.2374 62.4137 36.5714 62.5256C37.03 62.6792 37.7944 62.8328 37.9473 62.5256ZM37.6415 64.3691C38.1002 64.3691 38.5588 64.5227 38.7117 64.8299H37.7944C37.5498 64.8299 36.979 64.5227 36.7242 64.3691H37.6415ZM41.3107 62.8328C41.4635 63.1401 41.6164 63.2937 41.9222 63.2937H43.6039C43.9096 63.2937 42.9923 62.9864 42.3808 62.9864C41.9731 62.9864 41.7013 62.9182 41.5202 62.8726C41.4296 62.8499 41.3616 62.8328 41.3107 62.8328ZM45.7442 66.2126C45.8971 66.3662 46.8144 66.3662 46.9672 66.3662C46.8908 66.3662 46.5086 66.4046 46.1264 66.443C45.7442 66.4814 45.362 66.5198 45.2855 66.5198C45.2296 66.5198 44.9689 66.4992 44.6383 66.4732L44.6377 66.4731C44.065 66.4279 43.283 66.3662 42.9923 66.3662C42.5337 66.3662 41.0049 66.0589 41.1578 66.0589C41.1914 66.0589 41.2621 66.0515 41.3568 66.0415C41.6923 66.0062 42.3289 65.9391 42.6866 66.0589C43.1452 66.2126 44.8269 66.2126 45.1327 66.2126C45.2495 66.2126 45.3439 66.1902 45.4246 66.171C45.5552 66.14 45.6497 66.1176 45.7442 66.2126ZM180.496 17.2862C180.227 16.9659 180.036 16.7176 179.973 16.5915C179.889 16.4226 180.048 16.6485 180.376 17.116L180.376 17.1162L180.496 17.2862ZM180.496 17.2862C181.537 18.5271 183.753 20.8505 184.254 21.3539C185.055 22.1585 186.205 23.8998 187.501 25.8621L187.512 25.8784C187.697 26.1588 187.885 26.4436 188.076 26.7308C187.617 26.1163 185.486 23.3416 185.171 23.0438C183.369 21.3392 181.419 18.6002 180.496 17.2862ZM190.522 26.7308C190.624 26.7308 190.858 26.7923 190.981 27.0381C191.133 27.3453 191.286 27.6526 191.133 27.6526C191.032 27.6526 190.93 27.516 190.828 27.3795L190.827 27.3791C190.777 27.311 190.726 27.2428 190.675 27.1917C190.553 27.0688 190.522 26.8332 190.522 26.7308ZM187.923 58.9922C187.814 58.9922 186.604 59.3301 186.241 59.453L186.547 59.7603L187.923 58.9922ZM185.171 59.9139C185.153 59.9139 185.101 59.9316 185.025 59.9628C185.076 59.9457 185.125 59.9293 185.171 59.9139ZM185.025 59.9628C184.224 60.2298 182.84 60.682 182.725 60.682C182.649 60.682 182.114 60.9125 181.578 61.1429C181.043 61.3734 180.508 61.6038 180.432 61.6038C180.31 61.6038 180.585 61.7062 180.738 61.7574C181.247 61.5526 182.297 61.1429 182.419 61.1429C182.496 61.1429 183.146 60.8357 183.795 60.5284L183.796 60.5281C184.289 60.2947 184.783 60.0614 185.025 59.9628ZM154.289 63.1401L153.678 62.8328H153.066C152.964 62.7304 152.73 62.5256 152.608 62.5256H152.149L152.76 62.9864L153.372 63.1401H154.289ZM149.856 64.3691L148.786 64.0618H148.48L148.021 63.7546H147.41L147.104 63.4473L146.034 63.2937L147.104 63.7546L147.868 64.0618L148.786 64.2154L149.856 64.3691ZM94.3602 45.0123L94.0544 44.705H94.3602L93.29 44.0905V43.7833H92.6785L92.3727 44.0905L92.5256 44.2441L92.3727 44.3978H92.067C91.7612 44.5002 91.272 44.705 91.7612 44.705C92.2504 44.705 92.7804 44.5002 92.9842 44.3978L94.3602 45.0123ZM93.29 46.0876L93.4429 46.2413L93.7486 46.3949V46.6253H93.1371V46.3949L92.9842 46.0876H93.29ZM97.8764 43.0151C98.1822 42.8615 98.9771 42.5235 99.711 42.4006L101.546 42.0934C101.291 41.9397 100.72 41.6325 100.475 41.6325C100.322 41.6325 100.208 41.7093 100.093 41.7861C99.9785 41.8629 99.8639 41.9397 99.711 41.9397C99.5833 41.9397 99.4824 41.8862 99.3858 41.835C99.2509 41.7635 99.1247 41.6966 98.9466 41.7861C98.7937 41.8629 98.6026 42.055 98.4115 42.247C98.2204 42.439 98.0293 42.6311 97.8764 42.7079C97.6979 42.7976 97.4673 42.6778 97.2454 42.5626C97.0872 42.4805 96.9335 42.4006 96.8063 42.4006C96.6651 42.4006 96.524 42.597 96.3829 42.7933C96.2183 43.0224 96.0536 43.2515 95.889 43.1688C95.7625 43.1052 95.6361 42.9366 95.5205 42.7824C95.3565 42.5637 95.2142 42.3741 95.1246 42.5542C95.0265 42.7513 95.2429 43.0115 95.4107 43.2134C95.5045 43.3263 95.5832 43.4209 95.5832 43.476C95.5832 43.6296 96.6534 43.9369 96.9591 43.6296C97.2649 43.3224 97.7235 43.0151 97.8764 43.0151ZM101.393 44.705C101.546 44.8586 101.851 44.8586 102.616 44.5514C103.38 44.2441 104.756 43.7833 105.215 43.7833C105.673 43.7833 106.438 43.476 106.438 43.3224C106.438 43.1688 105.215 43.3224 104.909 43.476C104.756 43.5528 104.412 43.6296 104.068 43.7064C103.724 43.7833 103.38 43.8601 103.227 43.9369C103.134 43.9837 102.955 44.0306 102.743 44.0862C102.261 44.2128 101.605 44.3848 101.393 44.705ZM110.183 39.3245C109.98 39.2874 109.796 39.2537 109.648 39.3281C109.342 39.4817 108.272 39.9426 107.967 39.9426C107.661 39.9426 108.578 39.3281 109.037 39.3281C109.176 39.3281 109.37 39.314 109.583 39.2987C110.073 39.2632 110.658 39.221 110.871 39.3281C110.635 39.4073 110.398 39.364 110.183 39.3245ZM112.4 41.9397C112.247 41.9397 111.177 41.9397 110.565 42.0934C109.954 42.247 108.731 42.5542 108.425 42.5542C108.119 42.5542 107.508 42.7079 107.967 42.7079C108.179 42.7079 108.623 42.6086 109.098 42.5022C109.647 42.3794 110.238 42.247 110.565 42.247C111.177 42.247 112.553 41.9397 112.4 41.9397ZM148.021 51.0036C147.899 51.0036 147.766 51.1061 147.715 51.1573L148.327 51.3109C148.276 51.2085 148.144 51.0036 148.021 51.0036ZM146.798 51.6181C147.104 51.7718 147.41 52.079 147.104 52.079C146.798 52.079 146.645 52.079 146.645 51.9254C146.645 51.7718 146.681 51.552 146.798 51.6181ZM148.699 49.4753C148.22 49.5751 147.74 49.7746 148.22 49.7746C148.699 49.7746 148.938 49.7746 148.938 49.6749C148.938 49.5751 148.882 49.4323 148.699 49.4753ZM185.63 24.8873C186.088 25.3994 187.067 26.485 187.311 26.7308C187.556 26.9766 187.821 27.4477 187.923 27.6526C187.362 26.9869 186.119 25.5018 185.63 24.8873ZM131.51 67.2879L131.816 67.5952C131.341 68.0723 130.442 68.9976 130.104 69.419L130.138 69.3647L130.164 69.3236L130.309 69.0926L130.31 69.0912L130.31 69.0907C130.702 68.4641 131.318 67.4812 131.51 67.2879ZM129.981 69.5923C129.944 69.6671 129.997 69.5872 130.104 69.419C130.043 69.4951 130 69.5547 129.981 69.5923ZM129.37 68.6706C129.472 68.6706 129.574 68.534 129.676 68.3975L129.676 68.3972C129.727 68.329 129.778 68.2608 129.828 68.2097L129.981 68.8242C129.676 69.1827 129.033 69.9303 128.911 70.0532C128.758 70.2068 128.453 71.1286 128.453 71.5895C128.453 72.0503 127.688 72.8185 127.535 72.8185C127.413 72.8185 126.975 73.433 126.771 73.7402C126.924 73.3818 127.229 72.6034 127.229 72.3576C127.229 72.1776 127.492 71.8393 127.709 71.5592C127.863 71.3613 127.994 71.1922 127.994 71.1286C127.994 70.975 128.3 70.3605 128.453 70.0532C128.605 69.7459 129.217 68.6706 129.37 68.6706ZM127.841 78.9635L127.535 79.578C127.586 79.9364 127.494 80.221 127.535 80.3461C127.658 80.7148 127.688 80.6021 127.841 80.9606V78.9635ZM130.134 74.0475C130.491 73.7402 131.204 73.0335 131.204 72.6648C131.204 72.5298 131.191 72.4212 131.18 72.3312C131.154 72.114 131.141 72.0053 131.357 71.8967C131.663 71.7431 131.51 70.8213 131.357 70.975C131.31 71.0221 131.133 71.1563 130.907 71.3285C130.395 71.7168 129.629 72.2984 129.523 72.5112C129.456 72.6459 129.477 72.7806 129.496 72.9024C129.52 73.0584 129.542 73.1931 129.37 73.2793C129.064 73.433 129.064 73.8938 129.37 73.7402C129.599 73.625 130 73.1641 130.251 72.8761C130.335 72.7801 130.402 72.7032 130.44 72.6648C130.491 72.6137 130.559 72.5284 130.627 72.4431C130.763 72.2724 130.899 72.1015 130.899 72.204C130.899 72.2118 130.899 72.22 130.901 72.2288C130.902 72.2388 130.905 72.2494 130.907 72.2609C130.909 72.2669 130.91 72.2734 130.912 72.2799L130.912 72.2804C130.957 72.4652 131.054 72.8591 130.134 74.0475ZM131.613 68.7319C131.631 68.7097 131.648 68.6892 131.663 68.6706C131.62 68.7135 131.58 68.7631 131.542 68.818C131.243 69.1893 130.711 69.8748 130.287 70.5141C129.798 71.2515 128.86 72.3576 128.453 72.8185C129.115 72.3064 130.501 71.19 130.746 70.8213C130.874 70.6287 130.975 70.3017 131.083 69.9527C131.209 69.5448 131.344 69.1067 131.542 68.818C131.568 68.7871 131.591 68.7583 131.613 68.7319ZM85.0345 80.9606C84.7797 80.6534 84.2395 80.0389 84.1172 80.0389C84.0724 80.0389 84.0407 80.0257 84.0145 80.0148C83.9512 79.9884 83.9195 79.9752 83.8114 80.1925C83.7465 80.3229 83.7643 80.5086 83.7828 80.7028C83.8079 80.966 83.8345 81.2446 83.6586 81.4215C83.4139 81.6673 83.3528 81.8311 83.3528 81.8824C83.5566 81.6775 84.0255 81.2679 84.2701 81.2679C84.5147 81.2679 84.8816 81.063 85.0345 80.9606ZM143.435 101.393V102.775C143.435 103.144 143.639 103.851 143.741 104.158C143.69 103.339 143.557 101.639 143.435 101.393ZM87.1748 84.9549C87.4194 84.7091 87.5825 83.9307 87.6334 83.5722C87.5825 84.0331 87.45 85.0163 87.3277 85.2621L86.1046 87.7201C86.3594 86.9008 86.9302 85.2007 87.1748 84.9549ZM81.5182 89.1028C81.4673 89.2564 81.3348 89.5944 81.2125 89.7173C81.1246 89.8055 81.0872 89.8431 81.0713 89.8883C81.0596 89.9217 81.0596 89.9592 81.0596 90.0245V90.4854L81.3653 90.3318C81.4673 90.1781 81.6711 89.8402 81.6711 89.7173V89.2564C81.6711 89.1028 81.6711 88.9491 81.5182 89.1028ZM81.824 91.7144C81.6711 91.868 81.5182 92.1753 81.3653 92.4825C81.2125 92.7898 81.0596 93.097 81.0596 93.2506C81.0596 93.2972 81.0876 93.3437 81.1182 93.3945C81.1887 93.5114 81.2728 93.6509 81.0596 93.8651C80.7538 94.1724 80.6009 94.9405 80.6009 95.2478C80.6009 95.4936 80.8048 96.1695 80.9067 96.4768C81.1105 96.2719 81.5182 95.7701 81.5182 95.4014C81.5182 95.2577 81.5034 95.0693 81.4876 94.8686C81.4526 94.4256 81.413 93.923 81.5182 93.7115C81.5511 93.6455 81.598 93.5583 81.6515 93.4589L81.6517 93.4584C81.8472 93.0951 82.1297 92.57 82.1297 92.3289C82.1297 92.0216 82.1297 91.5608 81.824 91.7144ZM82.7413 95.8623C82.619 96.4768 81.6711 97.8594 81.2125 98.4739C81.3653 98.013 81.7323 96.8762 81.9769 96.0159C82.2826 94.9405 83.1999 92.3289 83.3528 92.7898C83.4594 93.1111 83.1944 94.1046 82.9723 94.9371C82.8759 95.2985 82.7876 95.6297 82.7413 95.8623ZM80.6009 97.2449C80.7538 97.8594 79.8365 99.0884 79.6837 99.242V97.7058C79.6837 97.3985 79.6837 97.0913 79.5308 96.6304C79.3779 96.1695 80.2952 95.555 80.2952 95.7086C80.2952 95.8623 80.4481 96.6304 80.6009 97.2449ZM80.1423 93.8651C80.2952 93.7115 79.9894 94.7869 79.8365 95.0941C79.7346 95.1966 79.5002 95.4629 79.3779 95.7086C79.2862 95.893 79.1394 96.5199 79.0366 96.9586C78.9682 97.2511 78.9193 97.46 78.9193 97.3985C78.9193 97.3659 78.9262 97.2847 78.9356 97.1741L78.9356 97.1738C78.9705 96.7637 79.0396 95.9505 78.9193 95.7086C78.7664 95.4014 79.0721 94.9405 79.3779 94.6333L80.1423 93.8651Z" fill="white"/>
<path d="M178.292 10.7538C178.241 10.8043 178.298 10.9752 178.433 11.2316C178.369 11.0459 178.32 10.8847 178.292 10.7538Z" fill="white"/>
<path d="M134.109 56.2269C134.023 56.0118 133.894 55.7351 133.722 55.4187L134.109 56.2269Z" fill="white"/>
<path d="M16.0854 44.705C15.9325 44.5514 16.0854 44.3978 16.2383 44.3978C16.4621 44.3978 16.4401 44.4801 16.4123 44.5845C16.4021 44.6227 16.3911 44.6638 16.3911 44.705C16.3911 44.8586 16.2383 44.8586 16.0854 44.705Z" fill="white"/>
<path d="M16.9204 45.6625C16.8707 45.6773 16.8498 45.6836 16.8498 45.6268C16.8498 45.4731 16.6969 46.2413 17.0027 46.2413C17.1319 46.2413 17.2338 46.2687 17.3084 46.2888C17.4103 46.3162 17.4613 46.33 17.4613 46.2413V45.7804C17.1724 45.5869 17.0049 45.6371 16.9204 45.6625Z" fill="white"/>
<path d="M17.7671 46.8558C17.8752 46.9644 17.8304 46.9962 17.7408 47.0598C17.7037 47.0862 17.659 47.118 17.6142 47.163C17.6142 47.3166 17.4613 47.4703 17.3084 47.4703C17.1555 47.4703 17.0027 47.0094 17.0027 46.8558C17.0027 46.7789 17.1173 46.8174 17.232 46.8558C17.3466 46.8942 17.4613 46.9326 17.4613 46.8558C17.4613 46.7021 17.6142 46.7021 17.7671 46.8558Z" fill="white"/>
<path d="M18.0477 47.8506C18.0714 47.7164 18.0877 47.6239 17.9199 47.6239H17.6142C17.4613 47.6239 17.4613 48.0848 17.6142 48.2384C17.7671 48.392 17.9199 48.392 18.0728 48.2384C18.0038 48.0997 18.0283 47.961 18.0477 47.8506Z" fill="white"/>
<path d="M20.2131 50.85C20.2131 50.6964 19.9074 50.0819 19.6016 50.0819C19.2959 50.0819 19.2959 50.6964 19.4487 50.6964C19.6016 50.6964 19.9074 50.85 19.9074 51.1573C19.9074 51.334 19.9074 51.409 19.9365 51.4702C19.9579 51.5153 19.9953 51.5529 20.0602 51.6181C20.2131 51.7717 20.366 51.9254 20.5189 51.7718C20.6718 51.6181 20.8247 51.1573 20.6718 51.0036C20.5953 50.9268 20.4807 50.9268 20.3851 50.9268C20.2896 50.9268 20.2131 50.9268 20.2131 50.85Z" fill="white"/>
<path d="M25.564 55.1515C25.7168 55.1515 26.3284 55.766 26.4812 56.0733L26.4812 56.5342C26.4813 56.6878 26.1755 56.8414 25.8697 56.6878C25.564 56.5342 25.4111 56.3805 25.2582 56.2269C25.1756 56.1439 25.1376 56.1954 25.0719 56.2846C25.0161 56.3605 24.9401 56.4635 24.7996 56.5342C24.6219 56.6234 24.5474 56.5052 24.4563 56.3603C24.3905 56.2559 24.3161 56.1376 24.188 56.0733C23.9382 55.9478 23.9946 55.4121 24.0235 55.1365C24.03 55.0747 24.0352 55.026 24.0352 54.9979C24.0352 54.8443 23.8823 54.8443 23.1179 54.8443C22.455 54.8443 22.4819 54.3821 22.5008 54.059C22.5037 54.0096 22.5064 53.9633 22.5064 53.9225C22.5064 53.735 22.3355 53.7192 22.1329 53.7004C22.0035 53.6884 21.8611 53.6751 21.742 53.6153C21.5168 53.5022 21.6232 53.1392 21.695 52.8943C21.7207 52.8066 21.742 52.734 21.742 52.6935C21.742 52.6446 21.7109 52.5644 21.6735 52.4679C21.5936 52.2617 21.4849 51.9811 21.5891 51.7718C21.6864 51.5762 21.7836 51.8162 21.8809 52.0562C21.9365 52.1933 21.9921 52.3304 22.0477 52.3863C22.111 52.4499 22.279 52.5924 22.4759 52.7594L22.4764 52.7598C22.7552 52.9963 23.0916 53.2817 23.2708 53.4617C23.5765 53.7689 24.4938 54.537 24.7996 54.6907C24.9398 54.7611 25.1122 54.7023 25.2725 54.6476C25.4617 54.5831 25.6341 54.5243 25.7168 54.6907C25.8157 54.8893 25.659 55.0237 25.5771 55.0939C25.5323 55.1323 25.5099 55.1515 25.564 55.1515Z" fill="white"/>
<path d="M56.0741 54.8262C56.0614 54.9188 56.0505 54.9979 55.9872 54.9979C55.8343 54.9979 55.5285 54.9979 55.6814 55.1515C55.7196 55.1899 55.7579 55.2379 55.7961 55.286C55.9107 55.43 56.0254 55.574 56.1401 55.4588C56.2929 55.3052 56.4458 54.9979 56.2929 54.537C56.1138 54.537 56.0921 54.6952 56.0741 54.8262Z" fill="white"/>
<path d="M7.54415 59.453C7.33537 59.7324 7.33537 60.1513 7.43976 60.4307C7.47963 60.5373 7.50428 60.644 7.52532 60.7352C7.55938 60.8826 7.58402 60.9893 7.64854 60.9893C7.75293 60.9893 8.06609 60.8496 7.9617 60.5703C7.90951 60.4307 7.90951 60.2561 7.90951 60.099C7.90951 59.9419 7.90951 59.8022 7.85731 59.7324C7.82455 59.6885 7.81235 59.6447 7.80136 59.6052C7.77732 59.5188 7.75902 59.453 7.54415 59.453Z" fill="white"/>
<path d="M19.7934 47.4905C19.6036 47.3456 19.4487 47.2274 19.4487 47.3166C19.4487 47.4703 19.6016 47.7775 19.9074 47.9311C20.152 48.054 20.5189 48.2896 20.6718 48.392C20.5189 48.2896 20.2132 48.0233 20.2132 47.7775C20.0851 47.7132 19.9302 47.5949 19.7934 47.4905Z" fill="white"/>
<path d="M73.7634 49.2238C73.6411 49.3467 73.8143 49.4798 73.9163 49.531C73.9672 49.4798 74.0997 49.3774 74.222 49.3774C74.2985 49.3774 74.2602 49.339 74.2029 49.2814C74.1456 49.2238 74.0691 49.147 74.0691 49.0702C74.0691 48.9165 73.9163 49.0702 73.7634 49.2238Z" fill="white"/>
<path d="M74.6386 48.6993C74.5876 48.6481 74.5469 48.5456 74.7915 48.5456C75.0972 48.5456 75.2501 48.8529 74.9444 48.8529C74.7568 48.8529 74.6843 48.8529 74.6562 48.8174C74.6386 48.7951 74.6386 48.7586 74.6386 48.6993Z" fill="white"/>
<path d="M24.0352 67.4416C23.7294 67.4416 23.8823 67.1343 24.0352 67.1343C24.2739 67.0144 24.3262 67.0817 24.4105 67.1901C24.4341 67.2206 24.4603 67.2543 24.4938 67.2879C24.6467 67.4416 24.3409 67.4416 24.0352 67.4416Z" fill="white"/>
<path d="M25.1852 68.1088C25.116 68.1088 25.0469 68.3633 25.1852 68.3633C25.3235 68.3633 25.4619 68.3633 25.3927 68.2361C25.3775 68.2082 25.3657 68.1803 25.355 68.155C25.3169 68.0652 25.2932 68.0094 25.1852 68.1088Z" fill="white"/>
<path d="M188.84 43.476C188.687 43.6296 188.687 43.9369 188.993 43.7833C189.167 43.6959 189.242 43.6582 189.246 43.6137C189.249 43.58 189.212 43.5423 189.146 43.476C189.024 43.3531 188.891 43.4248 188.84 43.476Z" fill="white"/>
<path d="M186.088 46.2413C186.088 46.3949 185.477 46.7021 185.324 46.7021C185.248 46.7021 185.133 46.6637 185.018 46.6253C184.904 46.5869 184.789 46.5485 184.713 46.5485C184.651 46.5485 184.541 46.5977 184.431 46.6468C184.266 46.7206 184.101 46.7943 184.101 46.7021C184.101 46.5485 184.407 46.2413 184.713 46.2413C185.018 46.2413 185.171 46.2413 185.477 46.0876C185.599 46.0262 185.722 45.9156 185.844 45.805C186.027 45.639 186.211 45.4731 186.394 45.4731C186.489 45.4731 186.554 45.4879 186.604 45.4991C186.715 45.5241 186.747 45.5315 186.853 45.3195C187.006 45.0123 187.464 45.0123 187.464 45.1659C187.464 45.2427 187.426 45.2811 187.388 45.3195C187.35 45.3579 187.311 45.3963 187.311 45.4731C187.006 45.6268 186.088 46.0876 186.088 46.2413Z" fill="white"/>
<path d="M183.489 46.7021C183.642 46.7021 183.795 47.0094 183.642 47.163C183.744 47.163 184.009 47.2245 184.254 47.4703C184.498 47.7161 184.05 47.7775 183.795 47.7775C183.744 47.6239 183.581 47.2859 183.337 47.163C183.031 47.0094 183.337 46.7021 183.489 46.7021Z" fill="white"/>
<path d="M181.043 47.4703C181.166 47.4703 181.604 47.5727 181.808 47.6239L181.961 47.7775C182.063 47.7775 182.236 47.8082 182.114 47.9311C181.991 48.054 181.961 48.1872 181.961 48.2384L181.808 48.392H181.502C181.502 48.3408 181.471 48.2077 181.349 48.0848C181.273 48.008 181.273 48.0848 181.273 48.1808C181.273 48.2768 181.273 48.392 181.196 48.392C181.043 48.392 181.043 48.6993 181.043 48.8529C181.043 49.0065 181.196 49.3138 181.502 49.0065C181.808 48.6993 182.266 48.392 182.419 48.392C182.572 48.392 182.725 48.0848 182.572 47.9311C182.45 47.8082 182.317 47.4703 182.266 47.3166C182.114 47.163 181.777 46.8865 181.655 47.0094C181.602 47.0624 181.531 47.0788 181.455 47.0966C181.309 47.1302 181.144 47.1685 181.043 47.4703Z" fill="white"/>
<path d="M179.667 47.6239C179.82 47.4703 180.279 47.3166 180.432 47.3166C180.738 47.2479 180.891 47.3166 180.891 47.4703C180.891 47.5727 180.619 47.6751 180.347 47.7775C180.211 47.8287 180.075 47.8799 179.973 47.9311C179.667 48.0848 179.515 47.7775 179.667 47.6239Z" fill="white"/>
<path d="M178.139 47.9311C177.986 48.0848 177.68 48.5456 177.833 48.5456C177.909 48.5456 177.986 48.5072 178.062 48.4688C178.139 48.4304 178.215 48.392 178.292 48.392C178.444 48.392 178.597 48.392 178.75 48.2384C178.838 48.15 178.875 48.1125 178.92 48.0966C178.954 48.0848 178.991 48.0848 179.056 48.0848C179.178 48.0848 179.209 47.9823 179.209 47.9311H178.139Z" fill="white"/>
<path d="M179.515 48.2384C179.617 48.1872 179.882 48.1155 180.126 48.2384C180.177 48.2384 180.31 48.2691 180.432 48.392C180.54 48.5006 180.495 48.5325 180.406 48.5961C180.369 48.6225 180.324 48.6543 180.279 48.6993C180.181 48.7976 180.209 48.833 180.281 48.9264C180.322 48.9789 180.377 49.0498 180.432 49.1601C180.546 49.3893 180.235 49.4475 179.816 49.526C179.673 49.5528 179.517 49.582 179.362 49.621C178.884 49.741 178.78 49.6736 178.611 49.5652L178.611 49.565C178.564 49.5346 178.511 49.501 178.444 49.4674C178.284 49.3867 178.208 49.5601 178.127 49.743C178.054 49.9085 177.978 50.0819 177.833 50.0819C177.694 50.0819 177.586 50.1773 177.453 50.2958C177.293 50.4377 177.096 50.6127 176.763 50.6964C176.151 50.85 175.845 50.2355 175.845 49.9283V48.6993C175.845 48.3346 176.324 48.3547 176.903 48.3789C177.055 48.3853 177.215 48.392 177.374 48.392C177.893 48.392 177.849 48.7453 177.814 49.0206C177.798 49.1513 177.784 49.2643 177.833 49.3138C177.939 49.4209 178.121 49.1543 178.272 48.9312L178.273 48.9307L178.273 48.9303L178.273 48.9299C178.338 48.8336 178.398 48.7455 178.444 48.6993C178.597 48.5456 178.903 48.5456 179.209 48.5456C179.453 48.5456 179.515 48.3408 179.515 48.2384Z" fill="white"/>
<path d="M114.54 48.2384C114.387 48.2384 114.082 48.5456 114.082 48.6993C114.082 48.7505 114.048 48.8017 114.014 48.8529C113.946 48.9553 113.878 49.0577 114.082 49.1601C114.198 49.2188 114.271 49.2775 114.332 49.3276C114.432 49.4087 114.504 49.4674 114.693 49.4674C114.779 49.4674 114.864 49.4794 114.939 49.49C115.134 49.5173 115.262 49.5352 115.152 49.3138C115.096 49.2008 115.081 49.1087 115.069 49.0372C115.049 48.9143 115.04 48.8529 114.846 48.8529C114.54 48.8529 114.387 48.8529 114.54 48.6993C114.585 48.6543 114.63 48.6225 114.667 48.5961C114.757 48.5325 114.801 48.5006 114.693 48.392L114.54 48.2384Z" fill="white"/>
<path d="M116.551 48.8055C116.528 48.8285 116.528 48.8758 116.528 49.0065C116.528 49.3138 116.528 49.621 116.681 49.621C116.732 49.621 116.8 49.604 116.868 49.5869C117.003 49.5527 117.139 49.5186 117.139 49.621C117.139 49.7296 117.216 49.7615 117.369 49.8251C117.432 49.8515 117.508 49.8833 117.598 49.9283C117.904 50.0819 118.209 50.2354 118.057 50.0818C117.973 49.998 117.935 49.9598 117.943 49.9426C117.949 49.9283 117.987 49.9283 118.057 49.9283C118.179 49.9283 118.311 50.2355 118.362 50.3891H118.668C118.719 50.3891 118.753 50.4062 118.776 50.4176L118.78 50.42L118.785 50.4222C118.794 50.4265 118.801 50.4289 118.806 50.4268C118.821 50.4208 118.821 50.3771 118.821 50.2355C118.821 49.9283 118.821 49.4674 118.668 49.4674C118.624 49.4674 118.606 49.4674 118.59 49.4601C118.579 49.4547 118.57 49.4454 118.554 49.4293L118.553 49.429C118.515 49.3906 118.439 49.3138 118.21 49.1601C118.075 49.0702 117.967 48.9935 117.878 48.9299L117.877 48.9296C117.661 48.7761 117.553 48.6993 117.445 48.6993H116.834C116.732 48.7505 116.664 48.7675 116.618 48.7789C116.586 48.7872 116.565 48.7924 116.551 48.8055Z" fill="white"/>
<path d="M118.21 50.85C118.087 50.7271 118.159 50.6964 118.21 50.6964H118.668V51.0036C118.566 51.0036 118.332 50.9729 118.21 50.85Z" fill="white"/>
<path d="M121.267 50.5428C120.961 50.2355 120.503 49.7746 120.044 49.9283C119.585 50.0819 119.433 50.3891 119.891 50.5428C120.135 50.6244 120.206 50.7929 120.265 50.9329C120.317 51.0562 120.36 51.1573 120.503 51.1573C120.62 51.1573 120.714 51.1349 120.795 51.1157C120.925 51.0847 121.02 51.0623 121.114 51.1573C121.131 51.1741 121.149 51.1945 121.169 51.2174C121.18 51.2291 121.19 51.2414 121.201 51.2542L121.225 51.2822L121.237 51.297C121.397 51.487 121.607 51.7373 121.726 51.6181C121.786 51.558 121.892 51.545 121.991 51.5329C122.144 51.5142 122.277 51.4979 122.184 51.3109C122.143 51.2286 122.113 51.1462 122.086 51.0698C122.01 50.8611 121.95 50.6964 121.726 50.6964C121.481 50.6964 121.318 50.594 121.267 50.5428Z" fill="white"/>
<path d="M121.879 51.7718L122.032 52.2327C121.93 52.2327 121.695 52.2019 121.573 52.079C121.487 51.9928 121.353 51.9549 121.198 51.9111C121.077 51.8769 120.943 51.8391 120.808 51.7718C120.656 51.695 120.617 51.695 120.598 51.695H120.596L120.593 51.6949L120.592 51.6948L120.589 51.6945C120.577 51.6925 120.566 51.6813 120.503 51.6181C120.426 51.5413 120.388 51.5413 120.369 51.5413L120.366 51.5413L120.364 51.5413L120.362 51.5412L120.361 51.541L120.359 51.5407C120.358 51.5404 120.358 51.5401 120.357 51.5396C120.35 51.5351 120.35 51.5195 120.35 51.4645C120.35 51.3416 120.452 51.3109 120.503 51.3109C120.554 51.3109 120.686 51.3416 120.808 51.4645C120.868 51.5245 120.904 51.561 120.945 51.5924C121.008 51.6415 121.081 51.6781 121.267 51.7718H121.879Z" fill="white"/>
<path d="M156.062 49.3138C155.991 49.1089 155.956 49.0065 155.207 49.0065C154.856 49.0065 154.506 48.9841 154.207 48.965C153.722 48.934 153.372 48.9116 153.372 49.0065C153.372 49.1601 153.372 49.4674 153.678 49.621C153.984 49.7746 154.289 49.9283 154.901 49.9283C155.512 49.9283 156.124 49.9283 156.124 49.4674C156.096 49.411 156.078 49.3598 156.062 49.3138Z" fill="white"/>
<path d="M163.462 56.995C163.768 56.8414 164.685 56.8414 164.991 56.995C165.297 56.995 165.297 57.1487 165.297 57.6095C165.297 57.9203 164.88 57.9517 164.421 57.9862C164.199 58.0029 163.967 58.0204 163.768 58.0704C163.248 58.2011 163.17 58.1094 163.064 57.9845C163.046 57.9626 163.026 57.9397 163.003 57.9168C162.851 57.7632 162.698 57.9168 162.392 58.224C162.192 58.4247 162.058 58.3632 161.818 58.2536C161.691 58.1954 161.534 58.1237 161.322 58.0704C160.71 57.9168 161.016 57.4559 161.475 57.3023C161.8 57.1934 162.202 57.2389 162.517 57.2746C162.647 57.2893 162.762 57.3023 162.851 57.3023C163.04 57.3023 163.112 57.2436 163.212 57.1625C163.273 57.1124 163.345 57.0537 163.462 56.995Z" fill="white"/>
<path d="M167.599 57.2692C167.759 56.984 167.885 56.7591 167.437 56.5342C166.826 56.5342 166.367 56.6878 166.367 56.995C166.367 57.0846 166.341 57.1874 166.315 57.2879C166.254 57.5319 166.195 57.7632 166.52 57.7632C166.666 57.7632 166.797 57.7946 166.913 57.8223C167.158 57.8811 167.333 57.923 167.437 57.6095C167.478 57.4861 167.541 57.3736 167.599 57.2692Z" fill="white"/>
<path d="M170.953 56.6878C170.831 56.9336 170.597 56.995 170.495 56.995C170.342 56.5342 170.189 56.995 170.189 57.1487C170.189 57.2255 170.074 57.2255 169.902 57.2255C169.73 57.2255 169.501 57.2255 169.272 57.3023C168.813 57.4559 168.507 57.4559 168.201 57.1487C167.896 56.8414 168.507 56.5342 168.966 56.5342C169.179 56.5342 169.26 56.468 169.347 56.3971C169.447 56.3152 169.555 56.2269 169.883 56.2269C170.291 56.2269 170.291 56.2952 170.291 56.3862C170.291 56.4317 170.291 56.483 170.342 56.5342C170.429 56.622 170.516 56.5091 170.604 56.3962C170.669 56.3116 170.735 56.2269 170.8 56.2269C170.953 56.2269 171.106 56.3805 170.953 56.6878Z" fill="white"/>
<path d="M165.215 55.4588C165.103 55.6636 165.047 55.766 165.297 55.766C165.602 55.766 165.908 55.6124 165.755 55.4588C165.722 55.4251 165.696 55.3914 165.672 55.361C165.588 55.2526 165.535 55.1852 165.297 55.3052C165.269 55.3615 165.241 55.4128 165.215 55.4588Z" fill="white"/>
<path d="M166.826 53.6153C167.131 53.7689 166.978 53.9225 166.673 54.0762C166.571 54.1274 166.306 54.1991 166.061 54.0762C165.832 53.9609 165.602 54.105 165.373 54.249C165.297 54.297 165.22 54.345 165.144 54.3834C164.838 54.537 164.379 54.3834 164.074 54.2298C163.768 54.0762 164.379 53.7689 164.685 53.7689C164.991 53.7689 165.297 53.7689 165.602 53.6153C165.908 53.4617 166.52 53.4617 166.826 53.6153Z" fill="white"/>
<path d="M165.602 52.2327H166.52C166.826 52.2327 167.437 52.5399 166.978 52.6935C166.679 52.7938 166.575 52.8286 166.496 52.798C166.455 52.7817 166.42 52.7469 166.367 52.6936C166.214 52.54 166.061 52.3863 165.602 52.2327Z" fill="white"/>
<path d="M168.966 53.0008C169.109 53.0008 169.151 53.0008 169.187 52.9852C169.189 52.9844 169.191 52.9835 169.193 52.9826L169.195 52.9815L169.198 52.98L169.203 52.9776L169.206 52.9757L169.211 52.9727L169.217 52.9691L169.223 52.9652L169.226 52.9629L169.238 52.9553C169.272 52.9325 169.323 52.8984 169.424 52.8472C169.73 52.6935 170.036 52.8472 170.036 53.1544C170.036 53.4617 169.577 53.4617 169.272 53.4617C169.127 53.4617 169.051 53.4617 168.978 53.478C168.897 53.4961 168.821 53.5344 168.66 53.6153C168.354 53.7689 168.354 53.4617 168.354 53.1544C168.354 52.9295 168.518 52.9515 168.726 52.9795C168.802 52.9897 168.884 53.0008 168.966 53.0008Z" fill="white"/>
<path d="M171.565 53.7689C171.412 53.9225 171.259 54.3834 171.565 54.2298C171.678 54.1727 171.792 54.1581 171.882 54.1464C172.034 54.1267 172.12 54.1157 172.023 53.9225C171.871 53.6153 171.67 53.6153 171.565 53.7689Z" fill="white"/>
<path d="M171.565 50.85C171.412 51.0036 170.648 51.0036 170.342 50.85C170.189 50.9012 169.822 51.0651 169.577 51.3109C169.333 51.5567 168.966 51.6181 168.813 51.6181C168.864 51.7206 169.088 51.8639 169.577 51.6181C170.189 51.3109 170.036 52.2327 169.883 52.2327C169.73 52.2327 168.813 52.5399 168.354 52.6935C168.024 52.8042 167.852 52.6757 167.668 52.5378C167.596 52.4843 167.523 52.4293 167.437 52.3863C167.192 52.2634 167.539 52.2327 167.743 52.2327C167.692 52.1814 167.59 52.0176 167.59 51.7718C167.59 51.6181 167.705 51.5413 167.819 51.4645C167.934 51.3877 168.049 51.3109 168.049 51.1573C168.049 50.9115 167.641 51.0549 167.437 51.1573C167.284 51.0036 167.59 50.6964 167.896 50.5428C168.077 50.4519 168.204 50.5223 168.278 50.5632C168.329 50.5914 168.354 50.6055 168.354 50.5428C168.354 50.4792 168.381 50.3627 168.411 50.2265C168.455 50.0338 168.507 49.801 168.507 49.621C168.507 49.3828 168.967 49.4216 169.316 49.4511C169.417 49.4596 169.509 49.4674 169.577 49.4674C169.801 49.4674 170.025 49.385 170.309 49.2806C170.413 49.2424 170.525 49.2013 170.648 49.1601C171.106 49.0065 171.565 49.0065 172.023 49.621C172.416 50.147 171.912 50.5606 171.663 50.7651C171.621 50.7995 171.587 50.8279 171.565 50.85Z" fill="white"/>
<path d="M172.176 49.621C172.176 49.3138 172.176 49.1601 172.482 49.1601C172.635 49.1601 172.788 49.237 172.902 49.2946C173.017 49.3522 173.094 49.3906 173.094 49.3138C173.094 49.1601 173.705 48.8529 174.011 48.8529C174.256 48.8529 174.724 49.1601 174.928 49.3138C174.979 49.5186 174.989 49.9283 174.622 49.9283C174.436 49.9283 174.274 49.9028 174.149 49.883C173.966 49.8541 173.858 49.8372 173.858 49.9283C173.858 50.0819 174.011 50.6964 174.164 50.5428C174.286 50.4199 174.724 50.4916 174.928 50.5428C174.826 50.7476 174.5 51.1265 174.011 51.0036C173.399 50.85 173.399 50.6964 173.399 50.2355C173.399 50.1334 173.407 50.0388 173.414 49.955L173.414 49.9544L173.414 49.9539L173.414 49.9532C173.437 49.6604 173.45 49.5017 173.094 49.621C172.85 49.7027 172.692 49.9148 172.575 50.0724C172.472 50.211 172.401 50.3074 172.329 50.2355C172.207 50.1126 172.176 49.7746 172.176 49.621Z" fill="white"/>
<path d="M189.299 45.7804C189.177 45.9033 189.044 46.1388 188.993 46.2413C189.299 46.1388 189.91 45.8418 189.91 45.4731V44.8586C189.758 45.0635 189.421 45.4731 189.299 45.4731C189.146 45.4731 188.229 45.7804 188.229 45.934C188.229 46.0108 188.038 46.126 187.847 46.2413C187.655 46.3565 187.464 46.4717 187.464 46.5485C187.464 46.6556 187.241 46.8374 187.055 46.9897C186.973 47.0559 186.899 47.1165 186.853 47.163C186.7 47.3166 186.394 47.6239 186.7 47.6239C186.872 47.6239 187.043 47.4301 187.242 47.2058C187.397 47.0306 187.569 46.8368 187.77 46.7021C187.999 46.5485 188.076 46.4717 188.133 46.4141C188.191 46.3565 188.229 46.3181 188.382 46.2413C188.484 46.1901 188.602 46.0941 188.721 45.998C188.959 45.8059 189.197 45.6135 189.299 45.7804Z" fill="white"/>
<path d="M187.617 49.3138C187.74 49.1909 188.382 48.6481 188.687 48.392C188.585 48.5969 188.34 49.068 188.171 49.3138C187.961 49.621 187.464 49.9283 187.159 50.0819C186.853 50.2355 187.464 49.4674 187.617 49.3138Z" fill="white"/>
<path d="M183.96 48.7695C183.869 48.7812 183.756 48.7958 183.642 48.8529C183.54 48.9041 183.388 49.0065 183.218 49.1203C182.878 49.3479 182.47 49.621 182.266 49.621H181.808C182.023 49.4612 182.57 49.1146 183.031 49.0065C183.492 48.8984 183.936 48.6542 184.101 48.5456C184.197 48.7388 184.112 48.7498 183.96 48.7695Z" fill="white"/>
<path d="M185.018 51.3109C184.865 51.3109 184.498 51.3416 184.254 51.4645C184.152 51.5157 184.084 51.5669 184.016 51.6181C183.88 51.7206 183.744 51.823 183.337 51.9254C182.783 52.0645 182.981 52.2037 183.18 52.3428L183.181 52.3436L183.182 52.3439C183.202 52.3581 183.222 52.3722 183.241 52.3863C183.409 52.5092 183.375 52.5399 183.337 52.5399C183.388 52.5399 183.52 52.5092 183.642 52.3863C183.725 52.3031 183.898 52.265 184.087 52.2231C184.247 52.1876 184.419 52.1495 184.56 52.079C184.865 51.9254 185.171 51.4645 185.018 51.3109Z" fill="white"/>
<path d="M182.123 52.7132C182.007 52.8655 181.868 53.0473 181.655 53.1544C181.349 53.308 181.043 53.308 180.738 53.308C180.524 53.308 180.163 53.5321 179.859 53.7198C179.728 53.8013 179.607 53.876 179.515 53.9225L178.292 54.537H179.056C179.112 54.537 179.188 54.4753 179.285 54.397C179.453 54.2614 179.682 54.0762 179.973 54.0762C180.264 54.0762 180.432 54.0144 180.555 53.9692C180.626 53.9431 180.682 53.9225 180.738 53.9225C180.794 53.9225 180.911 53.8196 181.06 53.6891C181.318 53.4631 181.67 53.1544 181.961 53.1544C182.419 53.1544 182.419 53.0008 182.266 52.5399C182.22 52.5864 182.174 52.647 182.123 52.7132Z" fill="white"/>
<path d="M176.61 54.9979C176.151 54.8443 176.151 55.4705 176.304 55.4588C176.763 55.4588 177.068 55.1515 176.61 54.9979Z" fill="white"/>
<path d="M175.935 54.3833C176.384 54.3833 176.684 54.1888 176.235 54.0915C175.785 53.9943 175.785 54.3907 175.935 54.3833Z" fill="white"/>
<path d="M177.283 52.4395C177.93 52.2508 178.308 51.9382 177.633 52.0335C176.959 52.1288 177.069 52.5096 177.283 52.4395Z" fill="white"/>
<path d="M179.115 51.335C178.548 51.7013 178.066 51.7819 178.58 51.3338C179.095 50.8857 179.308 51.2192 179.115 51.335Z" fill="white"/>
<path d="M180.804 50.6507C180.047 51.1393 179.477 51.361 180.2 50.8205C180.923 50.2799 181.058 50.4918 180.804 50.6507Z" fill="white"/>
<path d="M174.406 54.3836C174.856 54.3836 175.155 54.7727 174.706 54.9672C174.256 55.1617 174.256 54.3687 174.406 54.3836Z" fill="white"/>
<path d="M172.616 55.3051C173.291 55.3051 173.74 55.1105 173.066 55.0133C172.392 54.916 172.392 55.3125 172.616 55.3051Z" fill="white"/>
<path d="M172.877 56.2268C173.327 56.2268 173.626 56.0323 173.177 55.935C172.728 55.8378 172.728 56.2342 172.877 56.2268Z" fill="white"/>
<path d="M88.0921 86.6448C88.0921 86.7984 87.7863 88.0274 87.6334 88.6419C87.5111 89.1335 86.869 90.0757 86.5633 90.4854C86.6142 90.2293 86.7162 89.6865 86.7162 89.5636C86.7162 89.41 87.4806 87.8738 87.6334 87.5665L88.0921 86.6448Z" fill="white"/>
<path d="M84.423 94.0188C84.321 94.3772 84.0866 95.1556 83.9643 95.4014C83.9134 95.5038 83.8454 95.5721 83.7831 95.6347C83.6586 95.7599 83.5566 95.8623 83.6586 96.1695C83.8114 96.6304 84.1172 96.3232 84.2701 96.0159C84.3924 95.7701 84.423 94.5821 84.423 94.0188Z" fill="white"/>
<path fill-rule="evenodd" clip-rule="evenodd" d="M125.701 130.582C126.159 130.428 126.557 129.629 125.089 129.506C124.605 129.466 123.845 129.455 122.949 129.506C122.223 129.548 121.557 129.591 120.934 129.631L120.928 129.632L120.926 129.632C119.405 129.731 118.133 129.814 116.834 129.814C115.263 129.814 113.472 129.57 112.493 129.437C112.125 129.387 111.872 129.353 111.789 129.353C111.654 129.353 111.52 129.294 111.399 129.24C111.28 129.187 111.172 129.14 111.09 129.161C111.193 129.043 111.297 128.798 110.871 128.585C110.565 128.431 110.107 128.789 110.26 128.892C109.967 128.745 109.543 128.651 109.101 128.552L109.101 128.552L109.1 128.552C108.927 128.513 108.75 128.474 108.578 128.431C108.077 128.305 107.837 128.413 107.644 128.501C107.545 128.545 107.458 128.585 107.355 128.585C107.202 128.585 107.087 128.469 106.992 128.373C106.896 128.277 106.82 128.2 106.743 128.277C106.621 128.4 106.285 128.431 106.132 128.431C105.724 128.38 103.992 128.277 103.38 128.277C103.063 128.277 102.275 128.198 101.351 128.106C100.044 127.975 98.4662 127.816 97.5707 127.816C96.916 127.816 96.3254 127.873 95.8595 127.917C95.556 127.946 95.3055 127.97 95.1246 127.97C94.6659 127.97 94.3602 127.97 93.9015 128.124C93.4429 128.277 91.7612 128.431 91.1497 128.431C90.395 128.431 90.4006 128.507 90.4159 128.714C90.4223 128.8 90.4304 128.91 90.3853 129.045C90.212 129.045 89.9912 129.053 89.7503 129.062C88.9287 129.091 87.8698 129.129 87.6334 128.892C87.3277 128.585 87.0219 129.199 87.1748 129.506C87.2272 129.612 87.2078 129.735 87.1904 129.845C87.157 130.057 87.1311 130.222 87.6334 130.121C88.245 129.998 88.3978 130.07 88.3978 130.121C87.9902 130.274 87.2971 130.735 87.7863 131.35C88.3978 132.118 90.0828 133.549 91.7612 133.654C92.8398 133.722 93.5915 133.879 94.3307 134.034C95.2678 134.23 96.1852 134.422 97.7235 134.422H104.603C105.215 134.422 107.049 134.422 107.355 134.576C107.661 134.73 109.342 134.883 111.941 134.73C113.47 134.639 115.264 134.442 116.886 134.264C118.022 134.14 119.073 134.025 119.891 133.961L120.37 133.925C122.234 133.782 124.233 133.63 124.936 133.347C125.701 133.04 128.3 131.35 125.701 130.582ZM100.628 131.503C100.475 131.606 99.7416 131.78 98.0293 131.657C97.0812 131.589 96.4331 131.521 95.9122 131.466L95.9117 131.466L95.911 131.466C95.2567 131.397 94.8031 131.35 94.2073 131.35C93.9026 131.35 93.635 131.362 93.4047 131.373C92.8261 131.4 92.4821 131.416 92.3727 131.196C92.2199 130.889 92.8314 130.889 93.7487 130.889C94.1593 130.889 94.5393 130.981 94.9023 131.069C95.3503 131.178 95.7725 131.281 96.1947 131.196C96.9592 131.043 99.4052 131.043 99.711 131.043C100.017 131.043 97.2649 131.35 96.9592 131.35C96.6534 131.35 100.17 131.657 100.628 131.503Z" fill="white"/>
<path d="M145.269 80.4997C144.413 81.8516 145.83 83.7771 146.798 84.3404C144.464 86.1644 146.199 88.4304 147.339 89.9201C147.544 90.187 147.729 90.429 147.868 90.639C148.786 92.0217 154.595 95.2478 156.888 95.8623C158.118 96.1917 160.27 97.0951 162.661 98.0991C164.731 98.9679 166.98 99.912 168.966 100.625C172.39 101.854 174.164 100.522 174.622 99.7029C174.905 99.7029 174.952 99.7291 176.017 100.314L176.304 100.471C177.986 101.393 179.209 100.625 179.667 100.01C179.962 99.6154 179.626 99.2207 179.186 98.7038C178.94 98.416 178.663 98.0904 178.444 97.7058C179.209 98.6275 180.086 98.552 180.891 98.013C181.349 97.7058 181.887 96.7584 181.655 95.7087C181.349 94.326 178.139 91.4072 177.68 91.0999C177.611 91.0534 177.401 90.8909 177.079 90.641L177.077 90.6394C175.27 89.2364 169.929 85.0897 165.908 83.265C161.395 81.2169 154.941 80.1439 151.959 79.6482L151.757 79.6146C151.681 79.602 151.608 79.5898 151.537 79.578C148.786 79.1171 146.34 78.8099 145.269 80.4997Z" fill="white"/>
<path d="M63.3254 71.2822C64.5485 71.2822 65.9244 73.2793 66.9946 75.4301C67.6061 75.6861 69.2878 76.5055 69.4407 77.4272C69.5935 78.349 69.2878 79.7316 68.0647 80.6534C69.5935 82.6505 67.3003 86.952 65.9244 88.181C65.1927 88.8345 59.0448 92.7898 56.5987 93.4043C54.8447 93.8449 53.5116 94.1451 52.2998 94.418C49.686 95.0067 47.6368 95.4682 43.1452 96.9377C39.3912 98.1659 36.6733 98.1667 35.807 98.013C34.431 98.8324 30.3644 100.133 25.1053 98.7812C19.8462 97.4293 20.4679 94.9405 21.4362 93.8651C21.3778 93.8316 21.3016 93.7958 21.2143 93.7547C20.7678 93.5448 20.031 93.1983 19.9074 92.3289C19.634 90.4061 22.5377 88.606 24.3579 87.4777C24.5737 87.3439 24.7742 87.2196 24.9524 87.1056C25.3654 86.8416 26.0143 86.3327 26.85 85.6775C29.4175 83.6644 33.7472 80.2696 38.4059 78.349C43.7692 76.1379 49.6273 75.6672 53.3097 75.3713L53.3113 75.3711L53.3155 75.3708C53.7246 75.3379 54.1068 75.3072 54.4584 75.2765C55.1718 75.3789 57.2102 75.1228 57.2102 75.1228C57.2102 75.1228 57.0573 73.8938 58.1275 72.6648C58.9836 71.6816 60.7774 71.4358 61.338 71.5895C61.338 71.4358 61.3991 71.1286 61.6437 71.1286C61.8884 71.1286 62.0514 71.4358 62.1024 71.5895C62.1024 71.487 62.347 71.2822 63.3254 71.2822Z" fill="white"/>
<path d="M790.513 108.838C786.532 108.838 783.011 108.191 779.951 106.896C776.917 105.574 774.534 103.578 772.801 100.908C771.068 98.237 770.201 94.8382 770.201 90.711C770.201 87.3121 770.783 84.4123 771.948 82.0116C773.112 79.5838 774.737 77.6012 776.823 76.0636C778.908 74.526 781.332 73.3526 784.094 72.5434C786.884 71.7341 789.89 71.2081 793.113 70.9653C796.607 70.6956 799.41 70.3719 801.522 69.9942C803.662 69.5896 805.206 69.0366 806.154 68.3353C807.101 67.607 807.575 66.6493 807.575 65.4624V65.3006C807.575 63.6821 806.952 62.4413 805.707 61.5781C804.461 60.7149 802.863 60.2833 800.913 60.2833C798.773 60.2833 797.027 60.7553 795.672 61.6995C794.345 62.6166 793.546 64.0328 793.276 65.948H772.638C772.909 62.1715 774.114 58.6917 776.254 55.5087C778.421 52.2987 781.576 49.7361 785.719 47.8208C789.863 45.8786 795.036 44.9075 801.238 44.9075C805.707 44.9075 809.715 45.4336 813.263 46.4856C816.811 47.5106 819.83 48.9538 822.322 50.8151C824.814 52.6494 826.709 54.8073 828.009 57.289C829.336 59.7438 830 62.4143 830 65.3006V107.867H809.038V99.1272H808.55C807.305 101.447 805.788 103.322 804 104.751C802.24 106.181 800.222 107.22 797.947 107.867C795.699 108.514 793.221 108.838 790.513 108.838ZM797.826 94.7572C799.532 94.7572 801.13 94.4066 802.619 93.7052C804.136 93.0039 805.368 91.9923 806.316 90.6705C807.264 89.3488 807.738 87.7437 807.738 85.8555V80.6763C807.142 80.9191 806.506 81.1484 805.828 81.3642C805.179 81.58 804.474 81.7823 803.716 81.9711C802.985 82.1599 802.199 82.3353 801.36 82.4971C800.547 82.659 799.694 82.8073 798.8 82.9422C797.067 83.212 795.645 83.657 794.535 84.2775C793.452 84.8709 792.639 85.6127 792.097 86.5029C791.583 87.3661 791.326 88.3372 791.326 89.4162C791.326 91.1426 791.935 92.4644 793.154 93.3815C794.372 94.2987 795.93 94.7572 797.826 94.7572Z" fill="white"/>
<path d="M766.341 65.948H745.704C745.595 64.6802 745.148 63.5877 744.363 62.6705C743.578 61.7534 742.562 61.052 741.316 60.5665C740.097 60.054 738.743 59.7977 737.254 59.7977C735.331 59.7977 733.679 60.1484 732.297 60.8497C730.916 61.5511 730.239 62.5492 730.266 63.844C730.239 64.7611 730.632 65.6108 731.444 66.3931C732.284 67.1754 733.895 67.7823 736.279 68.2139L748.953 70.4798C755.345 71.6397 760.098 73.5954 763.213 76.3468C766.354 79.0713 767.939 82.7264 767.966 87.3122C767.939 91.736 766.612 95.58 763.984 98.8439C761.385 102.081 757.823 104.59 753.3 106.37C748.805 108.123 743.672 109 737.904 109C728.37 109 720.909 107.058 715.52 103.173C710.157 99.289 707.165 94.1638 706.542 87.7977H728.804C729.102 89.7669 730.077 91.2909 731.729 92.3699C733.408 93.422 735.52 93.948 738.066 93.948C740.124 93.948 741.817 93.5973 743.144 92.896C744.498 92.1946 745.189 91.1965 745.216 89.9017C745.189 88.7148 744.593 87.7707 743.429 87.0694C742.291 86.368 740.504 85.8016 738.066 85.37L727.016 83.4278C720.652 82.3218 715.885 80.2177 712.716 77.1156C709.548 74.0135 707.977 70.0212 708.004 65.1388C707.977 60.8228 709.114 57.1677 711.417 54.1734C713.746 51.1522 717.063 48.8594 721.369 47.2948C725.703 45.7033 730.835 44.9075 736.766 44.9075C745.785 44.9075 752.894 46.7688 758.094 50.4914C763.321 54.2139 766.07 59.3661 766.341 65.948Z" fill="white"/>
<path d="M663.134 107.867V45.7168H684.908V57.5318H685.558C686.696 53.1619 688.497 49.9653 690.961 47.9422C693.453 45.9191 696.364 44.9075 699.696 44.9075C700.671 44.9075 701.632 44.9885 702.58 45.1503C703.555 45.2852 704.489 45.4875 705.383 45.7573V64.8151C704.273 64.4374 702.905 64.1542 701.28 63.9653C699.655 63.7765 698.26 63.6821 697.096 63.6821C694.902 63.6821 692.925 64.1811 691.164 65.1792C689.431 66.1503 688.063 67.526 687.061 69.3064C686.059 71.0597 685.558 73.1233 685.558 75.4971V107.867H663.134Z" fill="white"/>
<path d="M625.129 109C618.358 109 612.562 107.665 607.741 104.994C602.921 102.297 599.224 98.5472 596.651 93.7457C594.078 88.9172 592.792 83.3199 592.792 76.9538C592.792 70.5877 594.078 65.0039 596.651 60.2023C599.224 55.3738 602.921 51.6243 607.741 48.9538C612.562 46.2563 618.358 44.9075 625.129 44.9075C631.899 44.9075 637.695 46.2563 642.516 48.9538C647.337 51.6243 651.034 55.3738 653.606 60.2023C656.179 65.0039 657.466 70.5877 657.466 76.9538C657.466 83.3199 656.179 88.9172 653.606 93.7457C651.034 98.5472 647.337 102.297 642.516 104.994C637.695 107.665 631.899 109 625.129 109ZM625.291 92.4913C627.187 92.4913 628.826 91.8574 630.207 90.5896C631.588 89.3218 632.658 87.5145 633.416 85.1676C634.174 82.8208 634.554 80.0289 634.554 76.7919C634.554 73.528 634.174 70.736 633.416 68.4162C632.658 66.0694 631.588 64.2621 630.207 62.9942C628.826 61.7264 627.187 61.0925 625.291 61.0925C623.287 61.0925 621.567 61.7264 620.132 62.9942C618.697 64.2621 617.6 66.0694 616.841 68.4162C616.083 70.736 615.704 73.528 615.704 76.7919C615.704 80.0289 616.083 82.8208 616.841 85.1676C617.6 87.5145 618.697 89.3218 620.132 90.5896C621.567 91.8574 623.287 92.4913 625.291 92.4913Z" fill="white"/>
<path d="M524.44 107.867V25H546.865V56.5607H547.19C548.002 54.4566 549.194 52.5279 550.765 50.7745C552.336 48.9942 554.286 47.578 556.615 46.526C558.944 45.447 561.652 44.9075 564.74 44.9075C568.856 44.9075 572.77 46 576.48 48.185C580.218 50.3699 583.251 53.8092 585.58 58.5029C587.936 63.1965 589.114 69.2928 589.114 76.7919C589.114 83.9672 587.99 89.9152 585.742 94.6358C583.522 99.3564 580.543 102.877 576.805 105.196C573.095 107.516 569.019 108.676 564.577 108.676C561.652 108.676 559.039 108.204 556.737 107.26C554.462 106.289 552.512 104.981 550.887 103.335C549.289 101.663 548.057 99.7745 547.19 97.6705H546.702V107.867H524.44ZM546.377 76.7919C546.377 79.8131 546.77 82.4296 547.556 84.6416C548.368 86.8266 549.506 88.526 550.968 89.7399C552.458 90.9268 554.232 91.5202 556.29 91.5202C558.348 91.5202 560.095 90.9402 561.53 89.7803C562.993 88.5934 564.103 86.9075 564.862 84.7225C565.647 82.5106 566.04 79.867 566.04 76.7919C566.04 73.7167 565.647 71.0867 564.862 68.9017C564.103 66.6898 562.993 65.0038 561.53 63.8439C560.095 62.657 558.348 62.0636 556.29 62.0636C554.232 62.0636 552.458 62.657 550.968 63.8439C549.506 65.0038 548.368 66.6898 547.556 68.9017C546.77 71.0867 546.377 73.7167 546.377 76.7919Z" fill="white"/>
<path d="M499.688 45.7168V61.9018H458.576V45.7168H499.688ZM466.539 30.8266H488.963V87.8786C488.963 88.7418 489.112 89.4701 489.41 90.0636C489.708 90.6301 490.169 91.0617 490.792 91.3584C491.414 91.6281 492.213 91.763 493.188 91.763C493.865 91.763 494.651 91.6821 495.545 91.5202C496.465 91.3584 497.142 91.2235 497.576 91.1156L500.826 106.815C499.824 107.112 498.388 107.476 496.52 107.908C494.678 108.339 492.484 108.622 489.938 108.757C484.793 109.027 480.473 108.501 476.979 107.179C473.486 105.83 470.858 103.713 469.098 100.827C467.338 97.9403 466.485 94.3256 466.539 89.9827V30.8266Z" fill="white"/>
<path d="M415.707 108.838C411.725 108.838 408.205 108.191 405.144 106.896C402.111 105.574 399.728 103.578 397.994 100.908C396.261 98.237 395.394 94.8382 395.394 90.711C395.394 87.3121 395.977 84.4123 397.141 82.0116C398.306 79.5838 399.931 77.6012 402.016 76.0636C404.102 74.526 406.526 73.3526 409.288 72.5434C412.078 71.7341 415.084 71.2081 418.307 70.9653C421.8 70.6956 424.603 70.3719 426.716 69.9942C428.855 69.5896 430.399 69.0366 431.347 68.3353C432.295 67.607 432.769 66.6493 432.769 65.4624V65.3006C432.769 63.6821 432.146 62.4413 430.9 61.5781C429.654 60.7149 428.056 60.2833 426.106 60.2833C423.967 60.2833 422.22 60.7553 420.866 61.6995C419.539 62.6166 418.74 64.0328 418.469 65.948H397.832C398.103 62.1715 399.308 58.6917 401.447 55.5087C403.614 52.2987 406.769 49.7361 410.913 47.8208C415.057 45.8786 420.229 44.9075 426.431 44.9075C430.9 44.9075 434.908 45.4336 438.456 46.4856C442.004 47.5106 445.024 48.9538 447.516 50.8151C450.007 52.6494 451.903 54.8073 453.203 57.289C454.53 59.7438 455.194 62.4143 455.194 65.3006V107.867H434.231V99.1272H433.744C432.498 101.447 430.981 103.322 429.194 104.751C427.434 106.181 425.416 107.22 423.141 107.867C420.893 108.514 418.415 108.838 415.707 108.838ZM423.019 94.7572C424.725 94.7572 426.323 94.4066 427.813 93.7052C429.329 93.0039 430.562 91.9923 431.51 90.6705C432.457 89.3488 432.931 87.7437 432.931 85.8555V80.6763C432.336 80.9191 431.699 81.1484 431.022 81.3642C430.372 81.58 429.668 81.7823 428.91 81.9711C428.178 82.1599 427.393 82.3353 426.553 82.4971C425.741 82.659 424.888 82.8073 423.994 82.9422C422.261 83.212 420.839 83.657 419.728 84.2775C418.645 84.8709 417.833 85.6127 417.291 86.5029C416.776 87.3661 416.519 88.3372 416.519 89.4162C416.519 91.1426 417.128 92.4644 418.347 93.3815C419.566 94.2987 421.123 94.7572 423.019 94.7572Z" fill="white"/>
<path d="M362.051 109C355.389 109 349.647 107.732 344.826 105.197C340.033 102.634 336.336 98.9653 333.736 94.1908C331.163 89.3892 329.877 83.6436 329.877 76.9538C329.877 70.5337 331.177 64.9229 333.777 60.1214C336.377 55.3199 340.046 51.5838 344.786 48.9133C349.525 46.2428 355.118 44.9075 361.564 44.9075C366.276 44.9075 370.542 45.6359 374.36 47.0925C378.179 48.5492 381.443 50.6667 384.151 53.4451C386.859 56.1966 388.945 59.5415 390.407 63.4798C391.869 67.4181 392.601 71.8555 392.601 76.7919V81.9711H336.864V69.6705H371.964C371.936 67.8902 371.476 66.3256 370.582 64.9769C369.716 63.6012 368.538 62.5357 367.048 61.7804C365.585 60.9981 363.92 60.607 362.051 60.607C360.237 60.607 358.571 60.9981 357.054 61.7804C355.538 62.5357 354.319 63.5877 353.398 64.9364C352.504 66.2852 352.031 67.8632 351.976 69.6705V82.9422C351.976 84.9384 352.396 86.7187 353.236 88.2832C354.075 89.8478 355.28 91.0752 356.851 91.9653C358.422 92.8555 360.318 93.3006 362.539 93.3006C364.082 93.3006 365.491 93.0848 366.764 92.6532C368.064 92.2216 369.174 91.6012 370.095 90.7919C371.016 89.9557 371.693 88.9576 372.126 87.7977H392.601C391.897 92.1137 390.231 95.8632 387.604 99.0462C384.977 102.202 381.497 104.657 377.163 106.41C372.857 108.137 367.82 109 362.051 109Z" fill="white"/>
<path d="M228 107.867V45.7168H249.287V57.5318H249.937C251.237 53.6474 253.458 50.5723 256.6 48.3064C259.741 46.0405 263.479 44.9075 267.812 44.9075C272.199 44.9075 275.977 46.0675 279.146 48.3873C282.315 50.6802 284.224 53.7284 284.874 57.5318H285.524C286.58 53.7284 288.828 50.6802 292.268 48.3873C295.707 46.0675 299.743 44.9075 304.374 44.9075C310.359 44.9075 315.207 46.8228 318.917 50.6532C322.655 54.4837 324.524 59.5819 324.524 65.948V107.867H302.099V71.6127C302.099 68.8883 301.408 66.7572 300.027 65.2197C298.646 63.6551 296.791 62.8729 294.462 62.8729C292.159 62.8729 290.331 63.6551 288.977 65.2197C287.65 66.7572 286.987 68.8883 286.987 71.6127V107.867H265.537V71.6127C265.537 68.8883 264.846 66.7572 263.465 65.2197C262.084 63.6551 260.229 62.8729 257.9 62.8729C256.356 62.8729 255.029 63.2235 253.918 63.9249C252.808 64.6262 251.941 65.6378 251.318 66.9596C250.723 68.2544 250.425 69.8054 250.425 71.6127V107.867H228Z" fill="white"/>
</g>
<defs>
<clipPath id="clip0_0_16">
<rect width="830" height="136" fill="white"/>
</clipPath>
</defs>
</svg>
