<svg width="226" height="202" viewBox="0 0 226 202" fill="none" xmlns="http://www.w3.org/2000/svg">
<g clip-path="url(#clip0_0_9)">
<path fill-rule="evenodd" clip-rule="evenodd" d="M21.0031 3.43512C21.3466 1.71756 22.0336 0 23.4076 0C25.5756 0 25.9159 1.31628 26.195 2.39587C26.3802 3.11239 26.5385 3.72465 27.1863 3.77863C28.5853 3.89521 28.7875 5.60206 28.9408 6.8963C29.0134 7.50879 29.075 8.02887 29.2473 8.24428C29.9344 9.10306 29.9344 11.8512 29.7626 14.9428C29.5909 18.0344 27.0145 22.8435 25.984 24.3893C25.2399 25.5055 25.1252 26.1069 24.9534 27.3092C24.8716 27.882 24.4337 28.553 23.8481 29.4502C23.1098 30.5814 22.1368 32.0722 21.3466 34.1794C20.6411 36.0608 20.2549 36.7074 20.0237 37.0944C19.7907 37.4846 19.7152 37.6109 19.629 38.4733C19.5531 39.2325 19.2453 40.5956 18.8649 42.281C18.3845 44.4087 17.7882 47.05 17.3962 49.6375C16.9278 52.7291 19.4024 56.9106 20.6595 58.0535C22.5489 59.7711 26.8428 63.3779 29.4191 64.0649C29.7251 64.1795 30.1675 64.3937 30.5031 64.5563C30.8186 64.7091 31.0398 64.8162 30.9649 64.752C29.7632 63.722 30.2467 62.9958 30.4493 62.6914L30.4496 62.6909C30.4582 62.678 30.3877 62.6224 30.2934 62.548C30.0368 62.3456 29.6037 62.0039 30.1061 62.0039C30.2136 61.7888 30.4161 61.8837 30.5774 61.9593C30.6737 62.0044 30.7553 62.0427 30.7931 62.0039C30.8483 61.9474 30.8805 61.9734 30.9076 61.9953C30.9271 62.0111 30.944 62.0248 30.9649 62.0039C30.7359 61.6031 30.1061 61.1451 29.5908 61.1451C29.3967 61.1451 29.0509 60.6354 28.6835 60.0939C28.5285 59.8655 28.3697 59.6314 28.2168 59.4275C27.7015 58.7405 26.8428 57.7679 26.8428 58.0535C26.8428 58.2774 26.5961 58.4878 26.1557 57.8817C26.0517 57.7386 25.9643 57.6263 25.8865 57.5265C25.7948 57.4087 25.7165 57.3082 25.6405 57.1947C25.601 57.1359 25.516 57.0424 25.4179 56.9345C25.1667 56.6582 24.8299 56.2877 24.9534 56.1642C25.1252 55.9924 25.1252 55.8207 25.1252 55.6489C25.1252 55.5787 24.9816 55.4223 24.8236 55.2502C24.5952 55.0015 24.3366 54.7199 24.4382 54.6184C24.578 54.4786 25.1183 54.8418 25.5442 55.128L25.5445 55.1282C25.6417 55.1936 25.733 55.255 25.8122 55.3054C27.5918 56.1952 29.8569 57.6501 31.2393 58.538C31.458 58.6784 31.6546 58.8047 31.8237 58.9123C32.8254 59.5497 37.6634 60.9733 38.5222 60.8016C39.5527 61.1451 40.7196 61.3724 41.6138 61.4886C42.3867 61.3598 42.9941 61.4242 43.3736 61.4645C43.5001 61.4779 43.6013 61.4886 43.6748 61.4886C44.6367 61.4886 44.8199 62.0039 44.7054 62.1756C44.8771 62.0039 45.5985 61.4886 47.1099 61.4886C47.9378 61.4886 49.4046 61.3856 50.7314 61.2923C51.827 61.2154 52.8271 61.1451 53.2932 61.1451C54.3237 61.1451 54.1519 61.4886 54.1519 61.4886C54.4954 61.2596 55.3199 61.1451 55.8695 61.1451C55.9032 61.1451 55.9494 61.1073 56.0093 61.0583C56.2048 60.8983 56.546 60.6193 57.0718 61.1451C57.1098 61.1831 57.2229 61.0991 57.3762 60.9852C57.7186 60.7307 58.2617 60.327 58.6176 60.8016C60.0338 60.5638 61.7447 60.215 63.1633 59.9258C64.8177 59.5885 66.0746 59.3322 66.0031 59.4275C65.6679 59.8745 61.1939 61.3169 58.6176 61.3169C58.44 61.3591 58.3831 61.3831 58.3166 61.4112C58.2677 61.4319 58.2135 61.4547 58.1023 61.4886C58.0585 61.502 58.0347 61.5301 58.003 61.5676C57.9456 61.6354 57.8622 61.734 57.5871 61.8321C56.9 61.4886 56.213 61.6604 55.8695 62.1756C56.213 62.3474 56.7283 62.5191 59.2659 61.9576C59.5547 61.9263 59.8442 61.8946 60.1263 61.8637C60.8672 61.7825 61.5575 61.7068 62.0527 61.6604C62.2093 61.7386 62.2411 61.9031 62.27 62.0522C62.3045 62.2302 62.3347 62.3863 62.568 62.3474C63.5985 62.1756 64.5819 61.8998 65.4878 61.4886C65.3161 60.8016 66.0729 60.652 66.3466 60.6298C66.476 60.6194 66.1749 61.1451 66.0031 61.1451C65.8313 61.4886 65.5798 62.5435 65.6596 62.8627C66.046 62.9915 66.1426 62.8305 66.2393 62.6694C66.2715 62.6158 66.3037 62.5621 66.3466 62.5191C66.3466 62.5191 66.0031 62.1756 66.1749 61.8321C66.3466 61.4886 66.6901 61.4886 66.6901 61.4886L67.8924 60.9733L68.4077 60.4581C68.7817 60.2399 69.3595 60.0658 70.03 59.8638C70.5909 59.6947 71.2169 59.5061 71.8428 59.2558C72.4652 59.0068 72.9819 58.7484 73.4727 58.503C74.0654 58.2067 74.6203 57.9292 75.2779 57.71C75.4718 57.6453 75.6991 57.5347 75.9243 57.4251C76.406 57.1906 76.8784 56.9607 76.9955 57.1947C77.1231 57.45 77.1743 57.345 77.2768 57.135C77.421 56.8394 77.6667 56.3359 78.3695 56.3359C78.4665 56.3359 78.9002 56.1157 79.3972 55.8633C80.108 55.5022 80.9482 55.0755 81.1176 55.1336C81.2338 55.1735 81.2761 55.6096 80.7741 55.9924C80.5052 56.1975 80.09 56.3887 79.7574 56.5418C79.4474 56.6845 79.2093 56.7942 79.2283 56.8512C79.4629 56.779 79.8289 56.6786 80.2397 56.5658C81.1322 56.3208 82.2363 56.0178 82.6634 55.8207C83.6942 55.3449 84.542 54.7594 85.4264 54.1485C86.4577 53.4361 87.539 52.6893 89.0184 52.042C91.2169 51.0802 92.11 52.2138 92.4535 52.9008C92.665 52.7195 95.0298 51.5268 95.7169 51.5268C96.0251 51.5268 96.6184 51.2485 97.1322 51.0075C97.4774 50.8456 97.7867 50.7006 97.9497 50.668C99.7648 50.305 100.44 50.6021 101.061 50.875C101.169 50.9225 101.275 50.9691 101.385 51.0115C101.385 51.0115 99.5814 51.4409 97.2627 52.3855C94.944 53.3302 93.1405 54.2749 93.1405 54.2749C92.6279 54.5678 91.9981 55.2589 91.2512 56.0786C90.8304 56.5404 90.3724 57.043 89.8772 57.5382C89.5439 57.8715 88.9385 58.3733 88.2396 58.9526C86.7344 60.2002 84.7957 61.8071 84.2092 62.8627C85.068 62.8627 86.442 62.6909 89.3619 60.6298C91.1212 59.388 92.5809 57.8862 93.4165 57.0267C93.861 56.5693 94.1289 56.2938 94.1711 56.3359C94.3428 56.5077 90.4597 60.6999 88.6749 62.3474C87.3986 63.5255 86.3597 64.2154 85.5681 64.741C84.9749 65.1349 84.5205 65.4366 84.2092 65.7825C84.1245 65.8767 84.0397 65.9703 83.9547 66.0635C84.2589 65.9928 84.523 65.9543 84.7245 65.9543C85.526 65.9543 87.3695 66.4352 88.3314 68.3588C89.4904 70.6769 90.8091 71.2392 91.9796 71.7383L91.9806 71.7387L92.11 71.794C93.3123 72.3092 95.5928 73.7363 97.0909 75.4008C97.8555 76.2503 98.1158 76.9738 98.3084 77.5088C98.5052 78.0556 98.6311 78.4056 99.152 78.4924C99.7283 78.5885 99.9192 79.1801 100.112 79.7759C100.224 80.1233 100.336 80.4722 100.526 80.7253C101.041 81.4123 101.385 83.9886 101.557 86.3932C101.728 88.7978 100.183 93.0917 99.6673 93.4352C99.3542 93.6439 99.0412 94.55 98.7666 95.3446C98.5893 95.8578 98.428 96.3246 98.2932 96.5268C97.9497 97.0421 96.7474 99.6184 96.7474 99.9619C96.7474 100.22 96.4576 100.767 96.1677 101.315C96.0711 101.497 95.9745 101.679 95.8886 101.851C95.6138 102.401 95.2016 104.027 95.0298 104.771C94.8008 105.344 94.2741 106.592 93.9993 107.004C93.7245 107.416 93.9993 107.863 94.1711 108.034V111.126C94.1711 111.968 93.9232 113.059 93.7111 113.991C93.4908 114.961 93.309 115.76 93.484 115.935C93.683 116.134 94.1701 115.757 94.7117 115.337C95.1051 115.033 95.5273 114.706 95.8886 114.561C96.3961 114.358 97.6832 114.155 98.9703 113.952C99.8614 113.812 100.752 113.671 101.385 113.531C102.931 113.187 107.053 112.5 107.912 112.5C108.07 112.5 108.322 112.465 108.633 112.422L108.633 112.422C110.004 112.231 112.504 111.882 113.064 113.702C113.679 115.701 111.267 116.323 109.892 116.678L109.787 116.705L109.721 116.723L109.676 116.734C109.598 116.755 109.525 116.775 109.457 116.794C108.699 117.011 105.211 117.705 102.349 118.275L102.348 118.275C100.671 118.609 99.208 118.9 98.6367 119.027C97.5845 119.261 97.4077 120.052 97.2395 120.804C97.1607 121.156 97.0837 121.501 96.9192 121.775C96.4039 122.634 96.2321 125.21 96.4039 126.928C96.5756 128.645 97.2627 132.939 104.305 132.08C109.938 131.393 111.003 127.901 110.831 126.241C110.831 126.069 110.442 126.069 108.77 126.069C106.537 126.069 104.82 125.725 103.789 125.038C102.382 124.1 102.072 122.805 102.072 122.462C102.072 122.344 102.011 122.266 101.938 122.173C101.799 121.996 101.616 121.764 101.728 121.088C101.866 120.263 102.53 120.286 102.759 120.401C102.931 120.057 103.48 119.267 104.992 118.855C106.503 118.443 109.629 118.569 111.003 118.683C114.037 118.741 120.759 118.889 123.37 119.027C126.633 119.199 131.614 119.542 134.705 121.088C137.797 122.634 136.423 124.18 135.221 125.21C136.423 126.069 136.767 127.786 133.331 128.473C131.5 128.84 129.717 128.083 128.478 127.557C127.393 127.097 126.724 126.813 126.805 127.615C126.924 128.807 127.311 129.439 127.56 129.847L127.561 129.848L127.572 129.866C127.589 129.894 127.605 129.92 127.62 129.946L127.63 129.963L127.645 129.987L127.656 130.006L127.663 130.019C128.408 131.05 130.927 133.042 135.049 132.767C139.642 132.461 139.458 127.923 139.364 125.604L139.364 125.603L139.364 125.601L139.364 125.601C139.353 125.319 139.343 125.071 139.343 124.867C139.343 122.977 138.999 121.775 138.484 120.057C138.032 118.549 137.447 118.365 136.264 117.994L136.263 117.994C136.099 117.942 135.924 117.887 135.736 117.825C134.499 117.412 131.671 116.966 130.412 116.794C129.324 116.851 126.805 116.76 125.431 115.935C123.713 114.905 124.228 113.702 124.915 112.672C125.545 111.727 127.908 112.226 128.958 112.448L128.959 112.448L129.062 112.47C129.116 112.481 129.165 112.491 129.209 112.5C130.068 112.672 134.19 112.844 135.736 112.844C137.282 112.844 140.373 113.531 141.747 113.874C142.535 114.071 143.717 114.944 144.809 115.751C145.623 116.353 146.387 116.917 146.9 117.138C147.862 117.55 149.362 119.943 149.992 121.088C149.763 120.229 149.305 118.477 149.305 118.34C149.305 118.168 148.446 116.966 148.102 116.622C147.931 116.451 147.759 116.021 147.587 115.592C147.415 115.162 147.244 114.733 147.072 114.561C146.728 114.218 146.213 112.5 146.213 111.985C146.213 111.766 146.151 111.548 146.093 111.343C146.014 111.064 145.942 110.809 146.041 110.611C146.171 110.352 146.982 111.457 147.448 112.092L147.448 112.092L147.448 112.092C147.601 112.3 147.717 112.458 147.759 112.5C147.896 112.638 147.931 111.985 147.931 111.641C147.816 111.126 147.553 109.958 147.415 109.409C147.244 108.721 147.244 108.485 147.415 108.721C147.587 108.958 148.102 108.378 147.931 108.378C147.759 108.378 147.244 108.034 147.244 107.691C147.244 107.347 146.9 106.317 146.557 105.458C146.282 104.771 146.099 104.07 146.041 103.805L146.9 104.771C146.786 104.256 146.522 103.122 146.385 102.71C146.247 102.298 145.755 100.134 145.526 99.1031C145.641 99.9047 145.87 101.576 145.87 101.851C145.87 101.947 145.897 102.151 145.928 102.387L145.928 102.388L145.928 102.39C146.008 102.997 146.117 103.816 145.87 103.569C145.526 103.225 145.526 102.367 145.526 102.023C145.526 101.748 144.496 100.076 143.98 99.2749C144.324 100.019 145.045 101.576 145.183 101.851C145.246 101.978 145.239 102.266 145.231 102.615C145.218 103.215 145.2 103.993 145.526 104.428C145.849 104.858 145.969 105.626 146.057 106.181C146.109 106.512 146.149 106.768 146.213 106.832C146.35 106.97 146.728 107.576 146.9 107.863C147.015 108.435 147.244 109.683 147.244 110.096C147.244 110.362 147.382 110.86 147.491 111.253L147.491 111.253C147.593 111.62 147.67 111.896 147.587 111.813C147.415 111.641 146.728 110.267 146.728 109.752C146.728 109.436 146.535 108.992 146.346 108.557C146.226 108.281 146.108 108.01 146.041 107.777C145.904 107.296 145.068 105.802 144.667 105.115C144.839 105.458 145.183 106.214 145.183 106.489C145.183 106.763 145.755 108.435 146.041 109.237C145.87 109.008 145.457 108.309 145.183 107.347C145.046 106.87 144.748 106.096 144.459 105.346C144.019 104.205 143.601 103.122 143.809 103.225C144.083 103.363 144.496 104.199 144.667 104.599V103.741L144.152 102.71C144.015 102.435 143.522 101.679 143.293 101.336L143.98 102.023C144.038 101.966 144.118 101.714 143.98 101.164C143.843 100.615 143.465 98.9886 143.293 98.2444C143.236 98.4734 143.053 98.6738 142.778 97.6432C142.503 96.6127 141.862 95.7825 141.576 95.4963C141.518 95.9543 141.438 96.939 141.576 97.2138L142.263 98.5879V99.4467L141.06 98.2444V98.7596C141.175 98.8741 141.541 99.2062 142.091 99.6184C142.641 100.031 143.007 101.279 143.121 101.851C142.892 101.622 142.434 101.096 142.434 100.821C142.434 100.546 141.747 100.134 141.404 99.9619C141.404 100.248 141.438 100.889 141.576 101.164C141.713 101.439 142.434 102.996 142.778 103.741C141.919 102.767 140.03 100.58 139.343 99.6184L139.311 99.5738L139.296 99.5524L139.242 99.4784L139.16 99.3645C138.236 98.0864 136.482 95.6605 134.877 90.6871C133.16 85.3627 136.013 80.4479 136.938 79.523C137.454 79.0077 138.083 78.6642 138.484 78.836C138.539 78.7627 138.654 78.6519 138.793 78.5172L138.794 78.5164C139.091 78.23 139.5 77.8354 139.686 77.4619C139.944 76.9466 140.975 76.6246 141.619 76.4233C141.833 76.3562 142.005 76.3026 142.091 76.2596C142.364 76.123 142.311 76.3124 142.192 76.7413C142.161 76.8516 142.126 76.9778 142.091 77.1184C141.954 77.668 140.431 79.294 139.686 80.0382C140.144 79.6947 141.129 78.939 141.404 78.6642C141.679 78.3894 143.236 76.9466 143.98 76.2596C143.809 76.6031 143.362 77.4619 142.95 78.1489C142.778 78.4352 142.492 78.8169 142.205 79.1986C141.633 79.9619 141.06 80.7253 141.404 80.7253C141.724 80.7253 142.771 79.2702 143.684 78.0018L143.684 78.0014C144.242 77.2259 144.75 76.5203 145.011 76.2596C145.296 75.9742 145.557 75.5279 145.816 75.086C146.262 74.324 146.7 73.5746 147.244 73.6833C147.756 73.7858 147.902 73.6436 148.447 73.1106C148.815 72.7505 149.366 72.2122 150.335 71.4505C152.705 69.5886 155.373 70.1337 156.518 70.7634C156.768 70.6386 157.126 70.3326 157.62 69.911L157.62 69.9108C157.806 69.7521 158.011 69.5772 158.236 69.3894C159.06 68.7024 157.549 66.813 156.518 65.9543C156.612 66.0294 156.8 66.1589 157.093 66.3378C156.195 65.6795 154.826 64.7263 154.114 64.2367C153.564 64.2367 153.541 63.7787 153.599 63.5497C153.77 63.5497 154.114 63.4466 154.114 63.0344C154.114 62.6222 152.053 59.542 151.022 58.0535L153.255 62.5191C152.969 62.2901 152.328 61.7291 152.053 61.3169C151.778 60.9046 150.679 58.855 150.163 57.8817C150.278 58.1107 150.576 58.7405 150.85 59.4275C151.125 60.1146 151.767 63.2634 152.053 64.752C151.824 64.1222 151.331 62.6565 151.194 61.8321C151.057 61.0077 149.419 59.084 148.618 58.2253L150.415 61.959C149.687 60.6287 148.275 58.6689 146.213 57.3665C148.102 58.5688 148.618 60.9733 148.618 62.1756C148.618 63.3779 147.244 63.5497 145.87 63.5497C144.961 63.5497 144.353 62.8738 143.896 62.3663C143.662 62.1062 143.468 61.8903 143.293 61.8321C143.172 61.7916 143.05 61.7415 142.922 61.6885C142.506 61.5173 142.019 61.3169 141.232 61.3169C140.408 61.3169 139.286 59.8283 138.828 59.084C139.057 59.2558 139.583 59.6336 139.858 59.7711C140.202 59.9428 140.202 59.4275 139.858 59.2558C139.735 59.1942 139.612 59.0884 139.465 58.9622C139.202 58.7365 138.863 58.4456 138.312 58.2253C137.733 57.9936 137.857 57.9181 138.157 57.7355C138.302 57.6473 138.488 57.5342 138.656 57.3665C139.205 57.3665 139.228 57.5955 139.171 57.71L140.889 58.2253C140.602 58.0535 139.996 57.6413 139.858 57.3665C139.755 57.1604 139.652 57.1398 139.549 57.1191C139.48 57.1054 139.412 57.0917 139.343 57.023C139.171 56.8512 137.797 56.5077 137.625 56.6794C137.454 56.8512 136.595 55.8207 136.938 55.1336C137.147 54.7156 136.848 54.6791 136.503 54.6372C136.282 54.6103 136.042 54.5811 135.908 54.4466C135.633 54.1718 135.106 53.9886 134.877 53.9314V54.4466C134.705 54.3321 134.156 54.0688 133.331 53.9314C132.68 53.8228 132.646 53.4395 132.623 53.1723C132.609 53.0169 132.599 52.9008 132.473 52.9008C132.198 52.9008 131.442 52.7863 131.099 52.7291C130.927 52.7863 130.583 52.9695 130.583 53.2443V53.7596C130.469 53.8168 130.205 53.9657 130.068 54.1031L129.725 54.4466C129.667 54.2749 129.587 53.897 129.725 53.7596L129.553 53.9314L129.037 53.4161L129.725 52.7291C129.553 52.6146 129.141 52.3855 128.866 52.3855C128.723 52.3855 128.522 52.3266 128.286 52.2576C127.953 52.1599 127.551 52.042 127.148 52.042H126.118L126.289 52.5573C126.461 52.6718 126.873 52.9008 127.148 52.9008C127.368 52.9008 127.377 52.9713 127.4 53.1572C127.413 53.2617 127.43 53.4025 127.492 53.5878C127.629 54.0001 127.32 54.7329 127.148 54.6184C126.919 54.5611 126.461 53.897 126.461 53.7596C126.461 53.6222 126.003 53.3588 125.774 53.2443C125.717 53.1298 125.602 52.8665 125.602 52.7291C125.602 52.6718 125.621 52.6146 125.641 52.5573C125.679 52.4428 125.717 52.3283 125.602 52.2138C125.512 52.1237 125.375 52.1754 125.19 52.2449C125.023 52.3079 124.817 52.3855 124.572 52.3855H119.076C118.732 52.3855 119.763 52.7291 120.106 52.7291H121.308C121.745 52.7291 121.904 52.7291 122.05 52.773C122.134 52.7983 122.214 52.8381 122.339 52.9008C122.398 52.9303 122.452 52.9598 122.504 52.9884C122.757 53.1265 122.972 53.2443 123.541 53.2443H124.228L125.774 53.9314C125.602 53.9886 125.121 54.0688 124.572 53.9314C124.228 53.8455 124.099 53.8455 123.949 53.8455C123.799 53.8455 123.627 53.8455 123.198 53.7596C122.339 53.5878 122.167 53.7596 121.995 53.9314C121.858 54.0688 120.679 53.8741 120.106 53.7596C119.133 53.8741 116.534 54.0344 113.923 53.7596C111.505 53.5051 108.24 54.0047 105.522 54.4205C104.571 54.5659 103.687 54.7011 102.931 54.7901C100.595 55.0649 96.8046 56.1642 95.2016 56.6794C95.4878 56.3932 95.8886 55.752 95.2016 55.4772C94.5146 55.2023 93.5413 55.1336 93.1405 55.1336C94.0565 54.9619 96.2321 54.584 97.6062 54.4466C99.3237 54.2749 101.213 53.4161 100.526 53.2443C99.9764 53.1069 96.4039 53.7596 94.6863 54.1031C95.0871 53.8168 96.3352 53.1413 98.1214 52.7291C98.7501 52.584 99.297 52.4389 99.8006 52.3053C101.086 51.9645 102.088 51.6985 103.446 51.6985C104.725 51.6985 104.43 51.4623 104.105 51.2031C103.951 51.0795 103.789 50.9507 103.789 50.8397C103.475 50.6826 103.233 50.6692 102.914 50.6517C102.537 50.6308 102.052 50.604 101.213 50.3245C101.101 49.8752 100.474 49.7932 99.7179 49.6941C99.3176 49.6417 98.881 49.5846 98.4649 49.4657C97.3091 49.3606 97.2461 49.4484 97.214 49.4931C97.1937 49.5214 97.1858 49.5324 96.9191 49.4657C96.2321 49.2939 98.1214 47.9199 99.4955 47.5764C100.459 47.3354 101.085 47.6016 101.788 47.9006C102.087 48.0278 102.4 48.1609 102.759 48.2634C103.961 48.6069 103.789 47.9199 102.759 47.5764C102.507 47.4923 102.265 47.4288 102.053 47.3733C101.401 47.202 101.038 47.1068 101.557 46.7176C102.244 46.2023 104.305 45.5153 104.992 45.3436C105.679 45.1718 106.194 45.5153 106.194 46.0306C106.194 46.3467 106.647 46.0163 107.115 45.674C107.411 45.4585 107.712 45.2382 107.912 45.1718C108.427 45 109.973 44.4848 110.66 44.313C111.162 44.1875 112.215 44.2455 112.946 44.2858C113.215 44.3006 113.441 44.313 113.579 44.313C113.869 44.313 114.321 43.988 114.844 43.6118C115.252 43.3181 115.704 42.9931 116.156 42.7672C116.852 42.4192 117.313 42.5413 117.751 42.6572C117.961 42.7129 118.166 42.7672 118.389 42.7672C118.791 42.7672 119.37 42.6493 119.85 42.5517C120.19 42.4826 120.479 42.4237 120.621 42.4237H122.167C122.442 42.4237 122.937 42.3137 123.53 42.1819L123.531 42.1818L123.531 42.1817C124.421 41.9839 125.534 41.7367 126.461 41.7367C128.007 41.7367 130.583 42.2519 132.816 43.2825C134.347 43.9889 134.747 43.969 135.291 43.9419C135.54 43.9294 135.819 43.9155 136.251 43.9695C136.784 44.0361 137.188 44.0252 137.493 44.017C137.973 44.004 138.207 43.9977 138.312 44.313C138.413 44.6162 139.05 44.9194 139.906 45.3275C140.505 45.6131 141.212 45.9499 141.919 46.3741C142.397 46.6608 142.662 46.8545 142.84 46.9847L142.841 46.985C142.985 47.0906 143.073 47.1544 143.17 47.1922C143.319 47.2498 143.49 47.247 143.924 47.2399C144.115 47.2368 144.356 47.2329 144.667 47.2329C146.019 47.2329 148.331 48.7103 150.15 49.8726C151.105 50.4827 151.923 51.0059 152.396 51.1833C153.211 51.4888 153.543 51.432 154.108 51.3351C154.495 51.2686 154.993 51.1833 155.831 51.1833C157.48 51.1833 159.61 52.5573 160.469 53.2443C160.87 52.9581 161.912 52.5573 162.873 53.2443C163.835 53.9314 163.045 54.3321 162.53 54.4466L164.247 55.1336C163.961 54.8474 163.389 54.1375 163.389 53.5878C163.389 52.9008 165.965 53.4161 166.824 53.9314C167.314 54.2252 167.859 54.2398 168.684 54.2617C169.305 54.2783 170.084 54.299 171.118 54.4466C172.956 54.7093 172.184 54.9721 171.411 55.2347C171.173 55.3155 170.936 55.3964 170.774 55.4772C170.513 55.6076 170.203 55.7133 169.965 55.7942C169.577 55.9264 169.383 55.9924 169.915 55.9924H175.068C175.826 55.9924 176.015 55.9924 176.02 56.0219C176.021 56.0317 176.002 56.0448 175.977 56.0623C175.906 56.1113 175.785 56.1945 175.927 56.3359C176.15 56.5588 176.228 56.4925 176.537 56.2308L176.537 56.2305C176.704 56.0889 176.939 55.8901 177.301 55.6489C178.134 55.0937 178.294 55.2115 178.505 55.3678C178.556 55.4049 178.609 55.4442 178.675 55.4772C178.922 55.6008 179.259 55.4573 179.62 55.3031C179.761 55.2432 179.905 55.1817 180.049 55.1336C180.307 55.0478 180.693 55.1766 181.144 55.3269C181.595 55.4772 182.11 55.6489 182.625 55.6489C183.38 55.6489 183.49 55.4648 183.629 55.2314C183.681 55.146 183.736 55.0539 183.828 54.9619C184.005 54.7845 184.228 54.8361 184.521 54.9039C184.795 54.9674 185.13 55.0449 185.545 54.9619C186.404 54.7901 186.747 54.9619 186.919 55.6489C187.081 56.2962 186.938 56.4861 186.49 57.0806L186.486 57.0856L186.485 57.0864L186.46 57.1207L186.404 57.1947C185.889 57.8817 184.171 58.0535 182.969 58.0535H179.534C179.076 58.0535 179.152 58.2062 179.152 58.2062C179.152 58.2062 179.133 58.168 179.018 58.0535C178.675 57.71 178.16 58.7405 178.503 59.084C178.786 59.3667 179.301 59.1842 180.049 58.9192C180.21 58.8622 180.382 58.8014 180.564 58.7405C181.595 58.397 182.282 58.5688 182.969 58.7405C183.427 58.855 184.038 58.8169 184.648 58.7787C184.954 58.7596 185.259 58.7405 185.545 58.7405C186.404 58.7405 186.06 59.2558 185.545 59.4275C185.24 59.5292 184.815 59.4504 184.377 59.3691C184.074 59.3131 183.765 59.2558 183.484 59.2558C183.137 59.2558 183.097 59.4755 183.053 59.7149C183.011 59.9488 182.965 60.2014 182.625 60.2863C182.404 60.3416 182.254 60.3969 182.135 60.4407C181.885 60.533 181.772 60.5745 181.423 60.4581C181.197 60.3828 181.004 60.3405 180.83 60.3023C180.607 60.2533 180.414 60.211 180.221 60.1146C180.072 60.0401 180.02 60.0947 179.925 60.1945C179.8 60.325 179.602 60.5325 179.018 60.6298L178.938 60.6432L178.74 60.6767C178.32 60.7481 178.175 60.7728 178.036 60.751C177.963 60.7394 177.891 60.7146 177.782 60.6767L177.781 60.6763C177.741 60.6625 177.696 60.647 177.644 60.6298C177.129 60.4581 175.927 60.4581 175.068 60.4581C174.499 60.4581 174.307 60.2321 174.093 59.9796C173.983 59.8509 173.868 59.7153 173.694 59.5993C173.469 59.4496 173.441 59.5282 173.38 59.6929C173.302 59.9063 173.17 60.2642 172.492 60.4581C171.786 60.6598 171.731 60.6246 171.633 60.5612C171.563 60.5166 171.472 60.4581 171.118 60.4581C170.259 60.4581 169.915 60.1146 169.572 59.5993C169.228 59.084 168.198 59.2558 169.057 60.1146C169.662 60.7202 169.243 60.7279 168.582 60.74C168.305 60.7451 167.986 60.751 167.683 60.8016C167.003 60.9148 166.623 60.655 166.344 60.4647C166.199 60.3662 166.082 60.2863 165.965 60.2863C165.621 60.2863 165.278 60.6298 165.278 61.3169C165.278 61.7135 165.392 61.6521 165.621 61.5294C165.789 61.4396 166.018 61.3169 166.309 61.3169C166.571 61.3169 166.708 61.2918 166.825 61.2704C167.015 61.2358 167.152 61.2107 167.683 61.3169C168.001 61.3806 168.273 61.397 168.488 61.4101C168.853 61.4321 169.057 61.4444 169.057 61.6604C169.057 61.9036 169.487 61.9746 169.982 62.0563C170.187 62.09 170.402 62.1255 170.602 62.1756C171.012 62.2781 171.055 62.2583 171.206 62.1892C171.307 62.1425 171.458 62.0732 171.805 62.0039C172.301 61.9047 172.338 61.9773 172.414 62.1225C172.469 62.2288 172.545 62.374 172.835 62.5191C173.522 62.8627 174.038 62.5191 174.553 62.1756C174.92 61.9309 175.461 61.9477 176.425 61.9776C176.815 61.9897 177.273 62.0039 177.816 62.0039C178.942 62.0039 179.031 62.0039 179.101 61.9675C179.104 61.9657 179.108 61.9639 179.111 61.9619L179.119 61.9573C179.163 61.932 179.231 61.8927 179.534 61.8321C180.153 61.7083 180.504 62.0309 180.781 62.285C180.888 62.3832 180.984 62.4712 181.08 62.5191C181.423 62.6909 181.595 62.5191 181.938 62.0039C182.193 61.6212 182.638 61.7122 182.991 61.7844C183.113 61.8094 183.224 61.8321 183.312 61.8321C183.587 61.8321 183.999 62.2901 184.171 62.5191H182.969C182.685 62.5191 182.401 62.6754 182.146 62.8157C181.938 62.9303 181.749 63.0344 181.595 63.0344C181.451 63.0344 181.398 62.9746 181.347 62.9173C181.275 62.8374 181.208 62.7626 180.908 62.8627C180.393 63.0344 180.049 63.0344 179.534 63.0344C179.018 63.0344 178.675 63.0344 178.16 63.3779C177.792 63.6233 177.599 63.6058 177.268 63.5757C177.136 63.5637 176.982 63.5497 176.786 63.5497C176.682 63.5497 176.51 63.5457 176.298 63.5408H176.297C175.107 63.5134 172.622 63.4561 173.35 63.8932C174.14 64.3667 174.349 64.26 174.911 63.973L174.914 63.9712C174.947 63.9544 174.981 63.937 175.017 63.919L175.052 63.9013L175.068 63.8932C175.48 63.6871 176.078 63.852 176.676 64.0169C177.074 64.1268 177.473 64.2367 177.816 64.2367C178.089 64.2367 178.344 64.2021 178.571 64.1713C179.059 64.1052 179.416 64.0567 179.534 64.4085C179.705 64.9237 179.362 65.0955 179.018 65.0955C178.675 65.0955 176.442 65.6107 175.927 65.7825C175.412 65.9543 173.35 65.7825 171.805 65.6107C170.568 65.4734 167.625 65.21 166.309 65.0955C166.709 65.21 167.992 65.5077 169.915 65.7825C170.681 65.8919 171.255 65.9664 171.732 66.0283L171.732 66.0284L171.735 66.0288C172.754 66.161 173.329 66.2357 174.381 66.4695C175.6 66.7404 175.965 66.4771 176.486 66.101L176.486 66.1007L176.486 66.1004L176.487 66.1002C176.626 65.9996 176.776 65.8911 176.957 65.7825C177.816 65.2672 178.331 65.439 178.675 65.7825C179.018 66.126 179.877 66.2978 180.564 66.126C181.114 65.9886 181.137 66.7558 181.08 67.1566C181.366 67.0421 182.076 66.71 182.625 66.2978C183.008 66.011 183.496 66.0966 183.914 66.1697C184.247 66.228 184.534 66.2784 184.686 66.126C184.915 65.897 185.144 65.9734 185.373 66.0497C185.488 66.0879 185.602 66.126 185.717 66.126C185.805 66.126 185.972 66.1486 186.178 66.1764C186.774 66.2571 187.694 66.3814 187.95 66.126C188.195 65.8807 188.44 66.0734 188.686 66.2662C188.784 66.3433 188.882 66.4205 188.98 66.4695C189.193 66.5757 189.274 66.4194 189.386 66.2035C189.455 66.07 189.536 65.9137 189.667 65.7825C189.88 65.5702 190.158 65.6203 190.542 65.6896C190.779 65.7324 191.057 65.7825 191.385 65.7825C191.978 65.7825 192.408 65.4545 192.673 65.2518C192.792 65.1611 192.878 65.0955 192.931 65.0955H194.133C194.648 64.8665 195.954 64.4085 197.053 64.4085C198.068 64.4085 198.521 63.846 198.757 63.5521C198.841 63.4483 198.897 63.3779 198.942 63.3779H200.144C200.488 63.3779 201.003 63.2062 201.347 63.0344C201.622 62.897 201.919 62.2901 202.034 62.0039L202.205 62.5191H202.721L203.064 61.8321C203.351 61.8894 203.992 61.9352 204.267 61.6604C204.541 61.3856 205.412 60.6298 205.812 60.2863H206.671C207.077 60.2863 207.072 59.8419 207.017 59.6098C207.096 59.8814 208.052 59.7009 211.309 56.8512C215.144 53.495 214.221 48.3542 213.798 45.9954C213.766 45.8192 213.737 45.6585 213.713 45.5153C213.37 43.4542 208.217 33.1489 205.812 30.5725C203.889 28.5115 199.286 17.8054 197.225 12.7099C197.396 12.8817 197.843 13.3626 198.255 13.9122C198.667 14.4618 200.373 17.4619 201.175 18.8931C200.259 16.8321 198.221 12.4008 197.396 11.1641C196.366 9.61833 196.366 7.72902 196.881 7.04199C197.396 6.35497 197.568 6.35497 199.629 11.5076C201.206 15.4506 203.643 18.8698 204.803 20.2619C203.528 18.6934 201.313 14.4657 200.647 12.5571C201.151 13.5133 202.625 15.5337 203.822 17.1752C204.449 18.0359 205.001 18.7924 205.297 19.2367C206.122 20.4733 211.251 26.8512 213.713 29.8855C213.484 29.4275 213.095 28.4771 213.37 28.3397C213.577 28.2361 213.597 28.0075 213.617 27.767C213.631 27.6088 213.645 27.4455 213.713 27.3092C213.885 26.9657 208.56 20.2672 207.186 18.5496C206.087 17.1756 203.637 12.4809 202.549 10.3054C204.381 12.8244 208.08 18 208.217 18.5496C208.325 18.9813 211.891 23.7531 215.166 28.1351L215.167 28.1358L215.168 28.1367L215.169 28.1381C217.105 30.7289 218.939 33.183 219.896 34.5229C222.473 38.1298 225.564 44.1413 225.908 47.0611C226.251 49.981 225.736 53.2443 222.644 58.0535C220.171 61.9008 214.4 64.8092 211.824 65.7825C211.538 66.1833 210.862 67.0191 210.45 67.1566C209.935 67.3283 209.419 68.0153 209.247 68.3588C209.076 68.7024 204.782 70.4199 203.923 70.4199C203.441 70.4199 203.122 70.5821 202.721 70.7852C202.408 70.9441 202.046 71.1279 201.518 71.2787C201.347 71.794 199.114 72.6527 197.568 73.168C197.468 73.2015 197.352 73.2409 197.221 73.2854L197.22 73.2856C195.337 73.9251 190.321 75.6286 182.454 76.4314C175.262 77.1652 172.46 76.2687 171.261 75.8851C171.057 75.8198 170.899 75.7693 170.774 75.7443C169.915 75.5726 166.48 75.0573 164.591 74.8856C164.439 74.8717 164.272 74.8121 164.093 74.7137C164.175 75.3691 164.169 75.9159 164.076 76.2596C163.56 78.1489 162.358 80.0382 159.782 83.4734C158.513 85.1653 158.588 86.1702 158.671 87.2617C158.716 87.873 158.764 88.5115 158.58 89.3131C158.064 91.5459 160.8 102.546 161.156 103.805C161.671 105.63 163.045 113.187 163.217 117.653C162.912 116.84 162.884 116.808 162.855 116.776C162.834 116.754 162.814 116.731 162.702 116.451C162.427 115.763 162.129 113.989 162.015 113.187C162.072 113.874 162.152 115.351 162.015 115.763C161.927 116.028 162.064 116.337 162.242 116.737C162.412 117.118 162.618 117.582 162.702 118.168C162.775 118.679 162.851 119.352 162.944 120.17L162.944 120.172L162.945 120.175C163.059 121.185 163.199 122.415 163.389 123.836C163.732 126.412 162.695 131.241 162.015 133.283C161.818 133.873 161.734 134.69 161.633 135.668L161.633 135.668C161.558 136.396 161.474 137.213 161.328 138.092C160.931 140.47 160.125 143.416 157.205 143.588C154.87 143.725 153.77 140.325 153.77 138.779C153.729 138.841 153.686 138.98 153.635 139.145C153.545 139.435 153.43 139.806 153.255 139.981C153.091 140.145 153.201 140.583 153.305 140.996C153.418 141.448 153.524 141.87 153.255 141.87C152.871 141.87 152.765 142.464 152.699 142.834C152.659 143.061 152.633 143.203 152.568 143.073C152.49 142.917 152.412 142.583 152.334 142.249C152.24 141.849 152.146 141.449 152.053 141.355C151.915 141.218 151.767 140.153 151.709 139.638C151.538 139.695 151.228 139.878 151.366 140.153C151.503 140.428 151.652 142.328 151.709 143.244C151.652 143.073 151.503 142.557 151.366 141.87C151.228 141.183 150.85 140.439 150.679 140.153C150.572 140.224 150.451 140.317 150.308 140.426C149.764 140.845 148.913 141.497 147.415 142.042C145.393 142.778 142.263 143.073 139.686 143.073C138.873 143.073 137.94 143.09 136.958 143.108C134.827 143.147 132.464 143.19 130.583 143.073C129.161 142.984 127.006 142.522 125.158 142.126C123.659 141.805 122.362 141.527 121.824 141.527C121.023 141.527 119.153 141.679 117.284 141.832L117.283 141.832L117.283 141.832L117.282 141.832C116.347 141.909 115.412 141.985 114.61 142.042C112.863 142.167 106.709 142.214 105.163 142.042C103.765 141.887 101.664 142.012 99.115 142.165C98.846 142.181 98.5719 142.197 98.2932 142.214C95.9573 142.351 93.6558 141.813 92.797 141.527C92.9115 142.328 92.9688 143.794 92.9688 144.618C92.9688 144.778 92.9975 145.031 93.0333 145.348C93.2296 147.082 93.6403 150.71 90.7359 151.145C87.8603 151.577 86.9105 149.962 86.4758 149.223L86.4756 149.222C86.3912 149.079 86.3262 148.968 86.2703 148.912C85.7695 148.412 85.755 151.145 85.9268 151.832C86.0985 152.519 85.1821 151.402 84.8962 150.973C84.5527 150.458 84.2092 149.771 83.9731 149.299C83.7369 148.826 83.6081 148.569 83.694 148.912C83.8314 149.462 84.0947 150.744 84.2092 151.317C83.7512 150.63 82.8352 149.187 82.8352 148.912C82.8352 148.755 82.5836 148.348 82.2777 147.853C81.9159 147.267 81.4778 146.558 81.2894 145.993L81.258 145.899C81.2412 145.849 81.2246 145.799 81.2082 145.75L81.1348 145.532C80.7048 144.258 80.4128 143.392 80.2588 141.699C80.2174 141.242 80.0957 140.746 79.9423 140.12C79.4606 138.154 78.6657 134.91 79.0565 127.615C79.5547 118.316 79.4619 118.069 78.8237 116.372C78.6945 116.029 78.543 115.626 78.3695 115.076C77.4662 112.216 77.8542 108.378 78.713 102.538C79.4001 97.8665 80.8314 92.6337 81.4611 90.5154C81.1749 89.8856 80.5337 88.4543 80.2588 87.7673C79.9153 86.9085 78.5561 83.4668 78.713 81.5841C78.8377 80.0877 78.7814 77.5954 78.7411 75.8162L78.7411 75.8146C78.7259 75.1439 78.713 74.5747 78.713 74.1985C78.713 73.4357 78.8719 72.6197 78.9838 72.0449C79.0734 71.5845 79.1329 71.2787 79.0565 71.2787C79.0083 71.2787 78.9736 71.2922 78.9335 71.3079C78.8306 71.3481 78.6919 71.4022 78.1978 71.2787C77.9492 71.2166 77.903 71.042 77.9859 70.7795L76.3084 71.4505C75.4497 71.794 74.7626 72.3092 74.7626 72.3092C74.7652 72.3168 74.7677 72.3247 74.7703 72.3328C74.826 72.5074 74.9143 72.7841 75.9649 72.6527C76.429 72.5947 76.6849 72.402 76.9549 72.1987C77.3245 71.9204 77.7206 71.6222 78.7131 71.6222C78.6695 71.702 78.6204 71.7948 78.5658 71.8979C78.1898 72.6084 77.5518 73.814 76.6519 74.7139C75.9437 75.4221 74.4191 76.9467 72.8734 77.8054C71.3276 78.6642 67.8924 79.3512 67.2054 79.3512C66.9601 79.3512 66.6459 79.4741 66.2742 79.6194C65.6046 79.8812 64.7481 80.216 63.7703 80.0382C61.881 79.6947 60.1634 80.0382 59.9917 80.21C59.8772 80.0382 59.6481 79.8665 58.9611 79.8665C58.4224 79.8665 57.8836 79.9604 57.3694 80.05C56.9 80.1318 56.4511 80.21 56.0412 80.21C55.6855 80.21 54.6815 80.1511 53.5052 80.082C51.8417 79.9844 49.8336 79.8665 48.8275 79.8665C48.1977 79.8092 46.7321 79.7291 45.9077 79.8665C45.0854 80.0035 45.0286 79.8126 44.9519 79.5553C44.9325 79.4901 44.9118 79.4207 44.8771 79.3512C44.7507 79.0984 44.252 79.1247 43.6552 79.1562C43.4411 79.1675 43.2145 79.1795 42.9878 79.1795C42.578 79.1795 42.3637 79.1012 42.1397 79.0194C41.8943 78.9298 41.6372 78.836 41.0985 78.836C40.4452 78.836 40.3441 78.7669 40.2701 78.7164C40.2274 78.6872 40.1937 78.6642 40.068 78.6642C39.7244 78.6642 39.0374 78.4924 38.8657 78.3207C38.7492 78.2042 38.5538 78.2457 38.1188 78.338C37.9122 78.3818 37.6515 78.4372 37.3199 78.4924C36.6151 78.6099 35.9907 78.4061 35.3917 78.2105C35.1147 78.1201 34.8433 78.0315 34.5718 77.9772C33.8496 77.8327 32.0342 76.7166 30.9642 76.0587C30.7619 75.9343 30.5862 75.8263 30.4496 75.7443C29.5908 75.2291 26.8428 72.8245 26.4992 72.481C26.1557 72.1375 25.1252 72.1375 25.2969 72.481C25.4687 72.8245 25.6405 73.168 25.2969 73.3398C25.0866 73.4449 24.7475 73.3569 24.5556 73.2729C24.5887 73.3882 24.5496 73.5719 24.4382 73.6833C24.2664 73.855 24.0947 73.3398 24.0947 73.168C24.0947 73.0969 24.1536 72.9668 24.2226 72.8144C24.3203 72.5989 24.4382 72.3387 24.4382 72.1375C24.4382 71.794 23.7511 72.1375 23.7511 72.3092C23.7511 72.481 23.5794 72.481 23.2359 72.1375C22.9338 71.8354 21.7022 71.799 21.5261 71.7946C21.6613 71.8154 21.8057 72.3719 21.8618 72.6527C22.0908 72.5382 22.7206 72.4123 23.4076 72.8245C24.0596 73.2157 23.7217 73.3099 23.3708 73.4077C23.2595 73.4388 23.1469 73.4702 23.0641 73.5115C22.7206 73.6833 23.4076 74.0268 24.4382 74.0268C25.4687 74.0268 25.8122 74.5421 25.8122 74.7138C25.8122 74.7997 25.5546 74.9715 25.2969 75.1432C25.0393 75.315 24.7817 75.4867 24.7817 75.5726C24.7817 75.7443 25.2969 76.0879 26.1557 76.0879C26.7491 76.0879 27.0145 76.4159 27.1785 76.6186C27.2519 76.7093 27.3049 76.7749 27.358 76.7749C27.5298 76.7749 28.7321 76.9466 28.7321 77.1184C28.7321 77.2382 29.233 77.1909 29.6528 77.1513C29.8351 77.1341 30.0021 77.1184 30.1061 77.1184C30.2779 77.1184 30.6214 77.2902 31.0078 77.4834C31.3943 77.6766 31.8237 77.8913 32.1672 77.9772C32.8542 78.1489 35.2588 78.6642 37.8351 78.6642C39.8962 78.6642 41.0985 79.2367 41.442 79.523C41.4993 79.523 41.7168 79.4886 42.129 79.3512C42.5412 79.2138 42.8733 79.523 42.9878 79.6947C43.0451 79.6947 43.297 79.7291 43.8466 79.8665C44.1901 79.9524 44.5336 79.9524 44.7912 79.9524C45.0489 79.9524 45.2206 79.9524 45.2206 80.0382C45.2206 80.21 43.6748 80.21 42.9878 80.21H40.755C40.4115 80.5535 38.8523 80.4927 36.6328 80.3818C36.3436 80.3673 36.038 80.3541 35.7173 80.3402C33.3688 80.2387 30.2077 80.1021 26.671 79.1795C23.5144 78.356 19.2611 75.5586 16.803 73.9418L16.8027 73.9416C16.1847 73.5351 15.6802 73.2033 15.3351 72.9963C14.8035 72.6773 12.8929 71.2844 12.0717 70.5917C11.6782 70.1981 11.3755 69.8803 11.1169 69.6088C10.6985 69.1695 10.3955 68.8513 10.0107 68.5306C10.0107 68.5306 13.274 70.2482 13.4458 70.2482C13.6175 70.2482 11.5565 69.0459 11.5565 69.0459C11.5565 69.0459 10.5259 68.3588 10.0107 68.1871C9.49544 68.0153 9.32365 67.1566 9.32365 67.1566C9.32365 67.1566 13.6175 68.7024 13.6176 68.5306C13.6176 68.4083 13.0948 68.1117 12.4837 67.765C12.2368 67.6249 11.9753 67.4766 11.7282 67.3283C10.8695 66.813 9.83892 65.439 9.83892 65.439L11.5565 66.2978C12.2435 66.6413 13.1023 66.6413 13.1023 66.6413C13.1023 66.6413 10.3542 65.439 9.15191 64.5802C7.94964 63.7214 5.20972 61.1203 2.96868 57.71C-0.981714 51.6985 0.220591 46.5458 0.907632 43.7978C1.59467 41.0497 8.12137 27.3092 12.7588 20.7825C17.3673 14.2964 20.6596 5.15268 21.0031 3.43512ZM44.8771 62.5191C44.9483 62.5191 45.0489 62.4897 45.1667 62.4552C45.3334 62.4063 45.5347 62.3474 45.7359 62.3474C45.9077 62.8627 45.0489 62.8627 44.7054 62.8627C44.3619 62.8627 43.5031 62.5191 43.6748 62.5191H44.8771ZM56.9 63.2062C56.7283 63.3207 56.3504 63.5497 56.213 63.5497H57.0718C57.2435 63.5497 57.2435 63.2062 56.9 63.2062ZM49.6863 64.9237C49.8237 64.9237 50.3161 64.8092 50.5451 64.752C50.6023 64.8092 50.6825 64.9581 50.5451 65.0955C50.4521 65.1885 50.2584 65.2311 50.0458 65.2779C49.8657 65.3176 49.6721 65.3602 49.5145 65.439C49.171 65.6107 48.6557 65.439 48.6557 65.2672C48.6557 65.1814 48.3122 65.1814 47.9473 65.1814C47.5823 65.1814 47.1958 65.1814 47.1099 65.0955C46.9382 64.9237 48.3122 64.9237 48.6557 64.9237C48.8275 64.9237 48.8704 65.0096 48.9134 65.0955C48.9563 65.1814 48.9993 65.2672 49.171 65.2672C49.3722 65.2672 49.4556 65.1494 49.5246 65.0517C49.5735 64.9827 49.6151 64.9237 49.6863 64.9237ZM59.6481 64.9237C59.6481 65.0382 59.6138 65.2672 59.4764 65.2672C59.4052 65.2672 59.4225 65.3556 59.4427 65.4592C59.4713 65.6057 59.5058 65.7825 59.3046 65.7825C59.1329 65.7825 58.9182 65.8254 58.7035 65.8684C58.4888 65.9113 58.2741 65.9543 58.1023 65.9543C57.9479 65.9543 57.6547 66.0584 57.3319 66.173C56.9365 66.3134 56.4967 66.4695 56.213 66.4695C55.9293 66.4695 55.4895 66.5216 55.0941 66.5684C54.7714 66.6066 54.4781 66.6413 54.3237 66.6413C53.9802 66.6413 53.4649 66.9848 54.1519 66.9848C54.3237 66.9848 54.4954 66.9955 54.6672 67.0063C55.1825 67.0385 55.6977 67.0707 56.213 66.813C56.6217 66.6087 56.9696 66.5867 57.2929 66.5662C57.5131 66.5523 57.7218 66.5391 57.9306 66.4695C58.1179 66.4071 58.396 66.3446 58.6742 66.2822C59.1611 66.1729 59.6481 66.0636 59.6481 65.9543V64.9237ZM28.2168 65.439C27.942 65.3016 27.4153 65.2672 27.1863 65.2672C27.7189 65.4004 28.1483 65.6368 28.4744 65.8163C28.569 65.8684 28.6549 65.9157 28.7321 65.9543C29.0756 66.126 28.5603 65.6107 28.2168 65.439ZM18.5985 68.8741C17.5679 68.7024 16.8809 67.6718 16.8809 67.6718C16.8809 67.6718 18.4099 68.4665 18.942 68.7024C20.316 69.0459 21.003 69.7329 21.003 69.7329C21.003 69.7329 18.7679 68.9024 18.5985 68.8741ZM38.1786 74.5421C37.6634 74.4848 36.5985 74.336 36.4611 74.1985C36.2893 74.0268 34.9153 73.3398 34.7435 73.3398C34.6576 73.3398 34.3141 73.211 33.9706 73.0821C33.6271 72.9533 33.2836 72.8245 33.1977 72.8245C33.0996 72.8245 33.4501 73.0488 33.8006 73.2732C34.0635 73.4414 34.3264 73.6097 34.4 73.6833C34.4859 73.7692 34.7435 73.8121 35.0012 73.855C35.2588 73.898 35.5164 73.9409 35.6023 74.0268C35.7741 74.1985 36.8046 74.7138 38.1786 74.5421ZM37.6634 71.2787C37.921 71.3646 38.3075 71.4075 38.6939 71.4505C39.0804 71.4934 39.4668 71.5363 39.7244 71.6222C41.0985 71.8337 40.4115 72.1375 40.2397 72.1375C40.1769 72.1375 40.0221 72.1145 39.8259 72.0853L39.8255 72.0853C39.4853 72.0348 39.0205 71.9657 38.6939 71.9657C38.1786 71.9657 37.1481 71.1069 37.6634 71.2787ZM42.816 69.9046C42.8733 69.9046 42.8847 69.8703 42.4725 69.7329C42.2149 69.647 41.7855 69.647 41.3561 69.647C40.9267 69.647 40.4973 69.647 40.2397 69.5611C40.0076 69.4838 39.7057 69.4412 39.4284 69.4022C39.0901 69.3545 38.7883 69.312 38.6939 69.2176C38.5222 69.0459 39.0374 69.9046 39.3809 69.9046C39.4742 69.9046 39.6182 69.892 39.7888 69.877C40.2463 69.8367 40.895 69.7796 41.2702 69.9046C41.7855 70.0764 42.6443 70.2482 42.816 69.9046ZM42.4725 71.9657C42.9878 71.9657 43.5031 72.1375 43.6748 72.481H42.6443C42.3695 72.481 41.7283 72.1375 41.442 71.9657H42.4725ZM46.5947 70.2482C46.7664 70.5917 46.9382 70.7634 47.2817 70.7634H49.171C49.5145 70.7634 48.484 70.4199 47.797 70.4199C47.3389 70.4199 47.0336 70.3436 46.83 70.2927C46.7283 70.2672 46.6519 70.2482 46.5947 70.2482ZM51.5756 74.0268C51.7474 74.1985 52.7779 74.1985 52.9496 74.1985C52.8638 74.1985 52.4344 74.2415 52.005 74.2844C51.5756 74.3274 51.1462 74.3703 51.0603 74.3703C50.9975 74.3703 50.7046 74.3473 50.3332 74.3181L50.3325 74.3181C49.6891 74.2676 48.8106 74.1985 48.484 74.1985C47.9687 74.1985 46.2512 73.855 46.4229 73.855C46.4607 73.855 46.5402 73.8467 46.6465 73.8356C47.0234 73.7961 47.7387 73.7211 48.1405 73.855C48.6557 74.0268 50.5451 74.0268 50.8886 74.0268C51.0198 74.0268 51.1259 74.0017 51.2166 73.9803C51.3633 73.9457 51.4694 73.9206 51.5756 74.0268ZM202.964 19.3263C202.662 18.9681 202.448 18.6906 202.377 18.5496C202.283 18.3607 202.461 18.6133 202.83 19.1359L202.83 19.1362L202.964 19.3263ZM202.964 19.3263C204.134 20.7136 206.624 23.3112 207.186 23.8741C208.086 24.7736 209.378 26.7204 210.835 28.9143L210.847 28.9325C211.055 29.246 211.266 29.5644 211.48 29.8855C210.965 29.1985 208.571 26.0963 208.217 25.7634C206.192 23.8576 204.002 20.7953 202.964 19.3263ZM214.228 29.8855C214.343 29.8855 214.606 29.9542 214.744 30.229C214.915 30.5725 215.087 30.9161 214.915 30.9161C214.801 30.9161 214.686 30.7634 214.572 30.6107L214.572 30.6103C214.514 30.5341 214.457 30.4579 214.4 30.4008C214.263 30.2634 214.228 30 214.228 29.8855ZM211.309 65.9543C211.186 65.9543 209.826 66.3321 209.419 66.4695L209.763 66.813L211.309 65.9543ZM208.217 66.9848C208.196 66.9848 208.139 67.0046 208.053 67.0394C208.11 67.0203 208.165 67.002 208.217 66.9848ZM208.053 67.0394C207.153 67.3379 205.598 67.8436 205.469 67.8436C205.383 67.8436 204.782 68.1012 204.181 68.3588C203.58 68.6165 202.978 68.8741 202.893 68.8741C202.755 68.8741 203.064 68.9886 203.236 69.0459C203.809 68.8169 204.988 68.3588 205.125 68.3588C205.211 68.3588 205.941 68.0153 206.671 67.6718L206.672 67.6714C207.226 67.4105 207.781 67.1497 208.053 67.0394ZM173.522 70.5917L172.835 70.2482H172.148C172.034 70.1337 171.77 69.9046 171.633 69.9046H171.118L171.805 70.4199L172.492 70.5917H173.522ZM168.541 71.9657L167.339 71.6222H166.996L166.48 71.2787H165.793L165.45 70.9352L164.247 70.7634L165.45 71.2787L166.309 71.6222L167.339 71.794L168.541 71.9657ZM106.194 50.3245L105.85 49.981H106.194L104.992 49.2939V48.9504H104.305L103.961 49.2939L104.133 49.4657L103.961 49.6375H103.618C103.274 49.752 102.724 49.981 103.274 49.981C103.824 49.981 104.419 49.752 104.648 49.6375L106.194 50.3245ZM104.992 51.5268L105.163 51.6985L105.507 51.8703V52.1279H104.82V51.8703L104.648 51.5268H104.992ZM110.144 48.0917C110.488 47.9199 111.381 47.542 112.205 47.4046L114.266 47.0611C113.98 46.8894 113.339 46.5458 113.064 46.5458C112.892 46.5458 112.764 46.6317 112.635 46.7176C112.506 46.8035 112.377 46.8894 112.205 46.8894C112.062 46.8894 111.949 46.8295 111.84 46.7723C111.689 46.6924 111.547 46.6175 111.347 46.7176C111.175 46.8035 110.96 47.0182 110.745 47.2329C110.531 47.4475 110.316 47.6623 110.144 47.7481C109.944 47.8484 109.685 47.7145 109.435 47.5857C109.258 47.4939 109.085 47.4046 108.942 47.4046C108.784 47.4046 108.625 47.6241 108.466 47.8437C108.281 48.0998 108.096 48.3559 107.912 48.2634C107.769 48.1924 107.627 48.0039 107.498 47.8315C107.313 47.587 107.153 47.3749 107.053 47.5764C106.943 47.7967 107.186 48.0876 107.374 48.3133C107.48 48.4395 107.568 48.5453 107.568 48.6069C107.568 48.7787 108.77 49.1222 109.114 48.7787C109.457 48.4352 109.973 48.0917 110.144 48.0917ZM114.095 49.981C114.266 50.1527 114.61 50.1527 115.469 49.8092C116.328 49.4657 117.873 48.9504 118.389 48.9504C118.904 48.9504 119.763 48.6069 119.763 48.4352C119.763 48.2634 118.389 48.4352 118.045 48.6069C117.873 48.6928 117.487 48.7787 117.1 48.8646C116.714 48.9504 116.328 49.0363 116.156 49.1222C116.051 49.1746 115.85 49.227 115.612 49.2892C115.07 49.4307 114.333 49.6229 114.095 49.981ZM123.97 43.9655C123.743 43.924 123.536 43.8863 123.37 43.9695C123.026 44.1413 121.824 44.6565 121.48 44.6565C121.137 44.6565 122.167 43.9695 122.683 43.9695C122.839 43.9695 123.058 43.9538 123.297 43.9366C123.847 43.897 124.504 43.8498 124.744 43.9695C124.478 44.0581 124.212 44.0096 123.97 43.9655ZM126.461 46.8894C126.289 46.8894 125.087 46.8894 124.4 47.0611C123.713 47.2329 122.339 47.5764 121.995 47.5764C121.652 47.5764 120.965 47.7481 121.48 47.7481C121.719 47.7481 122.217 47.6372 122.751 47.5182C123.368 47.3809 124.032 47.2329 124.4 47.2329C125.087 47.2329 126.633 46.8894 126.461 46.8894ZM166.48 57.023C166.343 57.023 166.194 57.1375 166.137 57.1947L166.824 57.3665C166.767 57.252 166.618 57.023 166.48 57.023ZM165.106 57.71C165.45 57.8817 165.793 58.2253 165.45 58.2253C165.106 58.2253 164.934 58.2253 164.934 58.0535C164.934 57.8817 164.975 57.636 165.106 57.71ZM167.242 55.3142C166.703 55.4258 166.165 55.6489 166.703 55.6489C167.242 55.6489 167.511 55.6489 167.511 55.5373C167.511 55.4258 167.448 55.2661 167.242 55.3142ZM208.732 27.8245C209.247 28.397 210.347 29.6107 210.622 29.8855C210.896 30.1603 211.194 30.6871 211.309 30.9161C210.679 30.1718 209.282 28.5115 208.732 27.8245ZM147.931 75.2291L148.274 75.5726C147.741 76.106 146.731 77.1405 146.351 77.6116L146.389 77.5509L146.418 77.505L146.581 77.2467L146.582 77.2451L146.582 77.2446C147.023 76.544 147.715 75.4451 147.931 75.2291ZM146.213 77.8054C146.171 77.889 146.231 77.7997 146.351 77.6116C146.282 77.6967 146.234 77.7634 146.213 77.8054ZM145.526 76.7749C145.641 76.7749 145.755 76.6222 145.87 76.4695L145.87 76.4692C145.927 76.393 145.984 76.3168 146.041 76.2596L146.213 76.9466C145.87 77.3474 145.148 78.1833 145.011 78.3207C144.839 78.4924 144.496 79.523 144.496 80.0382C144.496 80.5535 143.637 81.4123 143.465 81.4123C143.328 81.4123 142.835 82.0993 142.606 82.4428C142.778 82.0421 143.121 81.1718 143.121 80.897C143.121 80.6958 143.416 80.3176 143.66 80.0044C143.833 79.7831 143.98 79.5941 143.98 79.523C143.98 79.3512 144.324 78.6642 144.496 78.3207C144.667 77.9772 145.354 76.7749 145.526 76.7749ZM143.809 88.2825L143.465 88.9696C143.522 89.3703 143.418 89.6884 143.465 89.8283C143.602 90.2406 143.637 90.1146 143.809 90.5154V88.2825ZM146.385 82.7863C146.786 82.4428 147.587 81.6527 147.587 81.2405C147.587 81.0896 147.572 80.9682 147.56 80.8676C147.531 80.6247 147.516 80.5032 147.759 80.3818C148.102 80.21 147.931 79.1795 147.759 79.3512C147.706 79.404 147.507 79.554 147.253 79.7465C146.678 80.1807 145.817 80.8308 145.698 81.0688C145.623 81.2194 145.646 81.37 145.668 81.5061C145.695 81.6805 145.719 81.8311 145.526 81.9276C145.183 82.0993 145.183 82.6146 145.526 82.4428C145.784 82.314 146.235 81.7987 146.516 81.4767C146.61 81.3694 146.685 81.2835 146.728 81.2405C146.786 81.1833 146.862 81.088 146.938 80.9927C147.091 80.8018 147.244 80.6108 147.244 80.7253C147.244 80.734 147.245 80.7432 147.246 80.753C147.248 80.7642 147.25 80.7761 147.253 80.7889C147.255 80.7956 147.257 80.8029 147.259 80.8102L147.259 80.8107C147.31 81.0173 147.418 81.4578 146.385 82.7863ZM148.046 76.8435C148.066 76.8187 148.085 76.7958 148.102 76.7749C148.054 76.8229 148.009 76.8783 147.967 76.9398C147.63 77.3549 147.033 78.1212 146.557 78.836C146.007 79.6604 144.954 80.897 144.496 81.4123C145.24 80.8398 146.797 79.5917 147.072 79.1795C147.215 78.9641 147.329 78.5985 147.45 78.2084C147.592 77.7523 147.744 77.2624 147.967 76.9398C147.995 76.9051 148.021 76.8729 148.046 76.8435ZM95.7169 90.5154C95.4306 90.1718 94.8237 89.4848 94.6863 89.4848C94.636 89.4848 94.6005 89.4701 94.571 89.4579C94.4998 89.4284 94.4643 89.4137 94.3428 89.6566C94.2699 89.8024 94.2898 90.01 94.3107 90.2271C94.3389 90.5214 94.3688 90.8329 94.1711 91.0306C93.8963 91.3054 93.8276 91.4886 93.8276 91.5459C94.0566 91.3169 94.5833 90.8589 94.8581 90.8589C95.1329 90.8589 95.5451 90.6299 95.7169 90.5154ZM161.328 113.359V114.905C161.328 115.317 161.557 116.107 161.671 116.451C161.614 115.534 161.465 113.634 161.328 113.359ZM98.1215 94.981C98.3963 94.7062 98.5795 93.836 98.6367 93.4352C98.5795 93.9505 98.4306 95.0497 98.2932 95.3245L96.9192 98.0726C97.2054 97.1566 97.8466 95.2558 98.1215 94.981ZM91.7665 99.6184C91.7092 99.7902 91.5604 100.168 91.423 100.305C91.3243 100.404 91.2822 100.446 91.2644 100.497C91.2512 100.534 91.2512 100.576 91.2512 100.649V101.164L91.5947 100.992C91.7092 100.821 91.9382 100.443 91.9382 100.305V99.7902C91.9382 99.6184 91.9382 99.4467 91.7665 99.6184ZM92.11 102.538C91.9382 102.71 91.7665 103.054 91.5947 103.397C91.423 103.741 91.2512 104.084 91.2512 104.256C91.2512 104.308 91.2827 104.36 91.3171 104.417C91.3962 104.547 91.4907 104.703 91.2512 104.943C90.9077 105.286 90.7359 106.145 90.7359 106.489C90.7359 106.763 90.965 107.519 91.0795 107.863C91.3085 107.634 91.7665 107.073 91.7665 106.66C91.7665 106.5 91.7498 106.289 91.732 106.065C91.6928 105.569 91.6483 105.008 91.7665 104.771C91.8034 104.697 91.8561 104.6 91.9162 104.489L91.9165 104.488C92.1361 104.082 92.4535 103.495 92.4535 103.225C92.4535 102.882 92.4535 102.367 92.11 102.538ZM93.1405 107.176C93.0031 107.863 91.9382 109.409 91.423 110.096C91.5947 109.58 92.0069 108.309 92.2818 107.347C92.6253 106.145 93.6558 103.225 93.8276 103.741C93.9473 104.1 93.6496 105.211 93.4001 106.141C93.2918 106.545 93.1925 106.916 93.1405 107.176ZM90.7359 108.721C90.9077 109.409 89.8772 110.783 89.7054 110.954V109.237C89.7054 108.893 89.7054 108.55 89.5337 108.034C89.3619 107.519 90.3924 106.832 90.3924 107.004C90.3924 107.176 90.5642 108.034 90.7359 108.721ZM90.2207 104.943C90.3924 104.771 90.0489 105.973 89.8772 106.317C89.7627 106.431 89.4993 106.729 89.3619 107.004C89.2589 107.21 89.0939 107.911 88.9785 108.401C88.9016 108.728 88.8466 108.962 88.8466 108.893C88.8466 108.857 88.8544 108.766 88.865 108.642L88.865 108.642C88.9042 108.184 88.9818 107.274 88.8466 107.004C88.6749 106.66 89.0184 106.145 89.3619 105.802L90.2207 104.943Z" fill="black"/>
<path d="M200.488 12.0229C200.431 12.0794 200.496 12.2704 200.647 12.5571C200.575 12.3495 200.52 12.1693 200.488 12.0229Z" fill="black"/>
<path d="M150.85 62.8627C150.754 62.6221 150.609 62.3128 150.415 61.959L150.85 62.8627Z" fill="black"/>
<path d="M18.255 49.981C18.0832 49.8092 18.255 49.6375 18.4267 49.6375C18.6782 49.6375 18.6535 49.7295 18.6222 49.8462C18.6108 49.8889 18.5985 49.9349 18.5985 49.981C18.5985 50.1527 18.4267 50.1527 18.255 49.981Z" fill="black"/>
<path d="M19.193 51.0514C19.1373 51.0681 19.1137 51.0751 19.1137 51.0115C19.1137 50.8397 18.942 51.6985 19.2855 51.6985C19.4307 51.6985 19.5452 51.7292 19.629 51.7517C19.7435 51.7823 19.8008 51.7977 19.8008 51.6985V51.1833C19.4762 50.9669 19.288 51.0231 19.193 51.0514Z" fill="black"/>
<path d="M20.1443 52.3855C20.2657 52.507 20.2154 52.5426 20.1148 52.6137C20.0731 52.6432 20.0228 52.6788 19.9725 52.7291C19.9725 52.9008 19.8008 53.0726 19.629 53.0726C19.4572 53.0726 19.2855 52.5573 19.2855 52.3855C19.2855 52.2997 19.4143 52.3426 19.5431 52.3855C19.6719 52.4285 19.8008 52.4714 19.8008 52.3855C19.8008 52.2138 19.9725 52.2138 20.1443 52.3855Z" fill="black"/>
<path d="M20.4596 53.4977C20.4862 53.3477 20.5045 53.2443 20.316 53.2443H19.9725C19.8008 53.2443 19.8008 53.7596 19.9725 53.9314C20.1443 54.1031 20.316 54.1031 20.4878 53.9314C20.4102 53.7763 20.4377 53.6212 20.4596 53.4977Z" fill="black"/>
<path d="M22.8924 56.8512C22.8924 56.6794 22.5489 55.9924 22.2053 55.9924C21.8618 55.9924 21.8618 56.6794 22.0336 56.6794C22.2053 56.6794 22.5489 56.8512 22.5489 57.1947C22.5489 57.3922 22.5489 57.4762 22.5815 57.5445C22.6056 57.595 22.6476 57.637 22.7206 57.7099C22.8923 57.8817 23.0641 58.0535 23.2359 57.8817C23.4076 57.71 23.5794 57.1947 23.4076 57.023C23.3218 56.9371 23.1929 56.9371 23.0856 56.9371C22.9782 56.9371 22.8924 56.9371 22.8924 56.8512Z" fill="black"/>
<path d="M28.9038 61.6604C29.0756 61.6604 29.7626 62.3474 29.9344 62.6909L29.9344 63.2062C29.9344 63.3779 29.5908 63.5497 29.2473 63.3779C28.9038 63.2062 28.7321 63.0344 28.5603 62.8627C28.4675 62.7699 28.4248 62.8275 28.3511 62.9272C28.2883 63.012 28.2029 63.1272 28.045 63.2062C27.8454 63.306 27.7618 63.1738 27.6594 63.0118C27.5855 62.8951 27.5019 62.7628 27.358 62.6909C27.0774 62.5506 27.1407 61.9517 27.1732 61.6435C27.1805 61.5745 27.1863 61.52 27.1863 61.4886C27.1863 61.3169 27.0145 61.3169 26.1557 61.3169C25.411 61.3169 25.4413 60.8002 25.4624 60.4389C25.4657 60.3836 25.4687 60.3319 25.4687 60.2863C25.4687 60.0767 25.2768 60.0589 25.0491 60.0379C24.9037 60.0245 24.7438 60.0097 24.6099 59.9428C24.357 59.8164 24.4765 59.4106 24.5572 59.1368C24.586 59.0387 24.6099 58.9576 24.6099 58.9123C24.6099 58.8575 24.575 58.7679 24.533 58.66C24.4433 58.4295 24.3211 58.1158 24.4382 57.8817C24.5475 57.6631 24.6568 57.9314 24.7661 58.1997C24.8285 58.353 24.891 58.5063 24.9534 58.5688C25.0245 58.6398 25.2133 58.7992 25.4345 58.9859L25.435 58.9864C25.7482 59.2507 26.1263 59.5698 26.3275 59.7711C26.671 60.1146 27.7015 60.9733 28.045 61.1451C28.2026 61.2239 28.3962 61.1581 28.5763 61.097C28.7889 61.0249 28.9826 60.9591 29.0756 61.1451C29.1866 61.3672 29.0105 61.5174 28.9186 61.596C28.8682 61.6389 28.8431 61.6604 28.9038 61.6604Z" fill="black"/>
<path d="M63.1809 61.2966C63.1666 61.4002 63.1544 61.4886 63.0832 61.4886C62.9115 61.4886 62.568 61.4886 62.7397 61.6604C62.7827 61.7033 62.8256 61.757 62.8685 61.8107C62.9974 61.9717 63.1262 62.1327 63.255 62.0039C63.4268 61.8321 63.5985 61.4886 63.4268 60.9733C63.2255 60.9733 63.2011 61.1502 63.1809 61.2966Z" fill="black"/>
<path d="M8.65918 66.4695C8.42463 66.7818 8.42463 67.2502 8.54191 67.5625C8.5867 67.6818 8.61439 67.8011 8.63803 67.903C8.67629 68.0678 8.70398 68.1871 8.77646 68.1871C8.89374 68.1871 9.24557 68.031 9.12829 67.7187C9.06965 67.5625 9.06965 67.3673 9.06965 67.1917C9.06965 67.016 9.06965 66.8599 9.01101 66.7818C8.97421 66.7328 8.9605 66.6838 8.94815 66.6396C8.92114 66.543 8.90059 66.4695 8.65918 66.4695Z" fill="black"/>
<path d="M22.4208 53.0952C22.2076 52.9332 22.0336 52.801 22.0336 52.9008C22.0336 53.0726 22.2053 53.4161 22.5489 53.5878C22.8237 53.7252 23.2359 53.9886 23.4076 54.1031C23.2359 53.9886 22.8924 53.6909 22.8924 53.4161C22.7485 53.3441 22.5745 53.2119 22.4208 53.0952Z" fill="black"/>
<path d="M83.0542 55.033C82.9168 55.1704 83.1114 55.3193 83.2259 55.3765C83.2832 55.3193 83.432 55.2048 83.5695 55.2048C83.6553 55.2048 83.6124 55.1618 83.548 55.0974C83.4836 55.033 83.3977 54.9472 83.3977 54.8613C83.3977 54.6895 83.2259 54.8613 83.0542 55.033Z" fill="black"/>
<path d="M84.0375 54.4466C83.9802 54.3894 83.9344 54.2749 84.2092 54.2749C84.5527 54.2749 84.7245 54.6184 84.381 54.6184C84.1702 54.6184 84.0888 54.6184 84.0573 54.5787C84.0375 54.5537 84.0375 54.513 84.0375 54.4466Z" fill="black"/>
<path d="M27.1863 75.4008C26.8428 75.4008 27.0145 75.0573 27.1863 75.0573C27.4545 74.9232 27.5133 74.9985 27.6079 75.1197C27.6345 75.1538 27.6639 75.1914 27.7015 75.2291C27.8733 75.4008 27.5298 75.4008 27.1863 75.4008Z" fill="black"/>
<path d="M28.4783 76.1468C28.4006 76.1468 28.3229 76.4314 28.4783 76.4314C28.6337 76.4314 28.7891 76.4314 28.7114 76.2891C28.6944 76.2579 28.6811 76.2267 28.669 76.1985C28.6262 76.0981 28.5996 76.0357 28.4783 76.1468Z" fill="black"/>
<path d="M212.339 48.6069C212.167 48.7787 212.167 49.1222 212.511 48.9504C212.706 48.8528 212.79 48.8106 212.795 48.7609C212.799 48.7231 212.757 48.681 212.683 48.6069C212.545 48.4695 212.396 48.5497 212.339 48.6069Z" fill="black"/>
<path d="M209.247 51.6985C209.247 51.8703 208.56 52.2138 208.389 52.2138C208.303 52.2138 208.174 52.1709 208.045 52.1279C207.916 52.085 207.788 52.042 207.702 52.042C207.633 52.042 207.509 52.097 207.386 52.152C207.2 52.2344 207.015 52.3168 207.015 52.2138C207.015 52.042 207.358 51.6985 207.702 51.6985C208.045 51.6985 208.217 51.6985 208.56 51.5268C208.698 51.4581 208.835 51.3344 208.973 51.2107C209.179 51.0252 209.385 50.8397 209.591 50.8397C209.698 50.8397 209.771 50.8563 209.827 50.8688C209.951 50.8967 209.988 50.905 210.106 50.668C210.278 50.3245 210.793 50.3245 210.793 50.4962C210.793 50.5821 210.75 50.625 210.707 50.668C210.664 50.7109 210.622 50.7539 210.622 50.8397C210.278 51.0115 209.247 51.5268 209.247 51.6985Z" fill="black"/>
<path d="M206.328 52.2138C206.499 52.2138 206.671 52.5573 206.499 52.7291C206.614 52.7291 206.912 52.7978 207.186 53.0726C207.461 53.3474 206.957 53.4161 206.671 53.4161C206.614 53.2443 206.431 52.8665 206.156 52.7291C205.812 52.5573 206.156 52.2138 206.328 52.2138Z" fill="black"/>
<path d="M203.58 53.0726C203.717 53.0726 204.209 53.1871 204.438 53.2443L204.61 53.4161C204.725 53.4161 204.919 53.4504 204.782 53.5878C204.644 53.7252 204.61 53.8741 204.61 53.9314L204.438 54.1031H204.095C204.095 54.0459 204.06 53.897 203.923 53.7596C203.837 53.6737 203.837 53.7596 203.837 53.8669C203.837 53.9743 203.837 54.1031 203.751 54.1031C203.58 54.1031 203.58 54.4466 203.58 54.6184C203.58 54.7901 203.751 55.1336 204.095 54.7901C204.438 54.4466 204.954 54.1031 205.125 54.1031C205.297 54.1031 205.469 53.7596 205.297 53.5878C205.16 53.4504 205.011 53.0726 204.954 52.9008C204.782 52.7291 204.404 52.4199 204.267 52.5573C204.207 52.6166 204.128 52.635 204.041 52.6548C203.878 52.6924 203.692 52.7352 203.58 53.0726Z" fill="black"/>
<path d="M202.034 53.2443C202.205 53.0726 202.721 52.9008 202.893 52.9008C203.236 52.8239 203.408 52.9008 203.408 53.0726C203.408 53.1871 203.102 53.3016 202.797 53.4161C202.644 53.4733 202.492 53.5306 202.377 53.5878C202.034 53.7596 201.862 53.4161 202.034 53.2443Z" fill="black"/>
<path d="M200.316 53.5878C200.144 53.7596 199.801 54.2749 199.973 54.2749C200.059 54.2749 200.144 54.2319 200.23 54.189C200.316 54.146 200.402 54.1031 200.488 54.1031C200.66 54.1031 200.831 54.1031 201.003 53.9314C201.102 53.8326 201.144 53.7906 201.194 53.7728C201.232 53.7596 201.274 53.7596 201.347 53.7596C201.484 53.7596 201.518 53.6451 201.518 53.5878H200.316Z" fill="black"/>
<path d="M201.862 53.9314C201.977 53.8741 202.274 53.7939 202.549 53.9314C202.606 53.9314 202.755 53.9657 202.893 54.1031C203.014 54.2246 202.964 54.2601 202.863 54.3313C202.821 54.3607 202.771 54.3963 202.721 54.4466C202.611 54.5566 202.642 54.5962 202.723 54.7006C202.769 54.7592 202.831 54.8385 202.893 54.9619C203.021 55.218 202.671 55.2832 202.2 55.371C202.04 55.4009 201.865 55.4335 201.69 55.4772C201.154 55.6113 201.036 55.536 200.847 55.4147L200.847 55.4145C200.794 55.3805 200.735 55.343 200.66 55.3054C200.479 55.2152 200.394 55.409 200.303 55.6135C200.222 55.7986 200.136 55.9924 199.973 55.9924C199.816 55.9924 199.696 56.0991 199.546 56.2316C199.366 56.3902 199.145 56.5859 198.77 56.6794C198.083 56.8512 197.74 56.1642 197.74 55.8207V54.4466C197.74 54.0389 198.278 54.0613 198.927 54.0885C199.099 54.0956 199.278 54.1031 199.457 54.1031C200.04 54.1031 199.99 54.4981 199.952 54.8059C199.933 54.952 199.917 55.0784 199.973 55.1336C200.092 55.2534 200.296 54.9554 200.466 54.7059L200.467 54.7053L200.467 54.7049L200.467 54.7045C200.541 54.5968 200.608 54.4984 200.66 54.4466C200.831 54.2749 201.175 54.2749 201.518 54.2749C201.793 54.2749 201.862 54.0459 201.862 53.9314Z" fill="black"/>
<path d="M128.866 53.9314C128.694 53.9314 128.35 54.2749 128.35 54.4466C128.35 54.5039 128.312 54.5611 128.274 54.6184C128.198 54.7329 128.121 54.8474 128.35 54.9619C128.482 55.0275 128.563 55.093 128.632 55.1491C128.744 55.2397 128.825 55.3054 129.037 55.3054C129.133 55.3054 129.229 55.3188 129.314 55.3306C129.533 55.3611 129.677 55.3812 129.553 55.1336C129.49 55.0074 129.473 54.9043 129.46 54.8245C129.438 54.6871 129.426 54.6184 129.209 54.6184C128.866 54.6184 128.694 54.6184 128.866 54.4466C128.916 54.3963 128.966 54.3607 129.008 54.3313C129.109 54.2601 129.159 54.2246 129.037 54.1031L128.866 53.9314Z" fill="black"/>
<path d="M131.125 54.5654C131.099 54.5911 131.099 54.644 131.099 54.7901C131.099 55.1336 131.099 55.4772 131.27 55.4772C131.328 55.4772 131.404 55.4581 131.48 55.439C131.633 55.4008 131.786 55.3627 131.786 55.4772C131.786 55.5986 131.871 55.6342 132.043 55.7053C132.114 55.7348 132.2 55.7704 132.301 55.8207C132.644 55.9924 132.988 56.1641 132.816 55.9923C132.722 55.8986 132.68 55.856 132.688 55.8367C132.696 55.8207 132.738 55.8207 132.816 55.8207C132.954 55.8207 133.102 56.1642 133.16 56.3359H133.503C133.56 56.3359 133.599 56.355 133.624 56.3677L133.629 56.3704L133.634 56.3728C133.645 56.3777 133.652 56.3803 133.658 56.378C133.675 56.3713 133.675 56.3225 133.675 56.1642C133.675 55.8207 133.675 55.3054 133.503 55.3054C133.454 55.3054 133.433 55.3054 133.416 55.2972C133.403 55.2912 133.393 55.2808 133.375 55.2628L133.374 55.2625C133.331 55.2195 133.245 55.1336 132.988 54.9619C132.837 54.8614 132.716 54.7756 132.615 54.7045L132.615 54.7042C132.372 54.5325 132.251 54.4466 132.129 54.4466H131.442C131.328 54.5039 131.251 54.523 131.2 54.5357C131.163 54.5449 131.14 54.5508 131.125 54.5654Z" fill="black"/>
<path d="M132.988 56.8512C132.85 56.7138 132.931 56.6794 132.988 56.6794H133.503V57.023C133.389 57.023 133.125 56.9886 132.988 56.8512Z" fill="black"/>
<path d="M136.423 56.5077C136.079 56.1642 135.564 55.6489 135.049 55.8207C134.534 55.9924 134.362 56.3359 134.877 56.5077C135.151 56.599 135.231 56.7874 135.297 56.9438C135.355 57.0817 135.403 57.1947 135.564 57.1947C135.695 57.1947 135.802 57.1697 135.892 57.1483C136.039 57.1136 136.145 57.0886 136.251 57.1947C136.27 57.2135 136.291 57.2363 136.313 57.262C136.325 57.275 136.337 57.2888 136.349 57.3031L136.375 57.3344L136.389 57.3509C136.569 57.5634 136.805 57.8431 136.938 57.71C137.006 57.6427 137.125 57.6282 137.236 57.6147C137.408 57.5937 137.558 57.5755 137.454 57.3665C137.408 57.2744 137.374 57.1824 137.343 57.0969C137.257 56.8635 137.19 56.6794 136.938 56.6794C136.663 56.6794 136.48 56.5649 136.423 56.5077Z" fill="black"/>
<path d="M137.11 57.8817L137.282 58.397C137.167 58.397 136.904 58.3627 136.766 58.2253C136.67 58.1288 136.519 58.0865 136.345 58.0375C136.209 57.9993 136.058 57.957 135.908 57.8817C135.736 57.7959 135.693 57.7959 135.672 57.7959H135.669L135.666 57.7958L135.664 57.7957L135.662 57.7954C135.647 57.7932 135.635 57.7806 135.564 57.71C135.478 57.6241 135.435 57.6241 135.414 57.6241L135.41 57.6241L135.408 57.624L135.406 57.6239L135.405 57.6237L135.403 57.6234C135.402 57.6231 135.401 57.6227 135.4 57.6221C135.392 57.6172 135.392 57.5997 135.392 57.5382C135.392 57.4008 135.507 57.3665 135.564 57.3665C135.621 57.3665 135.77 57.4008 135.908 57.5382C135.975 57.6052 136.016 57.6461 136.061 57.6812C136.132 57.7361 136.213 57.777 136.423 57.8817H137.11Z" fill="black"/>
<path d="M175.514 55.1336C175.434 54.9046 175.394 54.7901 174.553 54.7901C174.159 54.7901 173.766 54.7651 173.429 54.7437C172.885 54.709 172.492 54.684 172.492 54.7901C172.492 54.9619 172.492 55.3054 172.835 55.4772C173.179 55.6489 173.522 55.8207 174.209 55.8207C174.896 55.8207 175.583 55.8207 175.583 55.3054C175.552 55.2424 175.532 55.1851 175.514 55.1336Z" fill="black"/>
<path d="M183.828 63.7214C184.171 63.5497 185.202 63.5497 185.545 63.7214C185.889 63.7214 185.889 63.8932 185.889 64.4084C185.889 64.7559 185.42 64.791 184.904 64.8296C184.655 64.8483 184.395 64.8678 184.171 64.9237C183.587 65.0699 183.499 64.9673 183.381 64.8277C183.36 64.8032 183.338 64.7776 183.312 64.752C183.141 64.5802 182.969 64.752 182.625 65.0955C182.401 65.3199 182.25 65.2511 181.98 65.1285C181.838 65.0635 181.661 64.9833 181.423 64.9237C180.736 64.752 181.08 64.2367 181.595 64.0649C181.96 63.9432 182.412 63.9941 182.766 64.034C182.912 64.0504 183.041 64.0649 183.141 64.0649C183.353 64.0649 183.434 63.9993 183.546 63.9087C183.615 63.8527 183.696 63.787 183.828 63.7214Z" fill="black"/>
<path d="M188.476 64.028C188.655 63.7091 188.796 63.4576 188.293 63.2062C187.606 63.2062 187.091 63.3779 187.091 63.7214C187.091 63.8216 187.062 63.9365 187.033 64.0489C186.964 64.3217 186.898 64.5802 187.263 64.5802C187.428 64.5802 187.575 64.6153 187.704 64.6463C187.98 64.7121 188.176 64.7589 188.293 64.4085C188.339 64.2704 188.41 64.1447 188.476 64.028Z" fill="black"/>
<path d="M192.244 63.3779C192.106 63.6527 191.843 63.7214 191.728 63.7214C191.557 63.2062 191.385 63.7214 191.385 63.8932C191.385 63.9791 191.256 63.9791 191.063 63.9791C190.87 63.9791 190.612 63.9791 190.354 64.0649C189.839 64.2367 189.496 64.2367 189.152 63.8932C188.809 63.5497 189.496 63.2062 190.011 63.2062C190.25 63.2062 190.341 63.1322 190.439 63.0529C190.552 62.9613 190.673 62.8627 191.041 62.8627C191.499 62.8627 191.499 62.939 191.499 63.0408C191.499 63.0917 191.499 63.1489 191.557 63.2062C191.655 63.3043 191.753 63.1781 191.851 63.0519C191.925 62.9573 191.998 62.8627 192.072 62.8627C192.244 62.8627 192.415 63.0344 192.244 63.3779Z" fill="black"/>
<path d="M185.797 62.0039C185.671 62.2329 185.608 62.3474 185.889 62.3474C186.232 62.3474 186.576 62.1756 186.404 62.0039C186.366 61.9662 186.337 61.9286 186.31 61.8945C186.216 61.7733 186.157 61.698 185.889 61.8321C185.857 61.8952 185.826 61.9524 185.797 62.0039Z" fill="black"/>
<path d="M187.606 59.9428C187.95 60.1146 187.778 60.2863 187.434 60.4581C187.32 60.5153 187.022 60.5955 186.747 60.4581C186.49 60.3293 186.232 60.4903 185.975 60.6513C185.889 60.705 185.803 60.7586 185.717 60.8016C185.373 60.9733 184.858 60.8016 184.515 60.6298C184.171 60.4581 184.858 60.1146 185.202 60.1146C185.545 60.1146 185.889 60.1146 186.232 59.9428C186.576 59.7711 187.263 59.7711 187.606 59.9428Z" fill="black"/>
<path d="M186.232 58.397H187.263C187.606 58.397 188.293 58.7405 187.778 58.9123C187.442 59.0244 187.325 59.0633 187.236 59.029C187.19 59.0108 187.151 58.9719 187.091 58.9124C186.919 58.7406 186.747 58.5688 186.232 58.397Z" fill="black"/>
<path d="M190.011 59.2558C190.171 59.2558 190.219 59.2558 190.26 59.2383C190.262 59.2374 190.264 59.2365 190.266 59.2354L190.269 59.2342L190.272 59.2326L190.277 59.2299L190.281 59.2277L190.286 59.2244L190.293 59.2204L190.299 59.216L190.303 59.2135L190.316 59.2049C190.354 59.1795 190.412 59.1413 190.526 59.084C190.87 58.9123 191.213 59.084 191.213 59.4275C191.213 59.7711 190.698 59.7711 190.354 59.7711C190.192 59.7711 190.106 59.7711 190.024 59.7893C189.934 59.8096 189.848 59.8524 189.667 59.9428C189.324 60.1146 189.324 59.7711 189.324 59.4275C189.324 59.1761 189.508 59.2007 189.741 59.232C189.827 59.2435 189.919 59.2558 190.011 59.2558Z" fill="black"/>
<path d="M192.931 60.1146C192.759 60.2863 192.587 60.8016 192.931 60.6298C193.058 60.5661 193.186 60.5496 193.287 60.5366C193.458 60.5146 193.554 60.5023 193.446 60.2863C193.274 59.9428 193.049 59.9428 192.931 60.1146Z" fill="black"/>
<path d="M192.931 56.8512C192.759 57.023 191.9 57.023 191.557 56.8512C191.385 56.9085 190.973 57.0917 190.698 57.3665C190.423 57.6413 190.011 57.71 189.839 57.71C189.896 57.8245 190.148 57.9848 190.698 57.71C191.385 57.3665 191.213 58.397 191.041 58.397C190.87 58.397 189.839 58.7405 189.324 58.9123C188.953 59.036 188.76 58.8924 188.553 58.7382C188.472 58.6783 188.389 58.6168 188.293 58.5688C188.018 58.4314 188.408 58.397 188.637 58.397C188.58 58.3398 188.465 58.1565 188.465 57.8817C188.465 57.71 188.594 57.6241 188.723 57.5382C188.851 57.4523 188.98 57.3665 188.98 57.1947C188.98 56.9199 188.522 57.0802 188.293 57.1947C188.122 57.023 188.465 56.6794 188.809 56.5077C189.012 56.4061 189.155 56.4848 189.238 56.5305C189.295 56.5621 189.324 56.5778 189.324 56.5077C189.324 56.4366 189.353 56.3064 189.388 56.1541C189.437 55.9387 189.496 55.6783 189.496 55.4772C189.496 55.2108 190.012 55.2542 190.404 55.2872C190.517 55.2967 190.621 55.3054 190.698 55.3054C190.949 55.3054 191.201 55.2132 191.52 55.0965C191.637 55.0538 191.762 55.0079 191.9 54.9619C192.415 54.7901 192.931 54.7901 193.446 55.4772C193.887 56.0652 193.321 56.5276 193.041 56.7562C192.994 56.7947 192.955 56.8265 192.931 56.8512Z" fill="black"/>
<path d="M193.618 55.4772C193.618 55.1336 193.618 54.9619 193.961 54.9619C194.133 54.9619 194.305 55.0478 194.434 55.1122C194.562 55.1766 194.648 55.2195 194.648 55.1336C194.648 54.9619 195.335 54.6184 195.679 54.6184C195.954 54.6184 196.48 54.9619 196.709 55.1336C196.767 55.3627 196.778 55.8207 196.366 55.8207C196.156 55.8207 195.975 55.7922 195.834 55.7701C195.628 55.7378 195.507 55.7188 195.507 55.8207C195.507 55.9924 195.679 56.6794 195.851 56.5077C195.988 56.3703 196.48 56.4504 196.709 56.5077C196.595 56.7367 196.228 57.1604 195.679 57.023C194.992 56.8512 194.992 56.6794 194.992 56.1642C194.992 56.05 195 55.9442 195.008 55.8506L195.008 55.8499L195.008 55.8493L195.008 55.8486C195.034 55.5212 195.048 55.3437 194.648 55.4772C194.374 55.5685 194.197 55.8056 194.066 55.9818C193.95 56.1368 193.87 56.2446 193.789 56.1642C193.652 56.0268 193.618 55.6489 193.618 55.4772Z" fill="black"/>
<path d="M212.854 51.1833C212.717 51.3207 212.568 51.584 212.511 51.6985C212.854 51.584 213.541 51.252 213.541 50.8397V50.1527C213.37 50.3817 212.992 50.8397 212.854 50.8397C212.683 50.8397 211.652 51.1833 211.652 51.355C211.652 51.4409 211.437 51.5697 211.223 51.6985C211.008 51.8273 210.793 51.9562 210.793 52.042C210.793 52.1618 210.543 52.365 210.333 52.5354C210.242 52.6093 210.158 52.6771 210.106 52.7291C209.935 52.9008 209.591 53.2443 209.935 53.2443C210.127 53.2443 210.32 53.0277 210.544 52.7769C210.718 52.5811 210.911 52.3644 211.137 52.2138C211.394 52.042 211.48 51.9562 211.545 51.8918C211.609 51.8273 211.652 51.7844 211.824 51.6985C211.938 51.6413 212.072 51.534 212.205 51.4266C212.473 51.2117 212.74 50.9967 212.854 51.1833Z" fill="black"/>
<path d="M210.965 55.1336C211.102 54.9962 211.824 54.3894 212.167 54.1031C212.053 54.3321 211.777 54.8588 211.588 55.1336C211.352 55.4772 210.793 55.8207 210.45 55.9924C210.106 56.1642 210.793 55.3054 210.965 55.1336Z" fill="black"/>
<path d="M206.856 54.5252C206.755 54.5382 206.627 54.5546 206.499 54.6184C206.385 54.6756 206.213 54.7901 206.022 54.9174C205.641 55.1718 205.183 55.4772 204.954 55.4772H204.438C204.68 55.2985 205.294 54.911 205.812 54.7901C206.331 54.6693 206.83 54.3963 207.015 54.2749C207.123 54.4908 207.027 54.5031 206.856 54.5252Z" fill="black"/>
<path d="M208.045 57.3665C207.873 57.3665 207.461 57.4008 207.186 57.5382C207.072 57.5955 206.996 57.6527 206.919 57.71C206.767 57.8245 206.614 57.939 206.156 58.0535C205.534 58.209 205.757 58.3646 205.98 58.5201L205.981 58.521L205.982 58.5214C206.004 58.5372 206.027 58.553 206.049 58.5688C206.237 58.7062 206.199 58.7405 206.156 58.7405C206.213 58.7405 206.362 58.7062 206.499 58.5688C206.592 58.4758 206.786 58.4331 206.999 58.3863C207.179 58.3467 207.372 58.304 207.53 58.2253C207.873 58.0535 208.217 57.5382 208.045 57.3665Z" fill="black"/>
<path d="M204.793 58.9342C204.662 59.1045 204.506 59.3078 204.267 59.4275C203.923 59.5993 203.58 59.5993 203.236 59.5993C202.997 59.5993 202.59 59.8498 202.249 60.0597C202.102 60.1508 201.966 60.2343 201.862 60.2863L200.488 60.9733H201.347C201.41 60.9733 201.495 60.9043 201.604 60.8168C201.793 60.6652 202.051 60.4581 202.377 60.4581C202.704 60.4581 202.893 60.389 203.031 60.3385C203.11 60.3093 203.173 60.2863 203.236 60.2863C203.299 60.2863 203.431 60.1712 203.598 60.0253C203.888 59.7727 204.283 59.4275 204.61 59.4275C205.125 59.4275 205.125 59.2558 204.954 58.7405C204.902 58.7925 204.85 58.8603 204.793 58.9342Z" fill="black"/>
<path d="M198.599 61.4886C198.083 61.3169 198.083 62.017 198.255 62.0039C198.77 62.0039 199.114 61.6604 198.599 61.4886Z" fill="black"/>
<path d="M197.84 60.8015C198.345 60.8015 198.682 60.584 198.177 60.4753C197.672 60.3665 197.672 60.8098 197.84 60.8015Z" fill="black"/>
<path d="M199.355 58.6283C200.082 58.4173 200.506 58.0678 199.749 58.1744C198.991 58.2809 199.114 58.7066 199.355 58.6283Z" fill="black"/>
<path d="M201.414 57.3935C200.776 57.803 200.234 57.893 200.812 57.392C201.391 56.8911 201.63 57.264 201.414 57.3935Z" fill="black"/>
<path d="M203.31 56.6284C202.461 57.1746 201.819 57.4225 202.632 56.8182C203.444 56.2138 203.596 56.4507 203.31 56.6284Z" fill="black"/>
<path d="M196.123 60.8018C196.628 60.8018 196.964 61.2368 196.46 61.4542C195.955 61.6717 195.955 60.7852 196.123 60.8018Z" fill="black"/>
<path d="M194.112 61.832C194.87 61.832 195.374 61.6145 194.617 61.5058C193.86 61.3971 193.86 61.8403 194.112 61.832Z" fill="black"/>
<path d="M194.405 62.8625C194.91 62.8625 195.247 62.6451 194.742 62.5363C194.237 62.4276 194.237 62.8709 194.405 62.8625Z" fill="black"/>
<path d="M99.152 96.8703C99.152 97.0421 98.8085 98.4161 98.6367 99.1031C98.4993 99.6528 97.7779 100.706 97.4344 101.164C97.4917 100.878 97.6062 100.271 97.6062 100.134C97.6062 99.9619 98.465 98.2444 98.6367 97.9009L99.152 96.8703Z" fill="black"/>
<path d="M95.0298 105.115C94.9153 105.515 94.652 106.386 94.5146 106.66C94.4574 106.775 94.381 106.851 94.311 106.921C94.1711 107.061 94.0566 107.176 94.1711 107.519C94.3428 108.034 94.6863 107.691 94.8581 107.347C94.9955 107.073 95.0298 105.744 95.0298 105.115Z" fill="black"/>
<path fill-rule="evenodd" clip-rule="evenodd" d="M141.404 145.993C141.919 145.821 142.366 144.928 140.717 144.79C140.173 144.745 139.319 144.733 138.312 144.79C137.496 144.836 136.749 144.885 136.049 144.93L136.042 144.931L136.039 144.931C134.331 145.041 132.902 145.134 131.442 145.134C129.677 145.134 127.665 144.862 126.566 144.713C126.152 144.657 125.868 144.618 125.774 144.618C125.624 144.618 125.473 144.552 125.337 144.493C125.202 144.434 125.082 144.381 124.99 144.404C125.105 144.273 125.221 143.999 124.744 143.76C124.4 143.588 123.885 143.989 124.057 144.103C123.728 143.939 123.252 143.833 122.755 143.724L122.755 143.724L122.754 143.723C122.559 143.68 122.361 143.636 122.167 143.588C121.604 143.447 121.335 143.568 121.118 143.666C121.007 143.716 120.909 143.76 120.793 143.76C120.621 143.76 120.493 143.631 120.385 143.524C120.278 143.416 120.192 143.33 120.106 143.416C119.969 143.554 119.591 143.588 119.419 143.588C118.961 143.531 117.015 143.416 116.328 143.416C115.972 143.416 115.086 143.328 114.048 143.224C112.579 143.078 110.807 142.901 109.801 142.901C109.065 142.901 108.402 142.964 107.878 143.014C107.537 143.046 107.256 143.073 107.053 143.073C106.537 143.073 106.194 143.073 105.679 143.244C105.163 143.416 103.274 143.588 102.587 143.588C101.739 143.588 101.746 143.673 101.763 143.904C101.77 144.001 101.779 144.123 101.728 144.275C101.534 144.275 101.286 144.284 101.015 144.293C100.092 144.326 98.9023 144.369 98.6367 144.103C98.2932 143.76 97.9497 144.447 98.1215 144.79C98.1803 144.908 98.1585 145.046 98.1389 145.169C98.1014 145.406 98.0723 145.59 98.6367 145.477C99.3237 145.34 99.4955 145.42 99.4955 145.477C99.0375 145.649 98.2589 146.164 98.8085 146.851C99.4955 147.71 101.388 149.31 103.274 149.428C104.486 149.503 105.33 149.679 106.161 149.852C107.214 150.072 108.244 150.286 109.973 150.286H117.702C118.389 150.286 120.45 150.286 120.793 150.458C121.137 150.63 123.026 150.802 125.946 150.63C127.664 150.529 129.679 150.309 131.501 150.11C132.777 149.971 133.958 149.842 134.877 149.771L135.415 149.73C137.509 149.571 139.755 149.4 140.545 149.084C141.404 148.741 144.324 146.851 141.404 145.993ZM113.236 147.023C113.064 147.138 112.24 147.332 110.316 147.195C109.251 147.119 108.523 147.043 107.938 146.981L107.937 146.981L107.936 146.981C107.201 146.905 106.692 146.851 106.022 146.851C105.68 146.851 105.379 146.865 105.121 146.877C104.47 146.907 104.084 146.925 103.961 146.68C103.789 146.336 104.476 146.336 105.507 146.336C105.968 146.336 106.395 146.439 106.803 146.538C107.306 146.66 107.781 146.774 108.255 146.68C109.114 146.508 111.862 146.508 112.205 146.508C112.549 146.508 109.457 146.851 109.114 146.851C108.77 146.851 112.721 147.195 113.236 147.023Z" fill="black"/>
<path d="M163.389 90.0001C162.427 91.5116 164.018 93.6642 165.106 94.294C162.484 96.3333 164.433 98.8667 165.714 100.532C165.944 100.831 166.152 101.101 166.309 101.336C167.339 102.882 173.866 106.489 176.442 107.176C177.823 107.544 180.241 108.554 182.928 109.677C185.253 110.648 187.78 111.703 190.011 112.5C193.858 113.874 195.851 112.386 196.366 111.47C196.683 111.47 196.737 111.499 197.933 112.152L198.255 112.328C200.144 113.359 201.518 112.5 202.034 111.813C202.365 111.372 201.987 110.93 201.492 110.353C201.217 110.031 200.905 109.667 200.66 109.237C201.518 110.267 202.504 110.183 203.408 109.58C203.923 109.237 204.527 108.178 204.267 107.004C203.923 105.458 200.316 102.195 199.801 101.851C199.723 101.799 199.488 101.618 199.126 101.338L199.124 101.336C197.094 99.7678 191.093 95.1317 186.576 93.0917C181.505 90.8018 174.254 89.6023 170.904 89.048L170.677 89.0105C170.592 88.9964 170.51 88.9828 170.431 88.9696C167.339 88.4543 164.591 88.1108 163.389 90.0001Z" fill="black"/>
<path d="M71.3275 79.6947C72.7016 79.6947 74.2474 81.9276 75.4497 84.3321C76.1367 84.6184 78.026 85.5344 78.1978 86.565C78.3695 87.5955 78.026 89.1413 76.6519 90.1718C78.3695 92.4047 75.7932 97.2138 74.2474 98.5879C73.4254 99.3185 66.5184 103.741 63.7703 104.428C61.7997 104.92 60.302 105.256 58.9406 105.561C56.0041 106.219 53.7019 106.735 48.6557 108.378C44.4382 109.751 41.3847 109.752 40.4115 109.58C38.8657 110.496 34.2969 111.95 28.3885 110.439C22.4801 108.928 23.1786 106.145 24.2664 104.943C24.2008 104.905 24.1152 104.865 24.0171 104.819C23.5155 104.585 22.6877 104.197 22.5488 103.225C22.2417 101.076 25.504 99.063 27.5489 97.8015C27.7913 97.652 28.0166 97.513 28.2168 97.3856C28.6807 97.0904 29.4098 96.5215 30.3486 95.789C33.2331 93.5382 38.0974 89.7428 43.3313 87.5955C49.3568 85.1235 55.9382 84.5972 60.0752 84.2664L60.077 84.2662L60.0817 84.2658C60.5413 84.2291 60.9707 84.1947 61.3657 84.1604C62.1672 84.2749 64.4573 83.9886 64.4573 83.9886C64.4573 83.9886 64.2855 82.6146 65.4878 81.2405C66.4497 80.1413 68.4649 79.8665 69.0947 80.0382C69.0947 79.8665 69.1634 79.523 69.4382 79.523C69.713 79.523 69.8962 79.8665 69.9535 80.0382C69.9535 79.9237 70.2283 79.6947 71.3275 79.6947Z" fill="black"/>
<path d="M211.137 201.664C209.643 201.664 208.321 201.42 207.173 200.932C206.034 200.434 205.14 199.682 204.489 198.675C203.838 197.669 203.513 196.388 203.513 194.833C203.513 193.552 203.732 192.459 204.169 191.554C204.606 190.639 205.216 189.892 205.999 189.313C206.781 188.733 207.691 188.291 208.728 187.986C209.775 187.681 210.903 187.483 212.113 187.392C213.424 187.29 214.477 187.168 215.269 187.026C216.073 186.873 216.652 186.665 217.008 186.4C217.364 186.126 217.541 185.765 217.541 185.318V185.257C217.541 184.647 217.308 184.179 216.84 183.854C216.372 183.529 215.773 183.366 215.041 183.366C214.238 183.366 213.582 183.544 213.074 183.9C212.576 184.245 212.276 184.779 212.174 185.501H204.428C204.53 184.078 204.982 182.766 205.785 181.567C206.598 180.357 207.783 179.391 209.338 178.67C210.893 177.938 212.835 177.572 215.163 177.572C216.84 177.572 218.344 177.77 219.676 178.166C221.008 178.553 222.141 179.096 223.077 179.798C224.012 180.489 224.723 181.302 225.211 182.238C225.709 183.163 225.958 184.169 225.958 185.257V201.298H218.09V198.004H217.907C217.44 198.878 216.87 199.585 216.2 200.124C215.539 200.663 214.781 201.054 213.928 201.298C213.084 201.542 212.154 201.664 211.137 201.664ZM213.882 196.357C214.522 196.357 215.122 196.225 215.681 195.961C216.25 195.697 216.713 195.315 217.069 194.817C217.425 194.319 217.602 193.714 217.602 193.003V191.051C217.379 191.143 217.14 191.229 216.886 191.31C216.642 191.392 216.377 191.468 216.093 191.539C215.818 191.61 215.524 191.676 215.208 191.737C214.903 191.798 214.583 191.854 214.248 191.905C213.597 192.007 213.064 192.174 212.647 192.408C212.24 192.632 211.935 192.911 211.732 193.247C211.539 193.572 211.442 193.938 211.442 194.345C211.442 194.995 211.671 195.493 212.128 195.839C212.586 196.185 213.17 196.357 213.882 196.357Z" fill="black"/>
<path d="M202.064 185.501H194.318C194.277 185.023 194.11 184.611 193.815 184.266C193.52 183.92 193.139 183.656 192.671 183.473C192.214 183.28 191.706 183.183 191.146 183.183C190.425 183.183 189.805 183.315 189.286 183.579C188.768 183.844 188.514 184.22 188.524 184.708C188.514 185.053 188.661 185.374 188.966 185.668C189.281 185.963 189.886 186.192 190.78 186.355L195.538 187.209C197.937 187.646 199.721 188.383 200.89 189.42C202.069 190.446 202.664 191.824 202.674 193.552C202.664 195.219 202.166 196.668 201.18 197.898C200.204 199.117 198.867 200.063 197.169 200.734C195.482 201.394 193.556 201.725 191.39 201.725C187.812 201.725 185.012 200.993 182.989 199.529C180.976 198.065 179.853 196.134 179.619 193.735H187.975C188.087 194.477 188.453 195.051 189.073 195.458C189.703 195.854 190.496 196.052 191.451 196.052C192.224 196.052 192.859 195.92 193.357 195.656C193.866 195.392 194.125 195.016 194.135 194.528C194.125 194.08 193.901 193.725 193.464 193.46C193.037 193.196 192.366 192.983 191.451 192.82L187.304 192.088C184.915 191.671 183.126 190.878 181.937 189.709C180.747 188.54 180.158 187.036 180.168 185.196C180.158 183.569 180.584 182.192 181.449 181.063C182.323 179.925 183.568 179.061 185.184 178.471C186.811 177.872 188.737 177.572 190.963 177.572C194.349 177.572 197.017 178.273 198.969 179.676C200.931 181.079 201.962 183.02 202.064 185.501Z" fill="black"/>
<path d="M163.326 201.298V177.877H171.499V182.329H171.743C172.17 180.682 172.846 179.478 173.771 178.715C174.706 177.953 175.799 177.572 177.049 177.572C177.415 177.572 177.776 177.602 178.132 177.663C178.498 177.714 178.848 177.79 179.184 177.892V185.074C178.767 184.931 178.254 184.825 177.644 184.754C177.034 184.682 176.51 184.647 176.073 184.647C175.25 184.647 174.508 184.835 173.847 185.211C173.196 185.577 172.683 186.095 172.307 186.766C171.931 187.427 171.743 188.205 171.743 189.099V201.298H163.326Z" fill="black"/>
<path d="M149.061 201.725C146.519 201.725 144.344 201.222 142.535 200.215C140.725 199.199 139.337 197.786 138.372 195.976C137.406 194.157 136.923 192.047 136.923 189.648C136.923 187.249 137.406 185.145 138.372 183.335C139.337 181.516 140.725 180.103 142.535 179.096C144.344 178.08 146.519 177.572 149.061 177.572C151.602 177.572 153.778 178.08 155.587 179.096C157.396 180.103 158.784 181.516 159.75 183.335C160.715 185.145 161.198 187.249 161.198 189.648C161.198 192.047 160.715 194.157 159.75 195.976C158.784 197.786 157.396 199.199 155.587 200.215C153.778 201.222 151.602 201.725 149.061 201.725ZM149.122 195.504C149.833 195.504 150.448 195.265 150.967 194.787C151.485 194.309 151.887 193.628 152.171 192.744C152.456 191.859 152.598 190.807 152.598 189.587C152.598 188.357 152.456 187.305 152.171 186.431C151.887 185.546 151.485 184.865 150.967 184.388C150.448 183.91 149.833 183.671 149.122 183.671C148.37 183.671 147.724 183.91 147.185 184.388C146.646 184.865 146.235 185.546 145.95 186.431C145.665 187.305 145.523 188.357 145.523 189.587C145.523 190.807 145.665 191.859 145.95 192.744C146.235 193.628 146.646 194.309 147.185 194.787C147.724 195.265 148.37 195.504 149.122 195.504Z" fill="black"/>
<path d="M111.268 201.298V170.07H119.685V181.963H119.807C120.112 181.17 120.559 180.443 121.149 179.783C121.738 179.112 122.47 178.578 123.344 178.182C124.219 177.775 125.235 177.572 126.394 177.572C127.939 177.572 129.408 177.983 130.801 178.807C132.204 179.63 133.342 180.926 134.216 182.695C135.101 184.464 135.543 186.761 135.543 189.587C135.543 192.291 135.121 194.533 134.277 196.312C133.444 198.091 132.326 199.417 130.923 200.291C129.53 201.166 128 201.603 126.333 201.603C125.235 201.603 124.254 201.425 123.39 201.069C122.536 200.703 121.804 200.21 121.194 199.59C120.595 198.96 120.132 198.248 119.807 197.455H119.624V201.298H111.268ZM119.502 189.587C119.502 190.726 119.649 191.712 119.944 192.545C120.249 193.369 120.676 194.009 121.225 194.467C121.784 194.914 122.45 195.138 123.222 195.138C123.995 195.138 124.651 194.919 125.189 194.482C125.738 194.035 126.155 193.399 126.44 192.576C126.735 191.742 126.882 190.746 126.882 189.587C126.882 188.428 126.735 187.437 126.44 186.614C126.155 185.78 125.738 185.145 125.189 184.708C124.651 184.261 123.995 184.037 123.222 184.037C122.45 184.037 121.784 184.261 121.225 184.708C120.676 185.145 120.249 185.78 119.944 186.614C119.649 187.437 119.502 188.428 119.502 189.587Z" fill="black"/>
<path d="M101.977 177.877V183.976H86.546V177.877H101.977ZM89.5346 172.265H97.9516V193.765C97.9516 194.091 98.0075 194.365 98.1194 194.589C98.2312 194.802 98.404 194.965 98.6378 195.077C98.8716 195.178 99.1715 195.229 99.5375 195.229C99.7916 195.229 100.086 195.199 100.422 195.138C100.767 195.077 101.022 195.026 101.184 194.985L102.404 200.901C102.028 201.013 101.489 201.15 100.788 201.313C100.097 201.476 99.2731 201.583 98.3176 201.633C96.3861 201.735 94.7648 201.537 93.4534 201.039C92.1421 200.53 91.156 199.732 90.4953 198.645C89.8345 197.557 89.5143 196.195 89.5346 194.558V172.265Z" fill="black"/>
<path d="M70.455 201.664C68.9607 201.664 67.6391 201.42 66.4904 200.932C65.3519 200.434 64.4573 199.682 63.8068 198.675C63.1562 197.669 62.8309 196.388 62.8309 194.833C62.8309 193.552 63.0494 192.459 63.4865 191.554C63.9237 190.639 64.5336 189.892 65.3163 189.313C66.0991 188.733 67.0089 188.291 68.0458 187.986C69.0928 187.681 70.2212 187.483 71.4309 187.392C72.7422 187.29 73.7943 187.168 74.5872 187.026C75.3903 186.873 75.9697 186.665 76.3255 186.4C76.6813 186.126 76.8592 185.765 76.8592 185.318V185.257C76.8592 184.647 76.6254 184.179 76.1578 183.854C75.6902 183.529 75.0904 183.366 74.3585 183.366C73.5554 183.366 72.8998 183.544 72.3915 183.9C71.8934 184.245 71.5935 184.779 71.4919 185.501H63.7458C63.8474 184.078 64.2998 182.766 65.1029 181.567C65.9161 180.357 67.1004 179.391 68.6557 178.67C70.211 177.938 72.1526 177.572 74.4805 177.572C76.1578 177.572 77.6623 177.77 78.994 178.166C80.3257 178.553 81.4591 179.096 82.3943 179.798C83.3296 180.489 84.0411 181.302 84.5291 182.238C85.0272 183.163 85.2762 184.169 85.2762 185.257V201.298H77.4082V198.004H77.2252C76.7576 198.878 76.1883 199.585 75.5174 200.124C74.8566 200.663 74.0993 201.054 73.2454 201.298C72.4017 201.542 71.4715 201.664 70.455 201.664ZM73.1997 196.357C73.8401 196.357 74.4398 196.225 74.9989 195.961C75.5682 195.697 76.0307 195.315 76.3865 194.817C76.7423 194.319 76.9202 193.714 76.9202 193.003V191.051C76.6966 191.143 76.4577 191.229 76.2036 191.31C75.9596 191.392 75.6953 191.468 75.4106 191.539C75.1362 191.61 74.8414 191.676 74.5262 191.737C74.2213 191.798 73.9011 191.854 73.5656 191.905C72.915 192.007 72.3813 192.174 71.9646 192.408C71.5579 192.632 71.253 192.911 71.0497 193.247C70.8565 193.572 70.7599 193.938 70.7599 194.345C70.7599 194.995 70.9887 195.493 71.4461 195.839C71.9036 196.185 72.4881 196.357 73.1997 196.357Z" fill="black"/>
<path d="M50.3156 201.725C47.8149 201.725 45.6598 201.247 43.8504 200.291C42.0511 199.326 40.6635 197.943 39.6876 196.144C38.7219 194.335 38.239 192.169 38.239 189.648C38.239 187.229 38.727 185.114 39.7029 183.305C40.6787 181.496 42.0562 180.088 43.8351 179.081C45.6141 178.075 47.7132 177.572 50.1326 177.572C51.9014 177.572 53.5025 177.846 54.9358 178.395C56.3691 178.944 57.5941 179.742 58.6106 180.789C59.6272 181.826 60.4099 183.086 60.9589 184.571C61.5078 186.055 61.7823 187.727 61.7823 189.587V191.539H40.8617V186.904H54.0362C54.026 186.233 53.8532 185.643 53.5177 185.135C53.1924 184.616 52.7502 184.215 52.1911 183.93C51.6422 183.635 51.017 183.488 50.3156 183.488C49.6345 183.488 49.0093 183.635 48.4401 183.93C47.8708 184.215 47.4134 184.611 47.0677 185.12C46.7323 185.628 46.5544 186.222 46.534 186.904V191.905C46.534 192.657 46.6916 193.328 47.0067 193.918C47.3219 194.507 47.7742 194.97 48.3638 195.305C48.9534 195.641 49.665 195.809 50.4986 195.809C51.078 195.809 51.6066 195.727 52.0844 195.565C52.5723 195.402 52.9891 195.168 53.3348 194.863C53.6804 194.548 53.9345 194.172 54.0972 193.735H61.7823C61.518 195.361 60.8928 196.774 59.9067 197.974C58.9207 199.163 57.6144 200.088 55.9879 200.749C54.3716 201.4 52.4809 201.725 50.3156 201.725Z" fill="black"/>
<path d="M0 201.298V177.877H7.99006V182.329H8.23404C8.72198 180.865 9.55555 179.706 10.7347 178.853C11.9139 177.999 13.3168 177.572 14.9433 177.572C16.5901 177.572 18.0081 178.009 19.1975 178.883C20.3869 179.747 21.1035 180.896 21.3475 182.329H21.5915C21.9879 180.896 22.8317 179.747 24.1227 178.883C25.4137 178.009 26.9283 177.572 28.6666 177.572C30.9132 177.572 32.7328 178.293 34.1255 179.737C35.5283 181.18 36.2298 183.102 36.2298 185.501V201.298H27.8127V187.635C27.8127 186.609 27.5535 185.806 27.0351 185.226C26.5166 184.637 25.8203 184.342 24.9461 184.342C24.082 184.342 23.3958 184.637 22.8876 185.226C22.3895 185.806 22.1404 186.609 22.1404 187.635V201.298H14.0893V187.635C14.0893 186.609 13.8301 185.806 13.3117 185.226C12.7933 184.637 12.0969 184.342 11.2227 184.342C10.6433 184.342 10.1451 184.474 9.72836 184.738C9.31158 185.003 8.98628 185.384 8.75248 185.882C8.52884 186.37 8.41701 186.954 8.41701 187.635V201.298H0Z" fill="black"/>
</g>
<defs>
<clipPath id="clip0_0_9">
<rect width="226" height="202" fill="white"/>
</clipPath>
</defs>
</svg>
