<svg width="226" height="317" viewBox="0 0 226 317" fill="none" xmlns="http://www.w3.org/2000/svg">
<g clip-path="url(#clip0_0_28)">
<path fill-rule="evenodd" clip-rule="evenodd" d="M20.8364 3.43398C21.1802 1.71699 21.8678 0 23.2429 0C25.4127 0 25.7532 1.31584 26.0325 2.39507C26.2179 3.11136 26.3763 3.72342 27.0246 3.77738C28.4248 3.89392 28.6271 5.6002 28.7806 6.89402C28.8532 7.5063 28.9149 8.02621 29.0874 8.24155C29.7749 9.10005 29.775 11.8472 29.6031 14.9378C29.4312 18.0284 26.8527 22.836 25.8213 24.3813C25.0766 25.4971 24.9619 26.0983 24.79 27.3001C24.7081 27.8728 24.2698 28.5435 23.6837 29.4405C22.9448 30.5713 21.971 32.0616 21.1802 34.1681C20.4741 36.0488 20.0876 36.6952 19.8563 37.0821C19.623 37.4722 19.5475 37.5985 19.4612 38.4606C19.3852 39.2195 19.0772 40.5822 18.6964 42.267C18.2157 44.394 17.6189 47.0344 17.2266 49.621C16.7578 52.7116 19.2344 56.8918 20.4926 58.0343C22.3834 59.7513 26.6808 63.3569 29.2593 64.0437C29.5656 64.1583 30.0082 64.3724 30.3441 64.5349C30.6599 64.6876 30.8813 64.7947 30.8063 64.7305C29.6036 63.7009 30.0875 62.9749 30.2903 62.6706L30.2906 62.6701C30.2992 62.6573 30.2287 62.6017 30.1343 62.5273C29.8775 62.3249 29.444 61.9833 29.9468 61.9833C30.0545 61.7684 30.2571 61.8632 30.4185 61.9388C30.5148 61.9839 30.5965 62.0221 30.6344 61.9833C30.6896 61.9269 30.7219 61.9529 30.749 61.9748C30.7685 61.9906 30.7854 62.0043 30.8063 61.9833C30.5771 61.5827 29.9468 61.1249 29.4311 61.1249C29.2368 61.1249 28.8907 60.6153 28.5231 60.074C28.368 59.8457 28.209 59.6117 28.056 59.4079C27.5403 58.7211 26.6808 57.7488 26.6808 58.0343C26.6808 58.2581 26.434 58.4684 25.9932 57.8626C25.8891 57.7194 25.8016 57.6072 25.7238 57.5075C25.632 57.3897 25.5537 57.2892 25.4776 57.1758C25.4381 57.1169 25.353 57.0235 25.2548 56.9156C25.0034 56.6394 24.6663 56.2691 24.79 56.1456C24.9619 55.9739 24.9619 55.8022 24.9619 55.6305C24.9619 55.5603 24.8182 55.4039 24.66 55.2319C24.4314 54.9833 24.1727 54.7018 24.2743 54.6003C24.4142 54.4606 24.955 54.8236 25.3812 55.1098L25.3815 55.11C25.4788 55.1753 25.5702 55.2367 25.6494 55.2871C27.4305 56.1766 29.6975 57.631 31.081 58.5186C31.2998 58.659 31.4966 58.7852 31.6658 58.8928C32.6683 59.53 37.5102 60.9532 38.3697 60.7815C39.4011 61.1249 40.5689 61.3521 41.4638 61.4683C42.2374 61.3395 42.8453 61.4039 43.2251 61.4441C43.3517 61.4575 43.4529 61.4683 43.5266 61.4683C44.4892 61.4683 44.6726 61.9833 44.558 62.155C44.7299 61.9833 45.4518 61.4683 46.9645 61.4683C47.793 61.4683 49.261 61.3652 50.5889 61.272C51.6853 61.1951 52.6863 61.1249 53.1527 61.1249C54.1841 61.1249 54.0122 61.4683 54.0122 61.4683C54.356 61.2393 55.1811 61.1249 55.7311 61.1249C55.7648 61.1249 55.8111 61.0871 55.8711 61.038C56.0667 60.8782 56.4082 60.5992 56.9344 61.1249C56.9725 61.1629 57.0856 61.0789 57.239 60.965C57.5817 60.7106 58.1253 60.307 58.4815 60.7815C59.8989 60.5437 61.6111 60.195 63.0308 59.9059C64.6866 59.5688 65.9445 59.3126 65.873 59.4079C65.5375 59.8547 61.0599 61.2966 58.4815 61.2966C58.3038 61.3388 58.2468 61.3628 58.1802 61.3909C58.1313 61.4115 58.0771 61.4344 57.9658 61.4683C57.9219 61.4816 57.8981 61.5097 57.8664 61.5472C57.8089 61.615 57.7254 61.7135 57.4501 61.8117C56.7625 61.4683 56.0749 61.64 55.7311 62.155C56.0749 62.3267 56.5906 62.4984 59.1304 61.937C59.4194 61.9058 59.7091 61.8741 59.9914 61.8432C60.7329 61.762 61.4238 61.6864 61.9194 61.64C62.0761 61.7182 62.108 61.8826 62.1369 62.0316C62.1714 62.2096 62.2016 62.3656 62.4351 62.3267C63.4664 62.155 64.4506 61.8794 65.3573 61.4683C65.1854 60.7815 65.9429 60.6319 66.2168 60.6098C66.3463 60.5993 66.0449 61.1249 65.873 61.1249C65.7011 61.4683 65.4493 62.5228 65.5292 62.8418C65.916 62.9706 66.0126 62.8097 66.1093 62.6487C66.1416 62.595 66.1738 62.5414 66.2168 62.4984C66.2168 62.4984 65.873 62.155 66.0449 61.8117C66.2168 61.4683 66.5606 61.4683 66.5606 61.4683L67.7638 60.9532L68.2795 60.4381C68.6539 60.2199 69.2321 60.0459 69.9031 59.8439C70.4646 59.675 71.091 59.4864 71.7174 59.2362C72.3404 58.9873 72.8575 58.729 73.3487 58.4836C73.9418 58.1874 74.4971 57.91 75.1553 57.6909C75.3494 57.6263 75.5768 57.5157 75.8022 57.4061C76.2843 57.1717 76.7572 56.9418 76.8743 57.1758C77.002 57.431 77.0533 57.326 77.1558 57.1161C77.3002 56.8206 77.546 56.3173 78.2495 56.3173C78.3465 56.3173 78.7806 56.0971 79.2779 55.8448C79.9893 55.4839 80.8302 55.0573 80.9998 55.1154C81.1161 55.1552 81.1584 55.5912 80.656 55.9739C80.3869 56.1789 79.9713 56.37 79.6385 56.5231C79.3283 56.6658 79.0899 56.7754 79.1089 56.8324C79.3437 56.7602 79.71 56.6598 80.1212 56.5471C81.0144 56.3022 82.1193 55.9993 82.5468 55.8022C83.5785 55.3266 84.4269 54.7412 85.3121 54.1305C86.3443 53.4184 87.4263 52.6718 88.907 52.0248C91.1072 51.0633 92.0011 52.1965 92.3449 52.8833C92.5566 52.702 94.9233 51.5097 95.6109 51.5097C95.9193 51.5097 96.5131 51.2316 97.0274 50.9907C97.3729 50.8288 97.6825 50.6838 97.8455 50.6512C99.6621 50.2883 100.338 50.5853 100.959 50.8582C101.067 50.9056 101.173 50.9523 101.283 50.9946C101.283 50.9946 99.4785 51.4239 97.158 52.3682C94.8374 53.3125 93.0325 54.2569 93.0325 54.2569C92.5194 54.5497 91.8891 55.2406 91.1416 56.06C90.7204 56.5217 90.262 57.0241 89.7664 57.5192C89.4329 57.8523 88.827 58.354 88.1275 58.9331C86.6211 60.1802 84.6808 61.7866 84.0939 62.8418C84.9534 62.8418 86.3285 62.6701 89.2508 60.6098C91.0115 59.3683 92.4724 57.8671 93.3086 57.0078C93.7535 56.5506 94.0216 56.2751 94.0638 56.3173C94.2357 56.489 90.3495 60.6798 88.5632 62.3267C87.2858 63.5045 86.2461 64.1941 85.4539 64.7196C84.8602 65.1133 84.4055 65.415 84.0939 65.7607C84.0091 65.8549 83.9243 65.9485 83.8392 66.0417C84.1436 65.971 84.408 65.9324 84.6096 65.9324C85.4118 65.9324 87.2568 66.4132 88.2194 68.3362C89.3794 70.6535 90.6991 71.2156 91.8706 71.7145L91.8716 71.7149L92.0011 71.7702C93.2044 72.2853 95.4868 73.7119 96.9861 75.3759C97.7512 76.2251 98.0118 76.9483 98.2045 77.4832C98.4015 78.0297 98.5275 78.3797 99.0488 78.4665C99.6256 78.5625 99.8167 79.1539 100.009 79.7495C100.121 80.0968 100.234 80.4456 100.424 80.6985C100.94 81.3853 101.283 83.9608 101.455 86.3646C101.627 88.7684 100.08 93.0609 99.5645 93.4043C99.2512 93.6129 98.9379 94.5187 98.6631 95.313C98.4857 95.8261 98.3243 96.2927 98.1893 96.4949C97.8455 97.01 96.6423 99.5854 96.6423 99.9288C96.6423 100.186 96.3522 100.734 96.0621 101.281C95.9654 101.463 95.8687 101.646 95.7828 101.818C95.5078 102.367 95.0952 103.992 94.9233 104.736C94.6941 105.309 94.167 106.556 93.8919 106.968C93.6169 107.381 93.8919 107.827 94.0638 107.999V111.089C94.0638 111.931 93.8158 113.021 93.6035 113.954C93.383 114.923 93.2011 115.722 93.3763 115.897C93.5754 116.096 94.0629 115.719 94.6049 115.299C94.9987 114.995 95.4212 114.668 95.7828 114.523C96.2907 114.32 97.5788 114.117 98.867 113.914C99.7588 113.774 100.651 113.634 101.283 113.493C102.831 113.15 106.956 112.463 107.815 112.463C107.974 112.463 108.227 112.428 108.537 112.385L108.538 112.384C109.909 112.194 112.412 111.845 112.972 113.665C113.588 115.662 111.174 116.285 109.797 116.64L109.692 116.667L109.626 116.684L109.582 116.696C109.503 116.716 109.43 116.736 109.363 116.755C108.604 116.972 105.113 117.666 102.248 118.236L102.248 118.236C100.569 118.569 99.1049 118.861 98.5331 118.987C97.4801 119.221 97.3031 120.012 97.1348 120.764C97.0559 121.116 96.9788 121.461 96.8142 121.735C96.2985 122.593 96.1266 125.169 96.2985 126.886C96.4704 128.603 97.158 132.895 104.206 132.037C109.844 131.35 110.91 127.859 110.738 126.199C110.738 126.027 110.348 126.027 108.675 126.027C106.44 126.027 104.721 125.684 103.69 124.997C102.281 124.059 101.971 122.765 101.971 122.421C101.971 122.303 101.91 122.226 101.837 122.133C101.698 121.956 101.514 121.724 101.627 121.048C101.765 120.224 102.429 120.247 102.659 120.361C102.831 120.018 103.381 119.228 104.893 118.816C106.406 118.404 109.534 118.53 110.91 118.644C113.946 118.701 120.673 118.85 123.286 118.987C126.552 119.159 131.537 119.503 134.631 121.048C137.725 122.593 136.35 124.138 135.147 125.169C136.35 126.027 136.694 127.744 133.256 128.431C131.423 128.797 129.639 128.041 128.399 127.515C127.313 127.054 126.644 126.771 126.724 127.572C126.843 128.765 127.23 129.396 127.48 129.804L127.481 129.805L127.492 129.823C127.509 129.851 127.525 129.877 127.54 129.903L127.55 129.92L127.565 129.944L127.576 129.963L127.583 129.976C128.328 131.006 130.849 132.998 134.975 132.723C139.572 132.417 139.388 127.881 139.294 125.562L139.294 125.561L139.294 125.56L139.294 125.559C139.282 125.278 139.272 125.029 139.272 124.825C139.272 122.937 138.929 121.735 138.413 120.018C137.96 118.51 137.374 118.326 136.191 117.955L136.19 117.955C136.026 117.903 135.851 117.848 135.663 117.786C134.425 117.373 131.594 116.927 130.334 116.755C129.245 116.813 126.724 116.721 125.349 115.897C123.63 114.867 124.146 113.665 124.833 112.635C125.464 111.69 127.828 112.189 128.879 112.411L128.88 112.411L128.983 112.433C129.037 112.444 129.086 112.454 129.131 112.463C129.99 112.635 134.115 112.806 135.663 112.806C137.21 112.806 140.304 113.493 141.679 113.836C142.467 114.033 143.65 114.906 144.743 115.713C145.557 116.314 146.322 116.879 146.836 117.099C147.798 117.511 149.3 119.903 149.93 121.048C149.701 120.189 149.242 118.438 149.242 118.301C149.242 118.129 148.383 116.927 148.039 116.584C147.867 116.412 147.695 115.983 147.523 115.553C147.351 115.124 147.18 114.695 147.008 114.523C146.664 114.18 146.148 112.463 146.148 111.948C146.148 111.729 146.086 111.511 146.028 111.306C145.949 111.027 145.877 110.772 145.976 110.574C146.106 110.316 146.917 111.42 147.384 112.055L147.384 112.055L147.384 112.055C147.537 112.263 147.653 112.421 147.695 112.463C147.833 112.6 147.867 111.948 147.867 111.604C147.753 111.089 147.489 109.922 147.351 109.372C147.18 108.685 147.18 108.449 147.351 108.685C147.523 108.922 148.039 108.342 147.867 108.342C147.695 108.342 147.18 107.999 147.18 107.655C147.18 107.312 146.836 106.282 146.492 105.423C146.217 104.736 146.034 104.035 145.976 103.771L146.836 104.736C146.721 104.221 146.458 103.088 146.32 102.676C146.183 102.264 145.69 100.101 145.461 99.0703C145.575 99.8716 145.804 101.543 145.804 101.818C145.804 101.914 145.831 102.118 145.863 102.353L145.863 102.354L145.863 102.356C145.943 102.963 146.052 103.782 145.804 103.535C145.461 103.191 145.461 102.333 145.461 101.989C145.461 101.715 144.429 100.043 143.914 99.242C144.257 99.9861 144.979 101.543 145.117 101.818C145.18 101.944 145.173 102.233 145.166 102.581C145.152 103.181 145.135 103.959 145.461 104.393C145.784 104.823 145.904 105.591 145.992 106.146C146.044 106.477 146.084 106.733 146.148 106.797C146.286 106.934 146.664 107.541 146.836 107.827C146.95 108.399 147.18 109.647 147.18 110.059C147.18 110.326 147.318 110.823 147.427 111.216L147.427 111.217C147.529 111.583 147.606 111.859 147.523 111.776C147.351 111.604 146.664 110.231 146.664 109.716C146.664 109.4 146.47 108.956 146.281 108.521C146.161 108.246 146.043 107.974 145.976 107.741C145.839 107.26 145.002 105.767 144.601 105.08C144.773 105.423 145.117 106.179 145.117 106.453C145.117 106.728 145.69 108.399 145.976 109.201C145.804 108.972 145.392 108.273 145.117 107.312C144.98 106.835 144.682 106.061 144.392 105.311C143.952 104.171 143.534 103.088 143.742 103.191C144.017 103.328 144.429 104.164 144.601 104.565V103.706L144.085 102.676C143.948 102.401 143.455 101.646 143.226 101.302L143.914 101.989C143.971 101.932 144.051 101.68 143.914 101.131C143.776 100.581 143.398 98.9559 143.226 98.2118C143.169 98.4408 142.985 98.6411 142.71 97.6109C142.435 96.5807 141.793 95.7508 141.507 95.4647C141.45 95.9225 141.369 96.9069 141.507 97.1817L142.195 98.5552V99.4137L140.991 98.2118V98.7269C141.106 98.8414 141.473 99.1734 142.023 99.5854C142.573 99.9975 142.939 101.245 143.054 101.818C142.825 101.589 142.366 101.062 142.366 100.787C142.366 100.513 141.679 100.101 141.335 99.9288C141.335 100.215 141.369 100.856 141.507 101.131C141.645 101.405 142.366 102.962 142.71 103.706C141.851 102.733 139.96 100.547 139.272 99.5854L139.24 99.5409L139.225 99.5194L139.172 99.4454L139.089 99.3316C138.164 98.0539 136.409 95.6289 134.803 90.6571C133.084 85.3344 135.94 80.4213 136.866 79.4967C137.381 78.9816 138.012 78.6382 138.413 78.8099C138.468 78.7366 138.583 78.6259 138.722 78.4912L138.723 78.4904C139.02 78.2041 139.429 77.8096 139.616 77.4363C139.874 76.9212 140.905 76.5992 141.55 76.398C141.765 76.3309 141.937 76.2773 142.023 76.2344C142.296 76.0978 142.243 76.2872 142.124 76.7159C142.093 76.8262 142.058 76.9523 142.023 77.0929C141.885 77.6423 140.361 79.2677 139.616 80.0117C140.075 79.6684 141.06 78.9129 141.335 78.6382C141.61 78.3634 143.169 76.9212 143.914 76.2344C143.742 76.5778 143.295 77.4363 142.882 78.1231C142.71 78.4092 142.424 78.7908 142.137 79.1723C141.564 79.9354 140.991 80.6985 141.335 80.6985C141.655 80.6985 142.703 79.244 143.617 77.976L143.617 77.9755C144.176 77.2003 144.684 76.4949 144.945 76.2344C145.231 75.949 145.492 75.5029 145.751 75.0611C146.197 74.2994 146.636 73.5502 147.18 73.6589C147.692 73.7614 147.838 73.6192 148.384 73.0864C148.752 72.7265 149.303 72.1883 150.274 71.4268C152.645 69.5656 155.316 70.1104 156.462 70.74C156.712 70.6153 157.07 70.3093 157.564 69.8879L157.564 69.8876C157.75 69.729 157.955 69.5541 158.181 69.3664C159.006 68.6796 157.493 66.7909 156.462 65.9324C156.556 66.0076 156.744 66.137 157.037 66.3159C156.139 65.6578 154.768 64.7049 154.055 64.2154C153.505 64.2154 153.482 63.7576 153.54 63.5286C153.712 63.5286 154.055 63.4256 154.055 63.0135C154.055 62.6015 151.993 59.5223 150.961 58.0343L153.196 62.4984C152.909 62.2695 152.268 61.7086 151.993 61.2966C151.718 60.8845 150.617 58.8355 150.102 57.8626C150.216 58.0915 150.514 58.7211 150.789 59.4079C151.064 60.0947 151.706 63.2425 151.993 64.7305C151.763 64.101 151.271 62.6358 151.133 61.8117C150.996 60.9875 149.357 59.0645 148.555 58.206L150.354 61.9385C149.625 60.6086 148.212 58.6495 146.148 57.3475C148.039 58.5494 148.555 60.9532 148.555 62.155C148.555 63.3569 147.18 63.5286 145.804 63.5286C144.895 63.5286 144.286 62.853 143.829 62.3456C143.595 62.0856 143.401 61.8698 143.226 61.8117C143.104 61.7711 142.982 61.721 142.854 61.6681C142.438 61.497 141.951 61.2966 141.163 61.2966C140.338 61.2966 139.215 59.8085 138.757 59.0645C138.986 59.2362 139.513 59.6139 139.788 59.7513C140.132 59.923 140.132 59.4079 139.788 59.2362C139.665 59.1746 139.541 59.0688 139.394 58.9427C139.131 58.7171 138.792 58.4262 138.241 58.206C137.661 57.9744 137.785 57.899 138.086 57.7164C138.231 57.6283 138.417 57.5152 138.585 57.3475C139.135 57.3475 139.158 57.5764 139.1 57.6909L140.819 58.206C140.533 58.0343 139.926 57.6222 139.788 57.3475C139.685 57.1414 139.582 57.1208 139.479 57.1002C139.41 57.0865 139.341 57.0728 139.272 57.0041C139.1 56.8324 137.725 56.489 137.553 56.6607C137.381 56.8324 136.522 55.8022 136.866 55.1154C137.075 54.6975 136.775 54.661 136.431 54.6191C136.209 54.5922 135.969 54.563 135.834 54.4286C135.559 54.1539 135.032 53.9707 134.803 53.9135V54.4286C134.631 54.3141 134.081 54.0509 133.256 53.9135C132.604 53.8049 132.57 53.4218 132.547 53.1547C132.533 52.9994 132.523 52.8833 132.396 52.8833C132.121 52.8833 131.365 52.7688 131.021 52.7116C130.849 52.7688 130.506 52.952 130.506 53.2267V53.7418C130.391 53.799 130.127 53.9478 129.99 54.0852L129.646 54.4286C129.589 54.2569 129.509 53.8792 129.646 53.7418L129.474 53.9135L128.959 53.3984L129.646 52.7116C129.474 52.5971 129.062 52.3682 128.787 52.3682C128.644 52.3682 128.443 52.3093 128.207 52.2403C127.873 52.1426 127.471 52.0248 127.068 52.0248H126.036L126.208 52.5399C126.38 52.6544 126.793 52.8833 127.068 52.8833C127.288 52.8833 127.297 52.9537 127.319 53.1396C127.332 53.244 127.35 53.3849 127.412 53.5701C127.549 53.9822 127.24 54.7148 127.068 54.6003C126.839 54.5431 126.38 53.8792 126.38 53.7418C126.38 53.6044 125.922 53.3412 125.693 53.2267C125.635 53.1122 125.521 52.849 125.521 52.7116C125.521 52.6544 125.54 52.5971 125.559 52.5399C125.597 52.4254 125.635 52.311 125.521 52.1965C125.43 52.1064 125.293 52.1581 125.108 52.2276C124.941 52.2906 124.734 52.3682 124.489 52.3682H118.989C118.645 52.3682 119.676 52.7116 120.02 52.7116H121.223C121.66 52.7116 121.819 52.7116 121.965 52.7555C122.049 52.7808 122.129 52.8206 122.255 52.8833C122.314 52.9128 122.368 52.9422 122.42 52.9708C122.673 53.1089 122.888 53.2267 123.458 53.2267H124.146L125.693 53.9135C125.521 53.9707 125.039 54.0509 124.489 53.9135C124.146 53.8276 124.017 53.8276 123.866 53.8276C123.716 53.8276 123.544 53.8276 123.114 53.7418C122.255 53.5701 122.083 53.7418 121.911 53.9135C121.773 54.0509 120.593 53.8563 120.02 53.7418C119.046 53.8563 116.445 54.0165 113.832 53.7418C111.412 53.4874 108.144 53.9868 105.424 54.4024C104.472 54.5478 103.588 54.683 102.83 54.772C100.493 55.0467 96.6996 56.1456 95.0952 56.6607C95.3817 56.3745 95.7828 55.7335 95.0952 55.4588C94.4076 55.1841 93.4335 55.1154 93.0324 55.1154C93.9492 54.9437 96.1266 54.5659 97.5017 54.4286C99.2207 54.2569 101.112 53.3984 100.424 53.2267C99.8739 53.0893 96.2985 53.7418 94.5795 54.0852C94.9806 53.799 96.2297 53.1237 98.0174 52.7116C98.6466 52.5666 99.194 52.4216 99.698 52.288C100.984 51.9473 101.988 51.6814 103.346 51.6814C104.626 51.6814 104.331 51.4453 104.006 51.1862C103.851 51.0626 103.69 50.9338 103.69 50.8229C103.375 50.6658 103.133 50.6525 102.814 50.6349C102.436 50.614 101.951 50.5873 101.112 50.3078C100.999 49.8587 100.372 49.7767 99.6152 49.6777C99.2146 49.6253 98.7776 49.5682 98.3612 49.4493C97.2044 49.3443 97.1413 49.432 97.1093 49.4767C97.089 49.505 97.0811 49.516 96.8141 49.4493C96.1266 49.2776 98.0174 47.904 99.3926 47.5606C100.357 47.3197 100.984 47.5859 101.687 47.8847C101.986 48.0119 102.3 48.1449 102.659 48.2474C103.862 48.5908 103.69 47.904 102.659 47.5606C102.406 47.4766 102.164 47.4131 101.952 47.3576C101.299 47.1864 100.936 47.0912 101.455 46.7021C102.143 46.187 104.206 45.5002 104.893 45.3285C105.581 45.1568 106.097 45.5002 106.097 46.0153C106.097 46.3314 106.549 46.0011 107.019 45.6589C107.314 45.4434 107.616 45.2232 107.815 45.1568C108.331 44.9851 109.878 44.47 110.566 44.2984C111.068 44.1728 112.122 44.2308 112.854 44.2711C113.123 44.2859 113.349 44.2984 113.488 44.2984C113.778 44.2984 114.23 43.9734 114.753 43.5974C115.162 43.3038 115.614 42.9789 116.066 42.7531C116.763 42.4051 117.224 42.5272 117.662 42.6431C117.873 42.6988 118.078 42.7531 118.301 42.7531C118.704 42.7531 119.284 42.6352 119.764 42.5376C120.103 42.4686 120.393 42.4097 120.536 42.4097H122.083C122.358 42.4097 122.853 42.2997 123.447 42.1679L123.447 42.1678L123.448 42.1678C124.339 41.97 125.452 41.7229 126.38 41.7229C127.927 41.7229 130.506 42.238 132.74 43.2682C134.272 43.9744 134.673 43.9544 135.217 43.9273C135.466 43.9149 135.746 43.901 136.178 43.955C136.712 44.0216 137.116 44.0106 137.421 44.0024C137.902 43.9894 138.136 43.9831 138.241 44.2984C138.342 44.6014 138.979 44.9045 139.836 45.3125C140.436 45.598 141.143 45.9347 141.851 46.3587C142.329 46.6454 142.594 46.839 142.773 46.9691L142.773 46.9694C142.918 47.075 143.005 47.1388 143.103 47.1766C143.251 47.2341 143.423 47.2313 143.858 47.2243C144.048 47.2212 144.289 47.2172 144.601 47.2172C145.954 47.2172 148.268 48.6941 150.088 49.8561C151.044 50.4659 151.863 50.989 152.336 51.1663C153.152 51.4718 153.484 51.4149 154.049 51.3181C154.437 51.2516 154.935 51.1663 155.774 51.1663C157.424 51.1663 159.556 52.5399 160.415 53.2267C160.817 52.9405 161.859 52.5399 162.822 53.2267C163.785 53.9135 162.994 54.3141 162.478 54.4286L164.197 55.1154C163.911 54.8292 163.338 54.1195 163.338 53.5701C163.338 52.8833 165.916 53.3984 166.776 53.9135C167.266 54.2073 167.812 54.2218 168.637 54.2438C169.259 54.2603 170.039 54.281 171.073 54.4286C172.913 54.6912 172.14 54.9539 171.367 55.2165C171.129 55.2972 170.891 55.378 170.729 55.4588C170.468 55.5892 170.157 55.6949 169.919 55.7758C169.531 55.9078 169.337 55.9739 169.87 55.9739H175.027C175.785 55.9739 175.974 55.9739 175.979 56.0033C175.981 56.0132 175.962 56.0263 175.936 56.0438C175.865 56.0927 175.744 56.1759 175.886 56.3173C176.109 56.5401 176.187 56.4738 176.497 56.2122L176.497 56.2119C176.664 56.0703 176.899 55.8716 177.261 55.6305C178.095 55.0755 178.255 55.1932 178.467 55.3495C178.517 55.3866 178.57 55.4258 178.636 55.4588C178.884 55.5824 179.221 55.4389 179.582 55.2848C179.723 55.2249 179.867 55.1634 180.012 55.1154C180.269 55.0295 180.656 55.1583 181.107 55.3086C181.559 55.4588 182.074 55.6305 182.59 55.6305C183.345 55.6305 183.455 55.4465 183.595 55.2131C183.646 55.1277 183.701 55.0357 183.793 54.9437C183.971 54.7663 184.194 54.818 184.487 54.8858C184.762 54.9492 185.097 55.0267 185.512 54.9437C186.372 54.772 186.715 54.9437 186.887 55.6305C187.049 56.2776 186.906 56.4674 186.458 57.0617L186.454 57.0667L186.453 57.0675L186.427 57.1018L186.372 57.1758C185.856 57.8626 184.137 58.0343 182.934 58.0343H179.496C179.037 58.0343 179.114 58.1869 179.114 58.1869C179.114 58.1869 179.095 58.1487 178.98 58.0343C178.636 57.6909 178.121 58.7211 178.464 59.0645C178.747 59.347 179.263 59.1646 180.012 58.8997C180.173 58.8427 180.345 58.7819 180.527 58.7211C181.559 58.3777 182.246 58.5494 182.934 58.7211C183.392 58.8355 184.003 58.7974 184.615 58.7592C184.92 58.7401 185.226 58.7211 185.512 58.7211C186.372 58.7211 186.028 59.2362 185.512 59.4079C185.207 59.5095 184.782 59.4307 184.343 59.3495C184.04 59.2934 183.73 59.2362 183.449 59.2362C183.102 59.2362 183.062 59.4558 183.018 59.6951C182.976 59.9289 182.93 60.1815 182.59 60.2664C182.369 60.3216 182.219 60.3769 182.1 60.4207C181.849 60.513 181.736 60.5545 181.387 60.4381C181.161 60.3628 180.968 60.3205 180.793 60.2823C180.57 60.2334 180.377 60.1911 180.183 60.0947C180.034 60.0202 179.982 60.0748 179.887 60.1746C179.763 60.305 179.565 60.5125 178.98 60.6098L178.9 60.6232L178.702 60.6566C178.282 60.7279 178.136 60.7527 177.997 60.7309C177.924 60.7193 177.852 60.6945 177.742 60.6566L177.741 60.6562C177.701 60.6424 177.657 60.627 177.605 60.6098C177.089 60.4381 175.886 60.4381 175.027 60.4381C174.457 60.4381 174.265 60.2121 174.05 59.9598C173.941 59.8311 173.826 59.6955 173.651 59.5796C173.427 59.4299 173.398 59.5085 173.337 59.6732C173.259 59.8865 173.127 60.2443 172.448 60.4381C171.742 60.6397 171.687 60.6045 171.588 60.5412C171.519 60.4966 171.428 60.4381 171.073 60.4381C170.214 60.4381 169.87 60.0947 169.526 59.5796C169.182 59.0645 168.151 59.2362 169.01 60.0947C169.616 60.7001 169.197 60.7078 168.535 60.7199C168.258 60.725 167.939 60.7308 167.635 60.7815C166.955 60.8946 166.574 60.635 166.295 60.4447C166.151 60.3462 166.033 60.2664 165.916 60.2664C165.572 60.2664 165.229 60.6098 165.229 61.2966C165.229 61.6931 165.343 61.6317 165.572 61.5091C165.74 61.4192 165.969 61.2966 166.26 61.2966C166.523 61.2966 166.66 61.2715 166.777 61.2501C166.967 61.2155 167.104 61.1904 167.635 61.2966C167.954 61.3603 168.226 61.3767 168.442 61.3897C168.806 61.4118 169.01 61.4241 169.01 61.64C169.01 61.8831 169.441 61.9541 169.937 62.0357C170.141 62.0694 170.357 62.1049 170.557 62.155C170.967 62.2575 171.011 62.2377 171.161 62.1686C171.263 62.1219 171.414 62.0526 171.761 61.9833C172.257 61.8842 172.295 61.9568 172.37 62.1019C172.426 62.2082 172.501 62.3533 172.792 62.4984C173.48 62.8418 173.995 62.4984 174.511 62.155C174.878 61.9104 175.42 61.9272 176.385 61.9571C176.775 61.9692 177.233 61.9833 177.777 61.9833C178.904 61.9833 178.993 61.9833 179.063 61.947C179.066 61.9452 179.069 61.9434 179.073 61.9414L179.081 61.9368C179.125 61.9115 179.193 61.8723 179.496 61.8117C180.116 61.6878 180.467 62.0104 180.744 62.2643C180.851 62.3626 180.947 62.4506 181.043 62.4984C181.387 62.6701 181.559 62.4984 181.902 61.9833C182.158 61.6008 182.603 61.6918 182.956 61.7639C183.078 61.7889 183.189 61.8117 183.278 61.8117C183.553 61.8117 183.965 62.2695 184.137 62.4984H182.934C182.65 62.4984 182.366 62.6546 182.111 62.7949C181.902 62.9095 181.713 63.0135 181.559 63.0135C181.415 63.0135 181.361 62.9537 181.31 62.8965C181.239 62.8166 181.171 62.7418 180.871 62.8418C180.355 63.0135 180.012 63.0135 179.496 63.0135C178.98 63.0135 178.636 63.0135 178.121 63.3569C177.752 63.6022 177.559 63.5847 177.229 63.5547C177.096 63.5427 176.942 63.5286 176.746 63.5286C176.641 63.5286 176.47 63.5247 176.257 63.5198H176.257C175.066 63.4924 172.579 63.4351 173.308 63.872C174.098 64.3454 174.307 64.2387 174.869 63.9518L174.873 63.95C174.906 63.9332 174.94 63.9158 174.975 63.8978L175.01 63.8802L175.027 63.872C175.439 63.666 176.037 63.8308 176.636 63.9957C177.034 64.1055 177.433 64.2154 177.777 64.2154C178.05 64.2154 178.305 64.1808 178.532 64.1501C179.021 64.0839 179.379 64.0355 179.496 64.3871C179.668 64.9022 179.324 65.0739 178.98 65.0739C178.636 65.0739 176.402 65.589 175.886 65.7607C175.37 65.9324 173.308 65.7607 171.761 65.589C170.523 65.4517 167.578 65.1884 166.26 65.0739C166.661 65.1884 167.944 65.486 169.87 65.7607C170.636 65.87 171.21 65.9446 171.687 66.0064L171.688 66.0065L171.691 66.0069C172.71 66.1391 173.286 66.2137 174.339 66.4475C175.559 66.7183 175.924 66.4551 176.445 66.0791L176.446 66.0788L176.446 66.0785L176.446 66.0783C176.586 65.9778 176.736 65.8693 176.917 65.7607C177.777 65.2456 178.293 65.4173 178.636 65.7607C178.98 66.1041 179.84 66.2758 180.527 66.1041C181.077 65.9668 181.1 66.7337 181.043 67.1343C181.329 67.0199 182.04 66.6879 182.59 66.2758C182.973 65.9892 183.462 66.0747 183.88 66.1478C184.213 66.2061 184.5 66.2564 184.653 66.1041C184.882 65.8752 185.111 65.9515 185.34 66.0278C185.455 66.066 185.57 66.1041 185.684 66.1041C185.772 66.1041 185.94 66.1267 186.146 66.1545C186.742 66.2351 187.663 66.3594 187.919 66.1041C188.164 65.8588 188.41 66.0516 188.655 66.2443C188.754 66.3214 188.852 66.3985 188.95 66.4475C189.163 66.5536 189.244 66.3974 189.356 66.1815C189.425 66.0481 189.506 65.8919 189.638 65.7607C189.85 65.5485 190.128 65.5986 190.513 65.6678C190.75 65.7106 191.028 65.7607 191.357 65.7607C191.951 65.7607 192.38 65.4328 192.646 65.2301C192.765 65.1395 192.851 65.0739 192.904 65.0739H194.107C194.623 64.845 195.929 64.3871 197.029 64.3871C198.045 64.3871 198.498 63.8248 198.735 63.5311C198.818 63.4273 198.875 63.3569 198.92 63.3569H200.123C200.467 63.3569 200.983 63.1852 201.327 63.0135C201.602 62.8762 201.9 62.2695 202.014 61.9833L202.186 62.4984H202.702L203.046 61.8117C203.332 61.8689 203.974 61.9147 204.249 61.64C204.524 61.3652 205.395 60.6098 205.796 60.2664H206.655C207.062 60.2664 207.057 59.8221 207.002 59.59C207.08 59.8616 208.037 59.6811 211.297 56.8324C215.135 53.4773 214.211 48.3382 213.787 45.9801C213.756 45.804 213.727 45.6434 213.703 45.5002C213.359 43.4399 208.202 33.1379 205.796 30.5624C203.871 28.502 199.264 17.7995 197.201 12.7057C197.373 12.8774 197.82 13.3582 198.232 13.9076C198.645 14.4571 200.353 17.4561 201.155 18.8869C200.238 16.8265 198.198 12.3967 197.373 11.1604C196.342 9.61515 196.342 7.72646 196.857 7.03966C197.373 6.35287 197.545 6.35287 199.608 11.5038C201.186 15.4455 203.624 18.8635 204.786 20.2552C203.509 18.6872 201.292 14.4609 200.626 12.553C201.131 13.5089 202.606 15.5286 203.804 17.1695C204.432 18.0299 204.984 18.7861 205.28 19.2303C206.105 20.4665 211.239 26.8423 213.703 29.8756C213.474 29.4178 213.084 28.4677 213.359 28.3303C213.567 28.2268 213.586 27.9982 213.607 27.7578C213.621 27.5996 213.635 27.4364 213.703 27.3001C213.875 26.9568 208.546 20.2605 207.171 18.5435C206.071 17.1699 203.619 12.4768 202.53 10.3019C204.363 12.8202 208.065 17.9941 208.202 18.5435C208.31 18.975 211.88 23.7452 215.158 28.1258L215.158 28.1264L215.159 28.1273L215.16 28.1288C217.098 30.7187 218.933 33.172 219.891 34.5115C222.47 38.1172 225.564 44.1267 225.908 47.0455C226.251 49.9644 225.736 53.2267 222.642 58.0343C220.166 61.8803 214.391 64.7878 211.812 65.7607C211.526 66.1614 210.85 66.997 210.437 67.1343C209.921 67.306 209.406 67.9928 209.234 68.3362C209.062 68.6796 204.764 70.3966 203.905 70.3966C203.423 70.3966 203.103 70.5588 202.702 70.7618C202.389 70.9206 202.027 71.1044 201.498 71.2551C201.327 71.7702 199.092 72.6287 197.545 73.1438C197.444 73.1773 197.328 73.2166 197.197 73.2611L197.197 73.2613C195.312 73.9007 190.292 75.6035 182.418 76.4061C175.221 77.1396 172.416 76.2435 171.216 75.86C171.012 75.7947 170.854 75.7443 170.729 75.7193C169.87 75.5476 166.432 75.0325 164.541 74.8608C164.388 74.8469 164.221 74.7873 164.043 74.689C164.125 75.3441 164.119 75.8907 164.025 76.2344C163.51 78.1231 162.306 80.0117 159.728 83.4457C158.458 85.1371 158.534 86.1416 158.616 87.2328C158.662 87.8439 158.71 88.4822 158.525 89.2835C158.009 91.5156 160.747 102.512 161.103 103.771C161.619 105.595 162.994 113.15 163.166 117.614C162.861 116.801 162.832 116.77 162.803 116.737C162.783 116.715 162.762 116.692 162.65 116.412C162.375 115.725 162.077 113.951 161.963 113.15C162.02 113.836 162.1 115.313 161.963 115.725C161.874 115.989 162.012 116.298 162.19 116.698C162.36 117.079 162.566 117.543 162.65 118.129C162.723 118.639 162.8 119.312 162.893 120.131L162.893 120.132L162.893 120.136C163.008 121.145 163.148 122.375 163.338 123.795C163.681 126.37 162.644 131.197 161.963 133.238C161.765 133.829 161.681 134.646 161.581 135.623L161.581 135.623C161.506 136.351 161.422 137.167 161.275 138.046C160.878 140.423 160.072 143.369 157.149 143.54C154.812 143.678 153.712 140.278 153.712 138.733C153.67 138.795 153.627 138.934 153.576 139.099C153.486 139.389 153.371 139.76 153.196 139.935C153.032 140.099 153.142 140.536 153.246 140.949C153.359 141.401 153.465 141.823 153.196 141.823C152.812 141.823 152.706 142.417 152.64 142.787C152.599 143.013 152.574 143.156 152.508 143.025C152.43 142.869 152.352 142.536 152.274 142.202C152.18 141.802 152.086 141.402 151.993 141.308C151.855 141.171 151.706 140.106 151.649 139.591C151.477 139.649 151.168 139.832 151.305 140.106C151.443 140.381 151.592 142.281 151.649 143.197C151.592 143.025 151.443 142.51 151.305 141.823C151.168 141.137 150.789 140.393 150.617 140.106C150.511 140.178 150.389 140.271 150.247 140.38C149.702 140.798 148.851 141.451 147.351 141.995C145.327 142.73 142.195 143.025 139.616 143.025C138.802 143.025 137.868 143.042 136.885 143.06C134.753 143.099 132.388 143.143 130.506 143.025C129.082 142.936 126.925 142.475 125.076 142.079C123.576 141.758 122.278 141.48 121.739 141.48C120.937 141.48 119.066 141.633 117.195 141.785L117.195 141.785L117.194 141.785L117.193 141.785C116.257 141.862 115.322 141.938 114.519 141.995C112.771 142.12 106.612 142.167 105.065 141.995C103.666 141.84 101.563 141.965 99.0118 142.118C98.7425 142.134 98.4683 142.15 98.1893 142.167C95.8516 142.304 93.5482 141.766 92.6887 141.48C92.8033 142.281 92.8606 143.746 92.8606 144.571C92.8606 144.73 92.8893 144.983 92.9252 145.3C93.1216 147.033 93.5327 150.66 90.6259 151.095C87.7479 151.526 86.7973 149.912 86.3624 149.173L86.3622 149.173C86.2776 149.029 86.2126 148.919 86.1566 148.863C85.6555 148.362 85.641 151.095 85.8129 151.782C85.9847 152.469 85.0675 151.352 84.7815 150.923C84.4377 150.408 84.0939 149.722 83.8575 149.249C83.6212 148.777 83.4923 148.52 83.5782 148.863C83.7157 149.413 83.9793 150.695 84.0939 151.267C83.6355 150.58 82.7187 149.138 82.7187 148.863C82.7187 148.706 82.467 148.299 82.1608 147.804C81.7987 147.218 81.3603 146.509 81.1717 145.944L81.1403 145.85C81.1235 145.8 81.1069 145.751 81.0904 145.702L81.017 145.484C80.5866 144.21 80.2944 143.345 80.1403 141.652C80.0988 141.196 79.9771 140.699 79.8236 140.074C79.3415 138.108 78.5459 134.865 78.937 127.572C79.4356 118.277 79.3427 118.03 78.704 116.334C78.5747 115.99 78.4231 115.588 78.2495 115.038C77.3455 112.179 77.7338 108.342 78.5932 102.504C79.2808 97.8341 80.7133 92.603 81.3436 90.4854C81.0571 89.8558 80.4153 88.425 80.1403 87.7382C79.7965 86.8797 78.4362 83.4392 78.5932 81.557C78.7181 80.0611 78.6616 77.5697 78.6213 75.7911L78.6213 75.7895C78.6061 75.119 78.5932 74.55 78.5932 74.174C78.5932 73.4114 78.7522 72.5957 78.8642 72.021C78.9539 71.5608 79.0135 71.2551 78.937 71.2551C78.8888 71.2551 78.8541 71.2686 78.8139 71.2843C78.7109 71.3244 78.5721 71.3786 78.0776 71.2551C77.8288 71.193 77.7826 71.0185 77.8655 70.756L76.1867 71.4268C75.3272 71.7702 74.6396 72.2853 74.6396 72.2853C74.6422 72.2929 74.6447 72.3007 74.6473 72.3088C74.7031 72.4834 74.7914 72.76 75.8429 72.6287C76.3073 72.5707 76.5635 72.3781 76.8337 72.1748C77.2036 71.8966 77.6 71.5985 78.5933 71.5985C78.5497 71.6783 78.5006 71.771 78.446 71.8741C78.0696 72.5844 77.4311 73.7896 76.5304 74.6892C75.8216 75.3971 74.2958 76.9212 72.7488 77.7797C71.2018 78.6382 67.7638 79.325 67.0762 79.325C66.8308 79.325 66.5164 79.4477 66.1443 79.593C65.4742 79.8547 64.617 80.1895 63.6383 80.0117C61.7475 79.6684 60.0286 80.0117 59.8567 80.1834C59.7421 80.0117 59.5128 79.84 58.8253 79.84C58.2861 79.84 57.7469 79.9339 57.2323 80.0235C56.7625 80.1052 56.3132 80.1834 55.903 80.1834C55.547 80.1834 54.5422 80.1245 53.3649 80.0555C51.7001 79.9579 49.6904 79.84 48.6834 79.84C48.0532 79.7828 46.5863 79.7027 45.7612 79.84C44.9383 79.977 44.8814 79.7861 44.8047 79.529C44.7853 79.4638 44.7646 79.3944 44.7298 79.325C44.6033 79.0722 44.1043 79.0985 43.5069 79.13C43.2927 79.1413 43.0658 79.1533 42.839 79.1533C42.4288 79.1533 42.2144 79.0751 41.9902 78.9933C41.7446 78.9037 41.4873 78.8099 40.9481 78.8099C40.2943 78.8099 40.1931 78.7408 40.1191 78.6903C40.0763 78.6612 40.0426 78.6382 39.9168 78.6382C39.573 78.6382 38.8854 78.4665 38.7135 78.2948C38.5969 78.1783 38.4014 78.2198 37.966 78.3121C37.7593 78.3559 37.4983 78.4112 37.1664 78.4665C36.4611 78.5839 35.8362 78.3801 35.2367 78.1846C34.9595 78.0942 34.6878 78.0056 34.4161 77.9514C33.6933 77.807 31.8765 76.6912 30.8057 76.0335C30.6031 75.9092 30.4273 75.8012 30.2906 75.7193C29.4311 75.2042 26.6808 72.8004 26.337 72.457C25.9932 72.1136 24.9619 72.1136 25.1338 72.457C25.3057 72.8004 25.4776 73.1438 25.1338 73.3155C24.9233 73.4206 24.5839 73.3326 24.3918 73.2486C24.425 73.3639 24.3858 73.5475 24.2743 73.6589C24.1024 73.8306 23.9305 73.3155 23.9305 73.1438C23.9305 73.0727 23.9895 72.9426 24.0586 72.7903C24.1563 72.5748 24.2743 72.3148 24.2743 72.1136C24.2743 71.7702 23.5867 72.1136 23.5867 72.2853C23.5867 72.457 23.4148 72.457 23.071 72.1136C22.7687 71.8116 21.5361 71.7752 21.3598 71.7708C21.4952 71.7916 21.6396 72.3479 21.6959 72.6287C21.925 72.5142 22.5553 72.3883 23.2429 72.8004C23.8954 73.1914 23.5572 73.2856 23.2061 73.3834C23.0946 73.4144 22.9819 73.4458 22.8991 73.4872C22.5553 73.6589 23.2429 74.0023 24.2743 74.0023C25.3057 74.0023 25.6494 74.5174 25.6494 74.6891C25.6494 74.7749 25.3916 74.9466 25.1338 75.1183C24.8759 75.29 24.6181 75.4617 24.6181 75.5476C24.6181 75.7193 25.1338 76.0627 25.9932 76.0627C26.5871 76.0627 26.8527 76.3906 27.0169 76.5933C27.0903 76.6839 27.1434 76.7495 27.1965 76.7495C27.3684 76.7495 28.5717 76.9212 28.5717 77.0929C28.5717 77.2126 29.073 77.1654 29.4932 77.1258C29.6756 77.1086 29.8428 77.0929 29.9468 77.0929C30.1187 77.0929 30.4625 77.2646 30.8493 77.4577C31.236 77.6509 31.6658 77.8655 32.0096 77.9514C32.6972 78.1231 35.1037 78.6382 37.6821 78.6382C39.7449 78.6382 40.9481 79.2105 41.2919 79.4967C41.3492 79.4967 41.567 79.4623 41.9795 79.325C42.3921 79.1876 42.7244 79.4967 42.839 79.6684C42.8963 79.6684 43.1484 79.7027 43.6985 79.84C44.0423 79.9259 44.3861 79.9259 44.6439 79.9259C44.9017 79.9259 45.0736 79.9259 45.0736 80.0117C45.0736 80.1834 43.5266 80.1834 42.839 80.1834H40.6044C40.2606 80.5268 38.7001 80.4661 36.4789 80.3551C36.1893 80.3407 35.8836 80.3275 35.5626 80.3136C33.2122 80.2122 30.0485 80.0756 26.5089 79.1533C23.3498 78.3301 19.093 75.5335 16.6329 73.9173L16.6326 73.9171C16.0141 73.5108 15.5092 73.1791 15.1638 72.9721C14.6318 72.6532 12.7196 71.2608 11.8978 70.5683C11.504 70.1749 11.201 69.8572 10.9422 69.5858C10.5235 69.1466 10.2202 68.8285 9.83507 68.5079C9.83507 68.5079 13.1011 70.2249 13.273 70.2249C13.4449 70.2249 11.3821 69.023 11.3821 69.023C11.3821 69.023 10.3508 68.3362 9.83508 68.1645C9.31941 67.9928 9.14748 67.1343 9.14748 67.1343C9.14748 67.1343 13.4449 68.6796 13.4449 68.5079C13.4449 68.3856 12.9217 68.0892 12.3101 67.7426C12.063 67.6025 11.8013 67.4542 11.554 67.306C10.6945 66.7909 9.66317 65.4173 9.66317 65.4173L11.3821 66.2758C12.0697 66.6192 12.9292 66.6192 12.9292 66.6192C12.9292 66.6192 10.1789 65.4173 8.97561 64.5588C7.77235 63.7003 5.03021 61.1 2.78735 57.6909C-1.16625 51.6814 0.0370272 46.5304 0.724627 43.7833C1.41223 41.0361 7.94423 27.3001 12.5854 20.7756C17.1977 14.2917 20.4926 5.15097 20.8364 3.43398ZM44.7298 62.4984C44.801 62.4984 44.9017 62.469 45.0197 62.4345C45.1865 62.3857 45.3879 62.3267 45.5893 62.3267C45.7612 62.8418 44.9017 62.8418 44.5579 62.8418C44.2142 62.8418 43.3547 62.4984 43.5266 62.4984H44.7298ZM56.7625 63.1852C56.5906 63.2997 56.2125 63.5286 56.0749 63.5286H56.9344C57.1063 63.5286 57.1063 63.1852 56.7625 63.1852ZM49.5429 64.9022C49.6804 64.9022 50.1732 64.7878 50.4024 64.7305C50.4597 64.7878 50.5399 64.9366 50.4024 65.0739C50.3093 65.1669 50.1155 65.2095 49.9027 65.2563C49.7225 65.296 49.5287 65.3386 49.371 65.4173C49.0272 65.589 48.5115 65.4173 48.5115 65.2456C48.5115 65.1598 48.1678 65.1598 47.8025 65.1598C47.4372 65.1598 47.0504 65.1598 46.9645 65.0739C46.7926 64.9022 48.1678 64.9022 48.5115 64.9022C48.6834 64.9022 48.7264 64.9881 48.7694 65.0739C48.8124 65.1598 48.8553 65.2456 49.0272 65.2456C49.2286 65.2456 49.312 65.1278 49.3811 65.0302C49.43 64.9612 49.4717 64.9022 49.5429 64.9022ZM59.5128 64.9022C59.5128 65.0167 59.4785 65.2456 59.341 65.2456C59.2698 65.2456 59.287 65.334 59.3073 65.4375C59.3359 65.584 59.3704 65.7607 59.1691 65.7607C58.9972 65.7607 58.7823 65.8037 58.5674 65.8466C58.3526 65.8895 58.1377 65.9324 57.9658 65.9324C57.8113 65.9324 57.5178 66.0365 57.1947 66.1511C56.799 66.2914 56.3588 66.4475 56.0749 66.4475C55.791 66.4475 55.3509 66.4996 54.9552 66.5463C54.6322 66.5845 54.3386 66.6192 54.1841 66.6192C53.8403 66.6192 53.3246 66.9626 54.0122 66.9626C54.1841 66.9626 54.356 66.9734 54.5279 66.9841C55.0436 67.0163 55.5593 67.0485 56.0749 66.7909C56.484 66.5866 56.8322 66.5646 57.1557 66.5442C57.3761 66.5303 57.585 66.5171 57.7939 66.4475C57.9814 66.3851 58.2597 66.3227 58.5381 66.2602C59.0254 66.151 59.5128 66.0417 59.5128 65.9324V64.9022ZM28.056 65.4173C27.781 65.28 27.2538 65.2456 27.0246 65.2456C27.5577 65.3787 27.9874 65.615 28.3138 65.7945C28.4084 65.8466 28.4944 65.8938 28.5717 65.9324C28.9155 66.1041 28.3998 65.589 28.056 65.4173ZM18.4298 68.8513C17.3985 68.6796 16.7109 67.6494 16.7109 67.6494C16.7109 67.6494 18.2411 68.4438 18.7736 68.6796C20.1488 69.023 20.8364 69.7098 20.8364 69.7098C20.8364 69.7098 18.5994 68.8795 18.4298 68.8513ZM38.0259 74.5174C37.5102 74.4601 36.4445 74.3113 36.307 74.174C36.1351 74.0023 34.7599 73.3155 34.588 73.3155C34.5021 73.3155 34.1583 73.1867 33.8145 73.0579C33.4707 72.9292 33.1269 72.8004 33.041 72.8004C32.9427 72.8004 33.2935 73.0247 33.6443 73.2489C33.9074 73.4171 34.1705 73.5853 34.2442 73.6589C34.3302 73.7447 34.588 73.7877 34.8459 73.8306C35.1037 73.8735 35.3615 73.9164 35.4475 74.0023C35.6194 74.174 36.6508 74.6891 38.0259 74.5174ZM37.5102 71.2551C37.7681 71.341 38.1548 71.3839 38.5416 71.4268C38.9284 71.4697 39.3151 71.5126 39.573 71.5985C40.9481 71.8099 40.2606 72.1136 40.0887 72.1136C40.0258 72.1136 39.8709 72.0906 39.6745 72.0615L39.6741 72.0614C39.3337 72.0109 38.8685 71.9419 38.5416 71.9419C38.0259 71.9419 36.9945 71.0834 37.5102 71.2551ZM42.6671 69.8815C42.7244 69.8815 42.7359 69.8472 42.3233 69.7098C42.0655 69.624 41.6357 69.624 41.206 69.624C40.7762 69.624 40.3465 69.624 40.0887 69.5381C39.8563 69.4608 39.5543 69.4183 39.2767 69.3792C38.9381 69.3316 38.6361 69.2891 38.5416 69.1947C38.3697 69.023 38.8854 69.8815 39.2292 69.8815C39.3226 69.8815 39.4667 69.8688 39.6374 69.8538C40.0952 69.8136 40.7445 69.7565 41.12 69.8815C41.6357 70.0532 42.4952 70.2249 42.6671 69.8815ZM42.3233 71.9419C42.839 71.9419 43.3547 72.1136 43.5266 72.457H42.4952C42.2202 72.457 41.5784 72.1136 41.2919 71.9419H42.3233ZM46.4488 70.2249C46.6207 70.5683 46.7926 70.74 47.1364 70.74H49.0272C49.371 70.74 48.3396 70.3966 47.6521 70.3966C47.1937 70.3966 46.8881 70.3203 46.6844 70.2694C46.5825 70.244 46.5061 70.2249 46.4488 70.2249ZM51.4338 74.0023C51.6057 74.174 52.637 74.174 52.8089 74.174C52.723 74.174 52.2932 74.2169 51.8635 74.2598C51.4338 74.3028 51.004 74.3457 50.9181 74.3457C50.8552 74.3457 50.562 74.3227 50.1904 74.2935L50.1897 74.2935C49.5458 74.243 48.6665 74.174 48.3396 74.174C47.824 74.174 46.105 73.8306 46.2769 73.8306C46.3147 73.8306 46.3942 73.8223 46.5007 73.8111C46.8779 73.7716 47.5937 73.6967 47.9959 73.8306C48.5115 74.0023 50.4024 74.0023 50.7462 74.0023C50.8775 74.0023 50.9837 73.9772 51.0745 73.9558C51.2213 73.9212 51.3275 73.8962 51.4338 74.0023ZM202.945 19.3199C202.643 18.9619 202.428 18.6844 202.358 18.5435C202.263 18.3547 202.442 18.6071 202.811 19.1296L202.811 19.1299L202.945 19.3199ZM202.945 19.3199C204.117 20.7068 206.608 23.3035 207.171 23.8662C208.071 24.7654 209.365 26.7116 210.822 28.9047L210.834 28.923C211.043 29.2363 211.254 29.5546 211.468 29.8756C210.953 29.1888 208.556 26.0877 208.202 25.7549C206.176 23.8497 203.984 20.7884 202.945 19.3199ZM214.219 29.8756C214.333 29.8756 214.597 29.9443 214.734 30.219C214.906 30.5624 215.078 30.9058 214.906 30.9058C214.792 30.9058 214.677 30.7532 214.563 30.6006L214.562 30.6002C214.505 30.524 214.448 30.4479 214.391 30.3907C214.253 30.2534 214.219 29.9901 214.219 29.8756ZM211.297 65.9324C211.174 65.9324 209.813 66.3102 209.406 66.4475L209.749 66.7909L211.297 65.9324ZM208.202 66.9626C208.182 66.9626 208.124 66.9824 208.038 67.0172C208.096 66.9981 208.151 66.9799 208.202 66.9626ZM208.038 67.0172C207.138 67.3156 205.581 67.8211 205.452 67.8211C205.366 67.8211 204.764 68.0787 204.163 68.3362C203.561 68.5938 202.96 68.8513 202.874 68.8513C202.736 68.8513 203.046 68.9658 203.217 69.023C203.79 68.7941 204.971 68.3362 205.108 68.3362C205.194 68.3362 205.925 67.9928 206.655 67.6494L206.656 67.649C207.211 67.3882 207.766 67.1274 208.038 67.0172ZM173.48 70.5683L172.792 70.2249H172.104C171.99 70.1104 171.726 69.8815 171.589 69.8815H171.073L171.761 70.3966L172.448 70.5683H173.48ZM168.495 71.9419L167.291 71.5985H166.947L166.432 71.2551H165.744L165.4 70.9117L164.197 70.74L165.4 71.2551L166.26 71.5985L167.291 71.7702L168.495 71.9419ZM106.097 50.3078L105.753 49.9644H106.097L104.893 49.2776V48.9342H104.206L103.862 49.2776L104.034 49.4493L103.862 49.621H103.518C103.174 49.7355 102.624 49.9644 103.174 49.9644C103.724 49.9644 104.32 49.7355 104.549 49.621L106.097 50.3078ZM104.893 51.5097L105.065 51.6814L105.409 51.8531V52.1107H104.721V51.8531L104.549 51.5097H104.893ZM110.05 48.0757C110.394 47.904 111.288 47.5263 112.113 47.3889L114.176 47.0455C113.889 46.8738 113.247 46.5304 112.972 46.5304C112.8 46.5304 112.671 46.6163 112.543 46.7021C112.414 46.788 112.285 46.8738 112.113 46.8738C111.969 46.8738 111.856 46.814 111.747 46.7568C111.596 46.6769 111.454 46.6021 111.253 46.7021C111.081 46.788 110.867 47.0026 110.652 47.2172C110.437 47.4318 110.222 47.6465 110.05 47.7323C109.849 47.8326 109.59 47.6987 109.341 47.57C109.163 47.4782 108.99 47.3889 108.847 47.3889C108.688 47.3889 108.529 47.6084 108.371 47.8278C108.186 48.0839 108.001 48.3399 107.815 48.2474C107.673 48.1764 107.531 47.988 107.401 47.8156C107.217 47.5712 107.057 47.3592 106.956 47.5606C106.846 47.7809 107.089 48.0717 107.278 48.2973C107.383 48.4235 107.472 48.5292 107.472 48.5908C107.472 48.7625 108.675 49.1059 109.019 48.7625C109.363 48.4191 109.878 48.0757 110.05 48.0757ZM114.004 49.9644C114.176 50.1361 114.519 50.1361 115.379 49.7927C116.238 49.4493 117.785 48.9342 118.301 48.9342C118.817 48.9342 119.676 48.5908 119.676 48.4191C119.676 48.2474 118.301 48.4191 117.957 48.5908C117.785 48.6767 117.399 48.7625 117.012 48.8484C116.625 48.9342 116.238 49.0201 116.066 49.1059C115.962 49.1583 115.761 49.2107 115.522 49.2728C114.979 49.4144 114.243 49.6065 114.004 49.9644ZM123.887 43.9509C123.659 43.9095 123.453 43.8718 123.286 43.9549C122.942 44.1267 121.739 44.6417 121.395 44.6417C121.051 44.6417 122.083 43.9549 122.598 43.9549C122.755 43.9549 122.974 43.9392 123.213 43.922C123.764 43.8825 124.422 43.8352 124.661 43.9549C124.395 44.0435 124.129 43.9951 123.887 43.9509ZM126.38 46.8738C126.208 46.8738 125.005 46.8738 124.317 47.0455C123.63 47.2172 122.255 47.5606 121.911 47.5606C121.567 47.5606 120.88 47.7323 121.395 47.7323C121.635 47.7323 122.133 47.6214 122.667 47.5025C123.284 47.3652 123.949 47.2172 124.317 47.2172C125.005 47.2172 126.552 46.8738 126.38 46.8738ZM166.432 57.0041C166.294 57.0041 166.145 57.1185 166.088 57.1758L166.776 57.3475C166.718 57.233 166.569 57.0041 166.432 57.0041ZM165.057 57.6909C165.4 57.8626 165.744 58.206 165.4 58.206C165.057 58.206 164.885 58.206 164.885 58.0343C164.885 57.8626 164.925 57.6169 165.057 57.6909ZM167.194 55.2959C166.655 55.4074 166.116 55.6305 166.655 55.6305C167.194 55.6305 167.463 55.6305 167.463 55.519C167.463 55.4074 167.4 55.2478 167.194 55.2959ZM208.718 27.8152C209.234 28.3876 210.334 29.6009 210.609 29.8756C210.884 30.1504 211.182 30.6769 211.297 30.9058C210.666 30.1618 209.268 28.502 208.718 27.8152ZM147.867 75.2042L148.211 75.5476C147.677 76.0808 146.666 77.115 146.286 77.5859L146.325 77.5252L146.354 77.4793L146.516 77.2212L146.517 77.2195L146.518 77.2191C146.959 76.5187 147.651 75.4201 147.867 75.2042ZM146.148 77.7797C146.106 77.8633 146.166 77.7739 146.286 77.5859C146.217 77.671 146.169 77.7376 146.148 77.7797ZM145.461 76.7495C145.575 76.7495 145.69 76.5968 145.804 76.4442L145.805 76.4439C145.862 76.3678 145.919 76.2915 145.976 76.2344L146.148 76.9212C145.804 77.3218 145.082 78.1574 144.945 78.2948C144.773 78.4665 144.429 79.4967 144.429 80.0117C144.429 80.5268 143.57 81.3853 143.398 81.3853C143.26 81.3853 142.768 82.0721 142.538 82.4155C142.71 82.0149 143.054 81.145 143.054 80.8702C143.054 80.6691 143.349 80.291 143.593 79.978C143.766 79.7567 143.914 79.5677 143.914 79.4967C143.914 79.325 144.257 78.6382 144.429 78.2948C144.601 77.9514 145.289 76.7495 145.461 76.7495ZM143.742 88.2533L143.398 88.9401C143.455 89.3407 143.351 89.6587 143.398 89.7986C143.535 90.2107 143.57 90.0848 143.742 90.4854V88.2533ZM146.32 82.7589C146.721 82.4155 147.523 81.6257 147.523 81.2136C147.523 81.0628 147.509 80.9414 147.496 80.8408C147.467 80.598 147.452 80.4766 147.695 80.3551C148.039 80.1834 147.867 79.1533 147.695 79.325C147.642 79.3777 147.444 79.5277 147.188 79.7201C146.613 80.1541 145.752 80.804 145.632 81.0419C145.557 81.1925 145.581 81.3431 145.602 81.4792C145.63 81.6535 145.654 81.804 145.461 81.9004C145.117 82.0721 145.117 82.5872 145.461 82.4155C145.718 82.2868 146.17 81.7717 146.452 81.4497C146.546 81.3424 146.621 81.2566 146.664 81.2136C146.721 81.1565 146.797 81.0612 146.874 80.9659C147.027 80.7751 147.18 80.5841 147.18 80.6985C147.18 80.7073 147.18 80.7165 147.182 80.7263C147.184 80.7374 147.186 80.7493 147.189 80.7622C147.191 80.7689 147.193 80.7761 147.195 80.7834L147.195 80.784C147.246 80.9905 147.354 81.4308 146.32 82.7589ZM147.982 76.818C148.003 76.7932 148.022 76.7703 148.039 76.7495C147.991 76.7974 147.946 76.8528 147.903 76.9143C147.566 77.3293 146.969 78.0954 146.492 78.8099C145.942 79.634 144.888 80.8702 144.429 81.3853C145.174 80.813 146.733 79.5653 147.008 79.1533C147.151 78.9379 147.265 78.5725 147.386 78.1825C147.528 77.7266 147.681 77.2369 147.903 76.9143C147.932 76.8797 147.958 76.8475 147.982 76.818ZM95.6109 90.4854C95.3244 90.142 94.717 89.4552 94.5795 89.4552C94.5292 89.4552 94.4936 89.4405 94.4641 89.4283C94.3929 89.3988 94.3573 89.3841 94.2357 89.6269C94.1628 89.7726 94.1827 89.9802 94.2036 90.1972C94.2318 90.4914 94.2617 90.8028 94.0638 91.0005C93.7888 91.2752 93.7201 91.4583 93.7201 91.5156C93.9492 91.2866 94.4764 90.8288 94.7514 90.8288C95.0265 90.8288 95.439 90.5998 95.6109 90.4854ZM161.275 113.321V114.867C161.275 115.279 161.504 116.069 161.619 116.412C161.561 115.496 161.412 113.596 161.275 113.321ZM98.0174 94.9496C98.2925 94.6749 98.4758 93.8049 98.5331 93.4043C98.4758 93.9194 98.3269 95.0182 98.1893 95.293L96.8142 98.0401C97.1007 97.1244 97.7424 95.2243 98.0174 94.9496ZM91.6573 99.5854C91.6 99.7571 91.451 100.135 91.3135 100.272C91.2147 100.371 91.1727 100.413 91.1548 100.463C91.1416 100.501 91.1416 100.543 91.1416 100.616V101.131L91.4854 100.959C91.6 100.787 91.8292 100.41 91.8292 100.272V99.7571C91.8292 99.5854 91.8292 99.4137 91.6573 99.5854ZM92.0011 102.504C91.8292 102.676 91.6573 103.019 91.4854 103.363C91.3135 103.706 91.1416 104.05 91.1416 104.221C91.1416 104.273 91.1731 104.325 91.2075 104.382C91.2868 104.513 91.3813 104.669 91.1416 104.908C90.7978 105.252 90.6259 106.11 90.6259 106.453C90.6259 106.728 90.8551 107.484 90.9697 107.827C91.1989 107.598 91.6573 107.037 91.6573 106.625C91.6573 106.465 91.6406 106.254 91.6228 106.03C91.5835 105.534 91.539 104.973 91.6573 104.736C91.6942 104.663 91.747 104.565 91.8071 104.454L91.8074 104.453C92.0272 104.047 92.3449 103.461 92.3449 103.191C92.3449 102.848 92.3449 102.333 92.0011 102.504ZM93.0325 107.14C92.895 107.827 91.8292 109.372 91.3135 110.059C91.4854 109.544 91.898 108.273 92.173 107.312C92.5168 106.11 93.5482 103.191 93.7201 103.706C93.8399 104.065 93.5419 105.176 93.2923 106.106C93.1838 106.51 93.0845 106.88 93.0325 107.14ZM90.6259 108.685C90.7978 109.372 89.7665 110.746 89.5946 110.918V109.201C89.5946 108.857 89.5946 108.514 89.4227 107.999C89.2508 107.484 90.2821 106.797 90.2821 106.968C90.2821 107.14 90.454 107.999 90.6259 108.685ZM90.1102 104.908C90.2821 104.736 89.9384 105.938 89.7665 106.282C89.6519 106.396 89.3883 106.694 89.2508 106.968C89.1477 107.175 88.9826 107.875 88.8671 108.366C88.7901 108.692 88.7351 108.926 88.7351 108.857C88.7351 108.821 88.7428 108.73 88.7534 108.606L88.7535 108.606C88.7927 108.148 88.8704 107.239 88.7351 106.968C88.5632 106.625 88.907 106.11 89.2508 105.767L90.1102 104.908Z" fill="white"/>
<path d="M200.467 12.0189C200.411 12.0754 200.475 12.2664 200.626 12.553C200.554 12.3454 200.5 12.1652 200.467 12.0189Z" fill="white"/>
<path d="M150.789 62.8418C150.693 62.6014 150.548 62.2922 150.354 61.9385L150.789 62.8418Z" fill="white"/>
<path d="M18.0861 49.9644C17.9142 49.7927 18.0861 49.621 18.2579 49.621C18.5096 49.621 18.4849 49.713 18.4536 49.8297C18.4422 49.8724 18.4298 49.9184 18.4298 49.9644C18.4298 50.1361 18.2579 50.1361 18.0861 49.9644Z" fill="white"/>
<path d="M19.0249 51.0345C18.9691 51.0511 18.9455 51.0582 18.9455 50.9946C18.9455 50.8229 18.7736 51.6814 19.1174 51.6814C19.2627 51.6814 19.3773 51.7121 19.4612 51.7345C19.5758 51.7652 19.6331 51.7805 19.6331 51.6814V51.1663C19.3083 50.95 19.1199 51.0062 19.0249 51.0345Z" fill="white"/>
<path d="M19.9769 52.3682C20.0984 52.4896 20.0481 52.5252 19.9474 52.5963C19.9057 52.6258 19.8553 52.6613 19.805 52.7116C19.805 52.8833 19.6331 53.055 19.4612 53.055C19.2893 53.055 19.1174 52.5399 19.1174 52.3682C19.1174 52.2824 19.2463 52.3253 19.3753 52.3682C19.5042 52.4111 19.6331 52.4541 19.6331 52.3682C19.6331 52.1965 19.805 52.1965 19.9769 52.3682Z" fill="white"/>
<path d="M20.2925 53.48C20.3191 53.33 20.3374 53.2267 20.1488 53.2267H19.805C19.6331 53.2267 19.6331 53.7418 19.805 53.9135C19.9769 54.0852 20.1488 54.0852 20.3207 53.9135C20.2431 53.7585 20.2706 53.6035 20.2925 53.48Z" fill="white"/>
<path d="M22.7272 56.8324C22.7272 56.6607 22.3834 55.9739 22.0396 55.9739C21.6959 55.9739 21.6959 56.6607 21.8677 56.6607C22.0396 56.6607 22.3834 56.8324 22.3834 57.1758C22.3834 57.3732 22.3834 57.4572 22.4161 57.5255C22.4403 57.5759 22.4823 57.6179 22.5553 57.6908C22.7272 57.8625 22.8991 58.0343 23.071 57.8626C23.2429 57.6909 23.4148 57.1758 23.2429 57.0041C23.157 56.9182 23.028 56.9182 22.9206 56.9182C22.8132 56.9182 22.7272 56.9182 22.7272 56.8324Z" fill="white"/>
<path d="M28.7436 61.64C28.9155 61.64 29.603 62.3267 29.7749 62.6701L29.7749 63.1852C29.7749 63.3569 29.4311 63.5286 29.0874 63.3569C28.7436 63.1852 28.5717 63.0135 28.3998 62.8418C28.3069 62.7491 28.2642 62.8067 28.1903 62.9063C28.1275 62.9911 28.0421 63.1063 27.8841 63.1852C27.6843 63.285 27.6006 63.1529 27.4981 62.9909C27.4242 62.8742 27.3405 62.7421 27.1965 62.6701C26.9156 62.5299 26.979 61.9312 27.0116 61.6231C27.0189 61.5541 27.0246 61.4997 27.0246 61.4683C27.0246 61.2966 26.8527 61.2966 25.9932 61.2966C25.2479 61.2966 25.2782 60.78 25.2994 60.4189C25.3026 60.3636 25.3057 60.3119 25.3057 60.2664C25.3057 60.0568 25.1136 60.0391 24.8857 60.0181C24.7402 60.0046 24.5801 59.9899 24.4462 59.923C24.1931 59.7966 24.3127 59.3909 24.3934 59.1172C24.4223 59.0191 24.4462 58.938 24.4462 58.8928C24.4462 58.838 24.4112 58.7484 24.3692 58.6406C24.2794 58.4102 24.1572 58.0965 24.2743 57.8626C24.3837 57.644 24.4931 57.9122 24.6024 58.1804C24.6649 58.3337 24.7275 58.4869 24.79 58.5494C24.8611 58.6204 25.05 58.7797 25.2714 58.9664L25.272 58.9669C25.5854 59.2311 25.9637 59.5501 26.1651 59.7513C26.5089 60.0947 27.5403 60.9532 27.8841 61.1249C28.0417 61.2036 28.2356 61.1379 28.4158 61.0768C28.6286 61.0047 28.8224 60.9389 28.9155 61.1249C29.0266 61.3468 28.8504 61.4971 28.7583 61.5756C28.708 61.6185 28.6828 61.64 28.7436 61.64Z" fill="white"/>
<path d="M63.0485 61.2763C63.0342 61.3799 63.022 61.4683 62.9508 61.4683C62.7789 61.4683 62.4351 61.4683 62.607 61.64C62.6499 61.6829 62.6929 61.7365 62.7359 61.7902C62.8648 61.9512 62.9937 62.1121 63.1227 61.9833C63.2945 61.8117 63.4664 61.4683 63.2945 60.9532C63.0932 60.9532 63.0687 61.1299 63.0485 61.2763Z" fill="white"/>
<path d="M8.48248 66.4475C8.24773 66.7597 8.24773 67.228 8.3651 67.5402C8.40993 67.6594 8.43764 67.7786 8.46131 67.8805C8.4996 68.0453 8.52731 68.1645 8.59985 68.1645C8.71722 68.1645 9.06934 68.0084 8.95197 67.6963C8.89328 67.5402 8.89328 67.345 8.89328 67.1694C8.89328 66.9938 8.89328 66.8378 8.83459 66.7597C8.79775 66.7107 8.78404 66.6617 8.77168 66.6176C8.74465 66.521 8.72408 66.4475 8.48248 66.4475Z" fill="white"/>
<path d="M22.2553 53.0776C22.0419 52.9157 21.8677 52.7835 21.8677 52.8833C21.8677 53.055 22.0396 53.3984 22.3834 53.5701C22.6585 53.7075 23.071 53.9707 23.2429 54.0852C23.071 53.9707 22.7272 53.6731 22.7272 53.3984C22.5832 53.3265 22.4091 53.1943 22.2553 53.0776Z" fill="white"/>
<path d="M82.9379 55.0148C82.8004 55.1522 82.9952 55.301 83.1098 55.3582C83.1671 55.301 83.3161 55.1865 83.4536 55.1865C83.5396 55.1865 83.4966 55.1436 83.4321 55.0792C83.3677 55.0148 83.2817 54.929 83.2817 54.8431C83.2817 54.6714 83.1098 54.8431 82.9379 55.0148Z" fill="white"/>
<path d="M83.922 54.4286C83.8647 54.3714 83.8189 54.2569 84.0939 54.2569C84.4377 54.2569 84.6096 54.6003 84.2658 54.6003C84.0549 54.6003 83.9734 54.6003 83.9418 54.5606C83.922 54.5357 83.922 54.4949 83.922 54.4286Z" fill="white"/>
<path d="M27.0246 75.3759C26.6808 75.3759 26.8527 75.0325 27.0246 75.0325C27.293 74.8984 27.3519 74.9737 27.4466 75.0949C27.4732 75.1289 27.5026 75.1665 27.5403 75.2042C27.7122 75.3759 27.3684 75.3759 27.0246 75.3759Z" fill="white"/>
<path d="M28.3177 76.1216C28.2399 76.1216 28.1621 76.4061 28.3177 76.4061C28.4732 76.4061 28.6288 76.4061 28.551 76.2638C28.5339 76.2326 28.5206 76.2015 28.5086 76.1733C28.4657 76.0729 28.4391 76.0105 28.3177 76.1216Z" fill="white"/>
<path d="M212.328 48.5908C212.156 48.7625 212.156 49.1059 212.5 48.9342C212.695 48.8366 212.78 48.7945 212.784 48.7447C212.788 48.707 212.746 48.6649 212.672 48.5908C212.534 48.4535 212.385 48.5336 212.328 48.5908Z" fill="white"/>
<path d="M209.234 51.6814C209.234 51.8531 208.546 52.1965 208.374 52.1965C208.288 52.1965 208.159 52.1536 208.031 52.1107C207.902 52.0677 207.773 52.0248 207.687 52.0248C207.618 52.0248 207.494 52.0798 207.37 52.1347C207.185 52.2171 206.999 52.2995 206.999 52.1965C206.999 52.0248 207.343 51.6814 207.687 51.6814C208.031 51.6814 208.202 51.6814 208.546 51.5097C208.684 51.441 208.821 51.3174 208.959 51.1938C209.165 51.0084 209.371 50.8229 209.578 50.8229C209.684 50.8229 209.758 50.8394 209.814 50.852C209.938 50.8799 209.975 50.8881 210.093 50.6512C210.265 50.3078 210.781 50.3078 210.781 50.4795C210.781 50.5654 210.738 50.6083 210.695 50.6512C210.652 50.6941 210.609 50.7371 210.609 50.8229C210.265 50.9946 209.234 51.5097 209.234 51.6814Z" fill="white"/>
<path d="M206.312 52.1965C206.483 52.1965 206.655 52.5399 206.483 52.7116C206.598 52.7116 206.896 52.7803 207.171 53.055C207.446 53.3297 206.942 53.3984 206.655 53.3984C206.598 53.2267 206.415 52.849 206.14 52.7116C205.796 52.5399 206.14 52.1965 206.312 52.1965Z" fill="white"/>
<path d="M203.561 53.055C203.699 53.055 204.192 53.1695 204.421 53.2267L204.593 53.3984C204.707 53.3984 204.902 53.4327 204.764 53.5701C204.627 53.7075 204.593 53.8563 204.593 53.9135L204.421 54.0852H204.077C204.077 54.028 204.043 53.8792 203.905 53.7418C203.819 53.656 203.819 53.7418 203.819 53.8491C203.819 53.9564 203.819 54.0852 203.733 54.0852C203.561 54.0852 203.561 54.4286 203.561 54.6003C203.561 54.772 203.733 55.1154 204.077 54.772C204.421 54.4286 204.936 54.0852 205.108 54.0852C205.28 54.0852 205.452 53.7418 205.28 53.5701C205.143 53.4327 204.994 53.055 204.936 52.8833C204.764 52.7116 204.386 52.4025 204.249 52.5399C204.189 52.5992 204.11 52.6175 204.023 52.6373C203.86 52.6749 203.674 52.7177 203.561 53.055Z" fill="white"/>
<path d="M202.014 53.2267C202.186 53.055 202.702 52.8833 202.874 52.8833C203.217 52.8064 203.389 52.8833 203.389 53.055C203.389 53.1695 203.084 53.2839 202.778 53.3984C202.625 53.4556 202.473 53.5129 202.358 53.5701C202.014 53.7418 201.842 53.3984 202.014 53.2267Z" fill="white"/>
<path d="M200.295 53.5701C200.123 53.7418 199.78 54.2569 199.951 54.2569C200.037 54.2569 200.123 54.214 200.209 54.171C200.295 54.1281 200.381 54.0852 200.467 54.0852C200.639 54.0852 200.811 54.0852 200.983 53.9135C201.082 53.8148 201.124 53.7728 201.174 53.755C201.212 53.7418 201.254 53.7418 201.327 53.7418C201.464 53.7418 201.498 53.6273 201.498 53.5701H200.295Z" fill="white"/>
<path d="M201.842 53.9135C201.957 53.8563 202.255 53.7761 202.53 53.9135C202.587 53.9135 202.736 53.9478 202.874 54.0852C202.995 54.2066 202.945 54.2422 202.844 54.3133C202.802 54.3427 202.752 54.3783 202.702 54.4286C202.592 54.5386 202.623 54.5781 202.704 54.6825C202.75 54.7411 202.812 54.8203 202.874 54.9437C203.002 55.1998 202.652 55.2649 202.181 55.3526C202.02 55.3826 201.845 55.4151 201.67 55.4588C201.134 55.5928 201.016 55.5176 200.826 55.3964L200.826 55.3962C200.773 55.3622 200.714 55.3246 200.639 55.2871C200.459 55.197 200.373 55.3907 200.282 55.5951C200.2 55.7801 200.115 55.9739 199.951 55.9739C199.795 55.9739 199.674 56.0805 199.524 56.213C199.344 56.3716 199.123 56.5671 198.748 56.6607C198.061 56.8324 197.717 56.1456 197.717 55.8022V54.4286C197.717 54.021 198.255 54.0434 198.905 54.0706C199.077 54.0777 199.256 54.0852 199.436 54.0852C200.019 54.0852 199.969 54.4801 199.93 54.7878C199.912 54.9338 199.896 55.0601 199.951 55.1154C200.071 55.2351 200.275 54.9372 200.445 54.6878L200.446 54.6872L200.446 54.6868L200.446 54.6864C200.52 54.5788 200.587 54.4803 200.639 54.4286C200.811 54.2569 201.155 54.2569 201.498 54.2569C201.774 54.2569 201.842 54.028 201.842 53.9135Z" fill="white"/>
<path d="M128.787 53.9135C128.615 53.9135 128.271 54.2569 128.271 54.4286C128.271 54.4858 128.233 54.5431 128.195 54.6003C128.118 54.7148 128.042 54.8292 128.271 54.9437C128.402 55.0093 128.483 55.0748 128.553 55.1308C128.665 55.2214 128.746 55.2871 128.959 55.2871C129.055 55.2871 129.151 55.3005 129.235 55.3123C129.454 55.3428 129.598 55.3629 129.474 55.1154C129.411 54.9892 129.394 54.8862 129.381 54.8063C129.359 54.669 129.348 54.6003 129.13 54.6003C128.787 54.6003 128.615 54.6003 128.787 54.4286C128.837 54.3783 128.887 54.3427 128.929 54.3133C129.03 54.2422 129.08 54.2066 128.959 54.0852L128.787 53.9135Z" fill="white"/>
<path d="M131.048 54.5473C131.021 54.5731 131.021 54.6259 131.021 54.772C131.021 55.1154 131.021 55.4588 131.193 55.4588C131.251 55.4588 131.327 55.4397 131.403 55.4206C131.556 55.3825 131.709 55.3443 131.709 55.4588C131.709 55.5802 131.795 55.6158 131.967 55.6869C132.038 55.7163 132.124 55.7519 132.225 55.8022C132.568 55.9739 132.912 56.1455 132.74 55.9738C132.646 55.8801 132.604 55.8375 132.612 55.8182C132.62 55.8022 132.662 55.8022 132.74 55.8022C132.878 55.8022 133.027 56.1456 133.084 56.3173H133.428C133.485 56.3173 133.523 56.3364 133.549 56.3491L133.554 56.3517L133.559 56.3542C133.57 56.359 133.577 56.3617 133.583 56.3594C133.6 56.3527 133.6 56.3038 133.6 56.1456C133.6 55.8022 133.6 55.2871 133.428 55.2871C133.378 55.2871 133.357 55.2871 133.34 55.2789C133.328 55.2729 133.317 55.2625 133.299 55.2445L133.299 55.2442C133.256 55.2012 133.17 55.1154 132.912 54.9437C132.761 54.8432 132.64 54.7574 132.539 54.6863L132.539 54.686C132.296 54.5144 132.174 54.4286 132.053 54.4286H131.365C131.251 54.4858 131.174 54.5049 131.123 54.5176C131.086 54.5268 131.063 54.5327 131.048 54.5473Z" fill="white"/>
<path d="M132.912 56.8324C132.775 56.695 132.855 56.6607 132.912 56.6607H133.428V57.0041C133.313 57.0041 133.05 56.9697 132.912 56.8324Z" fill="white"/>
<path d="M136.35 56.489C136.006 56.1456 135.491 55.6305 134.975 55.8022C134.459 55.9739 134.287 56.3173 134.803 56.489C135.077 56.5803 135.157 56.7686 135.223 56.925C135.282 57.0628 135.33 57.1758 135.491 57.1758C135.622 57.1758 135.728 57.1507 135.819 57.1293C135.966 57.0947 136.072 57.0697 136.178 57.1758C136.197 57.1945 136.218 57.2174 136.24 57.243C136.252 57.2561 136.264 57.2698 136.276 57.2842L136.302 57.3154L136.316 57.3319C136.496 57.5443 136.733 57.824 136.866 57.6909C136.933 57.6237 137.053 57.6091 137.164 57.5956C137.336 57.5747 137.486 57.5564 137.381 57.3475C137.335 57.2555 137.302 57.1635 137.27 57.078C137.185 56.8447 137.117 56.6607 136.866 56.6607C136.591 56.6607 136.407 56.5462 136.35 56.489Z" fill="white"/>
<path d="M137.038 57.8626L137.21 58.3777C137.095 58.3777 136.831 58.3433 136.694 58.206C136.597 58.1096 136.447 58.0673 136.272 58.0183C136.136 57.9801 135.985 57.9378 135.834 57.8626C135.663 57.7767 135.62 57.7767 135.598 57.7767H135.596L135.592 57.7766L135.59 57.7765L135.588 57.7762C135.574 57.774 135.561 57.7615 135.491 57.6909C135.405 57.605 135.362 57.605 135.34 57.605L135.337 57.605L135.335 57.6049L135.333 57.6048L135.331 57.6047L135.329 57.6043C135.328 57.604 135.327 57.6036 135.327 57.6031C135.319 57.5981 135.319 57.5806 135.319 57.5192C135.319 57.3818 135.433 57.3475 135.491 57.3475C135.548 57.3475 135.697 57.3818 135.834 57.5192C135.901 57.5862 135.942 57.627 135.988 57.6621C136.059 57.717 136.14 57.7579 136.35 57.8626H137.038Z" fill="white"/>
<path d="M175.473 55.1154C175.393 54.8865 175.353 54.772 174.511 54.772C174.117 54.772 173.723 54.7469 173.387 54.7255C172.842 54.6909 172.448 54.6659 172.448 54.772C172.448 54.9437 172.448 55.2871 172.792 55.4588C173.136 55.6305 173.48 55.8022 174.167 55.8022C174.855 55.8022 175.542 55.8022 175.542 55.2871C175.511 55.2241 175.491 55.1668 175.473 55.1154Z" fill="white"/>
<path d="M183.793 63.7003C184.137 63.5286 185.168 63.5286 185.512 63.7003C185.856 63.7003 185.856 63.872 185.856 64.3871C185.856 64.7344 185.387 64.7695 184.871 64.8082C184.622 64.8268 184.361 64.8463 184.137 64.9022C183.552 65.0483 183.465 64.9458 183.346 64.8063C183.325 64.7818 183.303 64.7562 183.278 64.7305C183.106 64.5588 182.934 64.7305 182.59 65.0739C182.365 65.2982 182.214 65.2295 181.945 65.107C181.802 65.0419 181.625 64.9618 181.387 64.9022C180.699 64.7305 181.043 64.2154 181.559 64.0437C181.924 63.922 182.376 63.9729 182.731 64.0128C182.876 64.0292 183.006 64.0437 183.106 64.0437C183.318 64.0437 183.399 63.9782 183.511 63.8875C183.581 63.8315 183.662 63.7659 183.793 63.7003Z" fill="white"/>
<path d="M188.445 64.0068C188.624 63.688 188.766 63.4366 188.263 63.1852C187.575 63.1852 187.059 63.3569 187.059 63.7003C187.059 63.8005 187.03 63.9153 187.001 64.0276C186.932 64.3004 186.866 64.5588 187.231 64.5588C187.396 64.5588 187.543 64.594 187.673 64.6249C187.949 64.6907 188.146 64.7375 188.263 64.3871C188.309 64.2491 188.379 64.1234 188.445 64.0068Z" fill="white"/>
<path d="M192.216 63.3569C192.079 63.6317 191.815 63.7003 191.7 63.7003C191.529 63.1852 191.357 63.7003 191.357 63.872C191.357 63.9579 191.228 63.9579 191.034 63.9579C190.841 63.9579 190.583 63.9579 190.325 64.0437C189.81 64.2154 189.466 64.2154 189.122 63.872C188.778 63.5286 189.466 63.1852 189.981 63.1852C190.221 63.1852 190.312 63.1113 190.41 63.032C190.523 62.9405 190.644 62.8418 191.013 62.8418C191.471 62.8418 191.471 62.9182 191.471 63.0199C191.471 63.0708 191.471 63.128 191.529 63.1852C191.627 63.2834 191.725 63.1572 191.823 63.0311C191.897 62.9365 191.971 62.8418 192.044 62.8418C192.216 62.8418 192.388 63.0135 192.216 63.3569Z" fill="white"/>
<path d="M185.765 61.9833C185.638 62.2123 185.575 62.3267 185.856 62.3267C186.2 62.3267 186.544 62.155 186.372 61.9833C186.334 61.9457 186.305 61.9081 186.278 61.874C186.183 61.7529 186.124 61.6776 185.856 61.8117C185.824 61.8747 185.793 61.9319 185.765 61.9833Z" fill="white"/>
<path d="M187.575 59.923C187.919 60.0947 187.747 60.2664 187.403 60.4381C187.288 60.4953 186.991 60.5754 186.715 60.4381C186.458 60.3093 186.2 60.4703 185.942 60.6312C185.856 60.6849 185.77 60.7385 185.684 60.7815C185.34 60.9532 184.825 60.7815 184.481 60.6098C184.137 60.4381 184.825 60.0947 185.168 60.0947C185.512 60.0947 185.856 60.0947 186.2 59.923C186.544 59.7513 187.231 59.7513 187.575 59.923Z" fill="white"/>
<path d="M186.2 58.3777H187.231C187.575 58.3777 188.263 58.7211 187.747 58.8928C187.41 59.0049 187.293 59.0438 187.205 59.0095C187.158 58.9913 187.119 58.9524 187.059 58.8929C186.887 58.7212 186.715 58.5494 186.2 58.3777Z" fill="white"/>
<path d="M189.981 59.2362C190.142 59.2362 190.19 59.2362 190.231 59.2187C190.233 59.2178 190.235 59.2168 190.237 59.2158L190.239 59.2146L190.243 59.213L190.248 59.2103L190.251 59.2081L190.257 59.2048L190.263 59.2008L190.27 59.1964L190.274 59.1939L190.287 59.1853C190.325 59.1599 190.383 59.1217 190.497 59.0645C190.841 58.8928 191.185 59.0645 191.185 59.4079C191.185 59.7513 190.669 59.7513 190.325 59.7513C190.162 59.7513 190.077 59.7513 189.995 59.7695C189.904 59.7898 189.819 59.8326 189.638 59.923C189.294 60.0947 189.294 59.7513 189.294 59.4079C189.294 59.1565 189.478 59.1811 189.712 59.2124C189.797 59.2238 189.889 59.2362 189.981 59.2362Z" fill="white"/>
<path d="M192.904 60.0947C192.732 60.2664 192.56 60.7815 192.904 60.6098C193.031 60.546 193.159 60.5296 193.26 60.5166C193.432 60.4945 193.527 60.4822 193.419 60.2664C193.247 59.923 193.022 59.923 192.904 60.0947Z" fill="white"/>
<path d="M192.904 56.8324C192.732 57.0041 191.872 57.0041 191.529 56.8324C191.357 56.8896 190.944 57.0728 190.669 57.3475C190.394 57.6222 189.981 57.6909 189.81 57.6909C189.867 57.8053 190.119 57.9656 190.669 57.6909C191.357 57.3475 191.185 58.3777 191.013 58.3777C190.841 58.3777 189.81 58.7211 189.294 58.8928C188.923 59.0164 188.729 58.8729 188.522 58.7187C188.441 58.6589 188.359 58.5974 188.263 58.5494C187.988 58.412 188.377 58.3777 188.606 58.3777C188.549 58.3204 188.434 58.1373 188.434 57.8626C188.434 57.6909 188.563 57.605 188.692 57.5192C188.821 57.4333 188.95 57.3475 188.95 57.1758C188.95 56.9011 188.492 57.0613 188.263 57.1758C188.091 57.0041 188.434 56.6607 188.778 56.489C188.982 56.3874 189.125 56.4661 189.208 56.5118C189.265 56.5433 189.294 56.5591 189.294 56.489C189.294 56.4179 189.323 56.2878 189.358 56.1356C189.407 55.9201 189.466 55.6599 189.466 55.4588C189.466 55.1926 189.982 55.2359 190.375 55.2689C190.488 55.2784 190.592 55.2871 190.669 55.2871C190.921 55.2871 191.173 55.195 191.492 55.0783C191.609 55.0356 191.734 54.9897 191.872 54.9437C192.388 54.772 192.904 54.772 193.419 55.4588C193.861 56.0466 193.295 56.5089 193.014 56.7375C192.967 56.7759 192.928 56.8077 192.904 56.8324Z" fill="white"/>
<path d="M193.591 55.4588C193.591 55.1154 193.591 54.9437 193.935 54.9437C194.107 54.9437 194.279 55.0295 194.408 55.0939C194.537 55.1583 194.623 55.2012 194.623 55.1154C194.623 54.9437 195.31 54.6003 195.654 54.6003C195.929 54.6003 196.456 54.9437 196.685 55.1154C196.743 55.3443 196.754 55.8022 196.342 55.8022C196.132 55.8022 195.95 55.7738 195.809 55.7516C195.603 55.7193 195.482 55.7004 195.482 55.8022C195.482 55.9739 195.654 56.6607 195.826 56.489C195.963 56.3516 196.456 56.4318 196.685 56.489C196.571 56.7179 196.204 57.1414 195.654 57.0041C194.966 56.8324 194.966 56.6607 194.966 56.1456C194.966 56.0314 194.975 55.9257 194.982 55.8321L194.982 55.8314L194.983 55.8308L194.983 55.8301C195.009 55.5028 195.023 55.3254 194.623 55.4588C194.348 55.5501 194.171 55.7872 194.04 55.9632C193.924 56.1182 193.844 56.226 193.763 56.1456C193.626 56.0082 193.591 55.6305 193.591 55.4588Z" fill="white"/>
<path d="M212.844 51.1663C212.706 51.3037 212.557 51.5669 212.5 51.6814C212.844 51.5669 213.531 51.235 213.531 50.8229V50.1361C213.359 50.365 212.981 50.8229 212.844 50.8229C212.672 50.8229 211.64 51.1663 211.64 51.338C211.64 51.4239 211.425 51.5526 211.211 51.6814C210.996 51.8102 210.781 51.939 210.781 52.0248C210.781 52.1445 210.53 52.3477 210.32 52.518C210.229 52.5919 210.145 52.6596 210.093 52.7116C209.921 52.8833 209.578 53.2267 209.921 53.2267C210.114 53.2267 210.307 53.0101 210.531 52.7594C210.705 52.5636 210.899 52.3471 211.125 52.1965C211.382 52.0248 211.468 51.939 211.533 51.8746C211.597 51.8102 211.64 51.7673 211.812 51.6814C211.927 51.6242 212.06 51.5169 212.194 51.4096C212.461 51.1948 212.729 50.9798 212.844 51.1663Z" fill="white"/>
<path d="M210.953 55.1154C211.09 54.978 211.812 54.3714 212.156 54.0852C212.041 54.3141 211.765 54.8407 211.576 55.1154C211.339 55.4588 210.781 55.8022 210.437 55.9739C210.093 56.1456 210.781 55.2871 210.953 55.1154Z" fill="white"/>
<path d="M206.84 54.5071C206.739 54.5201 206.611 54.5365 206.483 54.6003C206.369 54.6575 206.197 54.772 206.006 54.8992C205.624 55.1535 205.166 55.4588 204.936 55.4588H204.421C204.663 55.2802 205.277 54.8928 205.796 54.772C206.314 54.6512 206.814 54.3783 206.999 54.2569C207.107 54.4728 207.011 54.4851 206.84 54.5071Z" fill="white"/>
<path d="M208.031 57.3475C207.859 57.3475 207.446 57.3818 207.171 57.5192C207.056 57.5764 206.98 57.6336 206.904 57.6909C206.751 57.8053 206.598 57.9198 206.14 58.0343C205.517 58.1898 205.74 58.3453 205.963 58.5008L205.965 58.5017L205.965 58.5021C205.988 58.5178 206.01 58.5336 206.032 58.5494C206.221 58.6867 206.183 58.7211 206.14 58.7211C206.197 58.7211 206.346 58.6867 206.483 58.5494C206.577 58.4564 206.77 58.4138 206.983 58.367C207.163 58.3273 207.357 58.2847 207.515 58.206C207.859 58.0343 208.202 57.5192 208.031 57.3475Z" fill="white"/>
<path d="M204.775 58.9147C204.645 59.085 204.489 59.2882 204.249 59.4079C203.905 59.5796 203.561 59.5796 203.217 59.5796C202.978 59.5796 202.571 59.83 202.23 60.0398C202.082 60.1309 201.946 60.2144 201.842 60.2664L200.467 60.9532H201.327C201.39 60.9532 201.475 60.8841 201.584 60.7966C201.773 60.6451 202.031 60.4381 202.358 60.4381C202.685 60.4381 202.874 60.369 203.012 60.3185C203.092 60.2894 203.155 60.2664 203.217 60.2664C203.28 60.2664 203.412 60.1513 203.58 60.0055C203.87 59.7529 204.266 59.4079 204.593 59.4079C205.108 59.4079 205.108 59.2362 204.936 58.7211C204.884 58.773 204.832 58.8408 204.775 58.9147Z" fill="white"/>
<path d="M198.576 61.4683C198.061 61.2966 198.061 61.9965 198.232 61.9833C198.748 61.9833 199.092 61.64 198.576 61.4683Z" fill="white"/>
<path d="M197.818 60.7813C198.323 60.7813 198.66 60.5639 198.154 60.4552C197.649 60.3465 197.649 60.7897 197.818 60.7813Z" fill="white"/>
<path d="M199.333 58.6089C200.061 58.398 200.485 58.0486 199.727 58.1551C198.969 58.2616 199.092 58.6872 199.333 58.6089Z" fill="white"/>
<path d="M201.393 57.3745C200.756 57.7838 200.213 57.8739 200.792 57.373C201.371 56.8722 201.61 57.245 201.393 57.3745Z" fill="white"/>
<path d="M203.292 56.6096C202.441 57.1557 201.8 57.4035 202.613 56.7993C203.426 56.1952 203.578 56.4321 203.292 56.6096Z" fill="white"/>
<path d="M196.099 60.7817C196.604 60.7817 196.941 61.2165 196.435 61.4339C195.93 61.6513 195.93 60.7651 196.099 60.7817Z" fill="white"/>
<path d="M194.086 61.8115C194.844 61.8115 195.349 61.5941 194.591 61.4854C193.834 61.3767 193.834 61.8199 194.086 61.8115Z" fill="white"/>
<path d="M194.38 62.8417C194.885 62.8417 195.222 62.6243 194.716 62.5156C194.211 62.4069 194.211 62.85 194.38 62.8417Z" fill="white"/>
<path d="M99.0488 96.8383C99.0488 97.01 98.705 98.3835 98.5331 99.0703C98.3956 99.6198 97.6736 100.673 97.3299 101.131C97.3872 100.845 97.5018 100.238 97.5018 100.101C97.5018 99.9288 98.3612 98.2118 98.5331 97.8684L99.0488 96.8383Z" fill="white"/>
<path d="M94.9233 105.08C94.8087 105.48 94.5452 106.35 94.4076 106.625C94.3504 106.74 94.2739 106.816 94.2039 106.886C94.0638 107.026 93.9492 107.14 94.0638 107.484C94.2357 107.999 94.5795 107.655 94.7514 107.312C94.8889 107.037 94.9233 105.709 94.9233 105.08Z" fill="white"/>
<path fill-rule="evenodd" clip-rule="evenodd" d="M141.335 145.944C141.851 145.772 142.298 144.88 140.647 144.742C140.104 144.697 139.249 144.685 138.241 144.742C137.424 144.789 136.676 144.837 135.976 144.882L135.969 144.883L135.966 144.883C134.256 144.993 132.827 145.086 131.365 145.086C129.599 145.086 127.585 144.814 126.485 144.665C126.071 144.609 125.787 144.571 125.693 144.571C125.542 144.571 125.391 144.505 125.255 144.445C125.12 144.386 125 144.333 124.908 144.356C125.023 144.225 125.139 143.951 124.661 143.712C124.317 143.54 123.802 143.941 123.974 144.055C123.645 143.891 123.168 143.786 122.671 143.676L122.671 143.676L122.67 143.676C122.475 143.633 122.276 143.589 122.083 143.54C121.52 143.4 121.25 143.521 121.032 143.618C120.921 143.668 120.824 143.712 120.708 143.712C120.536 143.712 120.407 143.583 120.299 143.476C120.192 143.369 120.106 143.283 120.02 143.369C119.883 143.506 119.504 143.54 119.332 143.54C118.874 143.483 116.926 143.369 116.238 143.369C115.882 143.369 114.995 143.28 113.956 143.177C112.487 143.03 110.713 142.854 109.706 142.854C108.97 142.854 108.306 142.917 107.782 142.966C107.441 142.999 107.159 143.025 106.956 143.025C106.44 143.025 106.097 143.025 105.581 143.197C105.065 143.369 103.174 143.54 102.487 143.54C101.638 143.54 101.644 143.626 101.662 143.857C101.669 143.953 101.678 144.075 101.627 144.227C101.432 144.227 101.184 144.236 100.913 144.246C99.9895 144.279 98.7989 144.321 98.5331 144.055C98.1893 143.712 97.8455 144.399 98.0174 144.742C98.0763 144.86 98.0545 144.998 98.0349 145.121C97.9974 145.358 97.9682 145.542 98.5331 145.429C99.2207 145.292 99.3926 145.372 99.3926 145.429C98.9342 145.601 98.155 146.116 98.705 146.803C99.3926 147.661 101.287 149.26 103.174 149.378C104.387 149.454 105.232 149.63 106.063 149.803C107.117 150.022 108.149 150.237 109.878 150.237H117.614C118.301 150.237 120.364 150.237 120.708 150.408C121.051 150.58 122.942 150.752 125.864 150.58C127.584 150.479 129.6 150.259 131.425 150.06C132.701 149.921 133.883 149.792 134.803 149.722L135.341 149.681C137.437 149.521 139.684 149.351 140.476 149.035C141.335 148.691 144.257 146.803 141.335 145.944ZM113.144 146.974C112.972 147.089 112.147 147.283 110.222 147.146C109.156 147.07 108.427 146.994 107.842 146.933L107.841 146.933L107.84 146.933C107.105 146.856 106.594 146.803 105.925 146.803C105.582 146.803 105.281 146.817 105.022 146.829C104.372 146.859 103.985 146.877 103.862 146.631C103.69 146.288 104.378 146.288 105.409 146.288C105.871 146.288 106.298 146.391 106.706 146.489C107.21 146.611 107.685 146.726 108.159 146.631C109.019 146.459 111.769 146.459 112.113 146.459C112.457 146.459 109.363 146.803 109.019 146.803C108.675 146.803 112.629 147.146 113.144 146.974Z" fill="white"/>
<path d="M163.338 89.9703C162.375 91.4813 163.968 93.6332 165.057 94.2628C162.433 96.3014 164.383 98.834 165.665 100.499C165.895 100.797 166.103 101.068 166.26 101.302C167.291 102.848 173.823 106.453 176.402 107.14C177.784 107.508 180.204 108.518 182.893 109.64C185.22 110.611 187.749 111.666 189.981 112.463C193.832 113.836 195.826 112.348 196.342 111.433C196.659 111.433 196.713 111.462 197.91 112.115L198.232 112.291C200.123 113.321 201.498 112.463 202.014 111.776C202.345 111.335 201.967 110.894 201.472 110.316C201.197 109.994 200.885 109.63 200.639 109.201C201.498 110.231 202.485 110.146 203.389 109.544C203.905 109.201 204.51 108.142 204.249 106.969C203.905 105.423 200.295 102.161 199.78 101.818C199.702 101.766 199.466 101.584 199.104 101.305L199.102 101.303C197.07 99.7348 191.064 95.1002 186.544 93.0609C181.469 90.7718 174.212 89.5726 170.859 89.0186L170.632 88.981C170.547 88.9669 170.465 88.9533 170.385 88.9401C167.291 88.425 164.541 88.0816 163.338 89.9703Z" fill="white"/>
<path d="M71.2017 79.6684C72.5769 79.6684 74.124 81.9004 75.3272 84.3042C76.0148 84.5904 77.9057 85.5061 78.0776 86.5363C78.2495 87.5665 77.9057 89.1118 76.5305 90.142C78.2495 92.3741 75.671 97.1817 74.124 98.5552C73.3013 99.2857 66.3887 103.706 63.6383 104.393C61.6661 104.886 60.1672 105.221 58.8048 105.526C55.8659 106.184 53.5618 106.7 48.5115 108.342C44.2906 109.715 41.2346 109.716 40.2606 109.544C38.7135 110.46 34.1411 111.913 28.2279 110.402C22.3147 108.892 23.0137 106.11 24.1024 104.908C24.0368 104.871 23.9511 104.831 23.8529 104.785C23.3509 104.55 22.5224 104.163 22.3834 103.191C22.0761 101.042 25.3409 99.0302 27.3875 97.7691C27.6301 97.6197 27.8556 97.4807 28.056 97.3533C28.5203 97.0582 29.25 96.4895 30.1895 95.7572C33.0764 93.5072 37.9446 89.7131 43.1828 87.5665C49.2132 85.0953 55.7999 84.5692 59.9402 84.2385L59.9421 84.2383L59.9468 84.2379C60.4067 84.2012 60.8365 84.1669 61.2318 84.1325C62.034 84.247 64.3259 83.9608 64.3259 83.9608C64.3259 83.9608 64.154 82.5872 65.3573 81.2136C66.3199 80.1148 68.3368 79.84 68.9671 80.0117C68.9671 79.84 69.0359 79.4967 69.3109 79.4967C69.5859 79.4967 69.7693 79.84 69.8266 80.0117C69.8266 79.8973 70.1016 79.6684 71.2017 79.6684Z" fill="white"/>
<path d="M195.924 316.88C192.992 316.88 190.4 316.4 188.146 315.44C185.912 314.461 184.158 312.981 182.881 311.001C181.605 309.022 180.967 306.503 180.967 303.443C180.967 300.924 181.395 298.774 182.253 296.995C183.111 295.195 184.307 293.726 185.843 292.586C187.378 291.446 189.163 290.576 191.197 289.977C193.251 289.377 195.465 288.987 197.838 288.807C200.411 288.607 202.475 288.367 204.03 288.087C205.606 287.787 206.743 287.377 207.441 286.857C208.139 286.317 208.488 285.608 208.488 284.728V284.608C208.488 283.408 208.029 282.488 207.111 281.849C206.194 281.209 205.018 280.889 203.582 280.889C202.006 280.889 200.72 281.239 199.723 281.939C198.746 282.618 198.157 283.668 197.958 285.088H182.762C182.961 282.288 183.848 279.709 185.424 277.35C187.019 274.97 189.343 273.071 192.394 271.651C195.445 270.211 199.254 269.492 203.821 269.492C207.111 269.492 210.063 269.881 212.675 270.661C215.288 271.421 217.512 272.491 219.346 273.87C221.181 275.23 222.577 276.83 223.534 278.669C224.511 280.489 225 282.468 225 284.608V316.16H209.564V309.682H209.205C208.288 311.401 207.171 312.791 205.855 313.851C204.559 314.911 203.073 315.68 201.398 316.16C199.743 316.64 197.918 316.88 195.924 316.88ZM201.308 306.443C202.565 306.443 203.741 306.183 204.838 305.663C205.955 305.143 206.862 304.393 207.56 303.413C208.258 302.434 208.607 301.244 208.607 299.844V296.005C208.168 296.185 207.7 296.355 207.201 296.515C206.723 296.675 206.204 296.825 205.646 296.965C205.107 297.105 204.529 297.235 203.911 297.355C203.312 297.475 202.684 297.585 202.026 297.685C200.75 297.885 199.703 298.215 198.885 298.674C198.087 299.114 197.489 299.664 197.09 300.324C196.711 300.964 196.522 301.684 196.522 302.484C196.522 303.763 196.971 304.743 197.868 305.423C198.766 306.103 199.912 306.443 201.308 306.443Z" fill="white"/>
<path d="M178.124 285.088H162.928C162.848 284.148 162.519 283.338 161.941 282.658C161.363 281.979 160.615 281.459 159.697 281.099C158.8 280.719 157.803 280.529 156.706 280.529C155.29 280.529 154.073 280.789 153.056 281.309C152.039 281.829 151.541 282.568 151.561 283.528C151.541 284.208 151.83 284.838 152.428 285.418C153.046 285.998 154.233 286.447 155.988 286.767L165.321 288.447C170.028 289.307 173.527 290.756 175.821 292.796C178.134 294.815 179.301 297.525 179.321 300.924C179.301 304.203 178.324 307.052 176.389 309.472C174.475 311.871 171.852 313.731 168.522 315.05C165.211 316.35 161.432 317 157.184 317C150.165 317 144.671 315.56 140.702 312.681C136.753 309.802 134.55 306.003 134.091 301.284H150.484C150.703 302.743 151.421 303.873 152.638 304.673C153.874 305.453 155.43 305.843 157.304 305.843C158.82 305.843 160.066 305.583 161.043 305.063C162.041 304.543 162.549 303.803 162.569 302.843C162.549 301.964 162.11 301.264 161.253 300.744C160.415 300.224 159.099 299.804 157.304 299.484L149.168 298.045C144.481 297.225 140.971 295.665 138.638 293.366C136.305 291.066 135.148 288.107 135.168 284.488C135.148 281.289 135.985 278.579 137.681 276.36C139.396 274.12 141.839 272.421 145.01 271.261C148.2 270.081 151.979 269.492 156.347 269.492C162.988 269.492 168.223 270.871 172.052 273.631C175.901 276.39 177.925 280.209 178.124 285.088Z" fill="white"/>
<path d="M102.127 316.16V270.091H118.161V278.849H118.64C119.477 275.61 120.804 273.241 122.618 271.741C124.453 270.241 126.597 269.492 129.05 269.492C129.768 269.492 130.476 269.552 131.174 269.672C131.892 269.771 132.58 269.921 133.238 270.121V284.248C132.42 283.968 131.413 283.758 130.216 283.618C129.02 283.478 127.993 283.408 127.135 283.408C125.52 283.408 124.064 283.778 122.768 284.518C121.492 285.238 120.485 286.257 119.747 287.577C119.009 288.877 118.64 290.406 118.64 292.166V316.16H102.127Z" fill="white"/>
<path d="M74.1423 317C69.1566 317 64.8889 316.01 61.3391 314.031C57.7894 312.031 55.0672 309.252 53.1726 305.693C51.2781 302.114 50.3308 297.965 50.3308 293.246C50.3308 288.527 51.2781 284.388 53.1726 280.829C55.0672 277.25 57.7894 274.47 61.3391 272.491C64.8889 270.491 69.1566 269.492 74.1423 269.492C79.128 269.492 83.3957 270.491 86.9455 272.491C90.4953 274.47 93.2174 277.25 95.1119 280.829C97.0065 284.388 97.9538 288.527 97.9538 293.246C97.9538 297.965 97.0065 302.114 95.1119 305.693C93.2174 309.252 90.4953 312.031 86.9455 314.031C83.3957 316.01 79.128 317 74.1423 317ZM74.2619 304.763C75.6579 304.763 76.8645 304.293 77.8815 303.353C78.8986 302.414 79.6863 301.074 80.2447 299.334C80.8031 297.595 81.0823 295.525 81.0823 293.126C81.0823 290.706 80.8031 288.637 80.2447 286.917C79.6863 285.178 78.8986 283.838 77.8815 282.898C76.8645 281.959 75.6579 281.489 74.2619 281.489C72.7862 281.489 71.5198 281.959 70.4629 282.898C69.4059 283.838 68.5983 285.178 68.0399 286.917C67.4815 288.637 67.2023 290.706 67.2023 293.126C67.2023 295.525 67.4815 297.595 68.0399 299.334C68.5983 301.074 69.4059 302.414 70.4629 303.353C71.5198 304.293 72.7862 304.763 74.2619 304.763Z" fill="white"/>
<path d="M0 316.16V254.735H16.5125V278.129H16.7518C17.3501 276.57 18.2276 275.14 19.3842 273.84C20.5409 272.521 21.9768 271.471 23.6918 270.691C25.4069 269.891 27.4011 269.492 29.6746 269.492C32.7059 269.492 35.5876 270.301 38.3197 271.921C41.0718 273.541 43.3054 276.09 45.0205 279.569C46.7555 283.048 47.623 287.567 47.623 293.126C47.623 298.444 46.7953 302.853 45.1401 306.353C43.5048 309.852 41.3111 312.461 38.559 314.181C35.8269 315.9 32.8255 316.76 29.555 316.76C27.4012 316.76 25.4767 316.41 23.7816 315.71C22.1064 314.99 20.6705 314.021 19.474 312.801C18.2973 311.561 17.39 310.162 16.7518 308.602H16.3928V316.16H0ZM16.1535 293.126C16.1535 295.365 16.4427 297.305 17.021 298.944C17.6193 300.564 18.4569 301.824 19.5338 302.723C20.6306 303.603 21.9369 304.043 23.4525 304.043C24.9682 304.043 26.2545 303.613 27.3114 302.753C28.3883 301.874 29.206 300.624 29.7644 299.004C30.3427 297.365 30.6319 295.405 30.6319 293.126C30.6319 290.846 30.3427 288.897 29.7644 287.277C29.206 285.638 28.3883 284.388 27.3114 283.528C26.2545 282.648 24.9682 282.208 23.4525 282.208C21.9369 282.208 20.6306 282.648 19.5338 283.528C18.4569 284.388 17.6193 285.638 17.021 287.277C16.4427 288.897 16.1535 290.846 16.1535 293.126Z" fill="white"/>
<path d="M209.493 191.037V203.034H179.22V191.037H209.493ZM185.083 180H201.596V222.29C201.596 222.93 201.706 223.469 201.925 223.909C202.144 224.329 202.483 224.649 202.942 224.869C203.401 225.069 203.989 225.169 204.707 225.169C205.206 225.169 205.784 225.109 206.442 224.989C207.12 224.869 207.619 224.769 207.938 224.689L210.331 236.326C209.593 236.546 208.536 236.816 207.16 237.136C205.804 237.456 204.189 237.666 202.314 237.766C198.525 237.966 195.344 237.576 192.771 236.596C190.199 235.597 188.264 234.027 186.968 231.887C185.672 229.748 185.044 227.069 185.083 223.849V180Z" fill="white"/>
<path d="M147.653 237.826C144.722 237.826 142.129 237.346 139.875 236.386C137.642 235.407 135.887 233.927 134.611 231.947C133.334 229.968 132.696 227.448 132.696 224.389C132.696 221.87 133.125 219.72 133.982 217.941C134.84 216.141 136.036 214.672 137.572 213.532C139.108 212.392 140.893 211.522 142.927 210.922C144.981 210.323 147.194 209.933 149.568 209.753C152.14 209.553 154.204 209.313 155.76 209.033C157.335 208.733 158.472 208.323 159.17 207.803C159.868 207.263 160.217 206.554 160.217 205.674V205.554C160.217 204.354 159.758 203.434 158.841 202.794C157.924 202.155 156.747 201.835 155.311 201.835C153.736 201.835 152.449 202.185 151.452 202.884C150.475 203.564 149.887 204.614 149.687 206.034H134.491C134.69 203.234 135.578 200.655 137.153 198.296C138.749 195.916 141.072 194.017 144.123 192.597C147.174 191.157 150.983 190.437 155.55 190.437C158.841 190.437 161.792 190.827 164.405 191.607C167.017 192.367 169.241 193.437 171.076 194.816C172.91 196.176 174.306 197.776 175.264 199.615C176.241 201.435 176.729 203.414 176.729 205.554V237.106H161.294V230.628H160.935C160.018 232.347 158.901 233.737 157.585 234.797C156.288 235.856 154.803 236.626 153.127 237.106C151.472 237.586 149.647 237.826 147.653 237.826ZM153.038 227.388C154.294 227.388 155.471 227.129 156.567 226.609C157.684 226.089 158.592 225.339 159.29 224.359C159.988 223.379 160.337 222.19 160.337 220.79V216.951C159.898 217.131 159.429 217.301 158.931 217.461C158.452 217.621 157.933 217.771 157.375 217.911C156.837 218.051 156.258 218.181 155.64 218.301C155.042 218.421 154.414 218.531 153.756 218.631C152.479 218.831 151.432 219.16 150.615 219.62C149.817 220.06 149.219 220.61 148.82 221.27C148.441 221.91 148.251 222.63 148.251 223.429C148.251 224.709 148.7 225.689 149.597 226.369C150.495 227.049 151.642 227.388 153.038 227.388Z" fill="white"/>
<path d="M108.144 237.946C103.238 237.946 99.01 237.006 95.4602 235.127C91.9303 233.227 89.2082 230.508 87.2937 226.969C85.3991 223.409 84.4519 219.15 84.4519 214.192C84.4519 209.433 85.4091 205.274 87.3236 201.715C89.2381 198.156 91.9403 195.386 95.4303 193.407C98.9202 191.427 103.038 190.437 107.785 190.437C111.255 190.437 114.396 190.977 117.208 192.057C120.02 193.137 122.423 194.706 124.417 196.766C126.411 198.805 127.947 201.285 129.024 204.204C130.101 207.123 130.639 210.413 130.639 214.072V217.911H89.5971V208.793H115.443C115.423 207.473 115.084 206.314 114.426 205.314C113.787 204.294 112.92 203.504 111.823 202.944C110.746 202.365 109.52 202.075 108.144 202.075C106.808 202.075 105.581 202.365 104.464 202.944C103.347 203.504 102.45 204.284 101.772 205.284C101.114 206.284 100.765 207.453 100.725 208.793V218.631C100.725 220.11 101.034 221.43 101.652 222.59C102.271 223.749 103.158 224.659 104.315 225.319C105.471 225.979 106.867 226.309 108.503 226.309C109.639 226.309 110.676 226.149 111.614 225.829C112.571 225.509 113.389 225.049 114.067 224.449C114.745 223.829 115.243 223.09 115.562 222.23H130.639C130.12 225.429 128.894 228.208 126.96 230.568C125.025 232.907 122.462 234.727 119.272 236.026C116.101 237.306 112.391 237.946 108.144 237.946Z" fill="white"/>
<path d="M9.43461 237.106V191.037H25.1095V199.795H25.5881C26.5454 196.916 28.1807 194.636 30.494 192.957C32.8074 191.277 35.5594 190.437 38.7503 190.437C41.981 190.437 44.763 191.297 47.0962 193.017C49.4295 194.716 50.8355 196.976 51.3141 199.795H51.7927C52.5705 196.976 54.2257 194.716 56.7584 193.017C59.2912 191.297 62.2626 190.437 65.6728 190.437C70.0801 190.437 73.6498 191.857 76.382 194.696C79.1341 197.536 80.5101 201.315 80.5101 206.034V237.106H63.9976V210.233C63.9976 208.213 63.4891 206.634 62.472 205.494C61.4549 204.334 60.0889 203.754 58.3738 203.754C56.6787 203.754 55.3325 204.334 54.3354 205.494C53.3582 206.634 52.8696 208.213 52.8696 210.233V237.106H37.0751V210.233C37.0751 208.213 36.5665 206.634 35.5495 205.494C34.5324 204.334 33.1663 203.754 31.4513 203.754C30.3145 203.754 29.3373 204.014 28.5197 204.534C27.702 205.054 27.0639 205.804 26.6052 206.783C26.1665 207.743 25.9471 208.893 25.9471 210.233V237.106H9.43461Z" fill="white"/>
</g>
<defs>
<clipPath id="clip0_0_28">
<rect width="226" height="317" fill="white"/>
</clipPath>
</defs>
</svg>
